<?xml version="1.0" encoding="utf-8" standalone="no"?>
<!DOCTYPE svg PUBLIC "-//W3C//DTD SVG 1.1//EN"
"http://www.w3.org/Graphics/SVG/1.1/DTD/svg11.dtd">

<svg xmlns="http://www.w3.org/2000/svg" version="1.1" xmlns:xlink="http://www.w3.org/1999/xlink" width="36.1016" height="38.8859" viewBox="0 0 36.1016 38.8859"><path stroke="#1987e5" stroke-width="6" stroke-linejoin="round" fill="#1987e5" d="M 3 15.5609 C 5.22083 15.6589 7.83906 15.7078 10.8547 15.7078 C 13.8703 15.7078 16.0495 15.6833 17.3922 15.6344 C 16.6839 14.0958 16.1833 12.924 15.8906 12.1188 C 13.5958 12.1677 11.4169 12.1922 9.35391 12.1922 C 7.29089 12.1922 5.58802 12.1552 4.24531 12.0813 L 4.17187 7.46719 C 5.85625 7.54115 7.43698 7.57813 8.91406 7.57813 C 10.3911 7.57813 12.2281 7.55365 14.425 7.50469 C 14.0833 6.28385 13.7536 4.91667 13.4359 3.40313 L 18.4531 3 C 18.8927 5.075 19.2349 6.5151 19.4797 7.32031 C 23.5568 7.12552 27.3651 6.85729 30.9047 6.51563 L 31.0516 11.1656 C 27.7068 11.5083 24.3984 11.7651 21.1266 11.9359 C 21.5661 13.0099 22.1401 14.1693 22.8484 15.4141 C 26.7297 15.1943 30.099 14.9016 32.9562 14.5359 L 33.1016 19.2594 C 31.5391 19.4302 29.1833 19.638 26.0344 19.8828 C 27.3771 21.4203 28.7563 22.763 30.1719 23.9109 L 26.3641 26.8031 C 23.8984 24.924 21.7865 22.7266 20.0281 20.2109 C 16.9281 20.3339 14.2 20.3953 11.8438 20.3953 C 9.4875 20.3953 6.60052 20.3339 3.18281 20.2109 Z M 5.0875 27.9391 C 5.0875 26.4005 5.4901 24.9724 6.29531 23.6547 L 11.2391 24.4594 C 10.5307 25.4854 10.1766 26.4255 10.1766 27.2797 C 10.1766 29.8432 13.3141 31.125 19.5891 31.125 C 23.1047 31.125 26.425 30.7833 29.55 30.1 L 29.1469 35.2266 C 26.1437 35.6661 23.0677 35.8859 19.9188 35.8859 C 10.0313 35.8859 5.0875 33.237 5.0875 27.9391 Z" /><path fill="#ffffff" d="M 3 15.5609 C 5.22083 15.6589 7.83906 15.7078 10.8547 15.7078 C 13.8703 15.7078 16.0495 15.6833 17.3922 15.6344 C 16.6839 14.0958 16.1833 12.924 15.8906 12.1188 C 13.5958 12.1677 11.4169 12.1922 9.35391 12.1922 C 7.29089 12.1922 5.58802 12.1552 4.24531 12.0813 L 4.17187 7.46719 C 5.85625 7.54115 7.43698 7.57813 8.91406 7.57813 C 10.3911 7.57813 12.2281 7.55365 14.425 7.50469 C 14.0833 6.28385 13.7536 4.91667 13.4359 3.40313 L 18.4531 3 C 18.8927 5.075 19.2349 6.5151 19.4797 7.32031 C 23.5568 7.12552 27.3651 6.85729 30.9047 6.51563 L 31.0516 11.1656 C 27.7068 11.5083 24.3984 11.7651 21.1266 11.9359 C 21.5661 13.0099 22.1401 14.1693 22.8484 15.4141 C 26.7297 15.1943 30.099 14.9016 32.9562 14.5359 L 33.1016 19.2594 C 31.5391 19.4302 29.1833 19.638 26.0344 19.8828 C 27.3771 21.4203 28.7563 22.763 30.1719 23.9109 L 26.3641 26.8031 C 23.8984 24.924 21.7865 22.7266 20.0281 20.2109 C 16.9281 20.3339 14.2 20.3953 11.8438 20.3953 C 9.4875 20.3953 6.60052 20.3339 3.18281 20.2109 Z M 5.0875 27.9391 C 5.0875 26.4005 5.4901 24.9724 6.29531 23.6547 L 11.2391 24.4594 C 10.5307 25.4854 10.1766 26.4255 10.1766 27.2797 C 10.1766 29.8432 13.3141 31.125 19.5891 31.125 C 23.1047 31.125 26.425 30.7833 29.55 30.1 L 29.1469 35.2266 C 26.1437 35.6661 23.0677 35.8859 19.9188 35.8859 C 10.0313 35.8859 5.0875 33.237 5.0875 27.9391 Z" /></svg>