<?xml version="1.0" encoding="utf-8" standalone="no"?>
<!DOCTYPE svg PUBLIC "-//W3C//DTD SVG 1.1//EN"
"http://www.w3.org/Graphics/SVG/1.1/DTD/svg11.dtd">

<svg xmlns="http://www.w3.org/2000/svg" version="1.1" xmlns:xlink="http://www.w3.org/1999/xlink" width="37.275" height="38.9234" viewBox="0 0 37.275 38.9234"><path stroke="#1987e5" stroke-width="6" stroke-linejoin="round" fill="#1987e5" d="M 5.63594 33.8906 C 3.87865 32.5354 3 30.7227 3 28.4523 C 3 26.182 3.95209 24.3266 5.85625 22.8859 C 7.76042 21.4453 10.2385 20.725 13.2906 20.725 C 14.3896 20.725 15.5005 20.8224 16.6234 21.0172 C 16.6234 12.3016 16.55 6.29583 16.4031 3 L 21.4938 3 L 21.4938 9.88438 L 32.8094 9.59219 L 32.8094 14.3891 L 21.4938 14.6828 L 21.4938 22.4094 C 23.7885 23.3375 26.1323 24.5703 28.525 26.1078 C 29.2813 26.5724 30.3797 27.3049 31.8203 28.3055 C 33.2609 29.306 34.0792 29.8677 34.275 29.9906 L 31.4172 34.5672 C 28.537 31.9547 25.1927 29.7208 21.3844 27.8656 C 20.8708 33.2375 17.9531 35.9234 12.6313 35.9234 C 9.72604 35.9234 7.39427 35.2458 5.63594 33.8906 Z M 9.27969 26.1078 C 8.46198 26.6203 8.05313 27.3284 8.05313 28.232 C 8.05313 29.1357 8.43776 29.8438 9.20703 30.3563 C 9.9763 30.8687 11.0568 31.125 12.4484 31.125 C 13.8401 31.125 14.8289 30.7711 15.4148 30.0633 C 16.0008 29.3555 16.3667 27.988 16.5125 25.9609 C 15.0729 25.5464 13.7122 25.3391 12.4305 25.3391 C 11.1487 25.3391 10.0984 25.5953 9.27969 26.1078 Z" /><path fill="#ffffff" d="M 5.63594 33.8906 C 3.87865 32.5354 3 30.7227 3 28.4523 C 3 26.182 3.95209 24.3266 5.85625 22.8859 C 7.76042 21.4453 10.2385 20.725 13.2906 20.725 C 14.3896 20.725 15.5005 20.8224 16.6234 21.0172 C 16.6234 12.3016 16.55 6.29583 16.4031 3 L 21.4938 3 L 21.4938 9.88438 L 32.8094 9.59219 L 32.8094 14.3891 L 21.4938 14.6828 L 21.4938 22.4094 C 23.7885 23.3375 26.1323 24.5703 28.525 26.1078 C 29.2813 26.5724 30.3797 27.3049 31.8203 28.3055 C 33.2609 29.306 34.0792 29.8677 34.275 29.9906 L 31.4172 34.5672 C 28.537 31.9547 25.1927 29.7208 21.3844 27.8656 C 20.8708 33.2375 17.9531 35.9234 12.6313 35.9234 C 9.72604 35.9234 7.39427 35.2458 5.63594 33.8906 Z M 9.27969 26.1078 C 8.46198 26.6203 8.05313 27.3284 8.05313 28.232 C 8.05313 29.1357 8.43776 29.8438 9.20703 30.3563 C 9.9763 30.8687 11.0568 31.125 12.4484 31.125 C 13.8401 31.125 14.8289 30.7711 15.4148 30.0633 C 16.0008 29.3555 16.3667 27.988 16.5125 25.9609 C 15.0729 25.5464 13.7122 25.3391 12.4305 25.3391 C 11.1487 25.3391 10.0984 25.5953 9.27969 26.1078 Z" /></svg>