<?xml version="1.0" encoding="utf-8" standalone="no"?>
<!DOCTYPE svg PUBLIC "-//W3C//DTD SVG 1.1//EN"
"http://www.w3.org/Graphics/SVG/1.1/DTD/svg11.dtd">

<svg xmlns="http://www.w3.org/2000/svg" version="1.1" xmlns:xlink="http://www.w3.org/1999/xlink" width="39.5453" height="39.1422" viewBox="0 0 39.5453 39.1422"><path stroke="#1987e5" stroke-width="6" stroke-linejoin="round" fill="#1987e5" d="M 3 15.3766 C 4.39167 14.962 5.7224 14.5349 6.99219 14.0953 L 9.775 13.1797 C 8.99375 10.6901 8.05417 8.07813 6.95625 5.34375 L 11.8625 3.9875 C 12.8396 6.52708 13.7188 9.09062 14.5 11.6781 C 17.5271 10.751 19.6146 10.1406 20.7625 9.84688 C 19.7365 7.57708 18.8328 5.86823 18.0516 4.72031 L 22.8484 3 C 23.7526 4.46458 24.7292 6.39323 25.7781 8.78594 C 26.6823 8.66302 27.4151 8.60156 27.9766 8.60156 C 30.4422 8.60156 32.4867 9.45625 34.1102 11.1656 C 35.7336 12.875 36.5453 15.0846 36.5453 17.7945 C 36.5453 20.5044 35.5443 22.6406 33.5422 24.2031 C 31.5401 25.7656 28.7448 26.5469 25.1563 26.5469 C 24.1802 26.5469 23.2646 26.4979 22.4094 26.4 L 20.4688 21.0172 C 22.1531 21.3828 23.7276 21.5656 25.1922 21.5656 C 29.3922 21.5656 31.4922 20.2354 31.4922 17.575 C 31.4922 16.3542 31.1076 15.3469 30.3383 14.5531 C 29.569 13.7594 28.4763 13.3625 27.0602 13.3625 C 25.644 13.3625 21.9089 14.3146 15.8547 16.2188 C 18.1984 24.276 19.7245 30.624 20.4328 35.2625 L 15.1594 36.1422 C 14.4021 30.7464 13.0589 24.6302 11.1297 17.7938 C 8.68906 18.624 6.55313 19.4177 4.72188 20.175 Z" /><path fill="#ffffff" d="M 3 15.3766 C 4.39167 14.962 5.7224 14.5349 6.99219 14.0953 L 9.775 13.1797 C 8.99375 10.6901 8.05417 8.07813 6.95625 5.34375 L 11.8625 3.9875 C 12.8396 6.52708 13.7188 9.09062 14.5 11.6781 C 17.5271 10.751 19.6146 10.1406 20.7625 9.84688 C 19.7365 7.57708 18.8328 5.86823 18.0516 4.72031 L 22.8484 3 C 23.7526 4.46458 24.7292 6.39323 25.7781 8.78594 C 26.6823 8.66302 27.4151 8.60156 27.9766 8.60156 C 30.4422 8.60156 32.4867 9.45625 34.1102 11.1656 C 35.7336 12.875 36.5453 15.0846 36.5453 17.7945 C 36.5453 20.5044 35.5443 22.6406 33.5422 24.2031 C 31.5401 25.7656 28.7448 26.5469 25.1563 26.5469 C 24.1802 26.5469 23.2646 26.4979 22.4094 26.4 L 20.4688 21.0172 C 22.1531 21.3828 23.7276 21.5656 25.1922 21.5656 C 29.3922 21.5656 31.4922 20.2354 31.4922 17.575 C 31.4922 16.3542 31.1076 15.3469 30.3383 14.5531 C 29.569 13.7594 28.4763 13.3625 27.0602 13.3625 C 25.644 13.3625 21.9089 14.3146 15.8547 16.2188 C 18.1984 24.276 19.7245 30.624 20.4328 35.2625 L 15.1594 36.1422 C 14.4021 30.7464 13.0589 24.6302 11.1297 17.7938 C 8.68906 18.624 6.55313 19.4177 4.72188 20.175 Z" /></svg>