<?xml version="1.0" encoding="utf-8" standalone="no"?>
<!DOCTYPE svg PUBLIC "-//W3C//DTD SVG 1.1//EN"
"http://www.w3.org/Graphics/SVG/1.1/DTD/svg11.dtd">

<svg xmlns="http://www.w3.org/2000/svg" version="1.1" xmlns:xlink="http://www.w3.org/1999/xlink" width="39.3984" height="37.6406" viewBox="0 0 39.3984 37.6406"><path stroke="#1987e5" stroke-width="6" stroke-linejoin="round" fill="#1987e5" d="M 3 15.3422 L 3 10.6547 L 9.40781 10.5078 L 9.40781 3.87969 L 14.3156 3.87969 L 14.3156 10.3984 L 25.3016 10.1406 L 25.3016 3 L 29.9891 3 L 29.9891 10.0313 L 36.3984 9.88438 L 36.3984 14.5719 L 29.9891 14.7188 L 29.9891 16.55 C 29.9891 19.8219 29.5435 22.0802 28.6523 23.325 C 27.7612 24.5698 26.1438 25.1922 23.8 25.1922 L 19.6984 24.9359 L 18.6 19.9563 C 20.6021 20.249 22.0609 20.3953 22.9766 20.3953 C 23.8922 20.3953 24.5086 20.1023 24.8258 19.5164 C 25.143 18.9305 25.3016 17.6729 25.3016 15.7438 L 25.3016 14.8281 L 14.3156 15.0859 L 14.3156 26.5469 C 14.3156 27.6948 14.7 28.5068 15.4688 28.9828 C 16.2375 29.4589 17.562 29.6969 19.4422 29.6969 C 25.0089 29.6969 29.4891 29.4526 32.8828 28.9641 L 32.625 34.1656 C 29.4521 34.4823 26.1198 34.6406 22.6281 34.6406 C 19.1365 34.6406 16.6156 34.4758 15.0656 34.1461 C 13.5156 33.8164 12.301 33.2125 11.4219 32.3344 C 10.0792 31.0396 9.40781 29.2328 9.40781 26.9141 L 9.40781 15.1953 Z" /><path fill="#ffffff" d="M 3 15.3422 L 3 10.6547 L 9.40781 10.5078 L 9.40781 3.87969 L 14.3156 3.87969 L 14.3156 10.3984 L 25.3016 10.1406 L 25.3016 3 L 29.9891 3 L 29.9891 10.0313 L 36.3984 9.88438 L 36.3984 14.5719 L 29.9891 14.7188 L 29.9891 16.55 C 29.9891 19.8219 29.5435 22.0802 28.6523 23.325 C 27.7612 24.5698 26.1438 25.1922 23.8 25.1922 L 19.6984 24.9359 L 18.6 19.9563 C 20.6021 20.249 22.0609 20.3953 22.9766 20.3953 C 23.8922 20.3953 24.5086 20.1023 24.8258 19.5164 C 25.143 18.9305 25.3016 17.6729 25.3016 15.7438 L 25.3016 14.8281 L 14.3156 15.0859 L 14.3156 26.5469 C 14.3156 27.6948 14.7 28.5068 15.4688 28.9828 C 16.2375 29.4589 17.562 29.6969 19.4422 29.6969 C 25.0089 29.6969 29.4891 29.4526 32.8828 28.9641 L 32.625 34.1656 C 29.4521 34.4823 26.1198 34.6406 22.6281 34.6406 C 19.1365 34.6406 16.6156 34.4758 15.0656 34.1461 C 13.5156 33.8164 12.301 33.2125 11.4219 32.3344 C 10.0792 31.0396 9.40781 29.2328 9.40781 26.9141 L 9.40781 15.1953 Z" /></svg>