<?xml version="1.0" encoding="utf-8" standalone="no"?>
<!DOCTYPE svg PUBLIC "-//W3C//DTD SVG 1.1//EN"
"http://www.w3.org/Graphics/SVG/1.1/DTD/svg11.dtd">

<svg xmlns="http://www.w3.org/2000/svg" version="1.1" xmlns:xlink="http://www.w3.org/1999/xlink" width="36.2859" height="40.1297" viewBox="0 0 36.2859 40.1297"><path stroke="#1987e5" stroke-width="6" stroke-linejoin="round" fill="#1987e5" d="M 3 28.3781 C 3 23.8365 5.89323 20.15 11.6797 17.3188 C 10.4589 14.0469 9.84844 9.90833 9.84844 4.90313 L 15.2312 4.72031 C 15.2563 8.77344 15.7203 12.3016 16.6234 15.3047 C 19.4068 14.3766 23.6427 13.2656 29.3313 11.9719 L 30.1359 17.0625 C 24.6672 17.9656 19.7969 19.2469 15.525 20.9063 C 13.2542 21.7854 11.4352 22.8294 10.068 24.0383 C 8.70078 25.2471 8.01719 26.5656 8.01719 27.9937 C 8.01719 29.4219 8.86563 30.4839 10.5625 31.1797 C 12.2594 31.8755 15.1096 32.2234 19.1133 32.2234 C 23.1169 32.2234 27.0479 31.8813 30.9063 31.1969 L 30.9063 36.4344 C 27.4146 36.8979 23.6792 37.1297 19.7 37.1297 C 13.8646 37.1297 9.6224 36.4339 6.97344 35.0422 C 4.32448 33.6505 3 31.4292 3 28.3781 Z M 23.6172 4.68438 L 26.3281 4.025 C 27.1823 5.51354 28.0125 7.42969 28.8188 9.77344 L 26.0719 10.5797 C 25.1688 8.01615 24.3505 6.05104 23.6172 4.68438 Z M 28.1219 3.69531 L 30.7953 3 C 31.7474 4.73333 32.5776 6.6375 33.2859 8.7125 L 30.5766 9.48125 C 29.8193 7.23542 29.001 5.30677 28.1219 3.69531 Z" /><path fill="#ffffff" d="M 3 28.3781 C 3 23.8365 5.89323 20.15 11.6797 17.3188 C 10.4589 14.0469 9.84844 9.90833 9.84844 4.90313 L 15.2312 4.72031 C 15.2563 8.77344 15.7203 12.3016 16.6234 15.3047 C 19.4068 14.3766 23.6427 13.2656 29.3313 11.9719 L 30.1359 17.0625 C 24.6672 17.9656 19.7969 19.2469 15.525 20.9063 C 13.2542 21.7854 11.4352 22.8294 10.068 24.0383 C 8.70078 25.2471 8.01719 26.5656 8.01719 27.9937 C 8.01719 29.4219 8.86563 30.4839 10.5625 31.1797 C 12.2594 31.8755 15.1096 32.2234 19.1133 32.2234 C 23.1169 32.2234 27.0479 31.8813 30.9063 31.1969 L 30.9063 36.4344 C 27.4146 36.8979 23.6792 37.1297 19.7 37.1297 C 13.8646 37.1297 9.6224 36.4339 6.97344 35.0422 C 4.32448 33.6505 3 31.4292 3 28.3781 Z M 23.6172 4.68438 L 26.3281 4.025 C 27.1823 5.51354 28.0125 7.42969 28.8188 9.77344 L 26.0719 10.5797 C 25.1688 8.01615 24.3505 6.05104 23.6172 4.68438 Z M 28.1219 3.69531 L 30.7953 3 C 31.7474 4.73333 32.5776 6.6375 33.2859 8.7125 L 30.5766 9.48125 C 29.8193 7.23542 29.001 5.30677 28.1219 3.69531 Z" /></svg>