<?xml version="1.0" encoding="utf-8" standalone="no"?>
<!DOCTYPE svg PUBLIC "-//W3C//DTD SVG 1.1//EN"
"http://www.w3.org/Graphics/SVG/1.1/DTD/svg11.dtd">

<svg xmlns="http://www.w3.org/2000/svg" version="1.1" xmlns:xlink="http://www.w3.org/1999/xlink" width="286.74" height="36.5927" viewBox="0 0 286.74 36.5927"><path stroke="#ffffff" stroke-width="8" stroke-linejoin="round" fill="#ffffff" d="M 29.2405 14.2563 L 29.2405 6.41233 L 4 6.41233 L 4 9.21233 L 26.4405 9.21233 L 26.4405 14.1611 C 26.4405 24.8518 21.591 28.9123 10.5927 28.9123 L 5.07765 28.9123 L 5.07765 31.7123 L 10.6561 31.7123 C 23.6512 31.7123 29.2405 26.2159 29.2405 14.2563 Z" /><path stroke="#ffffff" stroke-width="8" stroke-linejoin="round" fill="#ffffff" d="M 61.5405 9.58833 L 58.9405 9.58833 C 58.6875 12.7262 56.2513 14.2793 52.3278 15.3252 L 38.9546 18.9068 L 38.9546 21.4425 L 50.8405 18.2412 L 50.8405 31.7118 L 53.3405 31.7118 L 53.3405 17.5756 C 57.9598 16.2444 61.16 14.2159 61.5405 9.58833 Z" /><path stroke="#ffffff" stroke-width="8" stroke-linejoin="round" fill="#ffffff" d="M 92.5178 20.2123 L 92.5178 17.2123 L 67.827 17.2123 L 67.827 20.2123 Z" /><path stroke="#ffffff" stroke-width="8" stroke-linejoin="round" fill="#ffffff" d="M 124.54 9.41233 L 124.54 4.31233 L 122.74 4.31233 L 122.74 9.41233 Z M 121.14 9.41233 L 121.14 4.31233 L 119.44 4.31233 L 119.44 9.41233 Z M 123.576 31.7577 C 122.837 25.1016 120.12 13.3109 117.149 5.6345 L 114.094 5.6345 C 116.99 12.6453 119.873 24.8164 120.553 31.7577 Z M 103.94 5.6345 L 100.84 5.6345 C 100.555 12.6453 98.6852 23.9923 95.3254 31.726 L 98.5901 31.726 C 101.863 24.2775 103.557 12.8038 103.94 5.6345 Z" /><path stroke="#ffffff" stroke-width="8" stroke-linejoin="round" fill="#ffffff" d="M 155.918 20.2123 L 155.918 17.2123 L 131.227 17.2123 L 131.227 20.2123 Z" /><path stroke="#ffffff" stroke-width="8" stroke-linejoin="round" fill="#ffffff" d="M 187.415 5.10934 L 185.672 5.10934 L 183.971 12.8018 L 185.703 12.8018 Z M 178.671 12.8018 C 178.456 10.1806 177.765 7.23295 176.973 5.10934 L 175.198 5.10934 C 176.022 7.29634 176.782 10.3724 176.878 12.8018 Z M 187.352 28.4784 L 187.352 25.1644 C 185.513 23.5712 184.626 19.9755 184.34 16.7123 L 187.352 16.7123 L 187.352 14.4123 L 182.34 14.4123 L 182.34 4 L 180.24 4 L 180.24 14.4123 L 175.261 14.4123 L 175.261 16.7123 L 178.24 16.7123 C 177.924 19.9755 177.004 23.5712 175.261 25.1644 L 175.261 28.4784 C 178.364 25.8336 179.564 21.4362 179.84 16.7123 L 180.24 16.7123 L 180.24 28.3509 L 182.34 28.3509 L 182.34 16.7123 L 182.74 16.7123 C 183.048 21.4362 184.156 25.8336 187.352 28.4784 Z M 187.352 32.2123 L 187.352 29.9123 L 174.183 29.9123 L 174.183 4 L 171.775 4 L 171.775 32.2123 Z M 170.19 21.5637 L 168.859 14.0965 L 166.925 14.0965 L 167.527 17.5396 C 166.767 17.9214 165.847 18.1123 164.611 18.1123 L 161.727 18.1123 L 169.334 7.89855 L 166.703 7.89855 L 164.897 10.2123 L 161.347 10.2123 L 166.101 4 L 163.344 4 L 159.001 9.86368 L 159.001 12.6123 L 163.09 12.6123 L 159.001 18.0487 L 159.001 20.5123 L 163.375 20.5123 L 163.375 32.5927 L 165.626 32.5927 L 165.626 20.4807 C 166.608 20.3544 167.432 20.1018 167.971 19.8491 L 168.288 21.5637 Z M 170 32.244 L 169.144 23.1888 L 167.274 23.1888 L 168.161 32.244 Z M 161.79 23.1888 L 159.92 23.1888 C 159.92 27.3631 159.477 30.7945 158.97 32.244 L 160.84 32.244 C 161.252 30.9521 161.79 27.4269 161.79 23.1888 Z" /><path stroke="#ffffff" stroke-width="8" stroke-linejoin="round" fill="#ffffff" d="M 219.24 7.91233 L 219.24 5.51233 L 212.508 5.51233 L 212.508 4.02264 L 209.811 4.02264 L 209.811 5.51233 L 202.84 5.51233 L 202.84 7.91233 L 209.811 7.91233 L 209.811 11.2123 L 203.715 11.2123 L 203.715 13.5123 L 218.397 13.5123 L 218.397 11.2123 L 212.508 11.2123 L 212.508 7.91233 Z M 219.24 22.6123 L 219.24 16.5123 L 202.84 16.5123 L 202.84 22.6123 L 205.34 22.6123 L 205.34 18.8829 L 216.74 18.8829 L 216.74 22.6123 Z M 219.24 31.5025 L 219.24 28.6653 C 218.584 29.2327 217.834 29.5164 217.084 29.5164 L 215.426 29.5164 C 214.9 29.5164 214.44 29.2642 214.44 28.5392 L 214.44 21.4745 L 212.04 21.4745 L 212.04 29.3273 C 212.04 31.0296 213.194 32.1523 214.868 32.1523 L 217.115 32.1523 C 217.897 32.1523 218.553 31.9723 219.24 31.5025 Z M 209.34 23.4637 L 209.34 21.4745 L 206.94 21.4745 L 206.94 23.4637 C 206.94 26.6792 205.54 29.2958 202.84 29.8317 L 202.84 32.5123 C 207.319 31.7547 209.34 28.0978 209.34 23.4637 Z M 202.308 21.6009 L 200.93 14.0728 L 199.05 14.0728 L 199.645 17.587 C 198.862 17.9663 197.954 18.1559 196.556 18.1559 L 193.444 18.1559 L 201.556 7.84999 L 198.862 7.84999 L 196.971 10.2191 L 193.063 10.2191 L 198.016 4.02264 L 195.314 4.02264 L 190.718 9.86669 L 190.718 12.5799 L 195.06 12.5799 L 190.718 18.0927 L 190.718 20.558 L 195.44 20.558 L 195.44 32.5123 L 197.64 32.5123 L 197.64 20.5264 C 198.612 20.4315 199.52 20.2103 200.052 19.9575 L 200.366 21.6009 Z M 202.214 32.1823 L 201.305 23.2115 L 199.426 23.2115 L 200.334 32.1823 Z M 193.666 23.2115 L 191.732 23.2115 C 191.732 26.8684 191.352 30.5252 190.686 32.1823 L 192.651 32.1823 C 193.063 30.8405 193.666 27.1521 193.666 23.2115 Z" /><path stroke="#ffffff" stroke-width="8" stroke-linejoin="round" fill="#ffffff" d="M 251.784 16.2123 L 251.784 13.7123 L 244.668 13.7123 L 244.668 8.81233 L 250.928 8.81233 L 250.928 6.31233 L 244.668 6.31233 L 244.668 4.01233 L 241.885 4.01233 L 241.885 6.31233 L 235.777 6.31233 L 235.777 8.81233 L 241.885 8.81233 L 241.885 13.7123 L 234.923 13.7123 L 234.923 16.2123 Z M 251.784 23.2123 L 251.784 20.7123 L 250.04 20.7123 L 250.04 17.8247 L 247.323 17.8247 L 247.323 20.7123 L 234.923 20.7123 L 234.923 23.2123 L 247.323 23.2123 L 247.323 28.6427 C 247.323 29.303 246.785 29.869 246.09 29.869 L 243.34 29.869 L 243.34 32.5239 L 246.564 32.5239 C 248.555 32.5239 250.04 31.1927 250.04 29.0515 L 250.04 23.2123 Z M 241.283 30.8123 L 239.353 24.7123 L 236.695 24.7123 L 238.625 30.8123 Z M 233.34 31.6681 L 233.34 4.57948 L 224.14 4.57948 L 224.14 31.6681 Z M 230.94 16.4123 L 226.54 16.4123 L 226.54 7.17772 L 230.94 7.17772 Z M 230.94 29.1143 L 226.54 29.1143 L 226.54 19.0123 L 230.94 19.0123 Z" /><path stroke="#ffffff" stroke-width="8" stroke-linejoin="round" fill="#ffffff" d="M 282.74 29.1498 L 282.74 4.61233 L 270.824 4.61233 L 270.824 16.6123 L 279.94 16.6123 L 279.94 28.8061 C 279.94 29.4623 279.463 30.0248 278.763 30.0248 L 276.6 30.0248 L 276.6 32.519 L 279.241 32.519 C 281.245 32.519 282.74 31.0927 282.74 29.1498 Z M 275.74 30.7123 L 275.74 19.1123 L 262.792 19.1123 L 262.792 30.7123 Z M 267.74 16.6123 L 267.74 4.61233 L 255.84 4.61233 L 255.84 32.519 L 258.54 32.519 L 258.54 16.6123 Z M 279.94 9.71233 L 273.459 9.71233 L 273.459 6.91233 L 279.94 6.91233 Z M 279.94 14.4123 L 273.459 14.4123 L 273.459 11.6123 L 279.94 11.6123 Z M 265.14 9.71233 L 258.54 9.71233 L 258.54 6.91233 L 265.14 6.91233 Z M 265.14 14.4123 L 258.54 14.4123 L 258.54 11.6123 L 265.14 11.6123 Z M 273.24 24.1123 L 265.333 24.1123 L 265.333 21.2123 L 273.24 21.2123 Z M 273.24 28.7123 L 265.333 28.7123 L 265.333 25.8123 L 273.24 25.8123 Z" /><path fill="#000000" d="M 29.2405 14.2563 L 29.2405 6.41233 L 4 6.41233 L 4 9.21233 L 26.4405 9.21233 L 26.4405 14.1611 C 26.4405 24.8518 21.591 28.9123 10.5927 28.9123 L 5.07765 28.9123 L 5.07765 31.7123 L 10.6561 31.7123 C 23.6512 31.7123 29.2405 26.2159 29.2405 14.2563 Z" /><path fill="#000000" d="M 61.5405 9.58833 L 58.9405 9.58833 C 58.6875 12.7262 56.2513 14.2793 52.3278 15.3252 L 38.9546 18.9068 L 38.9546 21.4425 L 50.8405 18.2412 L 50.8405 31.7118 L 53.3405 31.7118 L 53.3405 17.5756 C 57.9598 16.2444 61.16 14.2159 61.5405 9.58833 Z" /><path fill="#000000" d="M 92.5178 20.2123 L 92.5178 17.2123 L 67.827 17.2123 L 67.827 20.2123 Z" /><path fill="#000000" d="M 124.54 9.41233 L 124.54 4.31233 L 122.74 4.31233 L 122.74 9.41233 Z M 121.14 9.41233 L 121.14 4.31233 L 119.44 4.31233 L 119.44 9.41233 Z M 123.576 31.7577 C 122.837 25.1016 120.12 13.3109 117.149 5.6345 L 114.094 5.6345 C 116.99 12.6453 119.873 24.8164 120.553 31.7577 Z M 103.94 5.6345 L 100.84 5.6345 C 100.555 12.6453 98.6852 23.9923 95.3254 31.726 L 98.5901 31.726 C 101.863 24.2775 103.557 12.8038 103.94 5.6345 Z" /><path fill="#000000" d="M 155.918 20.2123 L 155.918 17.2123 L 131.227 17.2123 L 131.227 20.2123 Z" /><path fill="#000000" d="M 187.415 5.10934 L 185.672 5.10934 L 183.971 12.8018 L 185.703 12.8018 Z M 178.671 12.8018 C 178.456 10.1806 177.765 7.23295 176.973 5.10934 L 175.198 5.10934 C 176.022 7.29634 176.782 10.3724 176.878 12.8018 Z M 187.352 28.4784 L 187.352 25.1644 C 185.513 23.5712 184.626 19.9755 184.34 16.7123 L 187.352 16.7123 L 187.352 14.4123 L 182.34 14.4123 L 182.34 4 L 180.24 4 L 180.24 14.4123 L 175.261 14.4123 L 175.261 16.7123 L 178.24 16.7123 C 177.924 19.9755 177.004 23.5712 175.261 25.1644 L 175.261 28.4784 C 178.364 25.8336 179.564 21.4362 179.84 16.7123 L 180.24 16.7123 L 180.24 28.3509 L 182.34 28.3509 L 182.34 16.7123 L 182.74 16.7123 C 183.048 21.4362 184.156 25.8336 187.352 28.4784 Z M 187.352 32.2123 L 187.352 29.9123 L 174.183 29.9123 L 174.183 4 L 171.775 4 L 171.775 32.2123 Z M 170.19 21.5637 L 168.859 14.0965 L 166.925 14.0965 L 167.527 17.5396 C 166.767 17.9214 165.847 18.1123 164.611 18.1123 L 161.727 18.1123 L 169.334 7.89855 L 166.703 7.89855 L 164.897 10.2123 L 161.347 10.2123 L 166.101 4 L 163.344 4 L 159.001 9.86368 L 159.001 12.6123 L 163.09 12.6123 L 159.001 18.0487 L 159.001 20.5123 L 163.375 20.5123 L 163.375 32.5927 L 165.626 32.5927 L 165.626 20.4807 C 166.608 20.3544 167.432 20.1018 167.971 19.8491 L 168.288 21.5637 Z M 170 32.244 L 169.144 23.1888 L 167.274 23.1888 L 168.161 32.244 Z M 161.79 23.1888 L 159.92 23.1888 C 159.92 27.3631 159.477 30.7945 158.97 32.244 L 160.84 32.244 C 161.252 30.9521 161.79 27.4269 161.79 23.1888 Z" /><path fill="#000000" d="M 219.24 7.91233 L 219.24 5.51233 L 212.508 5.51233 L 212.508 4.02264 L 209.811 4.02264 L 209.811 5.51233 L 202.84 5.51233 L 202.84 7.91233 L 209.811 7.91233 L 209.811 11.2123 L 203.715 11.2123 L 203.715 13.5123 L 218.397 13.5123 L 218.397 11.2123 L 212.508 11.2123 L 212.508 7.91233 Z M 219.24 22.6123 L 219.24 16.5123 L 202.84 16.5123 L 202.84 22.6123 L 205.34 22.6123 L 205.34 18.8829 L 216.74 18.8829 L 216.74 22.6123 Z M 219.24 31.5025 L 219.24 28.6653 C 218.584 29.2327 217.834 29.5164 217.084 29.5164 L 215.426 29.5164 C 214.9 29.5164 214.44 29.2642 214.44 28.5392 L 214.44 21.4745 L 212.04 21.4745 L 212.04 29.3273 C 212.04 31.0296 213.194 32.1523 214.868 32.1523 L 217.115 32.1523 C 217.897 32.1523 218.553 31.9723 219.24 31.5025 Z M 209.34 23.4637 L 209.34 21.4745 L 206.94 21.4745 L 206.94 23.4637 C 206.94 26.6792 205.54 29.2958 202.84 29.8317 L 202.84 32.5123 C 207.319 31.7547 209.34 28.0978 209.34 23.4637 Z M 202.308 21.6009 L 200.93 14.0728 L 199.05 14.0728 L 199.645 17.587 C 198.862 17.9663 197.954 18.1559 196.556 18.1559 L 193.444 18.1559 L 201.556 7.84999 L 198.862 7.84999 L 196.971 10.2191 L 193.063 10.2191 L 198.016 4.02264 L 195.314 4.02264 L 190.718 9.86669 L 190.718 12.5799 L 195.06 12.5799 L 190.718 18.0927 L 190.718 20.558 L 195.44 20.558 L 195.44 32.5123 L 197.64 32.5123 L 197.64 20.5264 C 198.612 20.4315 199.52 20.2103 200.052 19.9575 L 200.366 21.6009 Z M 202.214 32.1823 L 201.305 23.2115 L 199.426 23.2115 L 200.334 32.1823 Z M 193.666 23.2115 L 191.732 23.2115 C 191.732 26.8684 191.352 30.5252 190.686 32.1823 L 192.651 32.1823 C 193.063 30.8405 193.666 27.1521 193.666 23.2115 Z" /><path fill="#000000" d="M 251.784 16.2123 L 251.784 13.7123 L 244.668 13.7123 L 244.668 8.81233 L 250.928 8.81233 L 250.928 6.31233 L 244.668 6.31233 L 244.668 4.01233 L 241.885 4.01233 L 241.885 6.31233 L 235.777 6.31233 L 235.777 8.81233 L 241.885 8.81233 L 241.885 13.7123 L 234.923 13.7123 L 234.923 16.2123 Z M 251.784 23.2123 L 251.784 20.7123 L 250.04 20.7123 L 250.04 17.8247 L 247.323 17.8247 L 247.323 20.7123 L 234.923 20.7123 L 234.923 23.2123 L 247.323 23.2123 L 247.323 28.6427 C 247.323 29.303 246.785 29.869 246.09 29.869 L 243.34 29.869 L 243.34 32.5239 L 246.564 32.5239 C 248.555 32.5239 250.04 31.1927 250.04 29.0515 L 250.04 23.2123 Z M 241.283 30.8123 L 239.353 24.7123 L 236.695 24.7123 L 238.625 30.8123 Z M 233.34 31.6681 L 233.34 4.57948 L 224.14 4.57948 L 224.14 31.6681 Z M 230.94 16.4123 L 226.54 16.4123 L 226.54 7.17772 L 230.94 7.17772 Z M 230.94 29.1143 L 226.54 29.1143 L 226.54 19.0123 L 230.94 19.0123 Z" /><path fill="#000000" d="M 282.74 29.1498 L 282.74 4.61233 L 270.824 4.61233 L 270.824 16.6123 L 279.94 16.6123 L 279.94 28.8061 C 279.94 29.4623 279.463 30.0248 278.763 30.0248 L 276.6 30.0248 L 276.6 32.519 L 279.241 32.519 C 281.245 32.519 282.74 31.0927 282.74 29.1498 Z M 275.74 30.7123 L 275.74 19.1123 L 262.792 19.1123 L 262.792 30.7123 Z M 267.74 16.6123 L 267.74 4.61233 L 255.84 4.61233 L 255.84 32.519 L 258.54 32.519 L 258.54 16.6123 Z M 279.94 9.71233 L 273.459 9.71233 L 273.459 6.91233 L 279.94 6.91233 Z M 279.94 14.4123 L 273.459 14.4123 L 273.459 11.6123 L 279.94 11.6123 Z M 265.14 9.71233 L 258.54 9.71233 L 258.54 6.91233 L 265.14 6.91233 Z M 265.14 14.4123 L 258.54 14.4123 L 258.54 11.6123 L 265.14 11.6123 Z M 273.24 24.1123 L 265.333 24.1123 L 265.333 21.2123 L 273.24 21.2123 Z M 273.24 28.7123 L 265.333 28.7123 L 265.333 25.8123 L 273.24 25.8123 Z" /></svg>