<?xml version="1.0" encoding="utf-8" standalone="no"?>
<!DOCTYPE svg PUBLIC "-//W3C//DTD SVG 1.1//EN"
"http://www.w3.org/Graphics/SVG/1.1/DTD/svg11.dtd">

<svg xmlns="http://www.w3.org/2000/svg" version="1.1" xmlns:xlink="http://www.w3.org/1999/xlink" width="36.3594" height="36.5063" viewBox="0 0 36.3594 36.5063"><path stroke="#1987e5" stroke-width="6" stroke-linejoin="round" fill="#1987e5" d="M 4.50156 33.5063 C 3.50052 30.2594 3 26.2068 3 21.3484 C 3 16.4901 3.65938 10.374 4.97813 3 L 10.0688 3.22031 C 8.67708 9.98281 7.98125 15.775 7.98125 20.5969 C 7.98125 25.4188 8.53073 29.5385 9.62969 32.9562 L 4.50156 33.5063 Z M 12.1188 24.9 C 12.1188 23.5333 12.3875 22.2151 12.925 20.9453 L 17.7219 21.75 C 17.3073 22.825 17.1 23.6797 17.1 24.3141 C 17.1 26.3891 19.3828 27.4266 23.9484 27.4266 C 25.5109 27.4266 27.287 27.3474 29.2766 27.1891 C 31.2661 27.0307 32.6271 26.8536 33.3594 26.6578 L 33.3594 31.8219 C 31.2844 32.1875 28.2143 32.3703 24.1492 32.3703 C 20.0841 32.3703 17.0628 31.7602 15.0852 30.5398 C 13.1076 29.3195 12.1188 27.4396 12.1188 24.9 Z M 13.7672 10.7641 L 13.7672 5.82031 C 17.4786 6.0651 20.8602 6.1875 23.9117 6.1875 C 26.9633 6.1875 29.9052 6.05313 32.7375 5.78438 L 32.7375 10.7641 C 29.7344 11.0089 26.7375 11.1313 23.7469 11.1313 C 20.7563 11.1313 17.4297 11.0089 13.7672 10.7641 Z" /><path fill="#ffffff" d="M 4.50156 33.5063 C 3.50052 30.2594 3 26.2068 3 21.3484 C 3 16.4901 3.65938 10.374 4.97813 3 L 10.0688 3.22031 C 8.67708 9.98281 7.98125 15.775 7.98125 20.5969 C 7.98125 25.4188 8.53073 29.5385 9.62969 32.9562 L 4.50156 33.5063 Z M 12.1188 24.9 C 12.1188 23.5333 12.3875 22.2151 12.925 20.9453 L 17.7219 21.75 C 17.3073 22.825 17.1 23.6797 17.1 24.3141 C 17.1 26.3891 19.3828 27.4266 23.9484 27.4266 C 25.5109 27.4266 27.287 27.3474 29.2766 27.1891 C 31.2661 27.0307 32.6271 26.8536 33.3594 26.6578 L 33.3594 31.8219 C 31.2844 32.1875 28.2143 32.3703 24.1492 32.3703 C 20.0841 32.3703 17.0628 31.7602 15.0852 30.5398 C 13.1076 29.3195 12.1188 27.4396 12.1188 24.9 Z M 13.7672 10.7641 L 13.7672 5.82031 C 17.4786 6.0651 20.8602 6.1875 23.9117 6.1875 C 26.9633 6.1875 29.9052 6.05313 32.7375 5.78438 L 32.7375 10.7641 C 29.7344 11.0089 26.7375 11.1313 23.7469 11.1313 C 20.7563 11.1313 17.4297 11.0089 13.7672 10.7641 Z" /></svg>