<?xml version="1.0" encoding="utf-8" standalone="no"?>
<!DOCTYPE svg PUBLIC "-//W3C//DTD SVG 1.1//EN"
"http://www.w3.org/Graphics/SVG/1.1/DTD/svg11.dtd">

<svg xmlns="http://www.w3.org/2000/svg" version="1.1" xmlns:xlink="http://www.w3.org/1999/xlink" width="316.625" height="32.05" viewBox="0 0 316.625 32.05"><path stroke="#ffffff" stroke-width="6" stroke-linejoin="round" fill="#ffffff" d="M 3 6.55469 L 24.2438 6.55469 L 24.2438 7.14844 C 24.2438 13.2974 22.7745 17.9987 19.8359 21.2523 C 16.8974 24.506 12.2698 26.4849 5.95313 27.1891 L 5.67969 25.4312 C 11.3057 24.7604 15.4339 23.0406 18.0641 20.2719 C 20.6943 17.5031 22.0745 13.5391 22.2047 8.37969 L 3 8.37969 Z" /><path stroke="#ffffff" stroke-width="6" stroke-linejoin="round" fill="#ffffff" d="M 33.0984 18.2156 C 36.4714 17.7437 39.687 16.7365 42.7453 15.1937 C 45.8036 13.651 48.3344 11.7719 50.3375 9.55625 L 51.4922 10.7891 C 49.7036 12.8672 47.438 14.6557 44.6953 16.1547 L 44.6953 27.8937 L 42.7141 27.8937 L 42.7141 16.9797 C 39.9047 18.4609 36.7807 19.4292 33.3422 19.8844 Z" /><path stroke="#ffffff" stroke-width="6" stroke-linejoin="round" fill="#ffffff" d="M 59.5297 17.2344 L 59.5297 15.3812 L 82.8578 15.3812 L 82.8578 17.2344 Z" /><path stroke="#ffffff" stroke-width="6" stroke-linejoin="round" fill="#ffffff" d="M 102.458 5.49844 L 103.97 4.64844 C 104.861 6.00781 105.826 7.70521 106.864 9.74062 L 105.334 10.4656 C 104.289 8.56562 103.33 6.90989 102.458 5.49844 Z M 106.18 4.37656 L 107.691 3.49375 C 108.882 5.32083 109.885 7.05573 110.7 8.69844 L 109.173 9.42344 C 108.086 7.52135 107.088 5.83906 106.18 4.37656 Z M 104.939 12.3812 L 106.755 11.7281 C 108.47 15.9292 110.077 20.975 111.573 26.8656 L 109.617 27.2453 C 108.124 21.5484 106.565 16.5938 104.939 12.3812 Z M 95.8656 6.72187 C 94.9187 13.8948 92.65 20.6703 89.0594 27.0484 L 87.3703 26.2719 C 90.7557 20.0625 92.9266 13.4661 93.8828 6.48281 Z" /><path stroke="#ffffff" stroke-width="6" stroke-linejoin="round" fill="#ffffff" d="M 117.13 17.2344 L 117.13 15.3812 L 140.458 15.3812 L 140.458 17.2344 Z" /><path stroke="#ffffff" stroke-width="6" stroke-linejoin="round" fill="#ffffff" d="M 147.347 26.3422 L 147.347 28.2047 L 145.422 28.2047 L 145.422 4.8625 L 153.325 4.8625 L 153.325 26.3422 Z M 147.347 15.8812 L 147.347 24.6016 L 151.428 24.6016 L 151.428 15.8812 Z M 147.347 14.1391 L 151.428 14.1391 L 151.428 6.63125 L 147.347 6.63125 Z M 170.556 13.5125 L 167.68 13.5125 L 167.68 16.7062 L 170.556 16.7062 L 170.556 18.4469 L 167.68 18.4469 L 167.68 25.1125 C 167.68 26.6479 167.513 27.6315 167.18 28.0633 C 166.846 28.4951 166.029 28.7109 164.728 28.7109 C 164.19 28.7109 162.889 28.6594 160.825 28.5562 L 160.791 26.7578 C 162.774 26.9182 164.03 26.9984 164.559 26.9984 C 165.134 26.9984 165.468 26.9362 165.559 26.8117 C 165.651 26.6872 165.697 26.1302 165.697 25.1406 L 165.697 18.4469 L 153.572 18.4469 L 153.572 16.7062 L 165.697 16.7062 L 165.697 13.5125 L 153.572 13.5125 L 153.572 11.7984 L 161.27 11.7984 L 161.27 7.87187 L 154.925 7.87187 L 154.925 6.1875 L 161.27 6.1875 L 161.27 3 L 163.252 3 L 163.252 6.1875 L 169.484 6.1875 L 169.484 7.87187 L 163.252 7.87187 L 163.252 11.7984 L 170.556 11.7984 Z M 155.545 20.4359 L 156.688 19.1437 C 158.734 20.8156 160.528 22.6089 162.067 24.5234 L 160.777 25.6375 C 159.212 23.8406 157.468 22.1068 155.545 20.4359 Z" /><path stroke="#ffffff" stroke-width="6" stroke-linejoin="round" fill="#ffffff" d="M 177.492 8.0125 L 177.492 6.24375 L 195.295 6.24375 L 195.295 7.75937 C 193.984 11.1906 191.85 14.4104 188.894 17.4187 C 191.926 20.2271 194.811 23.1359 197.55 26.1453 L 196.244 27.3297 C 193.551 24.4859 190.69 21.5812 187.661 18.6156 C 184.544 21.7583 180.621 24.5219 175.891 26.9063 L 175.095 25.4266 C 179.588 23.0401 183.389 20.3161 186.497 17.2547 C 189.605 14.1932 191.84 11.1125 193.2 8.0125 Z" /><path stroke="#ffffff" stroke-width="6" stroke-linejoin="round" fill="#ffffff" d="M 205.108 6.80781 L 225.166 6.80781 L 225.166 25.8062 L 205.108 25.8062 L 205.108 24.0375 L 223.212 24.0375 L 223.212 8.57656 L 205.108 8.57656 Z" /><path stroke="#ffffff" stroke-width="6" stroke-linejoin="round" fill="#ffffff" d="M 233.147 8.0125 L 233.147 6.27187 L 255.742 6.27187 L 255.742 7.74531 C 255.139 9.92656 254.141 11.8339 252.748 13.4672 C 251.354 15.1005 249.56 16.3844 247.364 17.3188 L 246.514 15.8 C 250.236 14.0917 252.633 11.4958 253.705 8.0125 Z M 241.945 10.4172 L 243.927 10.4172 C 243.927 15.3859 243.306 19.1732 242.066 21.7789 C 240.825 24.3846 238.684 26.2724 235.644 27.4422 L 234.895 25.9094 C 237.444 24.8615 239.257 23.174 240.332 20.8469 C 241.408 18.5198 241.945 15.0432 241.945 10.4172 Z" /><path stroke="#ffffff" stroke-width="6" stroke-linejoin="round" fill="#ffffff" d="M 277.606 12.2141 L 277.606 14.7609 L 283.83 14.7609 L 283.83 12.2141 Z M 277.606 8.15312 L 277.606 10.6141 L 283.83 10.6141 L 283.83 8.15312 Z M 275.708 8.15312 L 269.428 8.15312 L 269.428 10.6141 L 275.708 10.6141 Z M 269.428 14.7609 L 275.708 14.7609 L 275.708 12.2141 L 269.428 12.2141 Z M 269.128 16.3875 L 267.503 16.3875 L 267.503 6.525 L 272.297 6.525 C 271.629 5.79062 270.886 4.89166 270.069 3.82812 L 271.625 3.09844 C 272.611 4.24948 273.495 5.39166 274.275 6.525 L 279.055 6.525 C 279.966 5.45625 280.801 4.32344 281.558 3.12656 L 283.217 3.77031 C 282.588 4.85364 281.883 5.77187 281.103 6.525 L 285.784 6.525 L 285.784 16.3875 Z M 270.528 23.4094 L 270.528 26.125 L 282.73 26.125 L 282.73 23.4094 Z M 270.528 21.8109 L 282.73 21.8109 L 282.73 19.3484 L 270.528 19.3484 Z M 270.528 27.7531 L 270.528 29.05 L 268.602 29.05 L 268.602 17.6938 L 284.713 17.6938 L 284.713 29.05 L 282.73 29.05 L 282.73 27.7531 Z M 264.691 4.1 L 264.691 10.2484 L 267.539 10.2484 L 267.539 11.9609 L 264.691 11.9609 L 264.691 23.1484 C 265.364 22.7578 266.432 22.1563 267.897 21.3438 L 268.272 22.9516 C 265.354 24.6901 262.511 26.0365 259.744 26.9906 L 259.381 25.3516 C 260.6 24.8839 261.718 24.4219 262.736 23.9656 L 262.736 11.9609 L 259.494 11.9609 L 259.494 10.2484 L 262.736 10.2484 L 262.736 4.1 Z" /><path stroke="#ffffff" stroke-width="6" stroke-linejoin="round" fill="#ffffff" d="M 305.052 24.6297 L 311.672 24.6297 L 311.672 7.44844 L 305.052 7.44844 Z M 313.625 5.70781 L 313.625 28.2328 L 311.672 28.2328 L 311.672 26.3703 L 305.052 26.3703 L 305.052 28.2328 L 303.127 28.2328 L 303.127 5.70781 Z M 293.313 27.4969 L 293.347 25.6297 C 294.943 25.8661 296.366 25.9844 297.617 25.9844 C 297.972 25.9844 298.271 25.8391 298.513 25.5484 C 298.755 25.2578 298.993 24.563 299.225 23.4641 C 299.457 22.3651 299.621 20.6966 299.715 18.4586 C 299.809 16.2206 299.856 13.2682 299.856 9.60156 L 299.856 9.42344 L 294.83 9.42344 C 294.667 14.1797 294.21 17.9417 293.459 20.7094 C 292.707 23.4771 291.406 26.0036 289.555 28.2891 L 288.181 27.0641 C 289.728 24.9776 290.857 22.6883 291.569 20.1961 C 292.28 17.7039 292.721 14.113 292.891 9.42344 L 288.631 9.42344 L 288.631 7.65312 L 292.923 7.65312 C 292.958 5.90729 292.975 4.37552 292.975 3.05781 L 294.928 3.05781 C 294.928 5.1151 294.919 6.64687 294.9 7.65312 L 301.809 7.65312 L 301.809 8.84062 C 301.809 14.45 301.68 18.619 301.423 21.3477 C 301.165 24.0763 300.79 25.8354 300.298 26.625 C 299.805 27.4146 299.016 27.8094 297.928 27.8094 C 296.759 27.8094 295.221 27.7052 293.313 27.4969 Z" /><path fill="#000000" d="M 3 6.55469 L 24.2438 6.55469 L 24.2438 7.14844 C 24.2438 13.2974 22.7745 17.9987 19.8359 21.2523 C 16.8974 24.506 12.2698 26.4849 5.95313 27.1891 L 5.67969 25.4312 C 11.3057 24.7604 15.4339 23.0406 18.0641 20.2719 C 20.6943 17.5031 22.0745 13.5391 22.2047 8.37969 L 3 8.37969 Z" /><path fill="#000000" d="M 33.0984 18.2156 C 36.4714 17.7437 39.687 16.7365 42.7453 15.1937 C 45.8036 13.651 48.3344 11.7719 50.3375 9.55625 L 51.4922 10.7891 C 49.7036 12.8672 47.438 14.6557 44.6953 16.1547 L 44.6953 27.8937 L 42.7141 27.8937 L 42.7141 16.9797 C 39.9047 18.4609 36.7807 19.4292 33.3422 19.8844 Z" /><path fill="#000000" d="M 59.5297 17.2344 L 59.5297 15.3812 L 82.8578 15.3812 L 82.8578 17.2344 Z" /><path fill="#000000" d="M 102.458 5.49844 L 103.97 4.64844 C 104.861 6.00781 105.826 7.70521 106.864 9.74062 L 105.334 10.4656 C 104.289 8.56562 103.33 6.90989 102.458 5.49844 Z M 106.18 4.37656 L 107.691 3.49375 C 108.882 5.32083 109.885 7.05573 110.7 8.69844 L 109.173 9.42344 C 108.086 7.52135 107.088 5.83906 106.18 4.37656 Z M 104.939 12.3812 L 106.755 11.7281 C 108.47 15.9292 110.077 20.975 111.573 26.8656 L 109.617 27.2453 C 108.124 21.5484 106.565 16.5938 104.939 12.3812 Z M 95.8656 6.72187 C 94.9187 13.8948 92.65 20.6703 89.0594 27.0484 L 87.3703 26.2719 C 90.7557 20.0625 92.9266 13.4661 93.8828 6.48281 Z" /><path fill="#000000" d="M 117.13 17.2344 L 117.13 15.3812 L 140.458 15.3812 L 140.458 17.2344 Z" /><path fill="#000000" d="M 147.347 26.3422 L 147.347 28.2047 L 145.422 28.2047 L 145.422 4.8625 L 153.325 4.8625 L 153.325 26.3422 Z M 147.347 15.8812 L 147.347 24.6016 L 151.428 24.6016 L 151.428 15.8812 Z M 147.347 14.1391 L 151.428 14.1391 L 151.428 6.63125 L 147.347 6.63125 Z M 170.556 13.5125 L 167.68 13.5125 L 167.68 16.7062 L 170.556 16.7062 L 170.556 18.4469 L 167.68 18.4469 L 167.68 25.1125 C 167.68 26.6479 167.513 27.6315 167.18 28.0633 C 166.846 28.4951 166.029 28.7109 164.728 28.7109 C 164.19 28.7109 162.889 28.6594 160.825 28.5562 L 160.791 26.7578 C 162.774 26.9182 164.03 26.9984 164.559 26.9984 C 165.134 26.9984 165.468 26.9362 165.559 26.8117 C 165.651 26.6872 165.697 26.1302 165.697 25.1406 L 165.697 18.4469 L 153.572 18.4469 L 153.572 16.7062 L 165.697 16.7062 L 165.697 13.5125 L 153.572 13.5125 L 153.572 11.7984 L 161.27 11.7984 L 161.27 7.87187 L 154.925 7.87187 L 154.925 6.1875 L 161.27 6.1875 L 161.27 3 L 163.252 3 L 163.252 6.1875 L 169.484 6.1875 L 169.484 7.87187 L 163.252 7.87187 L 163.252 11.7984 L 170.556 11.7984 Z M 155.545 20.4359 L 156.688 19.1437 C 158.734 20.8156 160.528 22.6089 162.067 24.5234 L 160.777 25.6375 C 159.212 23.8406 157.468 22.1068 155.545 20.4359 Z" /><path fill="#000000" d="M 177.492 8.0125 L 177.492 6.24375 L 195.295 6.24375 L 195.295 7.75937 C 193.984 11.1906 191.85 14.4104 188.894 17.4187 C 191.926 20.2271 194.811 23.1359 197.55 26.1453 L 196.244 27.3297 C 193.551 24.4859 190.69 21.5812 187.661 18.6156 C 184.544 21.7583 180.621 24.5219 175.891 26.9063 L 175.095 25.4266 C 179.588 23.0401 183.389 20.3161 186.497 17.2547 C 189.605 14.1932 191.84 11.1125 193.2 8.0125 Z" /><path fill="#000000" d="M 205.108 6.80781 L 225.166 6.80781 L 225.166 25.8062 L 205.108 25.8062 L 205.108 24.0375 L 223.212 24.0375 L 223.212 8.57656 L 205.108 8.57656 Z" /><path fill="#000000" d="M 233.147 8.0125 L 233.147 6.27187 L 255.742 6.27187 L 255.742 7.74531 C 255.139 9.92656 254.141 11.8339 252.748 13.4672 C 251.354 15.1005 249.56 16.3844 247.364 17.3188 L 246.514 15.8 C 250.236 14.0917 252.633 11.4958 253.705 8.0125 Z M 241.945 10.4172 L 243.927 10.4172 C 243.927 15.3859 243.306 19.1732 242.066 21.7789 C 240.825 24.3846 238.684 26.2724 235.644 27.4422 L 234.895 25.9094 C 237.444 24.8615 239.257 23.174 240.332 20.8469 C 241.408 18.5198 241.945 15.0432 241.945 10.4172 Z" /><path fill="#000000" d="M 277.606 12.2141 L 277.606 14.7609 L 283.83 14.7609 L 283.83 12.2141 Z M 277.606 8.15312 L 277.606 10.6141 L 283.83 10.6141 L 283.83 8.15312 Z M 275.708 8.15312 L 269.428 8.15312 L 269.428 10.6141 L 275.708 10.6141 Z M 269.428 14.7609 L 275.708 14.7609 L 275.708 12.2141 L 269.428 12.2141 Z M 269.128 16.3875 L 267.503 16.3875 L 267.503 6.525 L 272.297 6.525 C 271.629 5.79062 270.886 4.89166 270.069 3.82812 L 271.625 3.09844 C 272.611 4.24948 273.495 5.39166 274.275 6.525 L 279.055 6.525 C 279.966 5.45625 280.801 4.32344 281.558 3.12656 L 283.217 3.77031 C 282.588 4.85364 281.883 5.77187 281.103 6.525 L 285.784 6.525 L 285.784 16.3875 Z M 270.528 23.4094 L 270.528 26.125 L 282.73 26.125 L 282.73 23.4094 Z M 270.528 21.8109 L 282.73 21.8109 L 282.73 19.3484 L 270.528 19.3484 Z M 270.528 27.7531 L 270.528 29.05 L 268.602 29.05 L 268.602 17.6938 L 284.713 17.6938 L 284.713 29.05 L 282.73 29.05 L 282.73 27.7531 Z M 264.691 4.1 L 264.691 10.2484 L 267.539 10.2484 L 267.539 11.9609 L 264.691 11.9609 L 264.691 23.1484 C 265.364 22.7578 266.432 22.1563 267.897 21.3438 L 268.272 22.9516 C 265.354 24.6901 262.511 26.0365 259.744 26.9906 L 259.381 25.3516 C 260.6 24.8839 261.718 24.4219 262.736 23.9656 L 262.736 11.9609 L 259.494 11.9609 L 259.494 10.2484 L 262.736 10.2484 L 262.736 4.1 Z" /><path fill="#000000" d="M 305.052 24.6297 L 311.672 24.6297 L 311.672 7.44844 L 305.052 7.44844 Z M 313.625 5.70781 L 313.625 28.2328 L 311.672 28.2328 L 311.672 26.3703 L 305.052 26.3703 L 305.052 28.2328 L 303.127 28.2328 L 303.127 5.70781 Z M 293.313 27.4969 L 293.347 25.6297 C 294.943 25.8661 296.366 25.9844 297.617 25.9844 C 297.972 25.9844 298.271 25.8391 298.513 25.5484 C 298.755 25.2578 298.993 24.563 299.225 23.4641 C 299.457 22.3651 299.621 20.6966 299.715 18.4586 C 299.809 16.2206 299.856 13.2682 299.856 9.60156 L 299.856 9.42344 L 294.83 9.42344 C 294.667 14.1797 294.21 17.9417 293.459 20.7094 C 292.707 23.4771 291.406 26.0036 289.555 28.2891 L 288.181 27.0641 C 289.728 24.9776 290.857 22.6883 291.569 20.1961 C 292.28 17.7039 292.721 14.113 292.891 9.42344 L 288.631 9.42344 L 288.631 7.65312 L 292.923 7.65312 C 292.958 5.90729 292.975 4.37552 292.975 3.05781 L 294.928 3.05781 C 294.928 5.1151 294.919 6.64687 294.9 7.65312 L 301.809 7.65312 L 301.809 8.84062 C 301.809 14.45 301.68 18.619 301.423 21.3477 C 301.165 24.0763 300.79 25.8354 300.298 26.625 C 299.805 27.4146 299.016 27.8094 297.928 27.8094 C 296.759 27.8094 295.221 27.7052 293.313 27.4969 Z" /></svg>