<?xml version="1.0" encoding="utf-8" standalone="no"?>
<!DOCTYPE svg PUBLIC "-//W3C//DTD SVG 1.1//EN"
"http://www.w3.org/Graphics/SVG/1.1/DTD/svg11.dtd">

<svg xmlns="http://www.w3.org/2000/svg" version="1.1" xmlns:xlink="http://www.w3.org/1999/xlink" width="163.626" height="36.6" viewBox="0 0 163.626 36.6"><path stroke="#ffffff" stroke-width="8" stroke-linejoin="round" fill="#ffffff" d="M 32.7264 26.2357 L 32.7264 23.9178 C 31.2459 23.6003 30.1119 22.743 29.4819 21.6 L 32.7264 21.6 L 32.7264 19.6 L 29.3874 19.6 L 29.3874 17.6 L 31.8759 17.6 L 31.8759 15.5 L 29.3874 15.5 L 29.3874 13.6 L 31.8759 13.6 L 31.8759 4.57765 L 15.8541 4.57765 L 15.8541 13.6 L 18.3264 13.6 L 18.3264 15.5 L 15.8541 15.5 L 15.8541 17.6 L 18.3264 17.6 L 18.3264 19.6 L 14.9984 19.6 L 14.9984 21.6 L 18.2947 21.6 C 17.6608 22.743 16.4881 23.6003 14.9984 23.9178 L 14.9984 26.2357 C 16.1077 25.95 17.0586 25.4737 17.8193 24.9339 L 17.8193 25.4102 L 21.2792 26.6485 L 21.2792 24.8069 L 18.9288 23.9813 C 19.5947 23.2828 20.102 22.489 20.4508 21.6 L 22.6264 21.6 L 22.6264 29.2204 C 22.6264 29.8555 22.3377 30.3 21.7604 30.3 L 20.6728 30.3 L 20.6728 32.5 L 22.049 32.5 C 23.8083 32.5 24.9264 31.4314 24.9264 29.5379 L 24.9264 21.6 L 27.2769 21.6 C 27.6234 22.4572 28.1274 23.251 28.7889 23.9496 L 26.4264 24.8069 L 26.4264 26.6485 L 29.8914 25.4102 L 29.8914 24.9021 C 30.7104 25.4737 31.6239 25.95 32.7264 26.2357 Z M 14.935 8.48886 L 13.0966 8.48886 L 11.6703 16.3591 L 13.4453 16.3591 Z M 32.4114 32.2171 L 32.4114 30.0777 L 26.4894 27.6328 L 26.4894 29.7602 Z M 6.8526 8.48886 L 5.10934 8.48886 C 5.10934 14.3729 4.729 17.6312 4 19.3812 L 5.80665 19.4125 C 6.47225 17.6 6.8526 14.5661 6.8526 8.48886 Z M 14.4278 30.3314 L 14.4278 26.2675 L 10.6561 20.7562 C 10.7828 19.7562 10.8145 18.6937 10.8145 17.5682 L 10.8145 4 L 8.43738 4 L 8.43738 17.7875 C 8.43738 22.9018 6.8209 26.9025 4.15848 29.3157 L 4.15848 32.5 C 7.26464 30.3628 9.16638 27.5058 10.1172 23.7908 Z M 21.2151 29.7284 L 21.2151 27.4741 C 19.6264 28.7441 17.2804 29.8237 15.2836 30.173 L 15.2836 32.2171 C 17.8827 31.7143 19.7215 30.8657 21.2151 29.7284 Z M 29.2299 8.3 L 18.4849 8.3 L 18.4849 6.34255 L 29.2299 6.34255 Z M 29.2299 11.9 L 18.4849 11.9 L 18.4849 10 L 29.2299 10 Z M 26.8359 15.5 L 20.9264 15.5 L 20.9264 13.6 L 26.8359 13.6 Z M 26.8359 19.6 L 20.9264 19.6 L 20.9264 17.6 L 26.8359 17.6 Z" /><path stroke="#ffffff" stroke-width="8" stroke-linejoin="round" fill="#ffffff" d="M 64.4822 28.7 L 64.4822 26.3 L 56.6264 26.3 L 56.6264 22.992 L 63.6264 22.992 L 63.6264 7.6 L 62.1576 7.6 L 63.6264 4 L 61.2201 4 L 59.7321 7.6 L 56.5952 7.6 C 56.2836 6.3027 55.9095 4.97296 55.4108 4 L 52.9805 4 C 53.5875 5.10269 54.0666 6.52972 54.2887 7.6 L 50.9042 7.6 C 50.5528 6.27026 50.1694 4.94053 49.6264 4 L 47.1584 4 C 47.7995 5.03783 48.2802 6.49729 48.5366 7.6 L 47.1264 7.6 L 47.1264 22.992 L 54.2264 22.992 L 54.2264 26.3 L 46.4544 26.3 L 46.4544 28.7 L 54.2264 28.7 L 54.2264 32.6 L 56.6264 32.6 L 56.6264 28.7 Z M 44.7264 26.521 L 44.7264 19.5 L 39.1264 19.5 L 39.1264 14.8894 L 44.7264 14.8894 L 44.7264 4.58377 L 35.9706 4.58377 L 35.9706 7.21081 L 42.3264 7.21081 L 42.3264 12.2863 L 36.8264 12.2863 L 36.8264 21.9 L 42.3264 21.9 L 42.3264 25.9788 C 42.3264 28.0052 40.9774 30 39.0944 30 L 35.9706 30 L 35.9706 32.6 L 39.5342 32.6 C 42.6422 32.6 44.7264 29.9071 44.7264 26.521 Z M 61.1264 14.1 L 56.6264 14.1 L 56.6264 9.9 L 61.1264 9.9 Z M 61.1264 20.6368 L 56.6264 20.6368 L 56.6264 16.5 L 61.1264 16.5 Z M 54.2264 14.1 L 49.6264 14.1 L 49.6264 9.9 L 54.2264 9.9 Z M 54.2264 20.6368 L 49.6264 20.6368 L 49.6264 16.5 L 54.2264 16.5 Z" /><path stroke="#ffffff" stroke-width="8" stroke-linejoin="round" fill="#ffffff" d="M 96.2264 32.2 L 96.2264 20.4295 L 93.4264 20.4295 L 93.4264 29.6 L 83.4264 29.6 L 83.4264 17.5 L 95.3574 17.5 L 95.3574 5.08305 L 92.5145 5.08305 L 92.5145 14.8 L 83.4264 14.8 L 83.4264 4 L 80.5264 4 L 80.5264 14.8 L 71.3264 14.8 L 71.3264 5.08305 L 68.5264 5.08305 L 68.5264 17.5 L 80.5264 17.5 L 80.5264 29.6 L 70.4252 29.6 L 70.4252 20.4295 L 67.6389 20.4295 L 67.6389 32.2 Z" /><path stroke="#ffffff" stroke-width="8" stroke-linejoin="round" fill="#ffffff" d="M 127.882 31.6078 L 127.882 29.1306 C 127.312 29.6725 126.618 29.8 125.802 29.8 L 123.355 29.8 C 122.448 29.8 122.026 29.2581 122.026 28.4931 L 122.026 24.7 L 127.026 24.7 L 127.026 4.6 L 110.626 4.6 L 110.626 24.7 L 114.085 24.7 C 113.8 27.4093 112.73 29.6087 109.415 29.8935 L 109.415 32.5803 C 114.654 31.9506 116.266 28.5568 116.677 24.7 L 119.426 24.7 L 119.426 29.0987 C 119.426 30.9844 120.272 32.2 122.545 32.2 L 125.739 32.2 C 126.587 32.2 127.343 32.0753 127.882 31.6078 Z M 109.224 7.2704 L 109.224 4.6 L 99.3131 4.6 L 99.3131 7.2704 L 102.926 7.2704 L 102.926 15.7717 L 99.7885 15.7717 L 99.7885 18.4735 L 102.926 18.4735 L 102.926 29.1306 L 99.3131 29.1306 L 99.3131 31.7324 L 103.408 31.7324 C 105.941 31.7324 107.726 31.1091 108.969 30.3298 L 108.969 27.3456 C 107.821 28.2381 106.801 28.7481 105.526 28.9712 L 105.526 18.4735 L 108.555 18.4735 L 108.555 15.7717 L 105.526 15.7717 L 105.526 7.2704 Z M 124.326 10.5 L 113.326 10.5 L 113.326 6.8 L 124.326 6.8 Z M 124.326 16.5 L 113.326 16.5 L 113.326 12.7 L 124.326 12.7 Z M 124.326 22.5 L 113.326 22.5 L 113.326 18.7 L 124.326 18.7 Z" /><path stroke="#ffffff" stroke-width="8" stroke-linejoin="round" fill="#ffffff" d="M 159.626 12.5245 L 159.626 9.95112 L 153.226 12.1385 L 153.226 14.7273 Z M 159.626 21.852 L 159.626 19.1064 L 153.226 16.6416 L 153.226 19.1688 Z M 159.626 27 L 159.626 24.5 L 146.726 24.5 L 146.726 21.3362 C 148.071 21.2406 149.224 20.9855 150.281 20.4434 L 150.889 22.3687 L 153.194 22.3687 L 150.857 15.5184 L 148.648 15.5184 L 149.64 18.4824 C 148.551 19.044 147.399 19.2 145.94 19.2 L 141.983 19.2 L 151.049 11.2056 L 147.719 11.2056 L 145.468 13.2 L 141.601 13.2 L 146.79 8.6 L 159.626 8.6 L 159.626 6.1 L 146.726 6.1 L 146.726 4 L 143.926 4 L 143.926 6.1 L 131.026 6.1 L 131.026 8.6 L 143.608 8.6 L 138.446 13.1678 L 138.446 15.3 L 143.098 15.3 L 138.446 19.2637 L 138.446 21.4 L 143.926 21.4 L 143.926 24.5 L 131.026 24.5 L 131.026 27 L 143.926 27 L 143.926 32.5 L 146.726 32.5 L 146.726 27 Z M 137.426 14.7273 L 137.426 12.1385 L 131.026 9.95112 L 131.026 12.5245 Z M 137.426 19.2 L 137.426 16.6416 C 135.557 17.9832 132.864 19.044 131.026 19.3275 L 131.026 22.0781 C 133.149 21.4968 135.906 20.5072 137.426 19.2 Z" /><path fill="#000000" d="M 32.7264 26.2357 L 32.7264 23.9178 C 31.2459 23.6003 30.1119 22.743 29.4819 21.6 L 32.7264 21.6 L 32.7264 19.6 L 29.3874 19.6 L 29.3874 17.6 L 31.8759 17.6 L 31.8759 15.5 L 29.3874 15.5 L 29.3874 13.6 L 31.8759 13.6 L 31.8759 4.57765 L 15.8541 4.57765 L 15.8541 13.6 L 18.3264 13.6 L 18.3264 15.5 L 15.8541 15.5 L 15.8541 17.6 L 18.3264 17.6 L 18.3264 19.6 L 14.9984 19.6 L 14.9984 21.6 L 18.2947 21.6 C 17.6608 22.743 16.4881 23.6003 14.9984 23.9178 L 14.9984 26.2357 C 16.1077 25.95 17.0586 25.4737 17.8193 24.9339 L 17.8193 25.4102 L 21.2792 26.6485 L 21.2792 24.8069 L 18.9288 23.9813 C 19.5947 23.2828 20.102 22.489 20.4508 21.6 L 22.6264 21.6 L 22.6264 29.2204 C 22.6264 29.8555 22.3377 30.3 21.7604 30.3 L 20.6728 30.3 L 20.6728 32.5 L 22.049 32.5 C 23.8083 32.5 24.9264 31.4314 24.9264 29.5379 L 24.9264 21.6 L 27.2769 21.6 C 27.6234 22.4572 28.1274 23.251 28.7889 23.9496 L 26.4264 24.8069 L 26.4264 26.6485 L 29.8914 25.4102 L 29.8914 24.9021 C 30.7104 25.4737 31.6239 25.95 32.7264 26.2357 Z M 14.935 8.48886 L 13.0966 8.48886 L 11.6703 16.3591 L 13.4453 16.3591 Z M 32.4114 32.2171 L 32.4114 30.0777 L 26.4894 27.6328 L 26.4894 29.7602 Z M 6.8526 8.48886 L 5.10934 8.48886 C 5.10934 14.3729 4.729 17.6312 4 19.3812 L 5.80665 19.4125 C 6.47225 17.6 6.8526 14.5661 6.8526 8.48886 Z M 14.4278 30.3314 L 14.4278 26.2675 L 10.6561 20.7562 C 10.7828 19.7562 10.8145 18.6937 10.8145 17.5682 L 10.8145 4 L 8.43738 4 L 8.43738 17.7875 C 8.43738 22.9018 6.8209 26.9025 4.15848 29.3157 L 4.15848 32.5 C 7.26464 30.3628 9.16638 27.5058 10.1172 23.7908 Z M 21.2151 29.7284 L 21.2151 27.4741 C 19.6264 28.7441 17.2804 29.8237 15.2836 30.173 L 15.2836 32.2171 C 17.8827 31.7143 19.7215 30.8657 21.2151 29.7284 Z M 29.2299 8.3 L 18.4849 8.3 L 18.4849 6.34255 L 29.2299 6.34255 Z M 29.2299 11.9 L 18.4849 11.9 L 18.4849 10 L 29.2299 10 Z M 26.8359 15.5 L 20.9264 15.5 L 20.9264 13.6 L 26.8359 13.6 Z M 26.8359 19.6 L 20.9264 19.6 L 20.9264 17.6 L 26.8359 17.6 Z" /><path fill="#000000" d="M 64.4822 28.7 L 64.4822 26.3 L 56.6264 26.3 L 56.6264 22.992 L 63.6264 22.992 L 63.6264 7.6 L 62.1576 7.6 L 63.6264 4 L 61.2201 4 L 59.7321 7.6 L 56.5952 7.6 C 56.2836 6.3027 55.9095 4.97296 55.4108 4 L 52.9805 4 C 53.5875 5.10269 54.0666 6.52972 54.2887 7.6 L 50.9042 7.6 C 50.5528 6.27026 50.1694 4.94053 49.6264 4 L 47.1584 4 C 47.7995 5.03783 48.2802 6.49729 48.5366 7.6 L 47.1264 7.6 L 47.1264 22.992 L 54.2264 22.992 L 54.2264 26.3 L 46.4544 26.3 L 46.4544 28.7 L 54.2264 28.7 L 54.2264 32.6 L 56.6264 32.6 L 56.6264 28.7 Z M 44.7264 26.521 L 44.7264 19.5 L 39.1264 19.5 L 39.1264 14.8894 L 44.7264 14.8894 L 44.7264 4.58377 L 35.9706 4.58377 L 35.9706 7.21081 L 42.3264 7.21081 L 42.3264 12.2863 L 36.8264 12.2863 L 36.8264 21.9 L 42.3264 21.9 L 42.3264 25.9788 C 42.3264 28.0052 40.9774 30 39.0944 30 L 35.9706 30 L 35.9706 32.6 L 39.5342 32.6 C 42.6422 32.6 44.7264 29.9071 44.7264 26.521 Z M 61.1264 14.1 L 56.6264 14.1 L 56.6264 9.9 L 61.1264 9.9 Z M 61.1264 20.6368 L 56.6264 20.6368 L 56.6264 16.5 L 61.1264 16.5 Z M 54.2264 14.1 L 49.6264 14.1 L 49.6264 9.9 L 54.2264 9.9 Z M 54.2264 20.6368 L 49.6264 20.6368 L 49.6264 16.5 L 54.2264 16.5 Z" /><path fill="#000000" d="M 96.2264 32.2 L 96.2264 20.4295 L 93.4264 20.4295 L 93.4264 29.6 L 83.4264 29.6 L 83.4264 17.5 L 95.3574 17.5 L 95.3574 5.08305 L 92.5145 5.08305 L 92.5145 14.8 L 83.4264 14.8 L 83.4264 4 L 80.5264 4 L 80.5264 14.8 L 71.3264 14.8 L 71.3264 5.08305 L 68.5264 5.08305 L 68.5264 17.5 L 80.5264 17.5 L 80.5264 29.6 L 70.4252 29.6 L 70.4252 20.4295 L 67.6389 20.4295 L 67.6389 32.2 Z" /><path fill="#000000" d="M 127.882 31.6078 L 127.882 29.1306 C 127.312 29.6725 126.618 29.8 125.802 29.8 L 123.355 29.8 C 122.448 29.8 122.026 29.2581 122.026 28.4931 L 122.026 24.7 L 127.026 24.7 L 127.026 4.6 L 110.626 4.6 L 110.626 24.7 L 114.085 24.7 C 113.8 27.4093 112.73 29.6087 109.415 29.8935 L 109.415 32.5803 C 114.654 31.9506 116.266 28.5568 116.677 24.7 L 119.426 24.7 L 119.426 29.0987 C 119.426 30.9844 120.272 32.2 122.545 32.2 L 125.739 32.2 C 126.587 32.2 127.343 32.0753 127.882 31.6078 Z M 109.224 7.2704 L 109.224 4.6 L 99.3131 4.6 L 99.3131 7.2704 L 102.926 7.2704 L 102.926 15.7717 L 99.7885 15.7717 L 99.7885 18.4735 L 102.926 18.4735 L 102.926 29.1306 L 99.3131 29.1306 L 99.3131 31.7324 L 103.408 31.7324 C 105.941 31.7324 107.726 31.1091 108.969 30.3298 L 108.969 27.3456 C 107.821 28.2381 106.801 28.7481 105.526 28.9712 L 105.526 18.4735 L 108.555 18.4735 L 108.555 15.7717 L 105.526 15.7717 L 105.526 7.2704 Z M 124.326 10.5 L 113.326 10.5 L 113.326 6.8 L 124.326 6.8 Z M 124.326 16.5 L 113.326 16.5 L 113.326 12.7 L 124.326 12.7 Z M 124.326 22.5 L 113.326 22.5 L 113.326 18.7 L 124.326 18.7 Z" /><path fill="#000000" d="M 159.626 12.5245 L 159.626 9.95112 L 153.226 12.1385 L 153.226 14.7273 Z M 159.626 21.852 L 159.626 19.1064 L 153.226 16.6416 L 153.226 19.1688 Z M 159.626 27 L 159.626 24.5 L 146.726 24.5 L 146.726 21.3362 C 148.071 21.2406 149.224 20.9855 150.281 20.4434 L 150.889 22.3687 L 153.194 22.3687 L 150.857 15.5184 L 148.648 15.5184 L 149.64 18.4824 C 148.551 19.044 147.399 19.2 145.94 19.2 L 141.983 19.2 L 151.049 11.2056 L 147.719 11.2056 L 145.468 13.2 L 141.601 13.2 L 146.79 8.6 L 159.626 8.6 L 159.626 6.1 L 146.726 6.1 L 146.726 4 L 143.926 4 L 143.926 6.1 L 131.026 6.1 L 131.026 8.6 L 143.608 8.6 L 138.446 13.1678 L 138.446 15.3 L 143.098 15.3 L 138.446 19.2637 L 138.446 21.4 L 143.926 21.4 L 143.926 24.5 L 131.026 24.5 L 131.026 27 L 143.926 27 L 143.926 32.5 L 146.726 32.5 L 146.726 27 Z M 137.426 14.7273 L 137.426 12.1385 L 131.026 9.95112 L 131.026 12.5245 Z M 137.426 19.2 L 137.426 16.6416 C 135.557 17.9832 132.864 19.044 131.026 19.3275 L 131.026 22.0781 C 133.149 21.4968 135.906 20.5072 137.426 19.2 Z" /></svg>