<?xml version="1.0" encoding="utf-8" standalone="no"?>
<!DOCTYPE svg PUBLIC "-//W3C//DTD SVG 1.1//EN"
"http://www.w3.org/Graphics/SVG/1.1/DTD/svg11.dtd">

<svg xmlns="http://www.w3.org/2000/svg" version="1.1" xmlns:xlink="http://www.w3.org/1999/xlink" width="37.8969" height="38.9594" viewBox="0 0 37.8969 38.9594"><path stroke="#1987e5" stroke-width="6" stroke-linejoin="round" fill="#1987e5" d="M 3 13.2906 L 3 8.56563 L 10.25 8.38281 C 10.4698 6.79635 10.6651 5.00208 10.8359 3 L 16.1094 3.22031 C 16.0604 3.78177 15.8531 5.46615 15.4875 8.27344 L 23.1047 8.12656 L 23.1047 12.8875 L 14.7547 13.0344 C 13.363 20.9927 11.2391 28.6344 8.38281 35.9594 L 3.10938 34.3109 C 5.94167 28.037 8.06563 20.9813 9.48125 13.1438 Z M 16.3297 29.1844 C 16.3297 27.8906 16.6469 26.5724 17.2813 25.2297 L 21.8234 26.0719 C 21.3099 26.95 21.0531 27.6698 21.0531 28.2313 C 21.0531 29.9406 23.1776 30.7953 27.4266 30.7953 C 29.8672 30.7953 32.3328 30.588 34.8234 30.1734 L 34.8969 35.1531 C 32.4792 35.4458 30.1844 35.5922 28.0125 35.5922 C 24.2281 35.5922 21.3349 35.043 19.3328 33.9445 C 17.3307 32.8461 16.3297 31.2594 16.3297 29.1844 Z M 18.8563 19.6266 L 18.8563 14.8656 C 21.5177 14.524 24.2951 14.3531 27.1883 14.3531 C 30.0815 14.3531 32.4802 14.426 34.3844 14.5719 L 34.2 19.3328 C 32.3208 19.162 29.9773 19.0766 27.1695 19.0766 C 24.3617 19.0766 21.5906 19.2599 18.8563 19.6266 Z" /><path fill="#ffffff" d="M 3 13.2906 L 3 8.56563 L 10.25 8.38281 C 10.4698 6.79635 10.6651 5.00208 10.8359 3 L 16.1094 3.22031 C 16.0604 3.78177 15.8531 5.46615 15.4875 8.27344 L 23.1047 8.12656 L 23.1047 12.8875 L 14.7547 13.0344 C 13.363 20.9927 11.2391 28.6344 8.38281 35.9594 L 3.10938 34.3109 C 5.94167 28.037 8.06563 20.9813 9.48125 13.1438 Z M 16.3297 29.1844 C 16.3297 27.8906 16.6469 26.5724 17.2813 25.2297 L 21.8234 26.0719 C 21.3099 26.95 21.0531 27.6698 21.0531 28.2313 C 21.0531 29.9406 23.1776 30.7953 27.4266 30.7953 C 29.8672 30.7953 32.3328 30.588 34.8234 30.1734 L 34.8969 35.1531 C 32.4792 35.4458 30.1844 35.5922 28.0125 35.5922 C 24.2281 35.5922 21.3349 35.043 19.3328 33.9445 C 17.3307 32.8461 16.3297 31.2594 16.3297 29.1844 Z M 18.8563 19.6266 L 18.8563 14.8656 C 21.5177 14.524 24.2951 14.3531 27.1883 14.3531 C 30.0815 14.3531 32.4802 14.426 34.3844 14.5719 L 34.2 19.3328 C 32.3208 19.162 29.9773 19.0766 27.1695 19.0766 C 24.3617 19.0766 21.5906 19.2599 18.8563 19.6266 Z" /></svg>