<?xml version="1.0" encoding="utf-8" standalone="no"?>
<!DOCTYPE svg PUBLIC "-//W3C//DTD SVG 1.1//EN"
"http://www.w3.org/Graphics/SVG/1.1/DTD/svg11.dtd">

<svg xmlns="http://www.w3.org/2000/svg" version="1.1" xmlns:xlink="http://www.w3.org/1999/xlink" width="40.9734" height="29.95" viewBox="0 0 40.9734 29.95"><path stroke="#1987e5" stroke-width="6" stroke-linejoin="round" fill="#1987e5" d="M 3 16.3672 C 3.92813 15.2932 6.38177 12.2901 10.3609 7.35781 C 11.7036 5.69844 12.8023 4.55729 13.657 3.93437 C 14.5117 3.31146 15.4151 3 16.3672 3 C 17.3193 3 18.2471 3.27474 19.1508 3.82422 C 20.0544 4.3737 21.1406 5.34427 22.4094 6.73594 C 25.6323 10.3005 28.4401 13.3219 30.8328 15.8 C 33.2255 18.2781 35.6057 20.5177 37.9734 22.5187 L 34.3844 26.95 C 29.9906 22.849 25.0958 17.6979 19.7 11.4969 C 18.1865 9.66562 17.1182 8.75 16.4953 8.75 C 15.8724 8.75 15.1094 9.32396 14.2063 10.4719 C 13.7917 10.9844 12.7419 12.4003 11.057 14.7195 C 9.37214 17.0388 8.07813 18.8453 7.175 20.1391 Z" /><path fill="#ffffff" d="M 3 16.3672 C 3.92813 15.2932 6.38177 12.2901 10.3609 7.35781 C 11.7036 5.69844 12.8023 4.55729 13.657 3.93437 C 14.5117 3.31146 15.4151 3 16.3672 3 C 17.3193 3 18.2471 3.27474 19.1508 3.82422 C 20.0544 4.3737 21.1406 5.34427 22.4094 6.73594 C 25.6323 10.3005 28.4401 13.3219 30.8328 15.8 C 33.2255 18.2781 35.6057 20.5177 37.9734 22.5187 L 34.3844 26.95 C 29.9906 22.849 25.0958 17.6979 19.7 11.4969 C 18.1865 9.66562 17.1182 8.75 16.4953 8.75 C 15.8724 8.75 15.1094 9.32396 14.2063 10.4719 C 13.7917 10.9844 12.7419 12.4003 11.057 14.7195 C 9.37214 17.0388 8.07813 18.8453 7.175 20.1391 Z" /></svg>