<?xml version="1.0" encoding="utf-8" standalone="no"?>
<!DOCTYPE svg PUBLIC "-//W3C//DTD SVG 1.1//EN"
"http://www.w3.org/Graphics/SVG/1.1/DTD/svg11.dtd">

<svg xmlns="http://www.w3.org/2000/svg" version="1.1" xmlns:xlink="http://www.w3.org/1999/xlink" width="117.252" height="32.275" viewBox="0 0 117.252 32.275"><path stroke="#ffffff" stroke-width="6" stroke-linejoin="round" fill="#ffffff" d="M 4.925 26.5672 L 4.925 28.4297 L 3 28.4297 L 3 5.0875 L 10.3391 5.0875 L 10.3391 26.5672 Z M 4.925 16.0781 L 4.925 24.8828 L 8.44219 24.8828 L 8.44219 16.0781 Z M 4.925 14.3938 L 8.44219 14.3938 L 8.44219 6.8 L 4.925 6.8 Z M 13.1125 4.66406 L 19.7016 4.66406 L 19.7016 13.5109 L 13.4125 13.5109 L 13.4125 16.9031 L 18.8844 16.9031 L 18.8844 18.6156 L 13.4125 18.6156 L 13.4125 22.4578 L 18.8844 22.4578 L 18.8844 24.1703 L 13.4125 24.1703 L 13.4125 29.275 L 11.4875 29.275 L 11.4875 4.66406 Z M 13.4125 6.40469 L 13.4125 11.8547 L 17.8609 11.8547 L 17.8609 6.40469 Z M 20.4828 6.40469 L 20.4828 4.66406 L 27.625 4.66406 L 27.625 13.5109 L 20.4828 13.5109 L 20.4828 11.8266 L 25.7 11.8266 L 25.7 6.40469 Z M 18.9891 18.1266 L 20.5938 17.3953 C 21.3969 19.3203 22.2302 20.9089 23.0938 22.1609 C 24.0896 20.7401 24.9396 19.0318 25.6438 17.0359 L 18.4813 17.0359 L 18.4813 15.3234 L 27.625 15.3234 L 27.625 16.7844 C 26.7781 19.4979 25.6411 21.7292 24.2141 23.4781 C 25.5224 24.976 27.0167 26.2375 28.6969 27.2625 L 27.9938 28.7953 C 26.0667 27.7411 24.4313 26.3781 23.0875 24.7062 C 21.7906 26.226 19.9203 27.5891 17.4766 28.7953 L 16.6766 27.3391 C 18.8901 26.1974 20.6667 24.8995 22.0063 23.4453 C 20.8323 21.9786 19.8266 20.2057 18.9891 18.1266 Z" /><path stroke="#ffffff" stroke-width="6" stroke-linejoin="round" fill="#ffffff" d="M 46.7172 25.6781 C 49.1422 25.4417 51.0034 24.5151 52.3008 22.8984 C 53.5982 21.2818 54.2469 19.1432 54.2469 16.4828 C 54.2469 14.013 53.3977 11.9745 51.6992 10.3672 C 50.0008 8.7599 47.8479 7.95625 45.2406 7.95625 L 45.3687 7.95625 C 44.1469 20.3823 41.5193 26.5953 37.4859 26.5953 C 36.1005 26.5953 34.8487 25.7711 33.7305 24.1227 C 32.6122 22.4742 32.0531 20.4729 32.0531 18.1187 C 32.0531 14.6187 33.2768 11.7552 35.7242 9.52812 C 38.1716 7.30104 41.3437 6.1875 45.2406 6.1875 C 48.4219 6.1875 51.0391 7.16094 53.0922 9.10781 C 55.1453 11.0547 56.1719 13.513 56.1719 16.4828 C 56.1719 19.6182 55.3716 22.1656 53.7711 24.125 C 52.1706 26.0844 49.9099 27.1807 46.9891 27.4141 Z M 43.4453 8.0125 C 40.7089 8.30625 38.4469 9.36953 36.6594 11.2023 C 34.8719 13.0352 33.9781 15.3406 33.9781 18.1187 C 33.9781 20.0333 34.3789 21.6253 35.1805 22.8945 C 35.982 24.1638 36.7505 24.7984 37.4859 24.7984 C 37.7391 24.7984 38.0091 24.7206 38.2961 24.5648 C 38.5831 24.4091 38.9143 24.1211 39.2898 23.7008 C 39.6654 23.2805 40.0435 22.6479 40.4242 21.8031 C 40.8049 20.9583 41.1781 19.9276 41.5437 18.7109 C 41.9094 17.4943 42.257 15.9378 42.5867 14.0414 C 42.9164 12.1451 43.2026 10.1354 43.4453 8.0125 Z" /><path stroke="#ffffff" stroke-width="6" stroke-linejoin="round" fill="#ffffff" d="M 77.5266 15.6344 L 82.6797 15.6344 L 82.6797 11.1141 L 77.5266 11.1141 Z M 70.1953 15.6344 L 75.5453 15.6344 L 75.5453 11.1141 L 70.1953 11.1141 Z M 85.4234 5.84844 L 85.4234 7.53281 L 77.5266 7.53281 L 77.5266 9.48594 L 84.6047 9.48594 L 84.6047 17.2625 L 78.0906 17.2625 C 79.6833 19.2188 82.1932 21.25 85.6203 23.3563 L 84.7312 24.7344 C 81.2854 22.676 78.8839 20.5609 77.5266 18.3891 L 77.5266 26.3141 L 75.5453 26.3141 L 75.5453 18.4188 C 74.0161 20.6469 71.5766 22.7521 68.2266 24.7344 L 67.2828 23.3281 C 70.6516 21.3312 73.2365 19.3094 75.0375 17.2625 L 69.8953 17.2625 L 68.2984 17.2625 L 68.2984 9.48594 L 75.5453 9.48594 L 75.5453 7.53281 L 67.1141 7.53281 L 67.1141 5.84844 L 75.5453 5.84844 L 75.5453 3.50781 L 77.5266 3.50781 L 77.5266 5.84844 Z M 66.7547 9.76875 L 65.4969 10.8609 C 63.8583 9.08073 62.2354 7.36406 60.6281 5.71094 L 61.8672 4.53594 C 63.8005 6.4401 65.4297 8.18437 66.7547 9.76875 Z M 60.1203 14.4219 L 66.2188 14.4219 L 66.2188 23.3078 C 66.9677 24.663 68.0187 25.5888 69.3719 26.0852 C 70.725 26.5815 72.9865 26.8297 76.1563 26.8297 L 85.5078 26.8297 L 85.4344 28.5422 L 76.0984 28.5422 C 72.9026 28.5422 70.4872 28.2711 68.8523 27.7289 C 67.2174 27.1867 66.0333 26.2734 65.3 24.9891 C 64.3656 26.3078 62.849 27.6615 60.75 29.05 L 59.8656 27.5922 C 61.7437 26.2776 63.2104 24.9562 64.2656 23.6281 L 64.2656 16.1344 L 60.1203 16.1344 Z" /><path stroke="#ffffff" stroke-width="6" stroke-linejoin="round" fill="#ffffff" d="M 98.8547 9.62656 L 107.166 9.62656 L 107.166 7.25 L 98.8547 7.25 Z M 98.8547 11.3109 L 98.8547 14.6469 L 107.166 14.6469 L 107.166 11.3109 Z M 92.5094 11.3109 L 92.5094 14.5078 C 92.5094 20.1359 91.5573 24.9359 89.6531 28.9078 L 88.2156 27.7078 C 89.7948 24.0047 90.5844 19.3698 90.5844 13.8031 L 90.5844 5.56562 L 101.328 5.56562 L 101.328 3 L 103.338 3 L 103.338 5.56562 L 114.053 5.56562 L 114.053 7.25 L 109.175 7.25 L 109.175 9.62656 L 114.025 9.62656 L 114.025 11.3109 L 109.175 11.3109 L 109.175 16.275 L 96.8719 16.275 L 96.8719 11.3109 Z M 92.5094 9.62656 L 96.8719 9.62656 L 96.8719 7.25 L 92.5094 7.25 Z M 96.1391 20.0375 L 97.6781 19.0875 C 99.2625 21.0646 101.123 22.587 103.259 23.6547 C 105.799 22.3943 107.872 20.912 109.478 19.2078 L 93.6297 19.2078 L 93.6297 17.5234 L 111.684 17.5234 L 111.684 19 C 110.096 21.2938 107.849 23.1708 104.945 24.6313 C 107.362 25.6198 110.464 26.4771 114.252 27.2031 L 113.791 28.8234 C 109.508 28.0255 105.998 26.9542 103.259 25.6094 C 100.299 27.0292 96.7422 28.1005 92.5891 28.8234 L 92.1344 27.1953 C 95.8292 26.5661 98.9875 25.7099 101.609 24.6266 C 99.3604 23.4682 97.537 21.9385 96.1391 20.0375 Z" /><path fill="#000000" d="M 4.925 26.5672 L 4.925 28.4297 L 3 28.4297 L 3 5.0875 L 10.3391 5.0875 L 10.3391 26.5672 Z M 4.925 16.0781 L 4.925 24.8828 L 8.44219 24.8828 L 8.44219 16.0781 Z M 4.925 14.3938 L 8.44219 14.3938 L 8.44219 6.8 L 4.925 6.8 Z M 13.1125 4.66406 L 19.7016 4.66406 L 19.7016 13.5109 L 13.4125 13.5109 L 13.4125 16.9031 L 18.8844 16.9031 L 18.8844 18.6156 L 13.4125 18.6156 L 13.4125 22.4578 L 18.8844 22.4578 L 18.8844 24.1703 L 13.4125 24.1703 L 13.4125 29.275 L 11.4875 29.275 L 11.4875 4.66406 Z M 13.4125 6.40469 L 13.4125 11.8547 L 17.8609 11.8547 L 17.8609 6.40469 Z M 20.4828 6.40469 L 20.4828 4.66406 L 27.625 4.66406 L 27.625 13.5109 L 20.4828 13.5109 L 20.4828 11.8266 L 25.7 11.8266 L 25.7 6.40469 Z M 18.9891 18.1266 L 20.5938 17.3953 C 21.3969 19.3203 22.2302 20.9089 23.0938 22.1609 C 24.0896 20.7401 24.9396 19.0318 25.6438 17.0359 L 18.4813 17.0359 L 18.4813 15.3234 L 27.625 15.3234 L 27.625 16.7844 C 26.7781 19.4979 25.6411 21.7292 24.2141 23.4781 C 25.5224 24.976 27.0167 26.2375 28.6969 27.2625 L 27.9938 28.7953 C 26.0667 27.7411 24.4313 26.3781 23.0875 24.7062 C 21.7906 26.226 19.9203 27.5891 17.4766 28.7953 L 16.6766 27.3391 C 18.8901 26.1974 20.6667 24.8995 22.0063 23.4453 C 20.8323 21.9786 19.8266 20.2057 18.9891 18.1266 Z" /><path fill="#000000" d="M 46.7172 25.6781 C 49.1422 25.4417 51.0034 24.5151 52.3008 22.8984 C 53.5982 21.2818 54.2469 19.1432 54.2469 16.4828 C 54.2469 14.013 53.3977 11.9745 51.6992 10.3672 C 50.0008 8.7599 47.8479 7.95625 45.2406 7.95625 L 45.3687 7.95625 C 44.1469 20.3823 41.5193 26.5953 37.4859 26.5953 C 36.1005 26.5953 34.8487 25.7711 33.7305 24.1227 C 32.6122 22.4742 32.0531 20.4729 32.0531 18.1187 C 32.0531 14.6187 33.2768 11.7552 35.7242 9.52812 C 38.1716 7.30104 41.3437 6.1875 45.2406 6.1875 C 48.4219 6.1875 51.0391 7.16094 53.0922 9.10781 C 55.1453 11.0547 56.1719 13.513 56.1719 16.4828 C 56.1719 19.6182 55.3716 22.1656 53.7711 24.125 C 52.1706 26.0844 49.9099 27.1807 46.9891 27.4141 Z M 43.4453 8.0125 C 40.7089 8.30625 38.4469 9.36953 36.6594 11.2023 C 34.8719 13.0352 33.9781 15.3406 33.9781 18.1187 C 33.9781 20.0333 34.3789 21.6253 35.1805 22.8945 C 35.982 24.1638 36.7505 24.7984 37.4859 24.7984 C 37.7391 24.7984 38.0091 24.7206 38.2961 24.5648 C 38.5831 24.4091 38.9143 24.1211 39.2898 23.7008 C 39.6654 23.2805 40.0435 22.6479 40.4242 21.8031 C 40.8049 20.9583 41.1781 19.9276 41.5437 18.7109 C 41.9094 17.4943 42.257 15.9378 42.5867 14.0414 C 42.9164 12.1451 43.2026 10.1354 43.4453 8.0125 Z" /><path fill="#000000" d="M 77.5266 15.6344 L 82.6797 15.6344 L 82.6797 11.1141 L 77.5266 11.1141 Z M 70.1953 15.6344 L 75.5453 15.6344 L 75.5453 11.1141 L 70.1953 11.1141 Z M 85.4234 5.84844 L 85.4234 7.53281 L 77.5266 7.53281 L 77.5266 9.48594 L 84.6047 9.48594 L 84.6047 17.2625 L 78.0906 17.2625 C 79.6833 19.2188 82.1932 21.25 85.6203 23.3563 L 84.7312 24.7344 C 81.2854 22.676 78.8839 20.5609 77.5266 18.3891 L 77.5266 26.3141 L 75.5453 26.3141 L 75.5453 18.4188 C 74.0161 20.6469 71.5766 22.7521 68.2266 24.7344 L 67.2828 23.3281 C 70.6516 21.3312 73.2365 19.3094 75.0375 17.2625 L 69.8953 17.2625 L 68.2984 17.2625 L 68.2984 9.48594 L 75.5453 9.48594 L 75.5453 7.53281 L 67.1141 7.53281 L 67.1141 5.84844 L 75.5453 5.84844 L 75.5453 3.50781 L 77.5266 3.50781 L 77.5266 5.84844 Z M 66.7547 9.76875 L 65.4969 10.8609 C 63.8583 9.08073 62.2354 7.36406 60.6281 5.71094 L 61.8672 4.53594 C 63.8005 6.4401 65.4297 8.18437 66.7547 9.76875 Z M 60.1203 14.4219 L 66.2188 14.4219 L 66.2188 23.3078 C 66.9677 24.663 68.0187 25.5888 69.3719 26.0852 C 70.725 26.5815 72.9865 26.8297 76.1563 26.8297 L 85.5078 26.8297 L 85.4344 28.5422 L 76.0984 28.5422 C 72.9026 28.5422 70.4872 28.2711 68.8523 27.7289 C 67.2174 27.1867 66.0333 26.2734 65.3 24.9891 C 64.3656 26.3078 62.849 27.6615 60.75 29.05 L 59.8656 27.5922 C 61.7437 26.2776 63.2104 24.9562 64.2656 23.6281 L 64.2656 16.1344 L 60.1203 16.1344 Z" /><path fill="#000000" d="M 98.8547 9.62656 L 107.166 9.62656 L 107.166 7.25 L 98.8547 7.25 Z M 98.8547 11.3109 L 98.8547 14.6469 L 107.166 14.6469 L 107.166 11.3109 Z M 92.5094 11.3109 L 92.5094 14.5078 C 92.5094 20.1359 91.5573 24.9359 89.6531 28.9078 L 88.2156 27.7078 C 89.7948 24.0047 90.5844 19.3698 90.5844 13.8031 L 90.5844 5.56562 L 101.328 5.56562 L 101.328 3 L 103.338 3 L 103.338 5.56562 L 114.053 5.56562 L 114.053 7.25 L 109.175 7.25 L 109.175 9.62656 L 114.025 9.62656 L 114.025 11.3109 L 109.175 11.3109 L 109.175 16.275 L 96.8719 16.275 L 96.8719 11.3109 Z M 92.5094 9.62656 L 96.8719 9.62656 L 96.8719 7.25 L 92.5094 7.25 Z M 96.1391 20.0375 L 97.6781 19.0875 C 99.2625 21.0646 101.123 22.587 103.259 23.6547 C 105.799 22.3943 107.872 20.912 109.478 19.2078 L 93.6297 19.2078 L 93.6297 17.5234 L 111.684 17.5234 L 111.684 19 C 110.096 21.2938 107.849 23.1708 104.945 24.6313 C 107.362 25.6198 110.464 26.4771 114.252 27.2031 L 113.791 28.8234 C 109.508 28.0255 105.998 26.9542 103.259 25.6094 C 100.299 27.0292 96.7422 28.1005 92.5891 28.8234 L 92.1344 27.1953 C 95.8292 26.5661 98.9875 25.7099 101.609 24.6266 C 99.3604 23.4682 97.537 21.9385 96.1391 20.0375 Z" /></svg>