<?xml version="1.0" encoding="utf-8" standalone="no"?>
<!DOCTYPE svg PUBLIC "-//W3C//DTD SVG 1.1//EN"
"http://www.w3.org/Graphics/SVG/1.1/DTD/svg11.dtd">

<svg xmlns="http://www.w3.org/2000/svg" version="1.1" xmlns:xlink="http://www.w3.org/1999/xlink" width="40.4984" height="39.9109" viewBox="0 0 40.4984 39.9109"><path stroke="#1987e5" stroke-width="6" stroke-linejoin="round" fill="#1987e5" d="M 4.39219 35.1531 C 3.46406 31.8813 3 27.7794 3 22.8477 C 3 17.9159 3.6474 11.8979 4.94219 4.79375 L 10.1422 5.01406 C 8.77448 11.4099 8.09062 17.0982 8.09062 22.0789 C 8.09062 27.0596 8.60365 31.2344 9.62969 34.6031 L 4.39219 35.1531 Z M 12.4125 32.0391 C 16.9042 31.8443 20.0352 30.8497 21.8055 29.0555 C 23.5758 27.2612 24.4609 24.1911 24.4609 19.8453 L 24.4609 16.6219 L 12.7047 16.6219 L 12.7047 11.825 L 24.4234 11.825 C 24.4234 9.40833 24.387 6.80833 24.3141 4.025 L 27.7563 4.025 C 28.3427 5.48958 28.9411 7.40573 29.5516 9.77344 L 29.5516 11.825 L 35.1547 11.825 L 35.1547 16.6219 L 29.6234 16.6219 L 29.6609 19.1859 L 29.6609 19.6625 C 29.6609 25.2531 28.5318 29.3852 26.2734 32.0586 C 24.0151 34.732 20.3104 36.3495 15.1594 36.9109 Z M 28.7453 3.9875 L 31.5281 3.62188 C 32.2115 5.23333 32.8219 7.22292 33.3594 9.59062 L 30.5031 10.1031 C 29.9167 7.49167 29.3307 5.45313 28.7453 3.9875 Z M 32.9203 3.40156 L 35.6297 3 C 36.4359 5.00104 37.0589 6.97813 37.4984 8.93125 L 34.7141 9.40781 C 34.1526 6.94219 33.5547 4.9401 32.9203 3.40156 Z" /><path fill="#ffffff" d="M 4.39219 35.1531 C 3.46406 31.8813 3 27.7794 3 22.8477 C 3 17.9159 3.6474 11.8979 4.94219 4.79375 L 10.1422 5.01406 C 8.77448 11.4099 8.09062 17.0982 8.09062 22.0789 C 8.09062 27.0596 8.60365 31.2344 9.62969 34.6031 L 4.39219 35.1531 Z M 12.4125 32.0391 C 16.9042 31.8443 20.0352 30.8497 21.8055 29.0555 C 23.5758 27.2612 24.4609 24.1911 24.4609 19.8453 L 24.4609 16.6219 L 12.7047 16.6219 L 12.7047 11.825 L 24.4234 11.825 C 24.4234 9.40833 24.387 6.80833 24.3141 4.025 L 27.7563 4.025 C 28.3427 5.48958 28.9411 7.40573 29.5516 9.77344 L 29.5516 11.825 L 35.1547 11.825 L 35.1547 16.6219 L 29.6234 16.6219 L 29.6609 19.1859 L 29.6609 19.6625 C 29.6609 25.2531 28.5318 29.3852 26.2734 32.0586 C 24.0151 34.732 20.3104 36.3495 15.1594 36.9109 Z M 28.7453 3.9875 L 31.5281 3.62188 C 32.2115 5.23333 32.8219 7.22292 33.3594 9.59062 L 30.5031 10.1031 C 29.9167 7.49167 29.3307 5.45313 28.7453 3.9875 Z M 32.9203 3.40156 L 35.6297 3 C 36.4359 5.00104 37.0589 6.97813 37.4984 8.93125 L 34.7141 9.40781 C 34.1526 6.94219 33.5547 4.9401 32.9203 3.40156 Z" /></svg>