<?xml version="1.0" encoding="utf-8" standalone="no"?>
<!DOCTYPE svg PUBLIC "-//W3C//DTD SVG 1.1//EN"
"http://www.w3.org/Graphics/SVG/1.1/DTD/svg11.dtd">

<svg xmlns="http://www.w3.org/2000/svg" version="1.1" xmlns:xlink="http://www.w3.org/1999/xlink" width="38.1531" height="38.8859" viewBox="0 0 38.1531 38.8859"><path stroke="#1987e5" stroke-width="6" stroke-linejoin="round" fill="#1987e5" d="M 4.42812 34.1641 C 3.47604 30.7953 3 26.6633 3 21.768 C 3 16.8727 3.64688 10.8729 4.94063 3.76875 L 10.1406 4.025 C 8.77396 10.4219 8.09062 16.1104 8.09062 21.0906 C 8.09062 26.0708 8.60313 30.2458 9.62813 33.6156 L 4.42812 34.1641 Z M 12.7047 15.5969 L 12.7047 10.8375 L 24.7891 10.8375 C 24.7891 8.32187 24.7526 5.70937 24.6797 3 L 29.8422 3 L 29.9156 10.8375 L 35.1531 10.8375 L 35.1531 15.5969 L 29.9891 15.5969 L 29.9891 18.6375 C 29.9891 24.2281 28.8661 28.3602 26.6203 31.0336 C 24.3745 33.707 20.6755 35.3245 15.5234 35.8859 L 12.7781 31.0156 C 17.2698 30.8198 20.4005 29.8247 22.1703 28.0305 C 23.9401 26.2362 24.825 23.1661 24.825 18.8203 L 24.825 15.5969 Z" /><path fill="#ffffff" d="M 4.42812 34.1641 C 3.47604 30.7953 3 26.6633 3 21.768 C 3 16.8727 3.64688 10.8729 4.94063 3.76875 L 10.1406 4.025 C 8.77396 10.4219 8.09062 16.1104 8.09062 21.0906 C 8.09062 26.0708 8.60313 30.2458 9.62813 33.6156 L 4.42812 34.1641 Z M 12.7047 15.5969 L 12.7047 10.8375 L 24.7891 10.8375 C 24.7891 8.32187 24.7526 5.70937 24.6797 3 L 29.8422 3 L 29.9156 10.8375 L 35.1531 10.8375 L 35.1531 15.5969 L 29.9891 15.5969 L 29.9891 18.6375 C 29.9891 24.2281 28.8661 28.3602 26.6203 31.0336 C 24.3745 33.707 20.6755 35.3245 15.5234 35.8859 L 12.7781 31.0156 C 17.2698 30.8198 20.4005 29.8247 22.1703 28.0305 C 23.9401 26.2362 24.825 23.1661 24.825 18.8203 L 24.825 15.5969 Z" /></svg>