<?xml version="1.0" encoding="utf-8" standalone="no"?>
<!DOCTYPE svg PUBLIC "-//W3C//DTD SVG 1.1//EN"
"http://www.w3.org/Graphics/SVG/1.1/DTD/svg11.dtd">

<svg xmlns="http://www.w3.org/2000/svg" version="1.1" xmlns:xlink="http://www.w3.org/1999/xlink" width="38.9953" height="40.4594" viewBox="0 0 38.9953 40.4594"><path stroke="#1987e5" stroke-width="6" stroke-linejoin="round" fill="#1987e5" d="M 3 14.7188 L 3 9.95781 L 11.7891 9.95781 C 12.2526 8.15052 12.6552 6.33177 12.9969 4.50156 L 18.1609 4.94062 C 17.7943 6.72292 17.4281 8.38281 17.0625 9.92031 C 19.8458 9.89635 23.3245 9.83542 27.4984 9.7375 L 27.6453 10.3969 C 27.7432 10.7385 27.8167 10.9948 27.8656 11.1656 L 31.7844 10.25 L 31.7844 14.3516 C 26.6083 14.5224 21.2734 14.6203 15.7797 14.6453 C 14.9745 17.2818 14.2786 19.2594 13.6922 20.5781 C 15.9391 19.2354 18.7042 18.5641 21.9875 18.5641 C 25.2708 18.5641 27.8831 19.3573 29.8242 20.9438 C 31.7654 22.5302 32.7359 24.7396 32.7359 27.5719 C 32.7359 30.8188 31.3932 33.2784 28.7078 34.9508 C 26.0224 36.6232 22.1161 37.4594 16.9891 37.4594 C 15.0849 37.4594 12.9609 37.313 10.6172 37.0203 L 8.96875 31.8203 C 11.825 32.3818 14.7365 32.6625 17.7031 32.6625 C 20.6698 32.6625 23.1052 32.1987 25.0094 31.2711 C 26.9135 30.3435 27.8656 29.013 27.8656 27.2797 C 27.8656 25.888 27.3102 24.8198 26.1992 24.075 C 25.0883 23.3302 23.4219 22.9578 21.2 22.9578 C 18.9781 22.9578 16.9273 23.4828 15.0477 24.5328 C 13.168 25.5828 11.3734 26.962 9.66406 28.6703 L 5.27031 26.2906 C 7.19844 23.1167 8.91979 19.2469 10.4344 14.6812 Z M 26.4734 4.09844 L 29.2203 3.62187 C 29.9286 5.13542 30.612 7.11302 31.2703 9.55469 L 28.4516 10.1406 C 27.7922 7.62604 27.1328 5.61198 26.4734 4.09844 Z M 31.2344 3.5125 L 33.9438 3 C 34.75 4.78229 35.4339 6.7474 35.9953 8.89531 L 33.2125 9.48125 C 32.5771 6.99062 31.9177 5.00104 31.2344 3.5125 Z" /><path fill="#ffffff" d="M 3 14.7188 L 3 9.95781 L 11.7891 9.95781 C 12.2526 8.15052 12.6552 6.33177 12.9969 4.50156 L 18.1609 4.94062 C 17.7943 6.72292 17.4281 8.38281 17.0625 9.92031 C 19.8458 9.89635 23.3245 9.83542 27.4984 9.7375 L 27.6453 10.3969 C 27.7432 10.7385 27.8167 10.9948 27.8656 11.1656 L 31.7844 10.25 L 31.7844 14.3516 C 26.6083 14.5224 21.2734 14.6203 15.7797 14.6453 C 14.9745 17.2818 14.2786 19.2594 13.6922 20.5781 C 15.9391 19.2354 18.7042 18.5641 21.9875 18.5641 C 25.2708 18.5641 27.8831 19.3573 29.8242 20.9438 C 31.7654 22.5302 32.7359 24.7396 32.7359 27.5719 C 32.7359 30.8188 31.3932 33.2784 28.7078 34.9508 C 26.0224 36.6232 22.1161 37.4594 16.9891 37.4594 C 15.0849 37.4594 12.9609 37.313 10.6172 37.0203 L 8.96875 31.8203 C 11.825 32.3818 14.7365 32.6625 17.7031 32.6625 C 20.6698 32.6625 23.1052 32.1987 25.0094 31.2711 C 26.9135 30.3435 27.8656 29.013 27.8656 27.2797 C 27.8656 25.888 27.3102 24.8198 26.1992 24.075 C 25.0883 23.3302 23.4219 22.9578 21.2 22.9578 C 18.9781 22.9578 16.9273 23.4828 15.0477 24.5328 C 13.168 25.5828 11.3734 26.962 9.66406 28.6703 L 5.27031 26.2906 C 7.19844 23.1167 8.91979 19.2469 10.4344 14.6812 Z M 26.4734 4.09844 L 29.2203 3.62187 C 29.9286 5.13542 30.612 7.11302 31.2703 9.55469 L 28.4516 10.1406 C 27.7922 7.62604 27.1328 5.61198 26.4734 4.09844 Z M 31.2344 3.5125 L 33.9438 3 C 34.75 4.78229 35.4339 6.7474 35.9953 8.89531 L 33.2125 9.48125 C 32.5771 6.99062 31.9177 5.00104 31.2344 3.5125 Z" /></svg>