<?xml version="1.0" encoding="utf-8" standalone="no"?>
<!DOCTYPE svg PUBLIC "-//W3C//DTD SVG 1.1//EN"
"http://www.w3.org/Graphics/SVG/1.1/DTD/svg11.dtd">

<svg xmlns="http://www.w3.org/2000/svg" version="1.1" xmlns:xlink="http://www.w3.org/1999/xlink" width="33.9406" height="35.9922" viewBox="0 0 33.9406 35.9922"><path stroke="#1987e5" stroke-width="6" stroke-linejoin="round" fill="#1987e5" d="M 3 24.5703 C 3 22.2016 3.96406 20.0406 5.89219 18.0875 L 10.4703 20.2125 C 8.98073 21.6771 8.23594 23.0076 8.23594 24.2039 C 8.23594 25.4003 9.08437 26.3464 10.7813 27.0422 C 12.4781 27.738 15.1271 28.0859 18.7281 28.0859 C 22.3292 28.0859 26.3635 27.6464 30.8313 26.7672 L 30.9406 31.9312 C 27.5229 32.6385 23.5068 32.9922 18.8922 32.9922 C 8.2974 32.9922 3 30.1849 3 24.5703 Z M 5.23281 7.76094 L 5.23281 3 C 9.26094 3.26875 12.9964 3.40312 16.4391 3.40312 C 19.8818 3.40312 24.2031 3.31771 29.4031 3.14687 L 29.4031 7.39531 C 26.2052 8.6151 22.4698 10.6167 18.1969 13.4 L 13.6563 11.0562 C 14.901 10.1781 16.4146 9.22604 18.1969 8.2 L 16.4391 8.2375 C 12.2891 8.2375 8.55365 8.07864 5.23281 7.76094 Z" /><path fill="#ffffff" d="M 3 24.5703 C 3 22.2016 3.96406 20.0406 5.89219 18.0875 L 10.4703 20.2125 C 8.98073 21.6771 8.23594 23.0076 8.23594 24.2039 C 8.23594 25.4003 9.08437 26.3464 10.7813 27.0422 C 12.4781 27.738 15.1271 28.0859 18.7281 28.0859 C 22.3292 28.0859 26.3635 27.6464 30.8313 26.7672 L 30.9406 31.9312 C 27.5229 32.6385 23.5068 32.9922 18.8922 32.9922 C 8.2974 32.9922 3 30.1849 3 24.5703 Z M 5.23281 7.76094 L 5.23281 3 C 9.26094 3.26875 12.9964 3.40312 16.4391 3.40312 C 19.8818 3.40312 24.2031 3.31771 29.4031 3.14687 L 29.4031 7.39531 C 26.2052 8.6151 22.4698 10.6167 18.1969 13.4 L 13.6563 11.0562 C 14.901 10.1781 16.4146 9.22604 18.1969 8.2 L 16.4391 8.2375 C 12.2891 8.2375 8.55365 8.07864 5.23281 7.76094 Z" /></svg>