<?xml version="1.0" encoding="utf-8" standalone="no"?>
<!DOCTYPE svg PUBLIC "-//W3C//DTD SVG 1.1//EN"
"http://www.w3.org/Graphics/SVG/1.1/DTD/svg11.dtd">

<svg xmlns="http://www.w3.org/2000/svg" version="1.1" xmlns:xlink="http://www.w3.org/1999/xlink" width="35.4437" height="39.0687" viewBox="0 0 35.4437 39.0687"><path stroke="#1987e5" stroke-width="6" stroke-linejoin="round" fill="#1987e5" d="M 3 10.9109 L 3 6.22344 C 7.12604 6.46719 11.5208 6.61354 16.1844 6.6625 L 16.1844 3 L 21.0906 3 L 21.0547 6.6625 C 24.6922 6.58958 28.4885 6.40625 32.4437 6.1125 L 32.4437 10.8375 C 29.1479 11.0812 25.3516 11.2156 21.0547 11.2406 L 21.0187 14.9016 C 24.4115 14.8776 27.8536 14.7557 31.3453 14.5359 L 31.3453 19.1859 C 27.5859 19.4307 24.1438 19.5651 21.0187 19.5891 L 20.9813 24.3141 C 24.35 25.5828 28.1099 27.8167 32.2609 31.0156 L 29.2578 35.2641 C 26.4505 32.6755 23.6552 30.6734 20.8719 29.2578 C 20.5542 31.3089 19.5409 32.9568 17.832 34.2016 C 16.1232 35.4464 14.0237 36.0687 11.5336 36.0687 C 9.04349 36.0687 7.05365 35.4646 5.56406 34.2562 C 4.07448 33.0479 3.32969 31.406 3.32969 29.3305 C 3.32969 27.2549 4.15365 25.6313 5.80156 24.4594 C 7.44948 23.2875 9.76302 22.7016 12.7422 22.7016 C 13.8161 22.7016 14.9635 22.7995 16.1844 22.9953 L 16.1844 19.5891 C 12.5469 19.5891 8.54271 19.4917 4.17188 19.2969 L 4.17188 14.5719 C 8.49375 14.7677 12.4979 14.8776 16.1844 14.9016 L 16.1844 11.2406 C 11.8385 11.2156 7.44375 11.1057 3 10.9109 Z M 8.16406 29.2203 C 8.16406 29.9286 8.48151 30.4841 9.11641 30.8867 C 9.7513 31.2893 10.7096 31.4906 11.9914 31.4906 C 13.2732 31.4906 14.2557 31.1672 14.9391 30.5203 C 15.6224 29.8734 16.025 28.8297 16.1469 27.3891 C 14.7802 27.0474 13.5229 26.8766 12.375 26.8766 C 9.56771 26.8766 8.16406 27.6578 8.16406 29.2203 Z" /><path fill="#ffffff" d="M 3 10.9109 L 3 6.22344 C 7.12604 6.46719 11.5208 6.61354 16.1844 6.6625 L 16.1844 3 L 21.0906 3 L 21.0547 6.6625 C 24.6922 6.58958 28.4885 6.40625 32.4437 6.1125 L 32.4437 10.8375 C 29.1479 11.0812 25.3516 11.2156 21.0547 11.2406 L 21.0187 14.9016 C 24.4115 14.8776 27.8536 14.7557 31.3453 14.5359 L 31.3453 19.1859 C 27.5859 19.4307 24.1438 19.5651 21.0187 19.5891 L 20.9813 24.3141 C 24.35 25.5828 28.1099 27.8167 32.2609 31.0156 L 29.2578 35.2641 C 26.4505 32.6755 23.6552 30.6734 20.8719 29.2578 C 20.5542 31.3089 19.5409 32.9568 17.832 34.2016 C 16.1232 35.4464 14.0237 36.0687 11.5336 36.0687 C 9.04349 36.0687 7.05365 35.4646 5.56406 34.2562 C 4.07448 33.0479 3.32969 31.406 3.32969 29.3305 C 3.32969 27.2549 4.15365 25.6313 5.80156 24.4594 C 7.44948 23.2875 9.76302 22.7016 12.7422 22.7016 C 13.8161 22.7016 14.9635 22.7995 16.1844 22.9953 L 16.1844 19.5891 C 12.5469 19.5891 8.54271 19.4917 4.17188 19.2969 L 4.17188 14.5719 C 8.49375 14.7677 12.4979 14.8776 16.1844 14.9016 L 16.1844 11.2406 C 11.8385 11.2156 7.44375 11.1057 3 10.9109 Z M 8.16406 29.2203 C 8.16406 29.9286 8.48151 30.4841 9.11641 30.8867 C 9.7513 31.2893 10.7096 31.4906 11.9914 31.4906 C 13.2732 31.4906 14.2557 31.1672 14.9391 30.5203 C 15.6224 29.8734 16.025 28.8297 16.1469 27.3891 C 14.7802 27.0474 13.5229 26.8766 12.375 26.8766 C 9.56771 26.8766 8.16406 27.6578 8.16406 29.2203 Z" /></svg>