<?xml version="1.0" encoding="utf-8" standalone="no"?>
<!DOCTYPE svg PUBLIC "-//W3C//DTD SVG 1.1//EN"
"http://www.w3.org/Graphics/SVG/1.1/DTD/svg11.dtd">

<svg xmlns="http://www.w3.org/2000/svg" version="1.1" xmlns:xlink="http://www.w3.org/1999/xlink" width="38.3359" height="38.9594" viewBox="0 0 38.3359 38.9594"><path stroke="#1987e5" stroke-width="6" stroke-linejoin="round" fill="#1987e5" d="M 3 13.2906 L 3 8.56563 L 10.2516 8.38281 C 10.4714 6.79635 10.6667 5.00208 10.8375 3 L 16.1109 3.22031 C 16.062 3.78177 15.8542 5.46615 15.4875 8.27344 L 23.1047 8.12656 L 23.1047 12.8875 L 14.7563 13.0344 C 13.3646 20.9927 11.2401 28.6344 8.38281 35.9594 L 3.10938 34.3109 C 5.94167 28.037 8.06615 20.9813 9.48281 13.1438 Z M 16.3297 29.1844 C 16.3297 27.8906 16.6474 26.5724 17.2828 25.2297 L 21.8234 26.0719 C 21.3109 26.95 21.0547 27.6698 21.0547 28.2313 C 21.0547 29.9406 23.1786 30.7953 27.4266 30.7953 C 29.8682 30.7953 32.3339 30.588 34.8234 30.1734 L 34.8969 35.1531 C 32.4802 35.4458 30.1854 35.5922 28.0125 35.5922 C 24.2281 35.5922 21.3349 35.043 19.3328 33.9445 C 17.3307 32.8461 16.3297 31.2594 16.3297 29.1844 Z M 18.8578 19.6266 L 18.8578 14.8656 C 21.5182 14.524 24.2951 14.3531 27.1883 14.3531 C 30.0815 14.3531 32.4802 14.426 34.3844 14.5719 L 34.2016 19.3328 C 32.3214 19.162 29.9776 19.0766 27.1703 19.0766 C 24.363 19.0766 21.5922 19.2599 18.8578 19.6266 Z M 25.4125 5.19688 L 28.0859 4.42813 C 28.9401 5.84375 29.8068 7.73594 30.6859 10.1047 L 27.975 10.9828 C 27.0969 8.56615 26.2427 6.6375 25.4125 5.19688 Z M 30.0625 4.0625 L 32.7 3.29219 C 33.6031 4.85469 34.4818 6.74688 35.3359 8.96875 L 32.6266 9.81094 C 31.7474 7.39427 30.8927 5.47813 30.0625 4.0625 Z" /><path fill="#ffffff" d="M 3 13.2906 L 3 8.56563 L 10.2516 8.38281 C 10.4714 6.79635 10.6667 5.00208 10.8375 3 L 16.1109 3.22031 C 16.062 3.78177 15.8542 5.46615 15.4875 8.27344 L 23.1047 8.12656 L 23.1047 12.8875 L 14.7563 13.0344 C 13.3646 20.9927 11.2401 28.6344 8.38281 35.9594 L 3.10938 34.3109 C 5.94167 28.037 8.06615 20.9813 9.48281 13.1438 Z M 16.3297 29.1844 C 16.3297 27.8906 16.6474 26.5724 17.2828 25.2297 L 21.8234 26.0719 C 21.3109 26.95 21.0547 27.6698 21.0547 28.2313 C 21.0547 29.9406 23.1786 30.7953 27.4266 30.7953 C 29.8682 30.7953 32.3339 30.588 34.8234 30.1734 L 34.8969 35.1531 C 32.4802 35.4458 30.1854 35.5922 28.0125 35.5922 C 24.2281 35.5922 21.3349 35.043 19.3328 33.9445 C 17.3307 32.8461 16.3297 31.2594 16.3297 29.1844 Z M 18.8578 19.6266 L 18.8578 14.8656 C 21.5182 14.524 24.2951 14.3531 27.1883 14.3531 C 30.0815 14.3531 32.4802 14.426 34.3844 14.5719 L 34.2016 19.3328 C 32.3214 19.162 29.9776 19.0766 27.1703 19.0766 C 24.363 19.0766 21.5922 19.2599 18.8578 19.6266 Z M 25.4125 5.19688 L 28.0859 4.42813 C 28.9401 5.84375 29.8068 7.73594 30.6859 10.1047 L 27.975 10.9828 C 27.0969 8.56615 26.2427 6.6375 25.4125 5.19688 Z M 30.0625 4.0625 L 32.7 3.29219 C 33.6031 4.85469 34.4818 6.74688 35.3359 8.96875 L 32.6266 9.81094 C 31.7474 7.39427 30.8927 5.47813 30.0625 4.0625 Z" /></svg>