<?xml version="1.0" encoding="utf-8" standalone="no"?>
<!DOCTYPE svg PUBLIC "-//W3C//DTD SVG 1.1//EN"
"http://www.w3.org/Graphics/SVG/1.1/DTD/svg11.dtd">

<svg xmlns="http://www.w3.org/2000/svg" version="1.1" xmlns:xlink="http://www.w3.org/1999/xlink" width="37.8969" height="34.7844" viewBox="0 0 37.8969 34.7844"><path stroke="#1987e5" stroke-width="6" stroke-linejoin="round" fill="#1987e5" d="M 3 13.4 C 3 10.8365 3.14635 7.36979 3.43906 3 L 8.7125 3.10938 C 8.27292 7.43021 8.05312 11.3242 8.05312 14.7914 C 8.05312 18.2586 8.38281 21.0479 9.04219 23.1594 C 9.70156 25.2708 10.6661 26.3266 11.9359 26.3266 C 12.7411 26.3266 13.5102 25.7164 14.243 24.4961 C 14.9758 23.2758 15.5984 21.5302 16.1109 19.2594 L 19.6266 24.35 C 19.0401 26.6688 18.0328 28.4875 16.6047 29.8063 C 15.1766 31.125 13.5104 31.7844 11.6062 31.7844 C 8.67604 31.7844 6.50912 30.2828 5.10547 27.2797 C 3.70182 24.2766 3 19.65 3 13.4 Z M 22.775 5.67344 L 27.5734 3.84219 C 29.8193 6.42969 31.6013 9.81094 32.9195 13.9859 C 34.2378 18.1609 34.8969 22.5313 34.8969 27.0969 L 29.5875 28.1219 C 29.5875 23.6542 28.9526 19.3328 27.6828 15.1578 C 26.413 10.9828 24.7771 7.82135 22.775 5.67344 Z" /><path fill="#ffffff" d="M 3 13.4 C 3 10.8365 3.14635 7.36979 3.43906 3 L 8.7125 3.10938 C 8.27292 7.43021 8.05312 11.3242 8.05312 14.7914 C 8.05312 18.2586 8.38281 21.0479 9.04219 23.1594 C 9.70156 25.2708 10.6661 26.3266 11.9359 26.3266 C 12.7411 26.3266 13.5102 25.7164 14.243 24.4961 C 14.9758 23.2758 15.5984 21.5302 16.1109 19.2594 L 19.6266 24.35 C 19.0401 26.6688 18.0328 28.4875 16.6047 29.8063 C 15.1766 31.125 13.5104 31.7844 11.6062 31.7844 C 8.67604 31.7844 6.50912 30.2828 5.10547 27.2797 C 3.70182 24.2766 3 19.65 3 13.4 Z M 22.775 5.67344 L 27.5734 3.84219 C 29.8193 6.42969 31.6013 9.81094 32.9195 13.9859 C 34.2378 18.1609 34.8969 22.5313 34.8969 27.0969 L 29.5875 28.1219 C 29.5875 23.6542 28.9526 19.3328 27.6828 15.1578 C 26.413 10.9828 24.7771 7.82135 22.775 5.67344 Z" /></svg>