<?xml version="1.0" encoding="utf-8" standalone="no"?>
<!DOCTYPE svg PUBLIC "-//W3C//DTD SVG 1.1//EN"
"http://www.w3.org/Graphics/SVG/1.1/DTD/svg11.dtd">

<svg xmlns="http://www.w3.org/2000/svg" version="1.1" xmlns:xlink="http://www.w3.org/1999/xlink" width="147.886" height="32.0922" viewBox="0 0 147.886 32.0922"><path stroke="#ffffff" stroke-width="6" stroke-linejoin="round" fill="#ffffff" d="M 17.5313 13.6187 L 22.6281 13.6187 L 22.6281 12.1719 L 17.5313 12.1719 Z M 17.5313 15.2172 L 17.5313 16.8609 L 22.6281 16.8609 L 22.6281 15.2172 Z M 13.8938 8.90156 L 13.8938 10.5437 L 26.4344 10.5437 L 26.4344 8.90156 Z M 13.8938 7.35781 L 26.4344 7.35781 L 26.4344 5.77031 L 13.8938 5.77031 Z M 19.1313 18.6656 L 21.0281 18.6656 L 21.0281 26.4797 C 21.0281 27.5536 20.882 28.2482 20.5898 28.5633 C 20.2977 28.8784 19.6578 29.0359 18.6703 29.0359 C 18.2589 29.0359 17.2583 28.9828 15.6687 28.8766 L 15.6344 27.0547 C 16.9312 27.2151 17.9052 27.2953 18.5562 27.2953 C 18.8844 27.2953 19.0622 27.2815 19.0898 27.2539 C 19.1174 27.2263 19.1313 26.9964 19.1313 26.5641 Z M 18.8 24.2906 C 16.5562 26.2667 14.0854 27.7167 11.3875 28.6406 L 10.6984 27.2141 C 13.1391 26.2839 15.5234 24.8771 17.8516 22.9937 Z M 29.2063 27.5438 L 28.2938 28.8391 C 25.9 27.0141 23.5224 25.5953 21.1609 24.5828 L 21.8687 23.1063 C 24.3542 24.1063 26.8 25.5854 29.2063 27.5438 Z M 12.1453 25.0516 L 10.6969 25.9063 C 9.7375 23.8156 8.76927 21.7755 7.79219 19.7859 C 7.18177 23.4922 5.99115 26.4063 4.22031 28.5281 L 3 27.3188 C 5.50104 23.9885 6.75156 18.7365 6.75156 11.5625 L 6.75156 3.86094 L 8.62031 3.86094 L 8.62031 11.5625 C 8.62031 12.7 8.57344 13.8406 8.47969 14.9844 C 9.24531 12.7469 9.91354 9.98333 10.4844 6.69375 L 12.2859 7.10781 C 11.6964 10.6089 10.7125 13.7161 9.33438 16.4297 L 8.40938 15.9797 C 8.35833 16.6474 8.30625 17.1865 8.25313 17.5969 C 9.07396 18.8896 9.86823 20.275 10.6359 21.7531 C 12.4734 20.8312 14.0453 19.7432 15.3516 18.4891 L 10.1062 18.4891 L 10.1062 16.8609 L 15.6062 16.8609 L 15.6062 15.2172 L 10.9531 15.2172 L 10.9531 13.6187 L 15.6062 13.6187 L 15.6062 12.1719 L 13.5938 12.1719 L 11.9406 12.1719 L 11.9406 4.17031 L 28.4172 4.17031 L 28.4172 12.1719 L 24.5813 12.1719 L 24.5813 13.6187 L 29.3188 13.6187 L 29.3188 15.2172 L 24.5813 15.2172 L 24.5813 16.8609 L 30.1078 16.8609 L 30.1078 18.4891 L 24.8641 18.4891 C 26.2901 19.8672 28.1417 21.0974 30.4188 22.1797 L 29.7219 23.6781 C 28.1187 22.9854 26.688 22.0734 25.4297 20.9422 C 24.737 21.7443 23.7828 22.5432 22.5672 23.3391 L 21.5281 22.1422 C 22.5562 21.3359 23.449 20.5865 24.2063 19.8937 C 23.7844 19.5521 23.3531 19.0839 22.9125 18.4891 L 17.275 18.4891 C 16.9469 18.9641 16.5057 19.4302 15.9516 19.8875 C 16.7557 20.5594 17.5453 21.3865 18.3203 22.3687 L 17.0578 23.4234 C 16.1432 22.4224 15.3703 21.6047 14.7391 20.9703 C 13.6172 21.9536 12.4797 22.7286 11.3266 23.2953 C 11.6932 23.9589 11.9661 24.5443 12.1453 25.0516 Z M 3.08437 17.3328 C 3.76146 14.4276 4.1 11.1349 4.1 7.45469 L 5.99687 7.62656 C 5.99687 11.4599 5.62135 14.8365 4.87031 17.7563 Z" /><path stroke="#ffffff" stroke-width="6" stroke-linejoin="round" fill="#ffffff" d="M 43.5953 14.7391 L 43.5953 18.2422 L 48.7203 18.2422 L 48.7203 14.7391 Z M 48.7203 9.80312 L 43.5953 9.80312 L 43.5953 13.0828 L 48.7203 13.0828 Z M 55.7984 13.0828 L 55.7984 9.80312 L 50.7016 9.80312 L 50.7016 13.0828 Z M 55.7984 14.7391 L 50.7016 14.7391 L 50.7016 18.2422 L 55.7984 18.2422 Z M 57.7234 8.09062 L 57.7234 19.9266 L 50.7016 19.9266 L 50.7016 22.6422 L 58.7391 22.6422 L 58.7391 24.3828 L 50.7016 24.3828 L 50.7016 29.0641 L 48.7203 29.0641 L 48.7203 24.3828 L 40.6547 24.3828 L 40.6547 22.6422 L 48.7203 22.6422 L 48.7203 19.9266 L 43.2953 19.9266 L 41.6984 19.9266 L 41.6984 8.09062 L 43.7016 8.09062 C 43.0203 6.78333 42.3057 5.42708 41.5578 4.02187 L 43.1859 3.28125 C 44.1391 4.92187 44.9536 6.525 45.6297 8.09062 L 49.3687 8.09062 C 48.7802 6.87083 48.0474 5.40885 47.1703 3.70469 L 48.8031 3 C 49.7271 4.64375 50.5516 6.34062 51.2766 8.09062 L 53.3672 8.09062 C 54.3474 6.6125 55.2734 4.93437 56.1453 3.05625 L 57.8656 3.68594 C 57.1875 5.26302 56.3505 6.73125 55.3547 8.09062 Z M 33.1656 11.0516 L 38.7094 11.0516 L 38.7094 6.33437 L 32.6187 6.33437 L 32.6187 4.59375 L 40.6625 4.59375 L 40.6625 12.7641 L 35.0281 12.7641 C 34.8896 14.8422 34.7656 16.3958 34.6563 17.425 L 40.5219 17.425 L 40.4609 18.4047 C 40.3672 20.0276 40.2771 21.3544 40.1906 22.3852 C 40.1042 23.4159 40.0102 24.312 39.9086 25.0734 C 39.807 25.8349 39.7003 26.4237 39.5883 26.8398 C 39.4763 27.256 39.3089 27.6031 39.0859 27.8812 C 38.863 28.1594 38.6471 28.3273 38.4383 28.3852 C 38.2294 28.443 37.95 28.4719 37.6 28.4719 C 36.5469 28.4719 34.9615 28.3797 32.8438 28.1953 L 32.8781 26.3766 C 34.7656 26.613 36.1891 26.7312 37.1484 26.7313 C 37.3339 26.7312 37.4557 26.7115 37.5141 26.6719 C 37.5724 26.6323 37.6687 26.3576 37.8031 25.8477 C 37.9375 25.3378 38.0469 24.5568 38.1312 23.5047 C 38.2156 22.4526 38.324 20.9875 38.4562 19.1094 L 34.4844 19.1094 C 34.4052 19.8813 34.3047 20.6333 34.1828 21.3656 L 32.3078 21.2266 C 32.6661 18.0693 32.9521 14.6776 33.1656 11.0516 Z" /><path stroke="#ffffff" stroke-width="6" stroke-linejoin="round" fill="#ffffff" d="M 66.2766 5.83437 L 66.2766 13.3922 L 73.2063 13.3922 L 73.2063 3.325 L 75.2156 3.325 L 75.2156 13.3922 L 82.1453 13.3922 L 82.1453 5.83437 L 84.0984 5.83437 L 84.0984 15.1047 L 75.2156 15.1047 L 75.2156 25.4063 L 83.4984 25.4063 L 83.4984 17.0016 L 85.4531 17.0016 L 85.4531 29.0359 L 83.4984 29.0359 L 83.4984 27.1469 L 64.9234 27.1469 L 64.9234 29.0359 L 62.9688 29.0359 L 62.9688 17.0016 L 64.9234 17.0016 L 64.9234 25.4063 L 73.2063 25.4063 L 73.2063 15.1047 L 64.3234 15.1047 L 64.3234 5.83437 Z" /><path stroke="#ffffff" stroke-width="6" stroke-linejoin="round" fill="#ffffff" d="M 101.703 15.5 L 101.703 18.75 L 112.581 18.75 L 112.581 15.5 Z M 101.703 10.7906 L 101.703 13.8719 L 112.581 13.8719 L 112.581 10.7906 Z M 101.703 9.1625 L 112.581 9.1625 L 112.581 6.19375 L 101.703 6.19375 Z M 99.3344 6.78594 L 95.6125 6.78594 L 95.6125 13.7031 L 99.1094 13.7031 L 99.1094 15.4438 L 95.6125 15.4438 L 95.6125 22.8797 C 96.224 22.663 97.4984 22.1745 99.4359 21.4141 L 99.7578 23.1156 C 96.6682 24.3646 93.3875 25.4635 89.9156 26.4125 L 89.6266 24.7516 C 91.4505 24.1432 92.7948 23.7297 93.6594 23.5109 L 93.6594 15.4438 L 89.9922 15.4438 L 89.9922 13.7031 L 93.6594 13.7031 L 93.6594 6.78594 L 89.7109 6.78594 L 89.7109 5.01719 L 99.3344 5.01719 Z M 113.206 28.3875 C 112.575 28.425 112.053 28.4437 111.641 28.4438 C 111.308 28.4437 110.826 28.425 110.192 28.3875 C 109.34 28.3667 108.759 28.207 108.449 27.9086 C 108.139 27.6102 107.984 27.0776 107.984 26.3109 L 107.984 20.4625 L 105.881 20.4625 C 105.756 22.2948 104.925 23.951 103.387 25.4312 C 101.849 26.9115 99.6333 28.0474 96.7406 28.8391 L 96.1406 27.2453 C 98.6 26.5339 100.485 25.5737 101.795 24.3648 C 103.104 23.156 103.833 21.8552 103.98 20.4625 L 101.403 20.4625 L 99.7781 20.4625 L 99.7781 4.45312 L 114.534 4.45312 L 114.534 20.4625 L 109.938 20.4625 L 109.938 25.8312 C 109.938 26.2375 109.968 26.4768 110.03 26.5492 C 110.091 26.6216 110.248 26.6646 110.5 26.6781 C 110.738 26.6948 111.146 26.7031 111.725 26.7031 C 112.379 26.7031 112.832 26.6948 113.084 26.6781 C 113.373 26.6625 113.556 26.638 113.633 26.6047 C 113.71 26.5714 113.812 26.3883 113.94 26.0555 C 114.067 25.7227 114.155 25.2203 114.202 24.5484 C 114.25 23.8766 114.305 22.7568 114.367 21.1891 L 116.283 21.4281 C 116.221 22.8625 116.158 23.9159 116.092 24.5883 C 116.027 25.2607 115.945 25.8771 115.846 26.4375 C 115.748 26.9979 115.571 27.4003 115.316 27.6445 C 115.06 27.8888 114.78 28.0638 114.475 28.1695 C 114.17 28.2753 113.747 28.3479 113.206 28.3875 Z" /><path stroke="#ffffff" stroke-width="6" stroke-linejoin="round" fill="#ffffff" d="M 133.852 13.5219 L 135.358 12.7281 C 136.902 14.7823 138.113 16.9661 138.992 19.2797 L 137.392 19.7859 C 137.187 19.3443 136.947 18.8464 136.673 18.2922 L 124.764 18.9406 L 124.658 17.3047 L 127.261 17.1547 C 127.694 16.788 128.321 16.2255 129.142 15.4672 C 127.896 13.8891 126.477 12.1589 124.884 10.2766 L 126.233 9.14687 C 126.551 9.47396 126.859 9.82422 127.159 10.1977 C 127.458 10.5711 127.609 10.7849 127.613 10.8391 C 128.617 9.72344 129.644 8.59792 130.694 7.4625 L 119.159 7.4625 L 119.159 5.80625 L 130.806 5.80625 L 130.806 3.29687 L 132.816 3.29687 L 132.816 5.80625 L 144.462 5.80625 L 144.462 7.4625 L 132.778 7.4625 C 131.493 9.16562 130.142 10.7385 128.727 12.1812 C 128.812 12.2396 129.099 12.5643 129.587 13.1555 C 130.076 13.7466 130.351 14.112 130.413 14.2516 C 132.047 12.5932 133.786 10.6005 135.631 8.27344 L 137.188 9.13125 C 134.835 12.1729 132.316 14.7724 129.63 16.9297 L 135.967 16.6891 C 135.234 15.5734 134.529 14.5177 133.852 13.5219 Z M 124.539 12.9344 C 123.259 11.7437 121.691 10.4995 119.836 9.20156 L 120.823 7.85 C 122.733 9.15104 124.343 10.4641 125.653 11.7891 Z M 118.991 17.9734 C 121.315 16.9464 123.323 15.7995 125.017 14.5328 L 125.85 15.9078 C 124.214 17.2443 122.145 18.4339 119.644 19.4766 Z M 139.028 12.9344 L 137.997 11.7312 C 139.567 10.6156 141.136 9.33125 142.705 7.87812 L 143.842 9.09375 C 142.491 10.5021 140.886 11.7823 139.028 12.9344 Z M 137.772 15.9984 L 138.484 14.5047 C 141.084 15.6974 143.152 16.8813 144.688 18.0562 L 143.819 19.4203 C 142.079 18.2286 140.064 17.088 137.772 15.9984 Z M 130.806 18.5812 L 132.816 18.5812 L 132.816 20.5266 L 144.886 20.5266 L 144.886 22.2109 L 132.816 22.2109 L 132.816 29.0922 L 130.806 29.0922 L 130.806 22.2109 L 118.736 22.2109 L 118.736 20.5266 L 130.806 20.5266 Z" /><path fill="#000000" d="M 17.5313 13.6187 L 22.6281 13.6187 L 22.6281 12.1719 L 17.5313 12.1719 Z M 17.5313 15.2172 L 17.5313 16.8609 L 22.6281 16.8609 L 22.6281 15.2172 Z M 13.8938 8.90156 L 13.8938 10.5437 L 26.4344 10.5437 L 26.4344 8.90156 Z M 13.8938 7.35781 L 26.4344 7.35781 L 26.4344 5.77031 L 13.8938 5.77031 Z M 19.1313 18.6656 L 21.0281 18.6656 L 21.0281 26.4797 C 21.0281 27.5536 20.882 28.2482 20.5898 28.5633 C 20.2977 28.8784 19.6578 29.0359 18.6703 29.0359 C 18.2589 29.0359 17.2583 28.9828 15.6687 28.8766 L 15.6344 27.0547 C 16.9312 27.2151 17.9052 27.2953 18.5562 27.2953 C 18.8844 27.2953 19.0622 27.2815 19.0898 27.2539 C 19.1174 27.2263 19.1313 26.9964 19.1313 26.5641 Z M 18.8 24.2906 C 16.5562 26.2667 14.0854 27.7167 11.3875 28.6406 L 10.6984 27.2141 C 13.1391 26.2839 15.5234 24.8771 17.8516 22.9937 Z M 29.2063 27.5438 L 28.2938 28.8391 C 25.9 27.0141 23.5224 25.5953 21.1609 24.5828 L 21.8687 23.1063 C 24.3542 24.1063 26.8 25.5854 29.2063 27.5438 Z M 12.1453 25.0516 L 10.6969 25.9063 C 9.7375 23.8156 8.76927 21.7755 7.79219 19.7859 C 7.18177 23.4922 5.99115 26.4063 4.22031 28.5281 L 3 27.3188 C 5.50104 23.9885 6.75156 18.7365 6.75156 11.5625 L 6.75156 3.86094 L 8.62031 3.86094 L 8.62031 11.5625 C 8.62031 12.7 8.57344 13.8406 8.47969 14.9844 C 9.24531 12.7469 9.91354 9.98333 10.4844 6.69375 L 12.2859 7.10781 C 11.6964 10.6089 10.7125 13.7161 9.33438 16.4297 L 8.40938 15.9797 C 8.35833 16.6474 8.30625 17.1865 8.25313 17.5969 C 9.07396 18.8896 9.86823 20.275 10.6359 21.7531 C 12.4734 20.8312 14.0453 19.7432 15.3516 18.4891 L 10.1062 18.4891 L 10.1062 16.8609 L 15.6062 16.8609 L 15.6062 15.2172 L 10.9531 15.2172 L 10.9531 13.6187 L 15.6062 13.6187 L 15.6062 12.1719 L 13.5938 12.1719 L 11.9406 12.1719 L 11.9406 4.17031 L 28.4172 4.17031 L 28.4172 12.1719 L 24.5813 12.1719 L 24.5813 13.6187 L 29.3188 13.6187 L 29.3188 15.2172 L 24.5813 15.2172 L 24.5813 16.8609 L 30.1078 16.8609 L 30.1078 18.4891 L 24.8641 18.4891 C 26.2901 19.8672 28.1417 21.0974 30.4188 22.1797 L 29.7219 23.6781 C 28.1187 22.9854 26.688 22.0734 25.4297 20.9422 C 24.737 21.7443 23.7828 22.5432 22.5672 23.3391 L 21.5281 22.1422 C 22.5562 21.3359 23.449 20.5865 24.2063 19.8937 C 23.7844 19.5521 23.3531 19.0839 22.9125 18.4891 L 17.275 18.4891 C 16.9469 18.9641 16.5057 19.4302 15.9516 19.8875 C 16.7557 20.5594 17.5453 21.3865 18.3203 22.3687 L 17.0578 23.4234 C 16.1432 22.4224 15.3703 21.6047 14.7391 20.9703 C 13.6172 21.9536 12.4797 22.7286 11.3266 23.2953 C 11.6932 23.9589 11.9661 24.5443 12.1453 25.0516 Z M 3.08437 17.3328 C 3.76146 14.4276 4.1 11.1349 4.1 7.45469 L 5.99687 7.62656 C 5.99687 11.4599 5.62135 14.8365 4.87031 17.7563 Z" /><path fill="#000000" d="M 43.5953 14.7391 L 43.5953 18.2422 L 48.7203 18.2422 L 48.7203 14.7391 Z M 48.7203 9.80312 L 43.5953 9.80312 L 43.5953 13.0828 L 48.7203 13.0828 Z M 55.7984 13.0828 L 55.7984 9.80312 L 50.7016 9.80312 L 50.7016 13.0828 Z M 55.7984 14.7391 L 50.7016 14.7391 L 50.7016 18.2422 L 55.7984 18.2422 Z M 57.7234 8.09062 L 57.7234 19.9266 L 50.7016 19.9266 L 50.7016 22.6422 L 58.7391 22.6422 L 58.7391 24.3828 L 50.7016 24.3828 L 50.7016 29.0641 L 48.7203 29.0641 L 48.7203 24.3828 L 40.6547 24.3828 L 40.6547 22.6422 L 48.7203 22.6422 L 48.7203 19.9266 L 43.2953 19.9266 L 41.6984 19.9266 L 41.6984 8.09062 L 43.7016 8.09062 C 43.0203 6.78333 42.3057 5.42708 41.5578 4.02187 L 43.1859 3.28125 C 44.1391 4.92187 44.9536 6.525 45.6297 8.09062 L 49.3687 8.09062 C 48.7802 6.87083 48.0474 5.40885 47.1703 3.70469 L 48.8031 3 C 49.7271 4.64375 50.5516 6.34062 51.2766 8.09062 L 53.3672 8.09062 C 54.3474 6.6125 55.2734 4.93437 56.1453 3.05625 L 57.8656 3.68594 C 57.1875 5.26302 56.3505 6.73125 55.3547 8.09062 Z M 33.1656 11.0516 L 38.7094 11.0516 L 38.7094 6.33437 L 32.6187 6.33437 L 32.6187 4.59375 L 40.6625 4.59375 L 40.6625 12.7641 L 35.0281 12.7641 C 34.8896 14.8422 34.7656 16.3958 34.6563 17.425 L 40.5219 17.425 L 40.4609 18.4047 C 40.3672 20.0276 40.2771 21.3544 40.1906 22.3852 C 40.1042 23.4159 40.0102 24.312 39.9086 25.0734 C 39.807 25.8349 39.7003 26.4237 39.5883 26.8398 C 39.4763 27.256 39.3089 27.6031 39.0859 27.8812 C 38.863 28.1594 38.6471 28.3273 38.4383 28.3852 C 38.2294 28.443 37.95 28.4719 37.6 28.4719 C 36.5469 28.4719 34.9615 28.3797 32.8438 28.1953 L 32.8781 26.3766 C 34.7656 26.613 36.1891 26.7312 37.1484 26.7313 C 37.3339 26.7312 37.4557 26.7115 37.5141 26.6719 C 37.5724 26.6323 37.6687 26.3576 37.8031 25.8477 C 37.9375 25.3378 38.0469 24.5568 38.1312 23.5047 C 38.2156 22.4526 38.324 20.9875 38.4562 19.1094 L 34.4844 19.1094 C 34.4052 19.8813 34.3047 20.6333 34.1828 21.3656 L 32.3078 21.2266 C 32.6661 18.0693 32.9521 14.6776 33.1656 11.0516 Z" /><path fill="#000000" d="M 66.2766 5.83437 L 66.2766 13.3922 L 73.2063 13.3922 L 73.2063 3.325 L 75.2156 3.325 L 75.2156 13.3922 L 82.1453 13.3922 L 82.1453 5.83437 L 84.0984 5.83437 L 84.0984 15.1047 L 75.2156 15.1047 L 75.2156 25.4063 L 83.4984 25.4063 L 83.4984 17.0016 L 85.4531 17.0016 L 85.4531 29.0359 L 83.4984 29.0359 L 83.4984 27.1469 L 64.9234 27.1469 L 64.9234 29.0359 L 62.9688 29.0359 L 62.9688 17.0016 L 64.9234 17.0016 L 64.9234 25.4063 L 73.2063 25.4063 L 73.2063 15.1047 L 64.3234 15.1047 L 64.3234 5.83437 Z" /><path fill="#000000" d="M 101.703 15.5 L 101.703 18.75 L 112.581 18.75 L 112.581 15.5 Z M 101.703 10.7906 L 101.703 13.8719 L 112.581 13.8719 L 112.581 10.7906 Z M 101.703 9.1625 L 112.581 9.1625 L 112.581 6.19375 L 101.703 6.19375 Z M 99.3344 6.78594 L 95.6125 6.78594 L 95.6125 13.7031 L 99.1094 13.7031 L 99.1094 15.4438 L 95.6125 15.4438 L 95.6125 22.8797 C 96.224 22.663 97.4984 22.1745 99.4359 21.4141 L 99.7578 23.1156 C 96.6682 24.3646 93.3875 25.4635 89.9156 26.4125 L 89.6266 24.7516 C 91.4505 24.1432 92.7948 23.7297 93.6594 23.5109 L 93.6594 15.4438 L 89.9922 15.4438 L 89.9922 13.7031 L 93.6594 13.7031 L 93.6594 6.78594 L 89.7109 6.78594 L 89.7109 5.01719 L 99.3344 5.01719 Z M 113.206 28.3875 C 112.575 28.425 112.053 28.4437 111.641 28.4438 C 111.308 28.4437 110.826 28.425 110.192 28.3875 C 109.34 28.3667 108.759 28.207 108.449 27.9086 C 108.139 27.6102 107.984 27.0776 107.984 26.3109 L 107.984 20.4625 L 105.881 20.4625 C 105.756 22.2948 104.925 23.951 103.387 25.4312 C 101.849 26.9115 99.6333 28.0474 96.7406 28.8391 L 96.1406 27.2453 C 98.6 26.5339 100.485 25.5737 101.795 24.3648 C 103.104 23.156 103.833 21.8552 103.98 20.4625 L 101.403 20.4625 L 99.7781 20.4625 L 99.7781 4.45312 L 114.534 4.45312 L 114.534 20.4625 L 109.938 20.4625 L 109.938 25.8312 C 109.938 26.2375 109.968 26.4768 110.03 26.5492 C 110.091 26.6216 110.248 26.6646 110.5 26.6781 C 110.738 26.6948 111.146 26.7031 111.725 26.7031 C 112.379 26.7031 112.832 26.6948 113.084 26.6781 C 113.373 26.6625 113.556 26.638 113.633 26.6047 C 113.71 26.5714 113.812 26.3883 113.94 26.0555 C 114.067 25.7227 114.155 25.2203 114.202 24.5484 C 114.25 23.8766 114.305 22.7568 114.367 21.1891 L 116.283 21.4281 C 116.221 22.8625 116.158 23.9159 116.092 24.5883 C 116.027 25.2607 115.945 25.8771 115.846 26.4375 C 115.748 26.9979 115.571 27.4003 115.316 27.6445 C 115.06 27.8888 114.78 28.0638 114.475 28.1695 C 114.17 28.2753 113.747 28.3479 113.206 28.3875 Z" /><path fill="#000000" d="M 133.852 13.5219 L 135.358 12.7281 C 136.902 14.7823 138.113 16.9661 138.992 19.2797 L 137.392 19.7859 C 137.187 19.3443 136.947 18.8464 136.673 18.2922 L 124.764 18.9406 L 124.658 17.3047 L 127.261 17.1547 C 127.694 16.788 128.321 16.2255 129.142 15.4672 C 127.896 13.8891 126.477 12.1589 124.884 10.2766 L 126.233 9.14687 C 126.551 9.47396 126.859 9.82422 127.159 10.1977 C 127.458 10.5711 127.609 10.7849 127.613 10.8391 C 128.617 9.72344 129.644 8.59792 130.694 7.4625 L 119.159 7.4625 L 119.159 5.80625 L 130.806 5.80625 L 130.806 3.29687 L 132.816 3.29687 L 132.816 5.80625 L 144.462 5.80625 L 144.462 7.4625 L 132.778 7.4625 C 131.493 9.16562 130.142 10.7385 128.727 12.1812 C 128.812 12.2396 129.099 12.5643 129.587 13.1555 C 130.076 13.7466 130.351 14.112 130.413 14.2516 C 132.047 12.5932 133.786 10.6005 135.631 8.27344 L 137.188 9.13125 C 134.835 12.1729 132.316 14.7724 129.63 16.9297 L 135.967 16.6891 C 135.234 15.5734 134.529 14.5177 133.852 13.5219 Z M 124.539 12.9344 C 123.259 11.7437 121.691 10.4995 119.836 9.20156 L 120.823 7.85 C 122.733 9.15104 124.343 10.4641 125.653 11.7891 Z M 118.991 17.9734 C 121.315 16.9464 123.323 15.7995 125.017 14.5328 L 125.85 15.9078 C 124.214 17.2443 122.145 18.4339 119.644 19.4766 Z M 139.028 12.9344 L 137.997 11.7312 C 139.567 10.6156 141.136 9.33125 142.705 7.87812 L 143.842 9.09375 C 142.491 10.5021 140.886 11.7823 139.028 12.9344 Z M 137.772 15.9984 L 138.484 14.5047 C 141.084 15.6974 143.152 16.8813 144.688 18.0562 L 143.819 19.4203 C 142.079 18.2286 140.064 17.088 137.772 15.9984 Z M 130.806 18.5812 L 132.816 18.5812 L 132.816 20.5266 L 144.886 20.5266 L 144.886 22.2109 L 132.816 22.2109 L 132.816 29.0922 L 130.806 29.0922 L 130.806 22.2109 L 118.736 22.2109 L 118.736 20.5266 L 130.806 20.5266 Z" /></svg>