<?xml version="1.0" encoding="utf-8" standalone="no"?>
<!DOCTYPE svg PUBLIC "-//W3C//DTD SVG 1.1//EN"
"http://www.w3.org/Graphics/SVG/1.1/DTD/svg11.dtd">

<svg xmlns="http://www.w3.org/2000/svg" version="1.1" xmlns:xlink="http://www.w3.org/1999/xlink" width="39.6547" height="38.1172" viewBox="0 0 39.6547 38.1172"><path stroke="#1987e5" stroke-width="6" stroke-linejoin="round" fill="#1987e5" d="M 3 33.0672 L 14.6094 3 L 19.5531 4.72187 L 14.3891 17.1734 C 15.4391 16.5141 16.544 16.1844 17.7039 16.1844 C 18.8638 16.1844 19.8831 16.5323 20.7617 17.2281 C 21.6404 17.924 22.275 18.8943 22.6656 20.1391 C 22.9104 20.8224 23.2404 22.1956 23.6555 24.2586 C 24.0706 26.3216 24.3635 27.6219 24.5344 28.1594 C 24.876 29.2333 25.4984 29.7703 26.4016 29.7703 C 27.8422 29.7703 29.0872 28.562 30.1367 26.1453 C 31.1862 23.7286 31.7599 20.7625 31.8578 17.2469 L 36.6547 19.4063 C 36.2641 24.3385 35.1534 28.1656 33.3227 30.8875 C 31.4919 33.6094 29.0932 34.9703 26.1266 34.9703 C 23.1599 34.9703 21.213 33.774 20.2859 31.3813 C 19.9932 30.674 19.6393 29.2948 19.2242 27.2437 C 18.8091 25.1927 18.5281 23.899 18.3813 23.3625 C 17.9906 21.9948 17.356 21.3109 16.4773 21.3109 C 15.5987 21.3109 14.6526 21.9031 13.6391 23.0875 C 12.6255 24.2719 11.6672 25.7307 10.7641 27.4641 L 7.98125 35.1172 Z" /><path fill="#ffffff" d="M 3 33.0672 L 14.6094 3 L 19.5531 4.72187 L 14.3891 17.1734 C 15.4391 16.5141 16.544 16.1844 17.7039 16.1844 C 18.8638 16.1844 19.8831 16.5323 20.7617 17.2281 C 21.6404 17.924 22.275 18.8943 22.6656 20.1391 C 22.9104 20.8224 23.2404 22.1956 23.6555 24.2586 C 24.0706 26.3216 24.3635 27.6219 24.5344 28.1594 C 24.876 29.2333 25.4984 29.7703 26.4016 29.7703 C 27.8422 29.7703 29.0872 28.562 30.1367 26.1453 C 31.1862 23.7286 31.7599 20.7625 31.8578 17.2469 L 36.6547 19.4063 C 36.2641 24.3385 35.1534 28.1656 33.3227 30.8875 C 31.4919 33.6094 29.0932 34.9703 26.1266 34.9703 C 23.1599 34.9703 21.213 33.774 20.2859 31.3813 C 19.9932 30.674 19.6393 29.2948 19.2242 27.2437 C 18.8091 25.1927 18.5281 23.899 18.3813 23.3625 C 17.9906 21.9948 17.356 21.3109 16.4773 21.3109 C 15.5987 21.3109 14.6526 21.9031 13.6391 23.0875 C 12.6255 24.2719 11.6672 25.7307 10.7641 27.4641 L 7.98125 35.1172 Z" /></svg>