<?xml version="1.0" encoding="utf-8" standalone="no"?>
<!DOCTYPE svg PUBLIC "-//W3C//DTD SVG 1.1//EN"
"http://www.w3.org/Graphics/SVG/1.1/DTD/svg11.dtd">

<svg xmlns="http://www.w3.org/2000/svg" version="1.1" xmlns:xlink="http://www.w3.org/1999/xlink" width="33.7219" height="38.0078" viewBox="0 0 33.7219 38.0078"><path stroke="#1987e5" stroke-width="6" stroke-linejoin="round" fill="#1987e5" d="M 3 24.2406 C 3 22.5323 3.12188 15.4521 3.36563 3 L 8.67656 3.0375 C 8.38385 14.1698 8.2375 20.8349 8.2375 23.0328 C 8.2375 27.5495 10.3 29.8078 14.425 29.8078 C 17.0865 29.8078 19.4854 28.9411 21.6219 27.2078 C 23.7583 25.4745 25.4 23.0573 26.5469 19.9563 L 30.7219 23.875 C 29.1354 27.2927 26.8711 30.0026 23.9289 32.0047 C 20.9867 34.0068 17.7701 35.0078 14.2789 35.0078 C 10.7878 35.0078 8.03516 34.0617 6.02109 32.1695 C 4.00703 30.2773 3 27.6344 3 24.2406 Z" /><path fill="#ffffff" d="M 3 24.2406 C 3 22.5323 3.12188 15.4521 3.36563 3 L 8.67656 3.0375 C 8.38385 14.1698 8.2375 20.8349 8.2375 23.0328 C 8.2375 27.5495 10.3 29.8078 14.425 29.8078 C 17.0865 29.8078 19.4854 28.9411 21.6219 27.2078 C 23.7583 25.4745 25.4 23.0573 26.5469 19.9563 L 30.7219 23.875 C 29.1354 27.2927 26.8711 30.0026 23.9289 32.0047 C 20.9867 34.0068 17.7701 35.0078 14.2789 35.0078 C 10.7878 35.0078 8.03516 34.0617 6.02109 32.1695 C 4.00703 30.2773 3 27.6344 3 24.2406 Z" /></svg>