<?xml version="1.0" encoding="utf-8" standalone="no"?>
<!DOCTYPE svg PUBLIC "-//W3C//DTD SVG 1.1//EN"
"http://www.w3.org/Graphics/SVG/1.1/DTD/svg11.dtd">

<svg xmlns="http://www.w3.org/2000/svg" version="1.1" xmlns:xlink="http://www.w3.org/1999/xlink" width="33.4297" height="33.2828" viewBox="0 0 33.4297 33.2828"><path stroke="#1987e5" stroke-width="6" stroke-linejoin="round" fill="#1987e5" d="M 3 13.0719 C 4.075 12.7542 5.83281 12.1927 8.27344 11.3875 C 7.56615 9.14062 6.82188 7.0651 6.04063 5.16094 L 10.6547 3.84219 C 11.338 5.57656 12.0339 7.61562 12.7422 9.95937 C 14.7922 9.32396 16.2932 8.88437 17.2453 8.64062 C 16.6359 7.15104 15.9406 5.78385 15.1594 4.53906 L 19.6625 3 C 20.3948 4.22083 21.1516 5.77135 21.9328 7.65156 C 22.2755 7.6026 22.7276 7.57812 23.2891 7.57812 C 25.3391 7.57812 27.0417 8.29844 28.3969 9.73906 C 29.7521 11.1797 30.4297 13.0292 30.4297 15.2875 C 30.4297 17.5458 29.5935 19.3341 27.9211 20.6523 C 26.2487 21.9706 23.9354 22.6297 20.9813 22.6297 C 20.3219 22.6297 19.6385 22.5932 18.9313 22.5203 L 17.2094 17.5391 C 18.601 17.8318 19.8828 17.9781 21.0547 17.9781 C 24.1797 17.9781 25.7422 17.0141 25.7422 15.0859 C 25.7422 14.1828 25.4615 13.4443 24.9 12.8703 C 24.3385 12.2964 23.5083 12.0094 22.4094 12.0094 C 21.3104 12.0094 18.5031 12.7297 13.9875 14.1703 C 15.8177 20.5911 17.026 25.6812 17.6125 29.4406 L 12.7047 30.2828 C 12.0943 25.962 11.0448 21.0917 9.55625 15.6719 C 7.99375 16.2083 6.34584 16.8307 4.6125 17.5391 Z" /><path fill="#ffffff" d="M 3 13.0719 C 4.075 12.7542 5.83281 12.1927 8.27344 11.3875 C 7.56615 9.14062 6.82188 7.0651 6.04063 5.16094 L 10.6547 3.84219 C 11.338 5.57656 12.0339 7.61562 12.7422 9.95937 C 14.7922 9.32396 16.2932 8.88437 17.2453 8.64062 C 16.6359 7.15104 15.9406 5.78385 15.1594 4.53906 L 19.6625 3 C 20.3948 4.22083 21.1516 5.77135 21.9328 7.65156 C 22.2755 7.6026 22.7276 7.57812 23.2891 7.57812 C 25.3391 7.57812 27.0417 8.29844 28.3969 9.73906 C 29.7521 11.1797 30.4297 13.0292 30.4297 15.2875 C 30.4297 17.5458 29.5935 19.3341 27.9211 20.6523 C 26.2487 21.9706 23.9354 22.6297 20.9813 22.6297 C 20.3219 22.6297 19.6385 22.5932 18.9313 22.5203 L 17.2094 17.5391 C 18.601 17.8318 19.8828 17.9781 21.0547 17.9781 C 24.1797 17.9781 25.7422 17.0141 25.7422 15.0859 C 25.7422 14.1828 25.4615 13.4443 24.9 12.8703 C 24.3385 12.2964 23.5083 12.0094 22.4094 12.0094 C 21.3104 12.0094 18.5031 12.7297 13.9875 14.1703 C 15.8177 20.5911 17.026 25.6812 17.6125 29.4406 L 12.7047 30.2828 C 12.0943 25.962 11.0448 21.0917 9.55625 15.6719 C 7.99375 16.2083 6.34584 16.8307 4.6125 17.5391 Z" /></svg>