<?xml version="1.0" encoding="utf-8" standalone="no"?>
<!DOCTYPE svg PUBLIC "-//W3C//DTD SVG 1.1//EN"
"http://www.w3.org/Graphics/SVG/1.1/DTD/svg11.dtd">

<svg xmlns="http://www.w3.org/2000/svg" version="1.1" xmlns:xlink="http://www.w3.org/1999/xlink" width="42.1812" height="37.1656" viewBox="0 0 42.1812 37.1656"><path stroke="#1987e5" stroke-width="6" stroke-linejoin="round" fill="#1987e5" d="M 3 30.2469 C 4.09792 28.025 5.1474 25.437 6.14844 22.4828 C 7.14948 19.5286 7.80885 17.026 8.12656 14.975 L 12.9969 16.3313 C 12.5083 18.7969 11.7576 21.5677 10.7445 24.6438 C 9.73151 27.7198 8.7125 30.2708 7.6875 32.2969 Z M 10.9094 7.61406 L 11.0922 3 C 14.1203 3.34167 17.4898 3.5125 21.2008 3.5125 C 24.9117 3.5125 27.8776 3.47604 30.0984 3.40313 L 29.9891 7.6875 C 27.963 8.29792 26.1016 9.21953 24.4047 10.4523 C 22.7078 11.6852 21.8594 12.7536 21.8594 13.6578 C 21.8594 14.1453 22.1156 14.676 22.6281 15.25 C 23.1406 15.824 23.757 16.4284 24.4773 17.0633 C 25.1977 17.6982 25.918 18.394 26.6383 19.1508 C 27.3586 19.9076 27.975 20.8656 28.4875 22.025 C 29 23.1844 29.2563 24.4354 29.2563 25.7781 C 29.2563 28.2927 28.4385 30.3193 26.8031 31.8578 C 25.1677 33.3964 23.0193 34.1656 20.3578 34.1656 C 18.5755 34.1656 16.8971 33.787 15.3227 33.0297 C 13.7482 32.2724 12.4359 31.1984 11.3859 29.8078 L 13.3625 24.3141 C 14.1927 25.8766 15.2305 27.0971 16.4758 27.9758 C 17.7211 28.8544 18.9846 29.2938 20.2664 29.2938 C 21.5482 29.2938 22.5674 28.9703 23.3242 28.3234 C 24.081 27.6766 24.4594 26.8711 24.4594 25.907 C 24.4594 24.943 24.1969 24.0518 23.6719 23.2336 C 23.1469 22.4154 22.5 21.6828 21.7313 21.0359 C 20.9625 20.3891 20.1995 19.7359 19.4422 19.0766 C 17.6359 17.5141 16.7328 15.9031 16.7328 14.2438 C 16.7328 13.1688 17.1357 12.076 17.9414 10.9656 C 18.7471 9.85521 19.8214 8.8724 21.1641 8.01719 C 18.0391 8.01719 14.6208 7.88281 10.9094 7.61406 Z M 28.3781 16.2578 L 32.8453 14.3891 C 34.0661 16.3422 35.2258 18.7044 36.3242 21.4758 C 37.4227 24.2471 38.2896 27.012 38.925 29.7703 L 34.1641 31.6375 C 33.6516 29.026 32.8703 26.3346 31.8203 23.5633 C 30.7703 20.7919 29.6229 18.3568 28.3781 16.2578 Z M 31.9109 12.0094 C 31.0693 11.1552 30.6484 10.1542 30.6484 9.00625 C 30.6484 7.85833 31.0695 6.86328 31.9117 6.02109 C 32.7539 5.17891 33.7487 4.75781 34.8961 4.75781 C 36.0435 4.75781 37.0445 5.17891 37.8992 6.02109 C 38.7539 6.86328 39.1813 7.85833 39.1813 9.00625 C 39.1813 10.1542 38.7539 11.1552 37.8992 12.0094 C 37.0445 12.8635 36.0435 13.2906 34.8961 13.2906 C 33.7487 13.2906 32.7536 12.8635 31.9109 12.0094 Z M 33.3219 7.43125 C 32.8823 7.87083 32.6625 8.39583 32.6625 9.00625 C 32.6625 9.61667 32.8823 10.1477 33.3219 10.5992 C 33.7615 11.0508 34.2865 11.2766 34.8969 11.2766 C 35.5073 11.2766 36.032 11.0508 36.4711 10.5992 C 36.9102 10.1477 37.1297 9.61667 37.1297 9.00625 C 37.1297 8.39583 36.9102 7.87083 36.4711 7.43125 C 36.032 6.99167 35.5073 6.77188 34.8969 6.77188 C 34.2865 6.77188 33.7615 6.99167 33.3219 7.43125 Z" /><path fill="#ffffff" d="M 3 30.2469 C 4.09792 28.025 5.1474 25.437 6.14844 22.4828 C 7.14948 19.5286 7.80885 17.026 8.12656 14.975 L 12.9969 16.3313 C 12.5083 18.7969 11.7576 21.5677 10.7445 24.6438 C 9.73151 27.7198 8.7125 30.2708 7.6875 32.2969 Z M 10.9094 7.61406 L 11.0922 3 C 14.1203 3.34167 17.4898 3.5125 21.2008 3.5125 C 24.9117 3.5125 27.8776 3.47604 30.0984 3.40313 L 29.9891 7.6875 C 27.963 8.29792 26.1016 9.21953 24.4047 10.4523 C 22.7078 11.6852 21.8594 12.7536 21.8594 13.6578 C 21.8594 14.1453 22.1156 14.676 22.6281 15.25 C 23.1406 15.824 23.757 16.4284 24.4773 17.0633 C 25.1977 17.6982 25.918 18.394 26.6383 19.1508 C 27.3586 19.9076 27.975 20.8656 28.4875 22.025 C 29 23.1844 29.2563 24.4354 29.2563 25.7781 C 29.2563 28.2927 28.4385 30.3193 26.8031 31.8578 C 25.1677 33.3964 23.0193 34.1656 20.3578 34.1656 C 18.5755 34.1656 16.8971 33.787 15.3227 33.0297 C 13.7482 32.2724 12.4359 31.1984 11.3859 29.8078 L 13.3625 24.3141 C 14.1927 25.8766 15.2305 27.0971 16.4758 27.9758 C 17.7211 28.8544 18.9846 29.2938 20.2664 29.2938 C 21.5482 29.2938 22.5674 28.9703 23.3242 28.3234 C 24.081 27.6766 24.4594 26.8711 24.4594 25.907 C 24.4594 24.943 24.1969 24.0518 23.6719 23.2336 C 23.1469 22.4154 22.5 21.6828 21.7313 21.0359 C 20.9625 20.3891 20.1995 19.7359 19.4422 19.0766 C 17.6359 17.5141 16.7328 15.9031 16.7328 14.2438 C 16.7328 13.1688 17.1357 12.076 17.9414 10.9656 C 18.7471 9.85521 19.8214 8.8724 21.1641 8.01719 C 18.0391 8.01719 14.6208 7.88281 10.9094 7.61406 Z M 28.3781 16.2578 L 32.8453 14.3891 C 34.0661 16.3422 35.2258 18.7044 36.3242 21.4758 C 37.4227 24.2471 38.2896 27.012 38.925 29.7703 L 34.1641 31.6375 C 33.6516 29.026 32.8703 26.3346 31.8203 23.5633 C 30.7703 20.7919 29.6229 18.3568 28.3781 16.2578 Z M 31.9109 12.0094 C 31.0693 11.1552 30.6484 10.1542 30.6484 9.00625 C 30.6484 7.85833 31.0695 6.86328 31.9117 6.02109 C 32.7539 5.17891 33.7487 4.75781 34.8961 4.75781 C 36.0435 4.75781 37.0445 5.17891 37.8992 6.02109 C 38.7539 6.86328 39.1813 7.85833 39.1813 9.00625 C 39.1813 10.1542 38.7539 11.1552 37.8992 12.0094 C 37.0445 12.8635 36.0435 13.2906 34.8961 13.2906 C 33.7487 13.2906 32.7536 12.8635 31.9109 12.0094 Z M 33.3219 7.43125 C 32.8823 7.87083 32.6625 8.39583 32.6625 9.00625 C 32.6625 9.61667 32.8823 10.1477 33.3219 10.5992 C 33.7615 11.0508 34.2865 11.2766 34.8969 11.2766 C 35.5073 11.2766 36.032 11.0508 36.4711 10.5992 C 36.9102 10.1477 37.1297 9.61667 37.1297 9.00625 C 37.1297 8.39583 36.9102 7.87083 36.4711 7.43125 C 36.032 6.99167 35.5073 6.77188 34.8969 6.77188 C 34.2865 6.77188 33.7615 6.99167 33.3219 7.43125 Z" /></svg>