<?xml version="1.0" encoding="utf-8" standalone="no"?>
<!DOCTYPE svg PUBLIC "-//W3C//DTD SVG 1.1//EN"
"http://www.w3.org/Graphics/SVG/1.1/DTD/svg11.dtd">

<svg xmlns="http://www.w3.org/2000/svg" version="1.1" xmlns:xlink="http://www.w3.org/1999/xlink" width="39.5453" height="39.6188" viewBox="0 0 39.5453 39.6188"><path stroke="#1987e5" stroke-width="6" stroke-linejoin="round" fill="#1987e5" d="M 3 11.9 L 3 7.175 L 20.2109 7.175 L 20.2109 3 L 25.3016 3 L 25.3016 7.175 L 36.5453 7.13906 L 36.5453 11.8625 L 25.3016 11.8625 L 25.3016 19.0031 C 25.7901 20.3219 26.0344 21.799 26.0344 23.4344 C 26.0344 27.2188 24.6977 30.3195 22.0242 32.7367 C 19.3508 35.1539 15.8167 36.4479 11.4219 36.6188 L 9.29844 31.8578 C 14.4495 31.8578 17.9406 30.588 19.7719 28.0484 C 19.0646 28.3172 18.2104 28.4516 17.2094 28.4516 C 15.0604 28.4516 13.3086 27.7742 11.9539 26.4195 C 10.5992 25.0648 9.92188 23.301 9.92188 21.1281 C 9.92188 18.9552 10.6482 17.1669 12.1008 15.7633 C 13.5534 14.3596 15.4146 13.6578 17.6844 13.6578 C 18.6125 13.6578 19.4547 13.7672 20.2109 13.9859 L 20.2109 11.8625 Z M 15.4141 18.675 C 14.8036 19.2365 14.4984 19.987 14.4984 20.9266 C 14.4984 21.8661 14.7854 22.6229 15.3594 23.1969 C 15.9333 23.7708 16.6964 24.0578 17.6484 24.0578 C 18.6005 24.0578 19.3633 23.7586 19.9367 23.1602 C 20.5102 22.5617 20.7969 21.7255 20.7969 20.6516 C 20.7969 20.4807 20.7729 20.1755 20.725 19.7359 C 20.2115 18.4661 19.2469 17.8312 17.8313 17.8312 C 16.8302 17.8312 16.0245 18.1125 15.4141 18.675 Z" /><path fill="#ffffff" d="M 3 11.9 L 3 7.175 L 20.2109 7.175 L 20.2109 3 L 25.3016 3 L 25.3016 7.175 L 36.5453 7.13906 L 36.5453 11.8625 L 25.3016 11.8625 L 25.3016 19.0031 C 25.7901 20.3219 26.0344 21.799 26.0344 23.4344 C 26.0344 27.2188 24.6977 30.3195 22.0242 32.7367 C 19.3508 35.1539 15.8167 36.4479 11.4219 36.6188 L 9.29844 31.8578 C 14.4495 31.8578 17.9406 30.588 19.7719 28.0484 C 19.0646 28.3172 18.2104 28.4516 17.2094 28.4516 C 15.0604 28.4516 13.3086 27.7742 11.9539 26.4195 C 10.5992 25.0648 9.92188 23.301 9.92188 21.1281 C 9.92188 18.9552 10.6482 17.1669 12.1008 15.7633 C 13.5534 14.3596 15.4146 13.6578 17.6844 13.6578 C 18.6125 13.6578 19.4547 13.7672 20.2109 13.9859 L 20.2109 11.8625 Z M 15.4141 18.675 C 14.8036 19.2365 14.4984 19.987 14.4984 20.9266 C 14.4984 21.8661 14.7854 22.6229 15.3594 23.1969 C 15.9333 23.7708 16.6964 24.0578 17.6484 24.0578 C 18.6005 24.0578 19.3633 23.7586 19.9367 23.1602 C 20.5102 22.5617 20.7969 21.7255 20.7969 20.6516 C 20.7969 20.4807 20.7729 20.1755 20.725 19.7359 C 20.2115 18.4661 19.2469 17.8312 17.8313 17.8312 C 16.8302 17.8312 16.0245 18.1125 15.4141 18.675 Z" /></svg>