<?xml version="1.0" encoding="utf-8" standalone="no"?>
<!DOCTYPE svg PUBLIC "-//W3C//DTD SVG 1.1//EN"
"http://www.w3.org/Graphics/SVG/1.1/DTD/svg11.dtd">

<svg xmlns="http://www.w3.org/2000/svg" version="1.1" xmlns:xlink="http://www.w3.org/1999/xlink" width="259.081" height="32.05" viewBox="0 0 259.081 32.05"><path stroke="#ffffff" stroke-width="6" stroke-linejoin="round" fill="#ffffff" d="M 3 6.55469 L 24.2438 6.55469 L 24.2438 7.14844 C 24.2438 13.2974 22.7745 17.9987 19.8359 21.2523 C 16.8974 24.506 12.2698 26.4849 5.95313 27.1891 L 5.67969 25.4312 C 11.3057 24.7604 15.4339 23.0406 18.0641 20.2719 C 20.6943 17.5031 22.0745 13.5391 22.2047 8.37969 L 3 8.37969 Z" /><path stroke="#ffffff" stroke-width="6" stroke-linejoin="round" fill="#ffffff" d="M 33.0984 18.2156 C 36.4714 17.7437 39.687 16.7365 42.7453 15.1937 C 45.8036 13.651 48.3344 11.7719 50.3375 9.55625 L 51.4922 10.7891 C 49.7036 12.8672 47.438 14.6557 44.6953 16.1547 L 44.6953 27.8937 L 42.7141 27.8937 L 42.7141 16.9797 C 39.9047 18.4609 36.7807 19.4292 33.3422 19.8844 Z" /><path stroke="#ffffff" stroke-width="6" stroke-linejoin="round" fill="#ffffff" d="M 59.5297 17.2344 L 59.5297 15.3812 L 82.8578 15.3812 L 82.8578 17.2344 Z" /><path stroke="#ffffff" stroke-width="6" stroke-linejoin="round" fill="#ffffff" d="M 102.458 5.49844 L 103.97 4.64844 C 104.861 6.00781 105.826 7.70521 106.864 9.74062 L 105.334 10.4656 C 104.289 8.56562 103.33 6.90989 102.458 5.49844 Z M 106.18 4.37656 L 107.691 3.49375 C 108.882 5.32083 109.885 7.05573 110.7 8.69844 L 109.173 9.42344 C 108.086 7.52135 107.088 5.83906 106.18 4.37656 Z M 104.939 12.3812 L 106.755 11.7281 C 108.47 15.9292 110.077 20.975 111.573 26.8656 L 109.617 27.2453 C 108.124 21.5484 106.565 16.5938 104.939 12.3812 Z M 95.8656 6.72187 C 94.9187 13.8948 92.65 20.6703 89.0594 27.0484 L 87.3703 26.2719 C 90.7557 20.0625 92.9266 13.4661 93.8828 6.48281 Z" /><path stroke="#ffffff" stroke-width="6" stroke-linejoin="round" fill="#ffffff" d="M 117.13 17.2344 L 117.13 15.3812 L 140.458 15.3812 L 140.458 17.2344 Z" /><path stroke="#ffffff" stroke-width="6" stroke-linejoin="round" fill="#ffffff" d="M 157.555 25.7578 L 170.809 25.7578 L 170.809 27.4703 L 157.555 27.4703 L 157.555 29.05 L 155.63 29.05 L 155.63 3.9875 L 157.555 3.9875 Z M 170.641 12.8984 L 170.641 14.6109 L 165.592 14.6109 C 167.106 16.9714 168.741 19.7911 170.498 23.0703 L 169.078 24.0016 C 167.94 21.9464 166.599 19.2865 165.056 16.0219 L 165.056 25.3562 L 163.188 25.3562 L 163.188 16.2188 C 162.389 18.8958 160.774 21.4714 158.345 23.9453 L 157.322 22.5875 C 159.76 19.9719 161.546 17.313 162.68 14.6109 L 157.717 14.6109 L 157.717 12.8984 L 163.188 12.8984 L 163.188 3.70625 L 165.056 3.70625 L 165.056 12.8984 Z M 157.942 5.61406 L 159.556 4.875 C 160.695 7.10625 161.692 9.45469 162.547 11.9203 L 160.914 12.525 C 159.96 9.97396 158.969 7.67031 157.942 5.61406 Z M 165.697 11.8656 C 166.961 9.44375 167.945 7.03802 168.647 4.64844 L 170.386 5.17187 C 169.656 7.67812 168.621 10.1385 167.281 12.5531 Z M 152.02 11.2391 L 153.705 10.7125 C 154.614 13.1542 155.315 15.6161 155.806 18.0984 L 154.059 18.4187 C 153.87 17.5542 153.779 17.1313 153.788 17.15 L 150.872 17.3562 L 150.872 29.05 L 148.947 29.05 L 148.947 17.4594 L 144.139 17.7422 L 144.067 16.0484 L 146.3 15.9266 C 146.692 15.4526 147.207 14.8068 147.847 13.9891 C 146.707 12.1036 145.514 10.138 144.266 8.09219 L 145.506 6.76406 C 145.924 7.32031 146.297 7.94062 146.627 8.625 C 147.457 7.175 148.439 5.38906 149.573 3.26719 L 151.211 4.0375 C 150.047 6.30729 148.863 8.35104 147.658 10.1687 C 148.66 11.8458 149.097 12.6474 148.97 12.5734 C 150.248 10.6734 151.62 8.47396 153.086 5.975 L 154.68 6.81406 C 152.872 10.0526 150.795 13.025 148.447 15.7312 L 153.402 15.5187 C 153.077 14.4167 152.616 12.9901 152.02 11.2391 Z M 144.209 27.0609 C 145 24.3839 145.523 21.5568 145.778 18.5797 L 147.572 18.8219 C 147.342 21.7479 146.783 24.6026 145.897 27.3859 Z M 154.65 26.3422 L 152.889 26.4844 C 152.686 23.951 152.359 21.363 151.908 18.7203 L 153.595 18.4391 C 154.124 21.537 154.476 24.1714 154.65 26.3422 Z" /><path stroke="#ffffff" stroke-width="6" stroke-linejoin="round" fill="#ffffff" d="M 199.102 5.62344 L 199.102 7.30781 L 192.08 7.30781 L 192.08 10.1922 L 198.086 10.1922 L 198.086 11.8766 L 184.12 11.8766 L 184.12 10.1922 L 190.098 10.1922 L 190.098 7.30781 L 183.641 7.30781 L 183.641 5.62344 L 190.098 5.62344 L 190.098 3.25469 L 192.08 3.25469 L 192.08 5.62344 Z M 198.594 13.8859 L 198.594 19.7719 L 196.669 19.7719 L 196.669 15.5703 L 185.877 15.5703 L 185.877 20.0547 L 183.95 20.0547 L 183.95 13.8859 Z M 182.513 27.4063 C 184.578 26.5979 186.039 25.4156 186.896 23.8594 C 187.753 22.3031 188.181 19.975 188.181 16.875 L 190.106 16.875 C 190.106 20.3312 189.602 22.9701 188.595 24.7914 C 187.587 26.6128 185.831 27.976 183.327 28.8813 Z M 192.1 16.875 L 194.025 16.875 L 194.025 25.7047 C 194.025 26.3349 194.074 26.6846 194.173 26.7539 C 194.271 26.8232 194.761 26.8578 195.644 26.8578 C 195.869 26.8578 196.028 26.8578 196.12 26.8578 C 196.213 26.8578 196.329 26.8461 196.469 26.8227 C 196.608 26.7992 196.69 26.7815 196.714 26.7695 C 196.738 26.7575 196.79 26.7115 196.87 26.6313 C 196.951 26.551 196.998 26.4781 197.013 26.4125 C 197.028 26.3469 197.069 26.2099 197.134 26.0016 C 197.2 25.7932 197.238 25.5914 197.247 25.3961 C 197.256 25.2008 197.27 24.925 197.289 24.5688 C 197.308 24.2125 197.322 23.8701 197.331 23.5414 C 197.341 23.2128 197.357 22.6776 197.381 21.9359 L 199.241 22.2422 C 199.22 23.4161 199.195 24.2701 199.166 24.8039 C 199.138 25.3378 199.076 25.8768 198.98 26.4211 C 198.885 26.9654 198.768 27.3523 198.63 27.582 C 198.491 27.8117 198.267 28.0284 197.957 28.232 C 197.647 28.4357 197.32 28.5477 196.976 28.568 C 196.632 28.5883 196.169 28.5984 195.588 28.5984 C 194.049 28.5984 193.083 28.4471 192.69 28.1445 C 192.297 27.8419 192.1 27.0474 192.1 25.7609 Z M 180.539 11.6031 L 182.206 11.1062 C 183.068 13.6719 183.699 16.1365 184.1 18.5 L 182.38 18.7859 C 182.302 18.4411 182.22 18.0797 182.134 17.7016 C 182.049 17.3234 182.009 17.149 182.016 17.1781 L 179.531 17.3562 L 179.531 29.05 L 177.578 29.05 L 177.578 17.4594 L 173.305 17.7422 L 173.234 16.0516 L 175.119 15.9297 C 175.649 15.2203 176.13 14.5641 176.563 13.9609 C 175.403 11.8536 174.313 9.89583 173.291 8.0875 L 174.544 6.76406 C 174.935 7.33906 175.276 7.95937 175.564 8.625 C 176.281 7.2 177.147 5.41406 178.163 3.26719 L 179.813 4.03125 C 178.821 6.22187 177.74 8.29531 176.57 10.2516 C 177.184 11.3349 177.553 12.0714 177.678 12.4609 C 178.884 10.4536 180.095 8.29167 181.311 5.975 L 182.888 6.77969 C 181.124 10.2359 179.244 13.2198 177.247 15.7312 L 181.695 15.5453 C 181.321 14.1703 180.936 12.8562 180.539 11.6031 Z M 173.347 27.1219 C 174.061 24.3208 174.528 21.4922 174.745 18.6359 L 176.57 18.8781 C 176.358 21.7771 175.858 24.6318 175.072 27.4422 Z M 180.453 18.7859 L 182.195 18.4391 C 182.632 20.9203 182.956 23.5552 183.169 26.3438 L 181.348 26.4844 C 181.187 24.0344 180.889 21.4682 180.453 18.7859 Z" /><path stroke="#ffffff" stroke-width="6" stroke-linejoin="round" fill="#ffffff" d="M 204.947 26.3422 L 204.947 28.2047 L 203.022 28.2047 L 203.022 4.8625 L 210.925 4.8625 L 210.925 26.3422 Z M 204.947 15.8812 L 204.947 24.6016 L 209.028 24.6016 L 209.028 15.8812 Z M 204.947 14.1391 L 209.028 14.1391 L 209.028 6.63125 L 204.947 6.63125 Z M 228.156 13.5125 L 225.28 13.5125 L 225.28 16.7062 L 228.156 16.7062 L 228.156 18.4469 L 225.28 18.4469 L 225.28 25.1125 C 225.28 26.6479 225.113 27.6315 224.78 28.0633 C 224.446 28.4951 223.629 28.7109 222.328 28.7109 C 221.79 28.7109 220.489 28.6594 218.425 28.5562 L 218.391 26.7578 C 220.374 26.9182 221.63 26.9984 222.159 26.9984 C 222.734 26.9984 223.068 26.9362 223.159 26.8117 C 223.251 26.6872 223.297 26.1302 223.297 25.1406 L 223.297 18.4469 L 211.172 18.4469 L 211.172 16.7062 L 223.297 16.7062 L 223.297 13.5125 L 211.172 13.5125 L 211.172 11.7984 L 218.87 11.7984 L 218.87 7.87187 L 212.525 7.87187 L 212.525 6.1875 L 218.87 6.1875 L 218.87 3 L 220.852 3 L 220.852 6.1875 L 227.084 6.1875 L 227.084 7.87187 L 220.852 7.87187 L 220.852 11.7984 L 228.156 11.7984 Z M 213.145 20.4359 L 214.288 19.1437 C 216.334 20.8156 218.128 22.6089 219.667 24.5234 L 218.377 25.6375 C 216.812 23.8406 215.068 22.1068 213.145 20.4359 Z" /><path stroke="#ffffff" stroke-width="6" stroke-linejoin="round" fill="#ffffff" d="M 239.838 21.6047 L 239.838 24.4609 L 248.15 24.4609 L 248.15 21.6047 Z M 239.838 20.0328 L 248.15 20.0328 L 248.15 17.6297 L 239.838 17.6297 Z M 233.887 10.1844 L 233.887 13.0125 L 241.1 13.0125 L 241.1 10.1844 Z M 233.887 8.55625 L 241.1 8.55625 L 241.1 5.98281 L 233.887 5.98281 Z M 254.1 10.1844 L 246.606 10.1844 L 246.606 13.0125 L 254.1 13.0125 Z M 254.1 8.55625 L 254.1 5.98281 L 246.606 5.98281 L 246.606 8.55625 Z M 237.913 16.0016 L 250.075 16.0016 L 250.075 26.0609 L 239.838 26.0609 L 239.838 27.6406 L 237.913 27.6406 Z M 231.906 28.7109 L 231.906 4.29844 L 243.053 4.29844 L 243.053 14.6391 L 233.887 14.6391 L 233.887 28.7109 Z M 252.736 28.4578 C 252.313 28.4578 250.861 28.4073 248.381 28.3062 L 248.347 26.5047 C 250.769 26.6661 252.176 26.7464 252.567 26.7453 C 253.331 26.7453 253.777 26.6841 253.906 26.5617 C 254.035 26.4393 254.1 25.9656 254.1 25.1406 L 254.1 14.6391 L 244.653 14.6391 L 244.653 4.29844 L 256.081 4.29844 L 256.081 25.1125 C 256.081 26.549 255.877 27.4656 255.469 27.8625 C 255.06 28.2594 254.149 28.4578 252.736 28.4578 Z" /><path fill="#000000" d="M 3 6.55469 L 24.2438 6.55469 L 24.2438 7.14844 C 24.2438 13.2974 22.7745 17.9987 19.8359 21.2523 C 16.8974 24.506 12.2698 26.4849 5.95313 27.1891 L 5.67969 25.4312 C 11.3057 24.7604 15.4339 23.0406 18.0641 20.2719 C 20.6943 17.5031 22.0745 13.5391 22.2047 8.37969 L 3 8.37969 Z" /><path fill="#000000" d="M 33.0984 18.2156 C 36.4714 17.7437 39.687 16.7365 42.7453 15.1937 C 45.8036 13.651 48.3344 11.7719 50.3375 9.55625 L 51.4922 10.7891 C 49.7036 12.8672 47.438 14.6557 44.6953 16.1547 L 44.6953 27.8937 L 42.7141 27.8937 L 42.7141 16.9797 C 39.9047 18.4609 36.7807 19.4292 33.3422 19.8844 Z" /><path fill="#000000" d="M 59.5297 17.2344 L 59.5297 15.3812 L 82.8578 15.3812 L 82.8578 17.2344 Z" /><path fill="#000000" d="M 102.458 5.49844 L 103.97 4.64844 C 104.861 6.00781 105.826 7.70521 106.864 9.74062 L 105.334 10.4656 C 104.289 8.56562 103.33 6.90989 102.458 5.49844 Z M 106.18 4.37656 L 107.691 3.49375 C 108.882 5.32083 109.885 7.05573 110.7 8.69844 L 109.173 9.42344 C 108.086 7.52135 107.088 5.83906 106.18 4.37656 Z M 104.939 12.3812 L 106.755 11.7281 C 108.47 15.9292 110.077 20.975 111.573 26.8656 L 109.617 27.2453 C 108.124 21.5484 106.565 16.5938 104.939 12.3812 Z M 95.8656 6.72187 C 94.9187 13.8948 92.65 20.6703 89.0594 27.0484 L 87.3703 26.2719 C 90.7557 20.0625 92.9266 13.4661 93.8828 6.48281 Z" /><path fill="#000000" d="M 117.13 17.2344 L 117.13 15.3812 L 140.458 15.3812 L 140.458 17.2344 Z" /><path fill="#000000" d="M 157.555 25.7578 L 170.809 25.7578 L 170.809 27.4703 L 157.555 27.4703 L 157.555 29.05 L 155.63 29.05 L 155.63 3.9875 L 157.555 3.9875 Z M 170.641 12.8984 L 170.641 14.6109 L 165.592 14.6109 C 167.106 16.9714 168.741 19.7911 170.498 23.0703 L 169.078 24.0016 C 167.94 21.9464 166.599 19.2865 165.056 16.0219 L 165.056 25.3562 L 163.188 25.3562 L 163.188 16.2188 C 162.389 18.8958 160.774 21.4714 158.345 23.9453 L 157.322 22.5875 C 159.76 19.9719 161.546 17.313 162.68 14.6109 L 157.717 14.6109 L 157.717 12.8984 L 163.188 12.8984 L 163.188 3.70625 L 165.056 3.70625 L 165.056 12.8984 Z M 157.942 5.61406 L 159.556 4.875 C 160.695 7.10625 161.692 9.45469 162.547 11.9203 L 160.914 12.525 C 159.96 9.97396 158.969 7.67031 157.942 5.61406 Z M 165.697 11.8656 C 166.961 9.44375 167.945 7.03802 168.647 4.64844 L 170.386 5.17187 C 169.656 7.67812 168.621 10.1385 167.281 12.5531 Z M 152.02 11.2391 L 153.705 10.7125 C 154.614 13.1542 155.315 15.6161 155.806 18.0984 L 154.059 18.4187 C 153.87 17.5542 153.779 17.1313 153.788 17.15 L 150.872 17.3562 L 150.872 29.05 L 148.947 29.05 L 148.947 17.4594 L 144.139 17.7422 L 144.067 16.0484 L 146.3 15.9266 C 146.692 15.4526 147.207 14.8068 147.847 13.9891 C 146.707 12.1036 145.514 10.138 144.266 8.09219 L 145.506 6.76406 C 145.924 7.32031 146.297 7.94062 146.627 8.625 C 147.457 7.175 148.439 5.38906 149.573 3.26719 L 151.211 4.0375 C 150.047 6.30729 148.863 8.35104 147.658 10.1687 C 148.66 11.8458 149.097 12.6474 148.97 12.5734 C 150.248 10.6734 151.62 8.47396 153.086 5.975 L 154.68 6.81406 C 152.872 10.0526 150.795 13.025 148.447 15.7312 L 153.402 15.5187 C 153.077 14.4167 152.616 12.9901 152.02 11.2391 Z M 144.209 27.0609 C 145 24.3839 145.523 21.5568 145.778 18.5797 L 147.572 18.8219 C 147.342 21.7479 146.783 24.6026 145.897 27.3859 Z M 154.65 26.3422 L 152.889 26.4844 C 152.686 23.951 152.359 21.363 151.908 18.7203 L 153.595 18.4391 C 154.124 21.537 154.476 24.1714 154.65 26.3422 Z" /><path fill="#000000" d="M 199.102 5.62344 L 199.102 7.30781 L 192.08 7.30781 L 192.08 10.1922 L 198.086 10.1922 L 198.086 11.8766 L 184.12 11.8766 L 184.12 10.1922 L 190.098 10.1922 L 190.098 7.30781 L 183.641 7.30781 L 183.641 5.62344 L 190.098 5.62344 L 190.098 3.25469 L 192.08 3.25469 L 192.08 5.62344 Z M 198.594 13.8859 L 198.594 19.7719 L 196.669 19.7719 L 196.669 15.5703 L 185.877 15.5703 L 185.877 20.0547 L 183.95 20.0547 L 183.95 13.8859 Z M 182.513 27.4063 C 184.578 26.5979 186.039 25.4156 186.896 23.8594 C 187.753 22.3031 188.181 19.975 188.181 16.875 L 190.106 16.875 C 190.106 20.3312 189.602 22.9701 188.595 24.7914 C 187.587 26.6128 185.831 27.976 183.327 28.8813 Z M 192.1 16.875 L 194.025 16.875 L 194.025 25.7047 C 194.025 26.3349 194.074 26.6846 194.173 26.7539 C 194.271 26.8232 194.761 26.8578 195.644 26.8578 C 195.869 26.8578 196.028 26.8578 196.12 26.8578 C 196.213 26.8578 196.329 26.8461 196.469 26.8227 C 196.608 26.7992 196.69 26.7815 196.714 26.7695 C 196.738 26.7575 196.79 26.7115 196.87 26.6313 C 196.951 26.551 196.998 26.4781 197.013 26.4125 C 197.028 26.3469 197.069 26.2099 197.134 26.0016 C 197.2 25.7932 197.238 25.5914 197.247 25.3961 C 197.256 25.2008 197.27 24.925 197.289 24.5688 C 197.308 24.2125 197.322 23.8701 197.331 23.5414 C 197.341 23.2128 197.357 22.6776 197.381 21.9359 L 199.241 22.2422 C 199.22 23.4161 199.195 24.2701 199.166 24.8039 C 199.138 25.3378 199.076 25.8768 198.98 26.4211 C 198.885 26.9654 198.768 27.3523 198.63 27.582 C 198.491 27.8117 198.267 28.0284 197.957 28.232 C 197.647 28.4357 197.32 28.5477 196.976 28.568 C 196.632 28.5883 196.169 28.5984 195.588 28.5984 C 194.049 28.5984 193.083 28.4471 192.69 28.1445 C 192.297 27.8419 192.1 27.0474 192.1 25.7609 Z M 180.539 11.6031 L 182.206 11.1062 C 183.068 13.6719 183.699 16.1365 184.1 18.5 L 182.38 18.7859 C 182.302 18.4411 182.22 18.0797 182.134 17.7016 C 182.049 17.3234 182.009 17.149 182.016 17.1781 L 179.531 17.3562 L 179.531 29.05 L 177.578 29.05 L 177.578 17.4594 L 173.305 17.7422 L 173.234 16.0516 L 175.119 15.9297 C 175.649 15.2203 176.13 14.5641 176.563 13.9609 C 175.403 11.8536 174.313 9.89583 173.291 8.0875 L 174.544 6.76406 C 174.935 7.33906 175.276 7.95937 175.564 8.625 C 176.281 7.2 177.147 5.41406 178.163 3.26719 L 179.813 4.03125 C 178.821 6.22187 177.74 8.29531 176.57 10.2516 C 177.184 11.3349 177.553 12.0714 177.678 12.4609 C 178.884 10.4536 180.095 8.29167 181.311 5.975 L 182.888 6.77969 C 181.124 10.2359 179.244 13.2198 177.247 15.7312 L 181.695 15.5453 C 181.321 14.1703 180.936 12.8562 180.539 11.6031 Z M 173.347 27.1219 C 174.061 24.3208 174.528 21.4922 174.745 18.6359 L 176.57 18.8781 C 176.358 21.7771 175.858 24.6318 175.072 27.4422 Z M 180.453 18.7859 L 182.195 18.4391 C 182.632 20.9203 182.956 23.5552 183.169 26.3438 L 181.348 26.4844 C 181.187 24.0344 180.889 21.4682 180.453 18.7859 Z" /><path fill="#000000" d="M 204.947 26.3422 L 204.947 28.2047 L 203.022 28.2047 L 203.022 4.8625 L 210.925 4.8625 L 210.925 26.3422 Z M 204.947 15.8812 L 204.947 24.6016 L 209.028 24.6016 L 209.028 15.8812 Z M 204.947 14.1391 L 209.028 14.1391 L 209.028 6.63125 L 204.947 6.63125 Z M 228.156 13.5125 L 225.28 13.5125 L 225.28 16.7062 L 228.156 16.7062 L 228.156 18.4469 L 225.28 18.4469 L 225.28 25.1125 C 225.28 26.6479 225.113 27.6315 224.78 28.0633 C 224.446 28.4951 223.629 28.7109 222.328 28.7109 C 221.79 28.7109 220.489 28.6594 218.425 28.5562 L 218.391 26.7578 C 220.374 26.9182 221.63 26.9984 222.159 26.9984 C 222.734 26.9984 223.068 26.9362 223.159 26.8117 C 223.251 26.6872 223.297 26.1302 223.297 25.1406 L 223.297 18.4469 L 211.172 18.4469 L 211.172 16.7062 L 223.297 16.7062 L 223.297 13.5125 L 211.172 13.5125 L 211.172 11.7984 L 218.87 11.7984 L 218.87 7.87187 L 212.525 7.87187 L 212.525 6.1875 L 218.87 6.1875 L 218.87 3 L 220.852 3 L 220.852 6.1875 L 227.084 6.1875 L 227.084 7.87187 L 220.852 7.87187 L 220.852 11.7984 L 228.156 11.7984 Z M 213.145 20.4359 L 214.288 19.1437 C 216.334 20.8156 218.128 22.6089 219.667 24.5234 L 218.377 25.6375 C 216.812 23.8406 215.068 22.1068 213.145 20.4359 Z" /><path fill="#000000" d="M 239.838 21.6047 L 239.838 24.4609 L 248.15 24.4609 L 248.15 21.6047 Z M 239.838 20.0328 L 248.15 20.0328 L 248.15 17.6297 L 239.838 17.6297 Z M 233.887 10.1844 L 233.887 13.0125 L 241.1 13.0125 L 241.1 10.1844 Z M 233.887 8.55625 L 241.1 8.55625 L 241.1 5.98281 L 233.887 5.98281 Z M 254.1 10.1844 L 246.606 10.1844 L 246.606 13.0125 L 254.1 13.0125 Z M 254.1 8.55625 L 254.1 5.98281 L 246.606 5.98281 L 246.606 8.55625 Z M 237.913 16.0016 L 250.075 16.0016 L 250.075 26.0609 L 239.838 26.0609 L 239.838 27.6406 L 237.913 27.6406 Z M 231.906 28.7109 L 231.906 4.29844 L 243.053 4.29844 L 243.053 14.6391 L 233.887 14.6391 L 233.887 28.7109 Z M 252.736 28.4578 C 252.313 28.4578 250.861 28.4073 248.381 28.3062 L 248.347 26.5047 C 250.769 26.6661 252.176 26.7464 252.567 26.7453 C 253.331 26.7453 253.777 26.6841 253.906 26.5617 C 254.035 26.4393 254.1 25.9656 254.1 25.1406 L 254.1 14.6391 L 244.653 14.6391 L 244.653 4.29844 L 256.081 4.29844 L 256.081 25.1125 C 256.081 26.549 255.877 27.4656 255.469 27.8625 C 255.06 28.2594 254.149 28.4578 252.736 28.4578 Z" /></svg>