<?xml version="1.0" encoding="utf-8" standalone="no"?>
<!DOCTYPE svg PUBLIC "-//W3C//DTD SVG 1.1//EN"
"http://www.w3.org/Graphics/SVG/1.1/DTD/svg11.dtd">

<svg xmlns="http://www.w3.org/2000/svg" version="1.1" xmlns:xlink="http://www.w3.org/1999/xlink" width="41.9984" height="37.1656" viewBox="0 0 41.9984 37.1656"><path stroke="#1987e5" stroke-width="6" stroke-linejoin="round" fill="#1987e5" d="M 3 30.2469 C 4.09792 28.025 5.1474 25.437 6.14844 22.4828 C 7.14948 19.5286 7.80886 17.026 8.12656 14.975 L 13.0344 16.3313 C 12.5698 18.7719 11.8188 21.5365 10.7813 24.625 C 9.74375 27.7135 8.7125 30.2708 7.6875 32.2969 Z M 10.9094 7.61406 L 11.0922 3 C 14.1203 3.34167 17.4836 3.5125 21.182 3.5125 C 24.8805 3.5125 27.8531 3.47604 30.1 3.40313 L 30.0266 5.74688 L 27.8281 6.40625 C 28.3656 7.38229 28.6833 7.95625 28.7813 8.12813 C 26.95 8.83542 25.3385 9.73229 23.9469 10.8188 C 22.5552 11.9052 21.8594 12.8516 21.8594 13.6578 C 21.8594 14.1453 22.1156 14.676 22.6281 15.25 C 23.1406 15.824 23.757 16.4284 24.4773 17.0633 C 25.1977 17.6982 25.918 18.394 26.6383 19.1508 C 27.3586 19.9076 27.975 20.8656 28.4875 22.025 C 29 23.1844 29.2563 24.4354 29.2563 25.7781 C 29.2563 28.2927 28.4385 30.3193 26.8031 31.8578 C 25.1677 33.3964 23.0193 34.1656 20.3578 34.1656 C 18.5755 34.1656 16.8971 33.787 15.3227 33.0297 C 13.7482 32.2724 12.4359 31.1984 11.3859 29.8078 L 13.3641 24.3141 C 14.1932 25.8766 15.2305 27.0971 16.4758 27.9758 C 17.7211 28.8544 18.9846 29.2938 20.2664 29.2938 C 21.5482 29.2938 22.5674 28.9703 23.3242 28.3234 C 24.081 27.6766 24.4594 26.8711 24.4594 25.907 C 24.4594 24.943 24.1969 24.0518 23.6719 23.2336 C 23.1469 22.4154 22.5 21.6828 21.7313 21.0359 C 20.9625 20.3891 20.1995 19.7359 19.4422 19.0766 C 17.6359 17.5141 16.7328 15.9031 16.7328 14.2438 C 16.7328 13.1688 17.1357 12.076 17.9414 10.9656 C 18.7471 9.85521 19.8214 8.8724 21.1641 8.01719 C 18.0391 8.01719 14.6208 7.88281 10.9094 7.61406 Z M 28.3781 16.2578 L 32.8453 14.3891 C 34.0661 16.3422 35.226 18.7044 36.325 21.4758 C 37.424 24.2471 38.2906 27.012 38.925 29.7703 L 34.1641 31.6375 C 33.6516 29.026 32.8703 26.3346 31.8203 23.5633 C 30.7703 20.7919 29.6229 18.3568 28.3781 16.2578 Z M 29.1844 6.91875 L 31.8578 6.1125 C 32.7609 7.57813 33.6641 9.45833 34.5672 11.7531 L 31.8578 12.6688 C 30.9536 10.325 30.0625 8.40833 29.1844 6.91875 Z M 33.6516 5.71094 L 36.2875 4.90469 C 37.2156 6.44323 38.1193 8.31094 38.9984 10.5078 L 36.325 11.3859 C 35.5187 9.21406 34.6276 7.3224 33.6516 5.71094 Z" /><path fill="#ffffff" d="M 3 30.2469 C 4.09792 28.025 5.1474 25.437 6.14844 22.4828 C 7.14948 19.5286 7.80886 17.026 8.12656 14.975 L 13.0344 16.3313 C 12.5698 18.7719 11.8188 21.5365 10.7813 24.625 C 9.74375 27.7135 8.7125 30.2708 7.6875 32.2969 Z M 10.9094 7.61406 L 11.0922 3 C 14.1203 3.34167 17.4836 3.5125 21.182 3.5125 C 24.8805 3.5125 27.8531 3.47604 30.1 3.40313 L 30.0266 5.74688 L 27.8281 6.40625 C 28.3656 7.38229 28.6833 7.95625 28.7813 8.12813 C 26.95 8.83542 25.3385 9.73229 23.9469 10.8188 C 22.5552 11.9052 21.8594 12.8516 21.8594 13.6578 C 21.8594 14.1453 22.1156 14.676 22.6281 15.25 C 23.1406 15.824 23.757 16.4284 24.4773 17.0633 C 25.1977 17.6982 25.918 18.394 26.6383 19.1508 C 27.3586 19.9076 27.975 20.8656 28.4875 22.025 C 29 23.1844 29.2563 24.4354 29.2563 25.7781 C 29.2563 28.2927 28.4385 30.3193 26.8031 31.8578 C 25.1677 33.3964 23.0193 34.1656 20.3578 34.1656 C 18.5755 34.1656 16.8971 33.787 15.3227 33.0297 C 13.7482 32.2724 12.4359 31.1984 11.3859 29.8078 L 13.3641 24.3141 C 14.1932 25.8766 15.2305 27.0971 16.4758 27.9758 C 17.7211 28.8544 18.9846 29.2938 20.2664 29.2938 C 21.5482 29.2938 22.5674 28.9703 23.3242 28.3234 C 24.081 27.6766 24.4594 26.8711 24.4594 25.907 C 24.4594 24.943 24.1969 24.0518 23.6719 23.2336 C 23.1469 22.4154 22.5 21.6828 21.7313 21.0359 C 20.9625 20.3891 20.1995 19.7359 19.4422 19.0766 C 17.6359 17.5141 16.7328 15.9031 16.7328 14.2438 C 16.7328 13.1688 17.1357 12.076 17.9414 10.9656 C 18.7471 9.85521 19.8214 8.8724 21.1641 8.01719 C 18.0391 8.01719 14.6208 7.88281 10.9094 7.61406 Z M 28.3781 16.2578 L 32.8453 14.3891 C 34.0661 16.3422 35.226 18.7044 36.325 21.4758 C 37.424 24.2471 38.2906 27.012 38.925 29.7703 L 34.1641 31.6375 C 33.6516 29.026 32.8703 26.3346 31.8203 23.5633 C 30.7703 20.7919 29.6229 18.3568 28.3781 16.2578 Z M 29.1844 6.91875 L 31.8578 6.1125 C 32.7609 7.57813 33.6641 9.45833 34.5672 11.7531 L 31.8578 12.6688 C 30.9536 10.325 30.0625 8.40833 29.1844 6.91875 Z M 33.6516 5.71094 L 36.2875 4.90469 C 37.2156 6.44323 38.1193 8.31094 38.9984 10.5078 L 36.325 11.3859 C 35.5187 9.21406 34.6276 7.3224 33.6516 5.71094 Z" /></svg>