<svg version="1.1" xmlns="http://www.w3.org/2000/svg" xmlns:xlink="http://www.w3.org/1999/xlink" width="430.612" height="64.8531" viewBox="0,0,430.612,64.8531"><g transform="translate(-467.694,-366.57345)"><g data-paper-data="{&quot;isPaintingLayer&quot;:true}" fill-rule="nonzero" stroke-linecap="butt" stroke-miterlimit="10" stroke-dasharray="" stroke-dashoffset="0" style="mix-blend-mode: normal"><path d="M470.694,392.41095l0.06406,-1.9703c7.08434,0.3146 14.10624,1.1187 21.06564,2.4125l-0.2453,1.825c-6.9396,-1.2594 -13.90107,-2.0151 -20.8844,-2.2672zM473.0065,383.07815l0.09531,-1.9719c5.44269,0.2583 10.96929,0.8818 16.57969,1.8703l-0.2469,1.8313c-5.7729,-0.9594 -11.2489,-1.536 -16.4281,-1.7297zM472.04869,374.73126l0.09531,-1.94375c6.1333,0.27709 12.4021,0.89844 18.8063,1.86407l-0.2125,1.78125c-6.299,-0.92188 -12.5287,-1.48907 -18.68911,-1.70157z" fill="#ffffff" stroke="#ffffff" stroke-width="6" stroke-linejoin="round"/><path d="M501.2424,375.24845v-1.76875h17.8032v1.51563c-1.3115,3.43122 -3.4453,6.65102 -6.4016,9.65932c3.0323,2.8084 5.9177,5.7172 8.6563,8.7266l-1.3063,1.1844c-2.6927,-2.8438 -5.5536,-5.7485 -8.5828,-8.7141c-3.1167,3.1427 -7.0401,5.9063 -11.7703,8.2907l-0.7953,-1.4797c4.4927,-2.3865 8.2932,-5.1105 11.4015,-8.1719c3.1084,-3.0615 5.3427,-6.1422 6.7032,-9.2422z" fill="#ffffff" stroke="#ffffff" stroke-width="6" stroke-linejoin="round"/><path d="M532.9831,371.71251c-0.1875,5.21044 -0.2813,9.56044 -0.2813,13.05004c0,1.9052 0.1154,3.444 0.3461,4.6164c0.2307,1.1724 0.6047,2.0614 1.1219,2.6672c0.5172,0.6057 1.1088,1.0138 1.775,1.2242c0.6661,0.2104 1.5528,0.3156 2.6601,0.3156c1.9927,0 3.8396,-0.7682 5.5407,-2.3047c1.701,-1.5364 3.1151,-3.8281 4.2421,-6.875l1.7422,0.6906c-1.1958,3.3563 -2.7992,5.9144 -4.8101,7.6743c-2.011,1.7599 -4.2492,2.6398 -6.7149,2.6398c-2.9593,0 -5.0182,-0.7849 -6.1765,-2.3547c-1.1584,-1.5698 -1.7375,-4.3344 -1.7375,-8.2937c0,-3.6896 0.1062,-8.0855 0.3187,-13.18754z" fill="#ffffff" stroke="#ffffff" stroke-width="6" stroke-linejoin="round"/><path d="M562.1424,385.80625c0,-2.4417 0.8615,-4.6008 2.5844,-6.4773c1.7229,-1.8766 4.0662,-3.27477 7.0312,-4.19456v0.36875c-5.0822,0.225 -10.3083,0.3375 -15.6781,0.3375v-1.76875c7.6375,0 15.3991,-0.22136 23.2861,-0.66407l0.07,1.84532c-4.905,0.40625 -8.674,1.55421 -11.307,3.44371c-2.6327,1.8896 -3.9491,4.2313 -3.9491,7.025c0,2.2552 0.7435,4.0263 2.2305,5.3133c1.4866,1.287 3.4826,1.9305 5.9866,1.9305c1.238,0 2.52,-0.1271 3.847,-0.3813l0.203,1.8235c-1.463,0.2364 -2.832,0.3547 -4.106,0.3547c-3.127,0 -5.6087,-0.8063 -7.4447,-2.4188c-1.8359,-1.6125 -2.7539,-3.7917 -2.7539,-6.5375z" fill="#ffffff" stroke="#ffffff" stroke-width="6" stroke-linejoin="round"/><path d="M585.725,376.82815v-1.71251h6.558c0.008,-0.09896 0.041,-0.62344 0.098,-1.57344c0.056,-0.95 0.108,-1.79375 0.154,-2.53125l1.968,0.17031c-0.059,0.77917 -0.153,2.09063 -0.281,3.93438h11.589v1.71251h-11.698c-0.044,0.6208 -0.139,2.2963 -0.286,5.0266h10.434v1.7124h-10.508c-0.063,1.3688 -0.095,2.7542 -0.095,4.1563c0,2.4312 0.341,3.9927 1.024,4.6844c0.683,0.6916 2.168,1.0375 4.456,1.0375c2.231,0 3.919,-0.4154 5.062,-1.2461c1.144,-0.8307 1.716,-2.0503 1.716,-3.6586c0,-0.624 -0.094,-1.3995 -0.281,-2.3266l1.807,-0.4828c0.267,1.1969 0.4,2.1615 0.4,2.8938c0,2.1333 -0.756,3.7648 -2.27,4.8945c-1.513,1.1297 -3.658,1.6945 -6.434,1.6945c-2.908,0 -4.878,-0.5169 -5.912,-1.5508c-1.034,-1.0338 -1.551,-3.0138 -1.551,-5.9398c0,-0.9438 0.047,-2.3292 0.141,-4.1563h-6.711v-1.7124h6.778c0.144,-2.75 0.244,-4.4256 0.3,-5.0266z" fill="#ffffff" stroke="#ffffff" stroke-width="6" stroke-linejoin="round"/><path d="M614.188,380.30465h22.115v0.5938c0,4.176 -1.478,7.4497 -4.435,9.8211c-2.957,2.3713 -7.4,3.7758 -13.329,4.2133l-0.206,-1.7407c1.795,-0.1468 3.387,-0.3638 4.775,-0.6507c1.389,-0.287 2.766,-0.7167 4.132,-1.2891c1.366,-0.5724 2.537,-1.2682 3.512,-2.0875c0.975,-0.8193 1.786,-1.8568 2.433,-3.1125c0.646,-1.2557 1.016,-2.582 1.109,-3.9789h-20.106zM616.386,374.9672v-1.76875h17.916v1.76875z" fill="#ffffff" stroke="#ffffff" stroke-width="6" stroke-linejoin="round"/><path d="M642.649,383.28125c4.2,-0.6042 8.218,-1.8698 12.054,-3.7969c3.836,-1.927 6.98,-4.27236 9.433,-7.0359l1.222,1.2625c-2.235,2.60104 -5.084,4.8411 -8.545,6.7203v14.6984h-2.038v-13.8468c-3.631,1.9125 -7.592,3.1536 -11.884,3.7234z" fill="#ffffff" stroke="#ffffff" stroke-width="6" stroke-linejoin="round"/><path d="M672.35,373.79064h21.244v0.59375c0,6.14896 -1.469,10.85026 -4.408,14.10386c-2.938,3.2537 -7.566,5.2326 -13.883,5.9368l-0.273,-1.7578c5.626,-0.6709 9.754,-2.3907 12.384,-5.1594c2.631,-2.7688 4.011,-6.7328 4.141,-11.89221h-19.205z" fill="#ffffff" stroke="#ffffff" stroke-width="6" stroke-linejoin="round"/><path d="M715.9,372.39689l1.511,-0.85c0.891,1.35937 1.856,3.05625 2.896,5.09066l-1.53,0.7265c-1.046,-1.90102 -2.005,-3.55675 -2.877,-4.96716zM719.622,371.27345l1.511,-0.88281c1.192,1.82708 2.195,3.56198 3.009,5.20468l-1.526,0.725c-1.088,-1.90208 -2.086,-3.58437 -2.994,-5.04687zM700.389,378.52035v-1.7125h5.796c0.451,-1.82086 0.882,-3.88492 1.295,-6.19221l1.828,0.27968c-0.378,2.30105 -0.782,4.27188 -1.212,5.91253h2.435c0.828,0 1.465,0 1.913,0c0.448,0 0.937,0.05 1.468,0.15c0.531,0.1 0.915,0.1935 1.153,0.2804c0.238,0.087 0.492,0.2857 0.761,0.5961c0.269,0.3105 0.439,0.5925 0.509,0.8461c0.071,0.2537 0.149,0.668 0.234,1.243c0.085,0.575 0.128,1.1117 0.128,1.6102c0,0.4984 0,1.2268 0,2.1851c0,3.4417 -0.422,6.1333 -1.265,8.075c-0.844,1.9417 -1.914,2.9125 -3.208,2.9125c-1.496,0 -3.467,-0.5927 -5.913,-1.7781l0.6,-1.6422c2.298,1.0635 4.003,1.5953 5.114,1.5953c0.226,0 0.491,-0.1729 0.795,-0.5187c0.303,-0.3459 0.606,-0.8748 0.908,-1.5868c0.301,-0.7119 0.546,-1.7 0.734,-2.964c0.188,-1.2641 0.282,-2.6753 0.282,-4.2336c0,-0.8271 0,-1.4177 0,-1.7719c0,-0.3542 -0.028,-0.7732 -0.083,-1.257c-0.055,-0.4839 -0.095,-0.7974 -0.121,-0.9406c-0.025,-0.1433 -0.122,-0.3146 -0.291,-0.5141c-0.168,-0.1995 -0.295,-0.3125 -0.38,-0.3391c-0.085,-0.0265 -0.333,-0.0724 -0.742,-0.1375c-0.41,-0.0651 -0.747,-0.0976 -1.013,-0.0976c-0.265,0 -0.737,0 -1.414,0h-2.986c-1.49,5.776 -3.474,11.2187 -5.95,16.3281l-1.656,-0.6406c2.373,-5.099 4.281,-10.3282 5.723,-15.6875zM723.075,389.60315c-1.509,-3.6938 -3.318,-7.3849 -5.426,-11.0734l1.62,-0.8079c2.239,3.7677 4.079,7.55 5.522,11.3469z" fill="#ffffff" stroke="#ffffff" stroke-width="6" stroke-linejoin="round"/><path d="M739.18,387.89065h4.081v-5.2813h-4.081zM728.174,372.3547l1.117,-1.25938c1.732,1.45209 3.233,2.87084 4.503,4.25625l-1.18,1.16563c-1.48,-1.45208 -2.96,-2.83958 -4.44,-4.1625zM731.975,383.14535c-1.524,-1.4906 -3.157,-2.9896 -4.9,-4.4969l1.074,-1.2922c1.928,1.5656 3.584,3.0849 4.968,4.5578zM733.089,386.66255c-0.9,3.3458 -2.137,6.4031 -3.712,9.1718l-1.569,-0.85c1.491,-2.8604 2.674,-5.8505 3.55,-8.9703zM737.283,391.46405v-10.4828h7.791v8.5656h-5.894v1.9172zM736.803,379.00005v-1.6844h8.497v1.6844zM747.689,370.55626l1.358,-0.98281c1.323,1.31771 2.476,2.60104 3.458,3.85h0.916v1.7125h-5.866c0.185,4.075 0.553,7.6536 1.103,10.7359c1.013,-2.2 1.826,-4.8786 2.441,-8.0359l1.758,0.5484c-0.708,3.6698 -1.92,6.8865 -3.638,9.65c0.299,1.1875 0.611,2.2417 0.937,3.1625c0.325,0.9209 0.596,1.568 0.811,1.9414c0.216,0.3735 0.332,0.5602 0.349,0.5602c0.335,0 0.636,-1.9318 0.903,-5.7953l1.822,0.5094c-0.137,1.9906 -0.339,3.5382 -0.607,4.6429c-0.268,1.1047 -0.557,1.844 -0.866,2.218c-0.309,0.374 -0.688,0.5609 -1.138,0.5609c-0.664,0 -1.327,-0.564 -1.99,-1.6922c-0.663,-1.1281 -1.208,-2.6036 -1.635,-4.4265c-1.895,2.8042 -4.406,4.8344 -7.533,6.0906l-0.959,-1.3734c3.258,-1.3865 5.9,-3.6 7.925,-6.6406c-0.845,-3.6365 -1.367,-7.8553 -1.567,-12.6563h-9.396v6.1297c0,5.8469 -0.853,10.7031 -2.559,14.5687l-1.481,-1.1656c1.429,-3.5979 2.143,-8.3005 2.143,-14.1078v-7.1375h11.224c-0.038,-1.29583 -0.056,-2.39583 -0.056,-3.3h1.896c0,1.05521 0.016,2.15521 0.047,3.3h2.963c-0.884,-0.86979 -1.804,-1.82552 -2.763,-2.86719z" fill="#ffffff" stroke="#ffffff" stroke-width="6" stroke-linejoin="round"/><path d="M763.074,377.09535c-0.346,2.6739 -0.732,5.1979 -1.157,7.5719l-0.253,-0.2329c1.137,-0.975 2.665,-1.8177 4.584,-2.5281c1.919,-0.7104 3.722,-1.0656 5.408,-1.0656c2.622,0 4.625,0.5443 6.008,1.6328c1.384,1.0885 2.075,2.6505 2.075,4.6859c0,5.1823 -4.161,7.7735 -12.482,7.7735c-1.639,0 -3.562,-0.1136 -5.771,-0.3407l0.133,-1.8109c2.33,0.2927 4.209,0.4391 5.638,0.4391c6.926,0 10.389,-2.0203 10.389,-6.061c0,-3.052 -2.034,-4.5781 -6.102,-4.5781c-1.576,0 -3.345,0.393 -5.306,1.1789c-1.962,0.786 -3.61,1.7841 -4.944,2.9945l-1.584,-0.4546c0.549,-3.248 1.028,-6.4079 1.439,-9.4797zM763.096,372.33595c4.304,0.63125 8.564,0.94687 12.781,0.94687v1.71251c-4.271,0 -8.598,-0.29532 -12.98,-0.88594z" fill="#ffffff" stroke="#ffffff" stroke-width="6" stroke-linejoin="round"/><path d="M810.497,377.22345c-2.128,-0.3208 -4.2,-0.4995 -6.216,-0.5359v10.6859c1.81,0.8865 3.925,2.2922 6.346,4.2172l-1.077,1.2547c-2.136,-1.5636 -3.892,-2.7948 -5.269,-3.6938v-0.1031c0,2.1552 -0.471,3.6841 -1.414,4.5867c-0.944,0.9026 -2.527,1.3539 -4.751,1.3539c-1.861,0 -3.325,-0.4245 -4.394,-1.2734c-1.069,-0.849 -1.603,-2.0287 -1.603,-3.5391c0,-1.3979 0.523,-2.495 1.568,-3.2914c1.045,-0.7963 2.522,-1.1945 4.429,-1.1945c1.459,0 2.873,0.2953 4.241,0.8859v-11.65935c3.132,0 5.917,0.20469 8.354,0.61406zM785.916,376.65935v-1.74215h5.445c0.469,-1.40521 0.921,-2.91406 1.356,-4.52656l1.779,0.38437c-0.387,1.47813 -0.81,2.85886 -1.269,4.14219h5.64v1.74215h-6.121c-1.503,4.5084 -3.422,9.3115 -5.758,14.4094l-1.636,-0.6094c2.186,-4.9218 4.038,-9.5218 5.554,-13.8zM802.357,388.37345c-1.431,-0.6469 -2.844,-0.9703 -4.241,-0.9703c-2.714,0 -4.07,0.9245 -4.07,2.7734c0,1.0115 0.35,1.7857 1.051,2.3227c0.701,0.537 1.707,0.8055 3.019,0.8055c1.648,0 2.767,-0.2904 3.356,-0.8711c0.59,-0.5808 0.885,-1.7092 0.885,-3.3852z" fill="#ffffff" stroke="#ffffff" stroke-width="6" stroke-linejoin="round"/><path d="M833.194,372.36407c-3.907,3.26459 -7.599,6.05318 -11.077,8.36568c-1.103,0.7281 -1.779,1.2088 -2.028,1.4421c-0.25,0.2334 -0.375,0.486 -0.375,0.7579c0,0.2854 0.111,0.5388 0.332,0.7601c0.222,0.2214 0.801,0.6471 1.737,1.2773c3.94,2.7073 8.026,5.9652 12.258,9.7735l-1.214,1.264c-4.381,-3.7979 -8.44,-6.9739 -12.175,-9.5281c-1.265,-0.8802 -2.086,-1.52 -2.464,-1.9195c-0.378,-0.3995 -0.567,-0.9419 -0.567,-1.6273c0,-0.6771 0.198,-1.2144 0.596,-1.6118c0.397,-0.3974 1.313,-1.081 2.749,-2.0508c3.561,-2.3864 7.259,-5.14787 11.094,-8.28433z" fill="#ffffff" stroke="#ffffff" stroke-width="6" stroke-linejoin="round"/><path d="M868.097,377.22345c-2.128,-0.3208 -4.2,-0.4995 -6.215,-0.5359v10.6859c1.809,0.8865 3.924,2.2922 6.345,4.2172l-1.077,1.2547c-2.136,-1.5636 -3.892,-2.7948 -5.268,-3.6938v-0.1031c0,2.1552 -0.472,3.6841 -1.415,4.5867c-0.944,0.9026 -2.527,1.3539 -4.751,1.3539c-1.861,0 -3.325,-0.4245 -4.394,-1.2734c-1.069,-0.849 -1.603,-2.0287 -1.603,-3.5391c0,-1.3979 0.523,-2.495 1.568,-3.2914c1.045,-0.7963 2.522,-1.1945 4.429,-1.1945c1.459,0 2.873,0.2953 4.241,0.8859v-11.65935c3.132,0 5.917,0.20469 8.354,0.61406zM843.516,376.65935v-1.74215h5.445c0.469,-1.40521 0.921,-2.91406 1.356,-4.52656l1.779,0.38437c-0.387,1.47813 -0.81,2.85886 -1.269,4.14219h5.64v1.74215h-6.121c-1.503,4.5084 -3.422,9.3115 -5.758,14.4094l-1.636,-0.6094c2.186,-4.9218 4.038,-9.5218 5.555,-13.8zM859.957,388.37345c-1.431,-0.6469 -2.844,-0.9703 -4.241,-0.9703c-2.714,0 -4.07,0.9245 -4.07,2.7734c0,1.0115 0.35,1.7857 1.051,2.3227c0.701,0.537 1.707,0.8055 3.019,0.8055c1.648,0 2.767,-0.2904 3.356,-0.8711c0.59,-0.5808 0.885,-1.7092 0.885,-3.3852z" fill="#ffffff" stroke="#ffffff" stroke-width="6" stroke-linejoin="round"/><path d="M880.671,381.77505l-0.169,-0.3578c2.319,-0.6667 4.409,-1 6.27,-1c2.771,0 4.886,0.5388 6.345,1.6164c1.46,1.0776 2.189,2.6169 2.189,4.6179c0,2.6938 -0.93,4.7568 -2.791,6.1891c-1.861,1.4323 -4.537,2.1484 -8.027,2.1484c-5.408,0 -8.111,-1.5099 -8.111,-4.5297c0,-1.0645 0.537,-1.9752 1.612,-2.732c1.075,-0.7568 2.612,-1.1352 4.61,-1.1352c4.054,0 6.081,1.3454 6.081,4.036c0,0.8354 -0.226,1.5906 -0.678,2.2656c3.51,-0.6323 5.265,-2.6661 5.265,-6.1015c0,-1.5282 -0.564,-2.6967 -1.693,-3.5055c-1.129,-0.8089 -2.834,-1.2133 -5.113,-1.2133c-3.857,0 -7.974,1.2781 -12.35,3.8344l-0.753,-1.3203l16.244,-10.50629v0.32188h-14.185v-1.68438h17.127l0.167,1.54375zM886.071,393.21405c0.511,-0.9708 0.767,-1.7953 0.767,-2.4734c0,-1.6615 -1.432,-2.4922 -4.296,-2.4922c-1.39,0 -2.44,0.2266 -3.149,0.6797c-0.709,0.4531 -1.063,0.9635 -1.063,1.5312c0,1.8782 2.053,2.8172 6.158,2.8172c0.638,0 1.166,-0.0208 1.583,-0.0625z" fill="#ffffff" stroke="#ffffff" stroke-width="6" stroke-linejoin="round"/><path d="M490.2768,428.42655c-4.125,-3.4468 -6.1875,-7.7442 -6.1875,-12.8922c0,-5.1479 2.0552,-9.4395 6.1656,-12.875h1.9641c-4.0979,3.5938 -6.1469,7.8855 -6.1469,12.875c0,4.9896 2.049,9.287 6.1469,12.8922z" fill="#ffffff" stroke="#ffffff" stroke-width="6" stroke-linejoin="round"/><path d="M511.0643,412.84065h5.0969v-1.4469h-5.0969zM511.0643,414.43905v1.6438h5.0969v-1.6438zM507.4268,408.12345v1.6422h12.5406v-1.6422zM507.4268,406.57965h12.5406v-1.5874h-12.5406zM512.6643,417.88755h1.8969v7.814c0,1.074 -0.1461,1.7685 -0.4383,2.0836c-0.2922,0.3151 -0.932,0.4727 -1.9195,0.4727c-0.4115,0 -1.412,-0.0532 -3.0016,-0.1594l-0.0344,-1.8219c1.2969,0.1604 2.2709,0.2406 2.9219,0.2406c0.3281,0 0.506,-0.0138 0.5336,-0.0414c0.0276,-0.0276 0.0414,-0.2575 0.0414,-0.6898zM512.3331,423.51255c-2.2438,1.976 -4.7146,3.426 -7.4125,4.35l-0.6891,-1.4266c2.4406,-0.9302 4.825,-2.337 7.1531,-4.2203zM522.7393,426.76565l-0.9125,1.2953c-2.3937,-1.825 -4.7713,-3.2437 -7.1328,-4.2562l0.7078,-1.4766c2.4854,1 4.9313,2.4792 7.3375,4.4375zM505.6784,424.27345l-1.4485,0.8547c-0.9593,-2.0906 -1.9276,-4.1307 -2.9047,-6.1203c-0.6104,3.7062 -1.801,6.6203 -3.5718,8.7422l-1.2203,-1.2094c2.501,-3.3302 3.7515,-8.5823 3.7515,-15.7563v-7.7015h1.8688v7.7015c0,1.1375 -0.0469,2.2782 -0.1407,3.4219c0.7657,-2.2375 1.4339,-5.001 2.0047,-8.2906l1.8016,0.414c-0.5896,3.5011 -1.5734,6.6084 -2.9516,9.3219l-0.925,-0.45c-0.051,0.6677 -0.1031,1.2068 -0.1562,1.6172c0.8208,1.2927 1.6151,2.6781 2.3828,4.1563c1.8375,-0.9219 3.4094,-2.0099 4.7156,-3.2641h-5.2453v-1.6281h5.5v-1.6438h-4.6531v-1.5984h4.6531v-1.4469h-2.0125h-1.6531v-8.0016h16.4765v8.0016h-3.8359v1.4469h4.7375v1.5984h-4.7375v1.6438h5.5266v1.6281h-5.2438c1.4261,1.3781 3.2776,2.6083 5.5547,3.6906l-0.6969,1.4985c-1.6031,-0.6927 -3.0338,-1.6047 -4.2922,-2.736c-0.6927,0.8021 -1.6468,1.6011 -2.8624,2.3969l-1.0391,-1.1969c1.0281,-0.8062 1.9208,-1.5557 2.6781,-2.2484c-0.4219,-0.3417 -0.8531,-0.8099 -1.2937,-1.4047h-5.6375c-0.3282,0.475 -0.7693,0.9411 -1.3235,1.3984c0.8042,0.6719 1.5938,1.499 2.3688,2.4813l-1.2625,1.0547c-0.9146,-1.0011 -1.6875,-1.8188 -2.3188,-2.4531c-1.1219,0.9833 -2.2594,1.7583 -3.4125,2.3249c0.3667,0.6636 0.6396,1.249 0.8188,1.7563zM496.6174,416.55475c0.6771,-2.9053 1.0157,-6.198 1.0157,-9.8782l1.8968,0.1719c0,3.8333 -0.3755,7.2099 -1.1265,10.1297z" fill="#ffffff" stroke="#ffffff" stroke-width="6" stroke-linejoin="round"/><path d="M537.1284,413.96095v3.5031h5.125v-3.5031zM542.2534,409.02505h-5.125v3.2797h5.125zM549.3315,412.30475v-3.2797h-5.0969v3.2797zM549.3315,413.96095h-5.0969v3.5031h5.0969zM551.2565,407.31255v11.8359h-7.0219v2.7156h8.0375v1.7407h-8.0375v4.6812h-1.9812v-4.6812h-8.0656v-1.7407h8.0656v-2.7156h-5.425h-1.5969v-11.8359h2.0031c-0.6812,-1.3073 -1.3958,-2.6636 -2.1437,-4.0688l1.6281,-0.7406c0.9531,1.6406 1.7677,3.2437 2.4438,4.8094h3.739c-0.5885,-1.2198 -1.3213,-2.6818 -2.1984,-4.386l1.6328,-0.7047c0.9239,1.6438 1.7484,3.3407 2.4734,5.0907h2.0907c0.9802,-1.4782 1.9062,-3.1563 2.7781,-5.0344l1.7203,0.6297c-0.6781,1.5771 -1.5151,3.0453 -2.511,4.4047zM526.6987,410.27345h5.5437v-4.7172h-6.0906v-1.7406h8.0438v8.1703h-5.6344c-0.1386,2.0781 -0.2625,3.6318 -0.3719,4.6609h5.8656l-0.0609,0.9797c-0.0937,1.6229 -0.1839,2.9498 -0.2703,3.9805c-0.0865,1.0307 -0.1805,1.9268 -0.282,2.6883c-0.1016,0.7614 -0.2084,1.3502 -0.3204,1.7664c-0.1119,0.4161 -0.2794,0.7633 -0.5023,1.0414c-0.2229,0.2781 -0.4388,0.4461 -0.6477,0.5039c-0.2088,0.0578 -0.4882,0.0867 -0.8382,0.0867c-1.0532,0 -2.6386,-0.0922 -4.7563,-0.2765l0.0344,-1.8188c1.8875,0.2365 3.3109,0.3547 4.2703,0.3547c0.1854,0 0.3073,-0.0198 0.3656,-0.0594c0.0584,-0.0396 0.1547,-0.3143 0.2891,-0.8242c0.1344,-0.5099 0.2437,-1.2909 0.3281,-2.343c0.0844,-1.0521 0.1927,-2.5172 0.325,-4.3953h-3.9719c-0.0791,0.7719 -0.1796,1.524 -0.3015,2.2563l-1.875,-0.1391c0.3583,-3.1573 0.6442,-6.549 0.8578,-10.175z" fill="#ffffff" stroke="#ffffff" stroke-width="6" stroke-linejoin="round"/><path d="M580,410.01255h-5.159v9.5187c1.337,0.85 3.048,2.3057 5.131,4.3672l-1.197,1.2016c-1.876,-1.7323 -3.187,-2.9547 -3.934,-3.6672v-0.0172c0,1.9448 -0.466,3.388 -1.398,4.3297c-0.932,0.9416 -2.343,1.4125 -4.233,1.4125c-1.9347,0 -3.4457,-0.4391 -4.5332,-1.3172c-1.0875,-0.8781 -1.6312,-2.1182 -1.6312,-3.7203c0,-1.4198 0.5372,-2.5224 1.6117,-3.3078c1.0745,-0.7855 2.5919,-1.1782 4.5527,-1.1782c1.375,0 2.61,0.3047 3.704,0.9141v-8.5359h-9.1919v-1.7125h9.1919v-4.9079h1.927v4.9079h5.159zM559.5565,404.12035c-0.9219,3.5406 -1.3828,7.3367 -1.3828,11.3883c0,4.0515 0.4609,7.8711 1.3828,11.4585l-1.7922,0.2469c-1.0104,-3.7781 -1.5156,-7.6797 -1.5156,-11.7047c0,-4.025 0.4995,-7.9375 1.4984,-11.7375zM572.914,420.46405c-1.228,-0.7073 -2.472,-1.0609 -3.732,-1.0609c-2.8078,0 -4.2114,0.9057 -4.2114,2.7172c0,1.1031 0.3609,1.933 1.0828,2.4898c0.7219,0.5568 1.7646,0.8352 3.1286,0.8352c1.305,0 2.253,-0.3133 2.845,-0.9399c0.591,-0.6265 0.887,-1.6752 0.887,-3.1461z" fill="#ffffff" stroke="#ffffff" stroke-width="6" stroke-linejoin="round"/><path d="M585.997,411.39375h-1.597v-8.0016h14.08v8.0016h-6.064v1.1922h7.136v1.6844h-16.505v-1.6844h7.416v-1.1922zM586.297,408.12345v1.6422h10.286v-1.6422zM586.297,406.57965h10.286v-1.5593h-10.286zM586.505,421.54685h-1.597v-6.1968h13.008v6.1968h-5.5v4.211c0,0.9791 -0.156,1.6359 -0.467,1.9703c-0.31,0.3344 -0.932,0.5016 -1.863,0.5016c-0.507,0 -1.441,-0.0542 -2.803,-0.1625l-0.034,-1.7907c1.046,0.1604 1.888,0.2406 2.526,0.2406c0.382,0 0.596,-0.0265 0.644,-0.0796c0.048,-0.0532 0.072,-0.3454 0.072,-0.8766v-4.0141zM586.805,419.91875h9.242v-2.9406h-9.242zM598.669,408.55155c3.711,-1.3385 6.752,-3.1198 9.12,-5.3437l1.238,1.214c-2.388,2.35 -5.603,4.2417 -9.647,5.675zM598.641,417.13595c3.987,-1.5302 7.199,-3.6443 9.636,-6.3422l1.258,1.1656c-2.55,2.9042 -5.922,5.1412 -10.116,6.711zM582.764,426.44065c1.967,-1.3886 3.576,-3.0323 4.827,-4.9313l1.386,0.9516c-1.203,2.0427 -2.907,3.7589 -5.113,5.1484zM593.367,422.52345l1.305,-1.0141c1.438,1.5469 2.599,3.0511 3.485,4.5125c2.067,-0.7187 3.954,-1.6346 5.66,-2.7476c1.707,-1.113 3.363,-2.5565 4.969,-4.3305l1.255,1.1984c-1.614,1.8709 -3.323,3.4047 -5.129,4.6016c-1.806,1.1969 -3.984,2.2177 -6.535,3.0625l-0.536,-1.0156l-0.919,0.5641c-1.179,-1.8365 -2.364,-3.4469 -3.555,-4.8313z" fill="#ffffff" stroke="#ffffff" stroke-width="6" stroke-linejoin="round"/><path d="M622.852,405.76095h4.956v-0.9094h-4.956zM628.146,418.19845c0.769,-0.599 1.437,-1.1562 2.003,-1.6719h-9.525c0.669,0.4 1.302,0.9573 1.898,1.6719zM618.002,424.73285v1.164h14.684v-1.164zM618.002,423.18905h14.684v-1.164h-14.684zM619.897,407.83285l1.377,0.8156c-0.625,1.3833 -1.684,2.643 -3.175,3.7789c-1.492,1.1359 -3.247,2.0419 -5.264,2.718l-0.763,-1.3406c2.436,-0.875 4.4,-1.9042 5.894,-3.0876l-6.106,0.7329l-0.211,-1.5969l1.665,-0.1594c0.833,-0.5375 1.65,-1.0776 2.452,-1.6203c-1.016,-0.6344 -2.266,-1.4276 -3.75,-2.3797l1.005,-1.3016c0.253,0.1667 0.516,0.3339 0.791,0.5016c0.274,0.1677 0.436,0.2641 0.484,0.2891c0.939,-0.7563 1.909,-1.6308 2.91,-2.6235l1.304,0.9875c-1.113,1.1677 -2.081,2.0292 -2.905,2.5844c0.078,-0.0156 0.555,0.2698 1.43,0.8563c0.764,-0.5802 1.735,-1.4453 2.912,-2.5954l1.299,0.9907c-1.754,1.7302 -3.511,3.0547 -5.274,3.9734l3.122,-0.2219c0.258,-0.3198 0.526,-0.7536 0.803,-1.3015zM627.808,408.24375v-0.939h-4.956v0.939zM626.647,409.38435c1.525,1.4011 2.874,2.8818 4.045,4.4422l-1.476,0.811c-0.623,-0.7146 -1.115,-1.2881 -1.477,-1.7203c-2.88,0.6375 -5.944,1.126 -9.193,1.4656l-0.213,-1.5688c0.354,-0.0344 1.228,-0.1448 2.622,-0.3312v-9.2032h8.694v6.5063h-6.797v2.3906c1.325,-0.2448 2.591,-0.4411 3.8,-0.589c-0.59,-0.4355 -1.041,-0.8412 -1.355,-1.2172zM632.242,414.75005h-1.896v-11.5828h8.326v1.3937c-0.955,1.3146 -1.989,2.4188 -3.101,3.3125c2.18,0.8344 3.27,2.0396 3.27,3.6156c0,0.9063 -0.328,1.5448 -0.985,1.9156c-0.656,0.3709 -1.771,0.5563 -3.346,0.5563h-1.494l-0.245,-1.6h1.54c1.11,0 1.826,-0.0732 2.149,-0.2195c0.323,-0.1464 0.484,-0.4107 0.484,-0.793c0,-0.45 -0.314,-0.9365 -0.941,-1.4594c-0.627,-0.5229 -1.629,-1.0432 -3.006,-1.5609c1.424,-1.3656 2.608,-2.5526 3.553,-3.561h-4.308zM612.496,419.82655v-1.6281h7.839c-0.535,-0.4083 -1.19,-0.9656 -1.968,-1.6719h-5.026v-1.6h10.998v-1.5797h2.01v1.5797h10.998v1.6h-5.106c-0.448,0.6542 -1.049,1.2115 -1.803,1.6719h7.754v1.6281zM618.002,428.31405h-2.01v-7.889h18.704v7.889h-2.01v-0.8172h-14.684z" fill="#ffffff" stroke="#ffffff" stroke-width="6" stroke-linejoin="round"/><path d="M663.694,426.32035c-2.37,0.4083 -4.782,0.6125 -7.238,0.6125c-3.46,0 -5.992,-0.4084 -7.596,-1.225c-1.603,-0.8167 -2.405,-2.1349 -2.405,-3.9547c0,-3.0573 2.933,-5.3719 8.798,-6.9438c-0.244,-0.8833 -0.58,-1.5088 -1.007,-1.8765c-0.428,-0.3677 -0.979,-0.5516 -1.654,-0.5516c-1.193,0 -2.508,0.5487 -3.943,1.6461c-1.434,1.0974 -2.962,2.7576 -4.582,4.9805l-1.446,-0.9047c2.326,-3.3667 4.281,-6.7406 5.865,-10.1219h-5.837v-1.6562h6.415c0.596,-1.4709 1.061,-2.7073 1.396,-3.7094l1.784,0.5234c-0.648,1.825 -1.071,2.887 -1.269,3.186h12.492v1.6562h-13.106c-0.749,1.7115 -1.663,3.5271 -2.742,5.4469l-0.258,-0.2656c1.849,-1.6438 3.659,-2.4657 5.43,-2.4657c1.144,0 2.064,0.3128 2.76,0.9383c0.696,0.6255 1.197,1.5107 1.502,2.6555c1.735,-0.3792 3.995,-0.774 6.78,-1.1844l0.17,1.7453c-2.535,0.3448 -4.744,0.7391 -6.626,1.1828c0.263,1.324 0.395,3.3589 0.395,6.1047h-1.955c0,-2.5729 -0.095,-4.4812 -0.286,-5.725c-4.729,1.3625 -7.093,3.1047 -7.093,5.2266c0,0.551 0.092,1.0159 0.277,1.3945c0.185,0.3787 0.53,0.7422 1.036,1.0906c0.506,0.3485 1.317,0.618 2.434,0.8086c1.118,0.1907 2.541,0.286 4.271,0.286c2.235,0 4.59,-0.2214 7.066,-0.6641z" fill="#ffffff" stroke="#ffffff" stroke-width="6" stroke-linejoin="round"/><path d="M682.7,410.10475c-0.542,-1.0907 -1.185,-2.3058 -1.928,-3.6454c-0.971,0.075 -2.431,0.1443 -4.381,0.2079c0.633,0.8937 1.273,2.0395 1.92,3.4375zM693.303,411.76095h-20.718v4.625h-1.982v-6.2812h5.808c-0.568,-1.0438 -1.203,-2.1745 -1.906,-3.3922h-2.473l-0.104,-1.7125c7.983,0 15.26,-0.6631 21.833,-1.9891l0.339,1.7484c-3.648,0.7375 -7.483,1.2552 -11.504,1.5532c0.786,1.2302 1.454,2.4942 2.004,3.7922h3.155c0.795,-1.449 1.539,-3.0428 2.233,-4.7813l1.744,0.525c-0.566,1.5562 -1.243,2.975 -2.03,4.2563h5.583v6.2812h-1.982zM675.594,417.20785l1.411,-1.0563c1.617,2.0959 3.586,3.8724 5.908,5.3297c2.729,-1.7333 4.848,-3.6479 6.358,-5.7437h-15.425v-1.6844h17.52v1.4687c-1.767,2.8521 -4.07,5.1922 -6.909,7.0204c3.208,1.7374 6.827,2.9005 10.857,3.489l-0.456,1.6625c-4.385,-0.6073 -8.357,-1.9797 -11.916,-4.1172c-3.41,2.1 -7.382,3.4724 -11.917,4.1172l-0.451,-1.6656c4.043,-0.5656 7.663,-1.7255 10.858,-3.4797c-2.29,-1.4135 -4.236,-3.1937 -5.838,-5.3406z" fill="#ffffff" stroke="#ffffff" stroke-width="6" stroke-linejoin="round"/><path d="M707.58,409.17345h10.153v-5.5266h1.925v5.5266h4.85v1.7406h-4.85v4.3531c0,2.0792 -0.096,3.7553 -0.289,5.0282c-0.193,1.2729 -0.588,2.3802 -1.187,3.3219c-0.598,0.9416 -1.365,1.6604 -2.299,2.1562c-0.934,0.4958 -2.286,0.9573 -4.056,1.3844l-0.495,-1.6282c1.076,-0.3052 1.89,-0.5619 2.443,-0.7703c0.553,-0.2083 1.086,-0.4833 1.599,-0.825c0.512,-0.3416 0.898,-0.7234 1.158,-1.1453c0.26,-0.4218 0.492,-0.9901 0.696,-1.7047c0.205,-0.7145 0.34,-1.5278 0.406,-2.4398c0.066,-0.912 0.099,-2.0378 0.099,-3.3774v-4.3531h-10.153zM703.95,404.11875c-0.939,3.6177 -1.409,7.4146 -1.409,11.3906c0,3.9761 0.47,7.7964 1.409,11.461l-1.875,0.2437c-0.991,-3.726 -1.487,-7.6286 -1.487,-11.7078c0,-4.0792 0.489,-7.9906 1.469,-11.7344z" fill="#ffffff" stroke="#ffffff" stroke-width="6" stroke-linejoin="round"/><path d="M752.897,409.22345c-2.128,-0.3208 -4.2,-0.4995 -6.216,-0.5359v10.6859c1.81,0.8865 3.925,2.2922 6.346,4.2172l-1.077,1.2547c-2.136,-1.5636 -3.892,-2.7948 -5.269,-3.6938v-0.1031c0,2.1552 -0.471,3.6841 -1.414,4.5867c-0.944,0.9026 -2.527,1.3539 -4.751,1.3539c-1.861,0 -3.325,-0.4245 -4.394,-1.2734c-1.069,-0.849 -1.603,-2.0287 -1.603,-3.5391c0,-1.3979 0.523,-2.495 1.568,-3.2914c1.045,-0.7963 2.522,-1.1945 4.429,-1.1945c1.459,0 2.873,0.2953 4.241,0.8859v-11.6593c3.132,0 5.917,0.2046 8.354,0.614zM728.316,408.65935v-1.7421h5.445c0.469,-1.4053 0.921,-2.9141 1.356,-4.5266l1.779,0.3844c-0.387,1.4781 -0.81,2.8588 -1.269,4.1422h5.64v1.7421h-6.121c-1.503,4.5084 -3.422,9.3115 -5.758,14.4094l-1.636,-0.6094c2.186,-4.9218 4.038,-9.5218 5.554,-13.8zM744.757,420.37345c-1.431,-0.6469 -2.844,-0.9703 -4.241,-0.9703c-2.714,0 -4.07,0.9245 -4.07,2.7734c0,1.0115 0.35,1.7857 1.051,2.3227c0.701,0.537 1.707,0.8055 3.019,0.8055c1.648,0 2.767,-0.2904 3.356,-0.8711c0.59,-0.5808 0.885,-1.7092 0.885,-3.3852z" fill="#ffffff" stroke="#ffffff" stroke-width="6" stroke-linejoin="round"/><path d="M775.277,406.56095l1.692,-0.7016c1.353,2.4334 2.374,5.1784 3.062,8.2352c0.689,3.0568 1.033,6.3018 1.033,9.7351h-1.953c0,-3.2687 -0.336,-6.3828 -1.008,-9.3421c-0.672,-2.9594 -1.614,-5.6016 -2.826,-7.9266zM761.55,406.31725c-0.771,2.9593 -1.156,6.1119 -1.156,9.4578c0,2.5968 0.464,4.7544 1.391,6.4726c0.927,1.7182 1.811,2.5774 2.653,2.5774c0.561,0 1.349,-0.6157 2.363,-1.8469c1.014,-1.2313 1.983,-3.0932 2.907,-5.586l1.741,0.6891c-0.948,2.7448 -2.082,4.8685 -3.4,6.3711c-1.319,1.5026 -2.551,2.2539 -3.696,2.2539c-1.509,0 -2.876,-1.0745 -4.102,-3.2234c-1.225,-2.149 -1.838,-4.7183 -1.838,-7.7078c0,-3.4344 0.424,-6.7021 1.273,-9.8032z" fill="#ffffff" stroke="#ffffff" stroke-width="6" stroke-linejoin="round"/><path d="M789.228,402.65935c4.114,3.4386 6.171,7.7302 6.171,12.875c0,5.1448 -2.064,9.4422 -6.193,12.8922h-1.937c4.098,-3.6073 6.147,-7.9047 6.147,-12.8922c0,-4.9875 -2.049,-9.2791 -6.147,-12.875z" fill="#ffffff" stroke="#ffffff" stroke-width="6" stroke-linejoin="round"/><path d="M470.694,392.41095l0.06406,-1.9703c7.08434,0.3146 14.10624,1.1187 21.06564,2.4125l-0.2453,1.825c-6.9396,-1.2594 -13.90107,-2.0151 -20.8844,-2.2672zM473.0065,383.07815l0.09531,-1.9719c5.44269,0.2583 10.96929,0.8818 16.57969,1.8703l-0.2469,1.8313c-5.7729,-0.9594 -11.2489,-1.536 -16.4281,-1.7297zM472.04869,374.73126l0.09531,-1.94375c6.1333,0.27709 12.4021,0.89844 18.8063,1.86407l-0.2125,1.78125c-6.299,-0.92188 -12.5287,-1.48907 -18.68911,-1.70157z" fill="#000000" stroke="none" stroke-width="1" stroke-linejoin="miter"/><path d="M501.2424,375.24845v-1.76875h17.8032v1.51563c-1.3115,3.43122 -3.4453,6.65102 -6.4016,9.65932c3.0323,2.8084 5.9177,5.7172 8.6563,8.7266l-1.3063,1.1844c-2.6927,-2.8438 -5.5536,-5.7485 -8.5828,-8.7141c-3.1167,3.1427 -7.0401,5.9063 -11.7703,8.2907l-0.7953,-1.4797c4.4927,-2.3865 8.2932,-5.1105 11.4015,-8.1719c3.1084,-3.0615 5.3427,-6.1422 6.7032,-9.2422z" fill="#000000" stroke="none" stroke-width="1" stroke-linejoin="miter"/><path d="M532.9831,371.71251c-0.1875,5.21044 -0.2813,9.56044 -0.2813,13.05004c0,1.9052 0.1154,3.444 0.3461,4.6164c0.2307,1.1724 0.6047,2.0614 1.1219,2.6672c0.5172,0.6057 1.1088,1.0138 1.775,1.2242c0.6661,0.2104 1.5528,0.3156 2.6601,0.3156c1.9927,0 3.8396,-0.7682 5.5407,-2.3047c1.701,-1.5364 3.1151,-3.8281 4.2421,-6.875l1.7422,0.6906c-1.1958,3.3563 -2.7992,5.9144 -4.8101,7.6743c-2.011,1.7599 -4.2492,2.6398 -6.7149,2.6398c-2.9593,0 -5.0182,-0.7849 -6.1765,-2.3547c-1.1584,-1.5698 -1.7375,-4.3344 -1.7375,-8.2937c0,-3.6896 0.1062,-8.0855 0.3187,-13.18754z" fill="#000000" stroke="none" stroke-width="1" stroke-linejoin="miter"/><path d="M562.1424,385.80625c0,-2.4417 0.8615,-4.6008 2.5844,-6.4773c1.7229,-1.8766 4.0662,-3.27477 7.0312,-4.19456v0.36875c-5.0822,0.225 -10.3083,0.3375 -15.6781,0.3375v-1.76875c7.6375,0 15.3991,-0.22136 23.2861,-0.66407l0.07,1.84532c-4.905,0.40625 -8.674,1.55421 -11.307,3.44371c-2.6327,1.8896 -3.9491,4.2313 -3.9491,7.025c0,2.2552 0.7435,4.0263 2.2305,5.3133c1.4866,1.287 3.4826,1.9305 5.9866,1.9305c1.238,0 2.52,-0.1271 3.847,-0.3813l0.203,1.8235c-1.463,0.2364 -2.832,0.3547 -4.106,0.3547c-3.127,0 -5.6087,-0.8063 -7.4447,-2.4188c-1.8359,-1.6125 -2.7539,-3.7917 -2.7539,-6.5375z" fill="#000000" stroke="none" stroke-width="1" stroke-linejoin="miter"/><path d="M585.725,376.82815v-1.71251h6.558c0.008,-0.09896 0.041,-0.62344 0.098,-1.57344c0.056,-0.95 0.108,-1.79375 0.154,-2.53125l1.968,0.17031c-0.059,0.77917 -0.153,2.09063 -0.281,3.93438h11.589v1.71251h-11.698c-0.044,0.6208 -0.139,2.2963 -0.286,5.0266h10.434v1.7124h-10.508c-0.063,1.3688 -0.095,2.7542 -0.095,4.1563c0,2.4312 0.341,3.9927 1.024,4.6844c0.683,0.6916 2.168,1.0375 4.456,1.0375c2.231,0 3.919,-0.4154 5.062,-1.2461c1.144,-0.8307 1.716,-2.0503 1.716,-3.6586c0,-0.624 -0.094,-1.3995 -0.281,-2.3266l1.807,-0.4828c0.267,1.1969 0.4,2.1615 0.4,2.8938c0,2.1333 -0.756,3.7648 -2.27,4.8945c-1.513,1.1297 -3.658,1.6945 -6.434,1.6945c-2.908,0 -4.878,-0.5169 -5.912,-1.5508c-1.034,-1.0338 -1.551,-3.0138 -1.551,-5.9398c0,-0.9438 0.047,-2.3292 0.141,-4.1563h-6.711v-1.7124h6.778c0.144,-2.75 0.244,-4.4256 0.3,-5.0266z" fill="#000000" stroke="none" stroke-width="1" stroke-linejoin="miter"/><path d="M614.188,380.30465h22.115v0.5938c0,4.176 -1.478,7.4497 -4.435,9.8211c-2.957,2.3713 -7.4,3.7758 -13.329,4.2133l-0.206,-1.7407c1.795,-0.1468 3.387,-0.3638 4.775,-0.6507c1.389,-0.287 2.766,-0.7167 4.132,-1.2891c1.366,-0.5724 2.537,-1.2682 3.512,-2.0875c0.975,-0.8193 1.786,-1.8568 2.433,-3.1125c0.646,-1.2557 1.016,-2.582 1.109,-3.9789h-20.106zM616.386,374.9672v-1.76875h17.916v1.76875z" fill="#000000" stroke="none" stroke-width="1" stroke-linejoin="miter"/><path d="M642.649,383.28125c4.2,-0.6042 8.218,-1.8698 12.054,-3.7969c3.836,-1.927 6.98,-4.27236 9.433,-7.0359l1.222,1.2625c-2.235,2.60104 -5.084,4.8411 -8.545,6.7203v14.6984h-2.038v-13.8468c-3.631,1.9125 -7.592,3.1536 -11.884,3.7234z" fill="#000000" stroke="none" stroke-width="1" stroke-linejoin="miter"/><path d="M672.35,373.79064h21.244v0.59375c0,6.14896 -1.469,10.85026 -4.408,14.10386c-2.938,3.2537 -7.566,5.2326 -13.883,5.9368l-0.273,-1.7578c5.626,-0.6709 9.754,-2.3907 12.384,-5.1594c2.631,-2.7688 4.011,-6.7328 4.141,-11.89221h-19.205z" fill="#000000" stroke="none" stroke-width="1" stroke-linejoin="miter"/><path d="M715.9,372.39689l1.511,-0.85c0.891,1.35937 1.856,3.05625 2.896,5.09066l-1.53,0.7265c-1.046,-1.90102 -2.005,-3.55675 -2.877,-4.96716zM719.622,371.27345l1.511,-0.88281c1.192,1.82708 2.195,3.56198 3.009,5.20468l-1.526,0.725c-1.088,-1.90208 -2.086,-3.58437 -2.994,-5.04687zM700.389,378.52035v-1.7125h5.796c0.451,-1.82086 0.882,-3.88492 1.295,-6.19221l1.828,0.27968c-0.378,2.30105 -0.782,4.27188 -1.212,5.91253h2.435c0.828,0 1.465,0 1.913,0c0.448,0 0.937,0.05 1.468,0.15c0.531,0.1 0.915,0.1935 1.153,0.2804c0.238,0.087 0.492,0.2857 0.761,0.5961c0.269,0.3105 0.439,0.5925 0.509,0.8461c0.071,0.2537 0.149,0.668 0.234,1.243c0.085,0.575 0.128,1.1117 0.128,1.6102c0,0.4984 0,1.2268 0,2.1851c0,3.4417 -0.422,6.1333 -1.265,8.075c-0.844,1.9417 -1.914,2.9125 -3.208,2.9125c-1.496,0 -3.467,-0.5927 -5.913,-1.7781l0.6,-1.6422c2.298,1.0635 4.003,1.5953 5.114,1.5953c0.226,0 0.491,-0.1729 0.795,-0.5187c0.303,-0.3459 0.606,-0.8748 0.908,-1.5868c0.301,-0.7119 0.546,-1.7 0.734,-2.964c0.188,-1.2641 0.282,-2.6753 0.282,-4.2336c0,-0.8271 0,-1.4177 0,-1.7719c0,-0.3542 -0.028,-0.7732 -0.083,-1.257c-0.055,-0.4839 -0.095,-0.7974 -0.121,-0.9406c-0.025,-0.1433 -0.122,-0.3146 -0.291,-0.5141c-0.168,-0.1995 -0.295,-0.3125 -0.38,-0.3391c-0.085,-0.0265 -0.333,-0.0724 -0.742,-0.1375c-0.41,-0.0651 -0.747,-0.0976 -1.013,-0.0976c-0.265,0 -0.737,0 -1.414,0h-2.986c-1.49,5.776 -3.474,11.2187 -5.95,16.3281l-1.656,-0.6406c2.373,-5.099 4.281,-10.3282 5.723,-15.6875zM723.075,389.60315c-1.509,-3.6938 -3.318,-7.3849 -5.426,-11.0734l1.62,-0.8079c2.239,3.7677 4.079,7.55 5.522,11.3469z" fill="#000000" stroke="none" stroke-width="1" stroke-linejoin="miter"/><path d="M739.18,387.89065h4.081v-5.2813h-4.081zM728.174,372.3547l1.117,-1.25938c1.732,1.45209 3.233,2.87084 4.503,4.25625l-1.18,1.16563c-1.48,-1.45208 -2.96,-2.83958 -4.44,-4.1625zM731.975,383.14535c-1.524,-1.4906 -3.157,-2.9896 -4.9,-4.4969l1.074,-1.2922c1.928,1.5656 3.584,3.0849 4.968,4.5578zM733.089,386.66255c-0.9,3.3458 -2.137,6.4031 -3.712,9.1718l-1.569,-0.85c1.491,-2.8604 2.674,-5.8505 3.55,-8.9703zM737.283,391.46405v-10.4828h7.791v8.5656h-5.894v1.9172zM736.803,379.00005v-1.6844h8.497v1.6844zM747.689,370.55626l1.358,-0.98281c1.323,1.31771 2.476,2.60104 3.458,3.85h0.916v1.7125h-5.866c0.185,4.075 0.553,7.6536 1.103,10.7359c1.013,-2.2 1.826,-4.8786 2.441,-8.0359l1.758,0.5484c-0.708,3.6698 -1.92,6.8865 -3.638,9.65c0.299,1.1875 0.611,2.2417 0.937,3.1625c0.325,0.9209 0.596,1.568 0.811,1.9414c0.216,0.3735 0.332,0.5602 0.349,0.5602c0.335,0 0.636,-1.9318 0.903,-5.7953l1.822,0.5094c-0.137,1.9906 -0.339,3.5382 -0.607,4.6429c-0.268,1.1047 -0.557,1.844 -0.866,2.218c-0.309,0.374 -0.688,0.5609 -1.138,0.5609c-0.664,0 -1.327,-0.564 -1.99,-1.6922c-0.663,-1.1281 -1.208,-2.6036 -1.635,-4.4265c-1.895,2.8042 -4.406,4.8344 -7.533,6.0906l-0.959,-1.3734c3.258,-1.3865 5.9,-3.6 7.925,-6.6406c-0.845,-3.6365 -1.367,-7.8553 -1.567,-12.6563h-9.396v6.1297c0,5.8469 -0.853,10.7031 -2.559,14.5687l-1.481,-1.1656c1.429,-3.5979 2.143,-8.3005 2.143,-14.1078v-7.1375h11.224c-0.038,-1.29583 -0.056,-2.39583 -0.056,-3.3h1.896c0,1.05521 0.016,2.15521 0.047,3.3h2.963c-0.884,-0.86979 -1.804,-1.82552 -2.763,-2.86719z" fill="#000000" stroke="none" stroke-width="1" stroke-linejoin="miter"/><path d="M763.074,377.09535c-0.346,2.6739 -0.732,5.1979 -1.157,7.5719l-0.253,-0.2329c1.137,-0.975 2.665,-1.8177 4.584,-2.5281c1.919,-0.7104 3.722,-1.0656 5.408,-1.0656c2.622,0 4.625,0.5443 6.008,1.6328c1.384,1.0885 2.075,2.6505 2.075,4.6859c0,5.1823 -4.161,7.7735 -12.482,7.7735c-1.639,0 -3.562,-0.1136 -5.771,-0.3407l0.133,-1.8109c2.33,0.2927 4.209,0.4391 5.638,0.4391c6.926,0 10.389,-2.0203 10.389,-6.061c0,-3.052 -2.034,-4.5781 -6.102,-4.5781c-1.576,0 -3.345,0.393 -5.306,1.1789c-1.962,0.786 -3.61,1.7841 -4.944,2.9945l-1.584,-0.4546c0.549,-3.248 1.028,-6.4079 1.439,-9.4797zM763.096,372.33595c4.304,0.63125 8.564,0.94687 12.781,0.94687v1.71251c-4.271,0 -8.598,-0.29532 -12.98,-0.88594z" fill="#000000" stroke="none" stroke-width="1" stroke-linejoin="miter"/><path d="M810.497,377.22345c-2.128,-0.3208 -4.2,-0.4995 -6.216,-0.5359v10.6859c1.81,0.8865 3.925,2.2922 6.346,4.2172l-1.077,1.2547c-2.136,-1.5636 -3.892,-2.7948 -5.269,-3.6938v-0.1031c0,2.1552 -0.471,3.6841 -1.414,4.5867c-0.944,0.9026 -2.527,1.3539 -4.751,1.3539c-1.861,0 -3.325,-0.4245 -4.394,-1.2734c-1.069,-0.849 -1.603,-2.0287 -1.603,-3.5391c0,-1.3979 0.523,-2.495 1.568,-3.2914c1.045,-0.7963 2.522,-1.1945 4.429,-1.1945c1.459,0 2.873,0.2953 4.241,0.8859v-11.65935c3.132,0 5.917,0.20469 8.354,0.61406zM785.916,376.65935v-1.74215h5.445c0.469,-1.40521 0.921,-2.91406 1.356,-4.52656l1.779,0.38437c-0.387,1.47813 -0.81,2.85886 -1.269,4.14219h5.64v1.74215h-6.121c-1.503,4.5084 -3.422,9.3115 -5.758,14.4094l-1.636,-0.6094c2.186,-4.9218 4.038,-9.5218 5.554,-13.8zM802.357,388.37345c-1.431,-0.6469 -2.844,-0.9703 -4.241,-0.9703c-2.714,0 -4.07,0.9245 -4.07,2.7734c0,1.0115 0.35,1.7857 1.051,2.3227c0.701,0.537 1.707,0.8055 3.019,0.8055c1.648,0 2.767,-0.2904 3.356,-0.8711c0.59,-0.5808 0.885,-1.7092 0.885,-3.3852z" fill="#000000" stroke="none" stroke-width="1" stroke-linejoin="miter"/><path d="M833.194,372.36407c-3.907,3.26459 -7.599,6.05318 -11.077,8.36568c-1.103,0.7281 -1.779,1.2088 -2.028,1.4421c-0.25,0.2334 -0.375,0.486 -0.375,0.7579c0,0.2854 0.111,0.5388 0.332,0.7601c0.222,0.2214 0.801,0.6471 1.737,1.2773c3.94,2.7073 8.026,5.9652 12.258,9.7735l-1.214,1.264c-4.381,-3.7979 -8.44,-6.9739 -12.175,-9.5281c-1.265,-0.8802 -2.086,-1.52 -2.464,-1.9195c-0.378,-0.3995 -0.567,-0.9419 -0.567,-1.6273c0,-0.6771 0.198,-1.2144 0.596,-1.6118c0.397,-0.3974 1.313,-1.081 2.749,-2.0508c3.561,-2.3864 7.259,-5.14787 11.094,-8.28433z" fill="#000000" stroke="none" stroke-width="1" stroke-linejoin="miter"/><path d="M868.097,377.22345c-2.128,-0.3208 -4.2,-0.4995 -6.215,-0.5359v10.6859c1.809,0.8865 3.924,2.2922 6.345,4.2172l-1.077,1.2547c-2.136,-1.5636 -3.892,-2.7948 -5.268,-3.6938v-0.1031c0,2.1552 -0.472,3.6841 -1.415,4.5867c-0.944,0.9026 -2.527,1.3539 -4.751,1.3539c-1.861,0 -3.325,-0.4245 -4.394,-1.2734c-1.069,-0.849 -1.603,-2.0287 -1.603,-3.5391c0,-1.3979 0.523,-2.495 1.568,-3.2914c1.045,-0.7963 2.522,-1.1945 4.429,-1.1945c1.459,0 2.873,0.2953 4.241,0.8859v-11.65935c3.132,0 5.917,0.20469 8.354,0.61406zM843.516,376.65935v-1.74215h5.445c0.469,-1.40521 0.921,-2.91406 1.356,-4.52656l1.779,0.38437c-0.387,1.47813 -0.81,2.85886 -1.269,4.14219h5.64v1.74215h-6.121c-1.503,4.5084 -3.422,9.3115 -5.758,14.4094l-1.636,-0.6094c2.186,-4.9218 4.038,-9.5218 5.555,-13.8zM859.957,388.37345c-1.431,-0.6469 -2.844,-0.9703 -4.241,-0.9703c-2.714,0 -4.07,0.9245 -4.07,2.7734c0,1.0115 0.35,1.7857 1.051,2.3227c0.701,0.537 1.707,0.8055 3.019,0.8055c1.648,0 2.767,-0.2904 3.356,-0.8711c0.59,-0.5808 0.885,-1.7092 0.885,-3.3852z" fill="#000000" stroke="none" stroke-width="1" stroke-linejoin="miter"/><path d="M880.671,381.77505l-0.169,-0.3578c2.319,-0.6667 4.409,-1 6.27,-1c2.771,0 4.886,0.5388 6.345,1.6164c1.46,1.0776 2.189,2.6169 2.189,4.6179c0,2.6938 -0.93,4.7568 -2.791,6.1891c-1.861,1.4323 -4.537,2.1484 -8.027,2.1484c-5.408,0 -8.111,-1.5099 -8.111,-4.5297c0,-1.0645 0.537,-1.9752 1.612,-2.732c1.075,-0.7568 2.612,-1.1352 4.61,-1.1352c4.054,0 6.081,1.3454 6.081,4.036c0,0.8354 -0.226,1.5906 -0.678,2.2656c3.51,-0.6323 5.265,-2.6661 5.265,-6.1015c0,-1.5282 -0.564,-2.6967 -1.693,-3.5055c-1.129,-0.8089 -2.834,-1.2133 -5.113,-1.2133c-3.857,0 -7.974,1.2781 -12.35,3.8344l-0.753,-1.3203l16.244,-10.50629v0.32188h-14.185v-1.68438h17.127l0.167,1.54375zM886.071,393.21405c0.511,-0.9708 0.767,-1.7953 0.767,-2.4734c0,-1.6615 -1.432,-2.4922 -4.296,-2.4922c-1.39,0 -2.44,0.2266 -3.149,0.6797c-0.709,0.4531 -1.063,0.9635 -1.063,1.5312c0,1.8782 2.053,2.8172 6.158,2.8172c0.638,0 1.166,-0.0208 1.583,-0.0625z" fill="#000000" stroke="none" stroke-width="1" stroke-linejoin="miter"/><path d="M490.2768,428.42655c-4.125,-3.4468 -6.1875,-7.7442 -6.1875,-12.8922c0,-5.1479 2.0552,-9.4395 6.1656,-12.875h1.9641c-4.0979,3.5938 -6.1469,7.8855 -6.1469,12.875c0,4.9896 2.049,9.287 6.1469,12.8922z" fill="#000000" stroke="none" stroke-width="1" stroke-linejoin="miter"/><path d="M511.0643,412.84065h5.0969v-1.4469h-5.0969zM511.0643,414.43905v1.6438h5.0969v-1.6438zM507.4268,408.12345v1.6422h12.5406v-1.6422zM507.4268,406.57965h12.5406v-1.5874h-12.5406zM512.6643,417.88755h1.8969v7.814c0,1.074 -0.1461,1.7685 -0.4383,2.0836c-0.2922,0.3151 -0.932,0.4727 -1.9195,0.4727c-0.4115,0 -1.412,-0.0532 -3.0016,-0.1594l-0.0344,-1.8219c1.2969,0.1604 2.2709,0.2406 2.9219,0.2406c0.3281,0 0.506,-0.0138 0.5336,-0.0414c0.0276,-0.0276 0.0414,-0.2575 0.0414,-0.6898zM512.3331,423.51255c-2.2438,1.976 -4.7146,3.426 -7.4125,4.35l-0.6891,-1.4266c2.4406,-0.9302 4.825,-2.337 7.1531,-4.2203zM522.7393,426.76565l-0.9125,1.2953c-2.3937,-1.825 -4.7713,-3.2437 -7.1328,-4.2562l0.7078,-1.4766c2.4854,1 4.9313,2.4792 7.3375,4.4375zM505.6784,424.27345l-1.4485,0.8547c-0.9593,-2.0906 -1.9276,-4.1307 -2.9047,-6.1203c-0.6104,3.7062 -1.801,6.6203 -3.5718,8.7422l-1.2203,-1.2094c2.501,-3.3302 3.7515,-8.5823 3.7515,-15.7563v-7.7015h1.8688v7.7015c0,1.1375 -0.0469,2.2782 -0.1407,3.4219c0.7657,-2.2375 1.4339,-5.001 2.0047,-8.2906l1.8016,0.414c-0.5896,3.5011 -1.5734,6.6084 -2.9516,9.3219l-0.925,-0.45c-0.051,0.6677 -0.1031,1.2068 -0.1562,1.6172c0.8208,1.2927 1.6151,2.6781 2.3828,4.1563c1.8375,-0.9219 3.4094,-2.0099 4.7156,-3.2641h-5.2453v-1.6281h5.5v-1.6438h-4.6531v-1.5984h4.6531v-1.4469h-2.0125h-1.6531v-8.0016h16.4765v8.0016h-3.8359v1.4469h4.7375v1.5984h-4.7375v1.6438h5.5266v1.6281h-5.2438c1.4261,1.3781 3.2776,2.6083 5.5547,3.6906l-0.6969,1.4985c-1.6031,-0.6927 -3.0338,-1.6047 -4.2922,-2.736c-0.6927,0.8021 -1.6468,1.6011 -2.8624,2.3969l-1.0391,-1.1969c1.0281,-0.8062 1.9208,-1.5557 2.6781,-2.2484c-0.4219,-0.3417 -0.8531,-0.8099 -1.2937,-1.4047h-5.6375c-0.3282,0.475 -0.7693,0.9411 -1.3235,1.3984c0.8042,0.6719 1.5938,1.499 2.3688,2.4813l-1.2625,1.0547c-0.9146,-1.0011 -1.6875,-1.8188 -2.3188,-2.4531c-1.1219,0.9833 -2.2594,1.7583 -3.4125,2.3249c0.3667,0.6636 0.6396,1.249 0.8188,1.7563zM496.6174,416.55475c0.6771,-2.9053 1.0157,-6.198 1.0157,-9.8782l1.8968,0.1719c0,3.8333 -0.3755,7.2099 -1.1265,10.1297z" fill="#000000" stroke="none" stroke-width="1" stroke-linejoin="miter"/><path d="M537.1284,413.96095v3.5031h5.125v-3.5031zM542.2534,409.02505h-5.125v3.2797h5.125zM549.3315,412.30475v-3.2797h-5.0969v3.2797zM549.3315,413.96095h-5.0969v3.5031h5.0969zM551.2565,407.31255v11.8359h-7.0219v2.7156h8.0375v1.7407h-8.0375v4.6812h-1.9812v-4.6812h-8.0656v-1.7407h8.0656v-2.7156h-5.425h-1.5969v-11.8359h2.0031c-0.6812,-1.3073 -1.3958,-2.6636 -2.1437,-4.0688l1.6281,-0.7406c0.9531,1.6406 1.7677,3.2437 2.4438,4.8094h3.739c-0.5885,-1.2198 -1.3213,-2.6818 -2.1984,-4.386l1.6328,-0.7047c0.9239,1.6438 1.7484,3.3407 2.4734,5.0907h2.0907c0.9802,-1.4782 1.9062,-3.1563 2.7781,-5.0344l1.7203,0.6297c-0.6781,1.5771 -1.5151,3.0453 -2.511,4.4047zM526.6987,410.27345h5.5437v-4.7172h-6.0906v-1.7406h8.0438v8.1703h-5.6344c-0.1386,2.0781 -0.2625,3.6318 -0.3719,4.6609h5.8656l-0.0609,0.9797c-0.0937,1.6229 -0.1839,2.9498 -0.2703,3.9805c-0.0865,1.0307 -0.1805,1.9268 -0.282,2.6883c-0.1016,0.7614 -0.2084,1.3502 -0.3204,1.7664c-0.1119,0.4161 -0.2794,0.7633 -0.5023,1.0414c-0.2229,0.2781 -0.4388,0.4461 -0.6477,0.5039c-0.2088,0.0578 -0.4882,0.0867 -0.8382,0.0867c-1.0532,0 -2.6386,-0.0922 -4.7563,-0.2765l0.0344,-1.8188c1.8875,0.2365 3.3109,0.3547 4.2703,0.3547c0.1854,0 0.3073,-0.0198 0.3656,-0.0594c0.0584,-0.0396 0.1547,-0.3143 0.2891,-0.8242c0.1344,-0.5099 0.2437,-1.2909 0.3281,-2.343c0.0844,-1.0521 0.1927,-2.5172 0.325,-4.3953h-3.9719c-0.0791,0.7719 -0.1796,1.524 -0.3015,2.2563l-1.875,-0.1391c0.3583,-3.1573 0.6442,-6.549 0.8578,-10.175z" fill="#000000" stroke="none" stroke-width="1" stroke-linejoin="miter"/><path d="M580,410.01255h-5.159v9.5187c1.337,0.85 3.048,2.3057 5.131,4.3672l-1.197,1.2016c-1.876,-1.7323 -3.187,-2.9547 -3.934,-3.6672v-0.0172c0,1.9448 -0.466,3.388 -1.398,4.3297c-0.932,0.9416 -2.343,1.4125 -4.233,1.4125c-1.9347,0 -3.4457,-0.4391 -4.5332,-1.3172c-1.0875,-0.8781 -1.6312,-2.1182 -1.6312,-3.7203c0,-1.4198 0.5372,-2.5224 1.6117,-3.3078c1.0745,-0.7855 2.5919,-1.1782 4.5527,-1.1782c1.375,0 2.61,0.3047 3.704,0.9141v-8.5359h-9.1919v-1.7125h9.1919v-4.9079h1.927v4.9079h5.159zM559.5565,404.12035c-0.9219,3.5406 -1.3828,7.3367 -1.3828,11.3883c0,4.0515 0.4609,7.8711 1.3828,11.4585l-1.7922,0.2469c-1.0104,-3.7781 -1.5156,-7.6797 -1.5156,-11.7047c0,-4.025 0.4995,-7.9375 1.4984,-11.7375zM572.914,420.46405c-1.228,-0.7073 -2.472,-1.0609 -3.732,-1.0609c-2.8078,0 -4.2114,0.9057 -4.2114,2.7172c0,1.1031 0.3609,1.933 1.0828,2.4898c0.7219,0.5568 1.7646,0.8352 3.1286,0.8352c1.305,0 2.253,-0.3133 2.845,-0.9399c0.591,-0.6265 0.887,-1.6752 0.887,-3.1461z" fill="#000000" stroke="none" stroke-width="1" stroke-linejoin="miter"/><path d="M585.997,411.39375h-1.597v-8.0016h14.08v8.0016h-6.064v1.1922h7.136v1.6844h-16.505v-1.6844h7.416v-1.1922zM586.297,408.12345v1.6422h10.286v-1.6422zM586.297,406.57965h10.286v-1.5593h-10.286zM586.505,421.54685h-1.597v-6.1968h13.008v6.1968h-5.5v4.211c0,0.9791 -0.156,1.6359 -0.467,1.9703c-0.31,0.3344 -0.932,0.5016 -1.863,0.5016c-0.507,0 -1.441,-0.0542 -2.803,-0.1625l-0.034,-1.7907c1.046,0.1604 1.888,0.2406 2.526,0.2406c0.382,0 0.596,-0.0265 0.644,-0.0796c0.048,-0.0532 0.072,-0.3454 0.072,-0.8766v-4.0141zM586.805,419.91875h9.242v-2.9406h-9.242zM598.669,408.55155c3.711,-1.3385 6.752,-3.1198 9.12,-5.3437l1.238,1.214c-2.388,2.35 -5.603,4.2417 -9.647,5.675zM598.641,417.13595c3.987,-1.5302 7.199,-3.6443 9.636,-6.3422l1.258,1.1656c-2.55,2.9042 -5.922,5.1412 -10.116,6.711zM582.764,426.44065c1.967,-1.3886 3.576,-3.0323 4.827,-4.9313l1.386,0.9516c-1.203,2.0427 -2.907,3.7589 -5.113,5.1484zM593.367,422.52345l1.305,-1.0141c1.438,1.5469 2.599,3.0511 3.485,4.5125c2.067,-0.7187 3.954,-1.6346 5.66,-2.7476c1.707,-1.113 3.363,-2.5565 4.969,-4.3305l1.255,1.1984c-1.614,1.8709 -3.323,3.4047 -5.129,4.6016c-1.806,1.1969 -3.984,2.2177 -6.535,3.0625l-0.536,-1.0156l-0.919,0.5641c-1.179,-1.8365 -2.364,-3.4469 -3.555,-4.8313z" fill="#000000" stroke="none" stroke-width="1" stroke-linejoin="miter"/><path d="M622.852,405.76095h4.956v-0.9094h-4.956zM628.146,418.19845c0.769,-0.599 1.437,-1.1562 2.003,-1.6719h-9.525c0.669,0.4 1.302,0.9573 1.898,1.6719zM618.002,424.73285v1.164h14.684v-1.164zM618.002,423.18905h14.684v-1.164h-14.684zM619.897,407.83285l1.377,0.8156c-0.625,1.3833 -1.684,2.643 -3.175,3.7789c-1.492,1.1359 -3.247,2.0419 -5.264,2.718l-0.763,-1.3406c2.436,-0.875 4.4,-1.9042 5.894,-3.0876l-6.106,0.7329l-0.211,-1.5969l1.665,-0.1594c0.833,-0.5375 1.65,-1.0776 2.452,-1.6203c-1.016,-0.6344 -2.266,-1.4276 -3.75,-2.3797l1.005,-1.3016c0.253,0.1667 0.516,0.3339 0.791,0.5016c0.274,0.1677 0.436,0.2641 0.484,0.2891c0.939,-0.7563 1.909,-1.6308 2.91,-2.6235l1.304,0.9875c-1.113,1.1677 -2.081,2.0292 -2.905,2.5844c0.078,-0.0156 0.555,0.2698 1.43,0.8563c0.764,-0.5802 1.735,-1.4453 2.912,-2.5954l1.299,0.9907c-1.754,1.7302 -3.511,3.0547 -5.274,3.9734l3.122,-0.2219c0.258,-0.3198 0.526,-0.7536 0.803,-1.3015zM627.808,408.24375v-0.939h-4.956v0.939zM626.647,409.38435c1.525,1.4011 2.874,2.8818 4.045,4.4422l-1.476,0.811c-0.623,-0.7146 -1.115,-1.2881 -1.477,-1.7203c-2.88,0.6375 -5.944,1.126 -9.193,1.4656l-0.213,-1.5688c0.354,-0.0344 1.228,-0.1448 2.622,-0.3312v-9.2032h8.694v6.5063h-6.797v2.3906c1.325,-0.2448 2.591,-0.4411 3.8,-0.589c-0.59,-0.4355 -1.041,-0.8412 -1.355,-1.2172zM632.242,414.75005h-1.896v-11.5828h8.326v1.3937c-0.955,1.3146 -1.989,2.4188 -3.101,3.3125c2.18,0.8344 3.27,2.0396 3.27,3.6156c0,0.9063 -0.328,1.5448 -0.985,1.9156c-0.656,0.3709 -1.771,0.5563 -3.346,0.5563h-1.494l-0.245,-1.6h1.54c1.11,0 1.826,-0.0732 2.149,-0.2195c0.323,-0.1464 0.484,-0.4107 0.484,-0.793c0,-0.45 -0.314,-0.9365 -0.941,-1.4594c-0.627,-0.5229 -1.629,-1.0432 -3.006,-1.5609c1.424,-1.3656 2.608,-2.5526 3.553,-3.561h-4.308zM612.496,419.82655v-1.6281h7.839c-0.535,-0.4083 -1.19,-0.9656 -1.968,-1.6719h-5.026v-1.6h10.998v-1.5797h2.01v1.5797h10.998v1.6h-5.106c-0.448,0.6542 -1.049,1.2115 -1.803,1.6719h7.754v1.6281zM618.002,428.31405h-2.01v-7.889h18.704v7.889h-2.01v-0.8172h-14.684z" fill="#000000" stroke="none" stroke-width="1" stroke-linejoin="miter"/><path d="M663.694,426.32035c-2.37,0.4083 -4.782,0.6125 -7.238,0.6125c-3.46,0 -5.992,-0.4084 -7.596,-1.225c-1.603,-0.8167 -2.405,-2.1349 -2.405,-3.9547c0,-3.0573 2.933,-5.3719 8.798,-6.9438c-0.244,-0.8833 -0.58,-1.5088 -1.007,-1.8765c-0.428,-0.3677 -0.979,-0.5516 -1.654,-0.5516c-1.193,0 -2.508,0.5487 -3.943,1.6461c-1.434,1.0974 -2.962,2.7576 -4.582,4.9805l-1.446,-0.9047c2.326,-3.3667 4.281,-6.7406 5.865,-10.1219h-5.837v-1.6562h6.415c0.596,-1.4709 1.061,-2.7073 1.396,-3.7094l1.784,0.5234c-0.648,1.825 -1.071,2.887 -1.269,3.186h12.492v1.6562h-13.106c-0.749,1.7115 -1.663,3.5271 -2.742,5.4469l-0.258,-0.2656c1.849,-1.6438 3.659,-2.4657 5.43,-2.4657c1.144,0 2.064,0.3128 2.76,0.9383c0.696,0.6255 1.197,1.5107 1.502,2.6555c1.735,-0.3792 3.995,-0.774 6.78,-1.1844l0.17,1.7453c-2.535,0.3448 -4.744,0.7391 -6.626,1.1828c0.263,1.324 0.395,3.3589 0.395,6.1047h-1.955c0,-2.5729 -0.095,-4.4812 -0.286,-5.725c-4.729,1.3625 -7.093,3.1047 -7.093,5.2266c0,0.551 0.092,1.0159 0.277,1.3945c0.185,0.3787 0.53,0.7422 1.036,1.0906c0.506,0.3485 1.317,0.618 2.434,0.8086c1.118,0.1907 2.541,0.286 4.271,0.286c2.235,0 4.59,-0.2214 7.066,-0.6641z" fill="#000000" stroke="none" stroke-width="1" stroke-linejoin="miter"/><path d="M682.7,410.10475c-0.542,-1.0907 -1.185,-2.3058 -1.928,-3.6454c-0.971,0.075 -2.431,0.1443 -4.381,0.2079c0.633,0.8937 1.273,2.0395 1.92,3.4375zM693.303,411.76095h-20.718v4.625h-1.982v-6.2812h5.808c-0.568,-1.0438 -1.203,-2.1745 -1.906,-3.3922h-2.473l-0.104,-1.7125c7.983,0 15.26,-0.6631 21.833,-1.9891l0.339,1.7484c-3.648,0.7375 -7.483,1.2552 -11.504,1.5532c0.786,1.2302 1.454,2.4942 2.004,3.7922h3.155c0.795,-1.449 1.539,-3.0428 2.233,-4.7813l1.744,0.525c-0.566,1.5562 -1.243,2.975 -2.03,4.2563h5.583v6.2812h-1.982zM675.594,417.20785l1.411,-1.0563c1.617,2.0959 3.586,3.8724 5.908,5.3297c2.729,-1.7333 4.848,-3.6479 6.358,-5.7437h-15.425v-1.6844h17.52v1.4687c-1.767,2.8521 -4.07,5.1922 -6.909,7.0204c3.208,1.7374 6.827,2.9005 10.857,3.489l-0.456,1.6625c-4.385,-0.6073 -8.357,-1.9797 -11.916,-4.1172c-3.41,2.1 -7.382,3.4724 -11.917,4.1172l-0.451,-1.6656c4.043,-0.5656 7.663,-1.7255 10.858,-3.4797c-2.29,-1.4135 -4.236,-3.1937 -5.838,-5.3406z" fill="#000000" stroke="none" stroke-width="1" stroke-linejoin="miter"/><path d="M707.58,409.17345h10.153v-5.5266h1.925v5.5266h4.85v1.7406h-4.85v4.3531c0,2.0792 -0.096,3.7553 -0.289,5.0282c-0.193,1.2729 -0.588,2.3802 -1.187,3.3219c-0.598,0.9416 -1.365,1.6604 -2.299,2.1562c-0.934,0.4958 -2.286,0.9573 -4.056,1.3844l-0.495,-1.6282c1.076,-0.3052 1.89,-0.5619 2.443,-0.7703c0.553,-0.2083 1.086,-0.4833 1.599,-0.825c0.512,-0.3416 0.898,-0.7234 1.158,-1.1453c0.26,-0.4218 0.492,-0.9901 0.696,-1.7047c0.205,-0.7145 0.34,-1.5278 0.406,-2.4398c0.066,-0.912 0.099,-2.0378 0.099,-3.3774v-4.3531h-10.153zM703.95,404.11875c-0.939,3.6177 -1.409,7.4146 -1.409,11.3906c0,3.9761 0.47,7.7964 1.409,11.461l-1.875,0.2437c-0.991,-3.726 -1.487,-7.6286 -1.487,-11.7078c0,-4.0792 0.489,-7.9906 1.469,-11.7344z" fill="#000000" stroke="none" stroke-width="1" stroke-linejoin="miter"/><path d="M752.897,409.22345c-2.128,-0.3208 -4.2,-0.4995 -6.216,-0.5359v10.6859c1.81,0.8865 3.925,2.2922 6.346,4.2172l-1.077,1.2547c-2.136,-1.5636 -3.892,-2.7948 -5.269,-3.6938v-0.1031c0,2.1552 -0.471,3.6841 -1.414,4.5867c-0.944,0.9026 -2.527,1.3539 -4.751,1.3539c-1.861,0 -3.325,-0.4245 -4.394,-1.2734c-1.069,-0.849 -1.603,-2.0287 -1.603,-3.5391c0,-1.3979 0.523,-2.495 1.568,-3.2914c1.045,-0.7963 2.522,-1.1945 4.429,-1.1945c1.459,0 2.873,0.2953 4.241,0.8859v-11.6593c3.132,0 5.917,0.2046 8.354,0.614zM728.316,408.65935v-1.7421h5.445c0.469,-1.4053 0.921,-2.9141 1.356,-4.5266l1.779,0.3844c-0.387,1.4781 -0.81,2.8588 -1.269,4.1422h5.64v1.7421h-6.121c-1.503,4.5084 -3.422,9.3115 -5.758,14.4094l-1.636,-0.6094c2.186,-4.9218 4.038,-9.5218 5.554,-13.8zM744.757,420.37345c-1.431,-0.6469 -2.844,-0.9703 -4.241,-0.9703c-2.714,0 -4.07,0.9245 -4.07,2.7734c0,1.0115 0.35,1.7857 1.051,2.3227c0.701,0.537 1.707,0.8055 3.019,0.8055c1.648,0 2.767,-0.2904 3.356,-0.8711c0.59,-0.5808 0.885,-1.7092 0.885,-3.3852z" fill="#000000" stroke="none" stroke-width="1" stroke-linejoin="miter"/><path d="M775.277,406.56095l1.692,-0.7016c1.353,2.4334 2.374,5.1784 3.062,8.2352c0.689,3.0568 1.033,6.3018 1.033,9.7351h-1.953c0,-3.2687 -0.336,-6.3828 -1.008,-9.3421c-0.672,-2.9594 -1.614,-5.6016 -2.826,-7.9266zM761.55,406.31725c-0.771,2.9593 -1.156,6.1119 -1.156,9.4578c0,2.5968 0.464,4.7544 1.391,6.4726c0.927,1.7182 1.811,2.5774 2.653,2.5774c0.561,0 1.349,-0.6157 2.363,-1.8469c1.014,-1.2313 1.983,-3.0932 2.907,-5.586l1.741,0.6891c-0.948,2.7448 -2.082,4.8685 -3.4,6.3711c-1.319,1.5026 -2.551,2.2539 -3.696,2.2539c-1.509,0 -2.876,-1.0745 -4.102,-3.2234c-1.225,-2.149 -1.838,-4.7183 -1.838,-7.7078c0,-3.4344 0.424,-6.7021 1.273,-9.8032z" fill="#000000" stroke="none" stroke-width="1" stroke-linejoin="miter"/><path d="M789.228,402.65935c4.114,3.4386 6.171,7.7302 6.171,12.875c0,5.1448 -2.064,9.4422 -6.193,12.8922h-1.937c4.098,-3.6073 6.147,-7.9047 6.147,-12.8922c0,-4.9875 -2.049,-9.2791 -6.147,-12.875z" fill="#000000" stroke="none" stroke-width="1" stroke-linejoin="miter"/></g></g></svg>