<?xml version="1.0" encoding="utf-8" standalone="no"?>
<!DOCTYPE svg PUBLIC "-//W3C//DTD SVG 1.1//EN"
"http://www.w3.org/Graphics/SVG/1.1/DTD/svg11.dtd">

<svg xmlns="http://www.w3.org/2000/svg" version="1.1" xmlns:xlink="http://www.w3.org/1999/xlink" width="38.1531" height="36.6891" viewBox="0 0 38.1531 36.6891"><path stroke="#1987e5" stroke-width="6" stroke-linejoin="round" fill="#1987e5" d="M 3 25.45 C 3 22.0073 4.30599 18.9188 6.91797 16.1844 C 9.52995 13.45 12.8255 11.6677 16.8047 10.8375 C 16.9026 10.4708 17.1714 9.40885 17.6109 7.65156 L 6.77188 7.725 L 6.77188 3 L 22.8844 3 L 22.8844 6.18594 C 22.7625 6.69948 22.5794 7.42604 22.3352 8.36562 C 22.0909 9.30521 21.9198 9.99479 21.8219 10.4344 C 25.826 10.5812 29.049 11.8021 31.4906 14.0969 C 33.9323 16.3917 35.1531 19.2297 35.1531 22.6109 C 35.1531 25.9922 34.2253 28.6839 32.3695 30.6859 C 30.5138 32.688 28.1333 33.6891 25.2281 33.6891 C 23.226 33.6891 21.6146 33.1948 20.3938 32.2062 C 19.1729 31.2177 18.5625 29.9115 18.5625 28.2875 C 18.5625 26.6635 19.112 25.3451 20.2109 24.332 C 21.3099 23.319 22.7565 22.8125 24.5508 22.8125 C 26.3451 22.8125 28.2552 23.4719 30.2813 24.7906 C 30.4771 24.0583 30.575 23.2891 30.575 22.4828 C 30.575 20.188 29.7143 18.3326 27.993 16.9164 C 26.2716 15.5003 23.9953 14.7922 21.1641 14.7922 L 20.65 14.7922 C 19.2833 19.5286 17.9896 23.2396 16.7688 25.925 C 14.6448 30.6125 12.0448 32.9562 8.96875 32.9562 C 7.18646 32.9562 5.74609 32.2667 4.64766 30.8875 C 3.54922 29.5083 3 27.6958 3 25.45 Z M 9.79219 19.8109 C 8.34011 21.5193 7.61406 23.3133 7.61406 25.193 C 7.61406 27.0727 8.11458 28.0125 9.11563 28.0125 C 10.8979 28.0125 12.9974 23.9719 15.4141 15.8906 C 13.1193 16.7948 11.2453 18.1016 9.79219 19.8109 Z M 23.0313 28.1234 C 23.0313 28.9286 23.6536 29.3312 24.8984 29.3312 C 26.1432 29.3312 27.2297 28.9651 28.1578 28.2328 C 27.0109 27.3047 25.9245 26.8406 24.8984 26.8406 C 24.337 26.8406 23.8854 26.9568 23.5438 27.1891 C 23.2021 27.4214 23.0313 27.7328 23.0313 28.1234 Z" /><path fill="#ffffff" d="M 3 25.45 C 3 22.0073 4.30599 18.9188 6.91797 16.1844 C 9.52995 13.45 12.8255 11.6677 16.8047 10.8375 C 16.9026 10.4708 17.1714 9.40885 17.6109 7.65156 L 6.77188 7.725 L 6.77188 3 L 22.8844 3 L 22.8844 6.18594 C 22.7625 6.69948 22.5794 7.42604 22.3352 8.36562 C 22.0909 9.30521 21.9198 9.99479 21.8219 10.4344 C 25.826 10.5812 29.049 11.8021 31.4906 14.0969 C 33.9323 16.3917 35.1531 19.2297 35.1531 22.6109 C 35.1531 25.9922 34.2253 28.6839 32.3695 30.6859 C 30.5138 32.688 28.1333 33.6891 25.2281 33.6891 C 23.226 33.6891 21.6146 33.1948 20.3938 32.2062 C 19.1729 31.2177 18.5625 29.9115 18.5625 28.2875 C 18.5625 26.6635 19.112 25.3451 20.2109 24.332 C 21.3099 23.319 22.7565 22.8125 24.5508 22.8125 C 26.3451 22.8125 28.2552 23.4719 30.2813 24.7906 C 30.4771 24.0583 30.575 23.2891 30.575 22.4828 C 30.575 20.188 29.7143 18.3326 27.993 16.9164 C 26.2716 15.5003 23.9953 14.7922 21.1641 14.7922 L 20.65 14.7922 C 19.2833 19.5286 17.9896 23.2396 16.7688 25.925 C 14.6448 30.6125 12.0448 32.9562 8.96875 32.9562 C 7.18646 32.9562 5.74609 32.2667 4.64766 30.8875 C 3.54922 29.5083 3 27.6958 3 25.45 Z M 9.79219 19.8109 C 8.34011 21.5193 7.61406 23.3133 7.61406 25.193 C 7.61406 27.0727 8.11458 28.0125 9.11563 28.0125 C 10.8979 28.0125 12.9974 23.9719 15.4141 15.8906 C 13.1193 16.7948 11.2453 18.1016 9.79219 19.8109 Z M 23.0313 28.1234 C 23.0313 28.9286 23.6536 29.3312 24.8984 29.3312 C 26.1432 29.3312 27.2297 28.9651 28.1578 28.2328 C 27.0109 27.3047 25.9245 26.8406 24.8984 26.8406 C 24.337 26.8406 23.8854 26.9568 23.5438 27.1891 C 23.2021 27.4214 23.0313 27.7328 23.0313 28.1234 Z" /></svg>