<?xml version="1.0" encoding="utf-8" standalone="no"?>
<!DOCTYPE svg PUBLIC "-//W3C//DTD SVG 1.1//EN"
"http://www.w3.org/Graphics/SVG/1.1/DTD/svg11.dtd">

<svg xmlns="http://www.w3.org/2000/svg" version="1.1" xmlns:xlink="http://www.w3.org/1999/xlink" width="41.925" height="37.1656" viewBox="0 0 41.925 37.1656"><path stroke="#1987e5" stroke-width="6" stroke-linejoin="round" fill="#1987e5" d="M 3 30.2469 C 4.09896 28.025 5.14896 25.437 6.15 22.4828 C 7.15104 19.5286 7.8099 17.026 8.12656 14.975 L 12.9969 16.3313 C 12.5094 18.7969 11.7589 21.5677 10.7453 24.6438 C 9.73177 27.7198 8.7125 30.2708 7.6875 32.2969 Z M 10.9094 7.61406 L 11.0938 3 C 14.1208 3.34167 17.4898 3.5125 21.2008 3.5125 C 24.9117 3.5125 27.8781 3.47604 30.1 3.40313 L 29.9891 7.6875 C 27.963 8.29792 26.1016 9.21953 24.4047 10.4523 C 22.7078 11.6852 21.8594 12.7536 21.8594 13.6578 C 21.8594 14.1453 22.1159 14.676 22.6289 15.25 C 23.1419 15.824 23.7583 16.4284 24.4781 17.0633 C 25.1979 17.6982 25.918 18.394 26.6383 19.1508 C 27.3586 19.9076 27.9753 20.8656 28.4883 22.025 C 29.0013 23.1844 29.2578 24.4354 29.2578 25.7781 C 29.2578 28.2927 28.4398 30.3193 26.8039 31.8578 C 25.168 33.3964 23.0193 34.1656 20.3578 34.1656 C 18.5755 34.1656 16.8971 33.787 15.3227 33.0297 C 13.7482 32.2724 12.4359 31.1984 11.3859 29.8078 L 13.3641 24.3141 C 14.1943 25.8766 15.2318 27.0971 16.4766 27.9758 C 17.7214 28.8544 18.9846 29.2938 20.2664 29.2938 C 21.5482 29.2938 22.5674 28.9703 23.3242 28.3234 C 24.081 27.6766 24.4594 26.8711 24.4594 25.907 C 24.4594 24.943 24.1971 24.0518 23.6727 23.2336 C 23.1482 22.4154 22.5013 21.6828 21.732 21.0359 C 20.9628 20.3891 20.1995 19.7359 19.4422 19.0766 C 17.6359 17.5141 16.7328 15.9031 16.7328 14.2438 C 16.7328 13.1688 17.1357 12.076 17.9414 10.9656 C 18.7471 9.85521 19.8214 8.8724 21.1641 8.01719 C 18.0391 8.01719 14.6208 7.88281 10.9094 7.61406 Z M 28.3781 16.2578 L 32.8469 14.3891 C 34.0667 16.3422 35.226 18.7044 36.325 21.4758 C 37.424 24.2471 38.2906 27.012 38.925 29.7703 L 34.1641 31.6375 C 33.6516 29.026 32.8703 26.3346 31.8203 23.5633 C 30.7703 20.7919 29.6229 18.3568 28.3781 16.2578 Z" /><path fill="#ffffff" d="M 3 30.2469 C 4.09896 28.025 5.14896 25.437 6.15 22.4828 C 7.15104 19.5286 7.8099 17.026 8.12656 14.975 L 12.9969 16.3313 C 12.5094 18.7969 11.7589 21.5677 10.7453 24.6438 C 9.73177 27.7198 8.7125 30.2708 7.6875 32.2969 Z M 10.9094 7.61406 L 11.0938 3 C 14.1208 3.34167 17.4898 3.5125 21.2008 3.5125 C 24.9117 3.5125 27.8781 3.47604 30.1 3.40313 L 29.9891 7.6875 C 27.963 8.29792 26.1016 9.21953 24.4047 10.4523 C 22.7078 11.6852 21.8594 12.7536 21.8594 13.6578 C 21.8594 14.1453 22.1159 14.676 22.6289 15.25 C 23.1419 15.824 23.7583 16.4284 24.4781 17.0633 C 25.1979 17.6982 25.918 18.394 26.6383 19.1508 C 27.3586 19.9076 27.9753 20.8656 28.4883 22.025 C 29.0013 23.1844 29.2578 24.4354 29.2578 25.7781 C 29.2578 28.2927 28.4398 30.3193 26.8039 31.8578 C 25.168 33.3964 23.0193 34.1656 20.3578 34.1656 C 18.5755 34.1656 16.8971 33.787 15.3227 33.0297 C 13.7482 32.2724 12.4359 31.1984 11.3859 29.8078 L 13.3641 24.3141 C 14.1943 25.8766 15.2318 27.0971 16.4766 27.9758 C 17.7214 28.8544 18.9846 29.2938 20.2664 29.2938 C 21.5482 29.2938 22.5674 28.9703 23.3242 28.3234 C 24.081 27.6766 24.4594 26.8711 24.4594 25.907 C 24.4594 24.943 24.1971 24.0518 23.6727 23.2336 C 23.1482 22.4154 22.5013 21.6828 21.732 21.0359 C 20.9628 20.3891 20.1995 19.7359 19.4422 19.0766 C 17.6359 17.5141 16.7328 15.9031 16.7328 14.2438 C 16.7328 13.1688 17.1357 12.076 17.9414 10.9656 C 18.7471 9.85521 19.8214 8.8724 21.1641 8.01719 C 18.0391 8.01719 14.6208 7.88281 10.9094 7.61406 Z M 28.3781 16.2578 L 32.8469 14.3891 C 34.0667 16.3422 35.226 18.7044 36.325 21.4758 C 37.424 24.2471 38.2906 27.012 38.925 29.7703 L 34.1641 31.6375 C 33.6516 29.026 32.8703 26.3346 31.8203 23.5633 C 30.7703 20.7919 29.6229 18.3568 28.3781 16.2578 Z" /></svg>