<?xml version="1.0" encoding="utf-8" standalone="no"?>
<!DOCTYPE svg PUBLIC "-//W3C//DTD SVG 1.1//EN"
"http://www.w3.org/Graphics/SVG/1.1/DTD/svg11.dtd">

<svg xmlns="http://www.w3.org/2000/svg" version="1.1" xmlns:xlink="http://www.w3.org/1999/xlink" width="37.0172" height="38.8125" viewBox="0 0 37.0172 38.8125"><path stroke="#1987e5" stroke-width="6" stroke-linejoin="round" fill="#1987e5" d="M 3 22.3359 L 3 17.6125 L 9.92031 17.6125 L 10.25 12.9984 L 3.73281 12.9984 L 3.73281 8.27344 L 10.6172 8.27344 C 10.837 5.41719 10.9833 3.65938 11.0563 3 L 16.1828 3 C 16.1828 3.025 16.0484 4.78281 15.7797 8.27344 L 25.1547 8.27344 L 25.1547 12.9984 L 15.3781 12.9984 L 15.0484 17.6125 L 24.6063 17.6125 L 24.6063 22.3359 L 14.6813 22.3359 C 14.5104 24.9974 14.425 26.5599 14.425 27.0234 C 14.425 28.4151 14.9255 29.4284 15.9266 30.0633 C 16.9276 30.6982 18.6979 31.0156 21.2375 31.0156 C 26.4375 31.0156 29.0375 29.099 29.0375 25.2656 C 29.0375 24.2406 28.8482 22.9956 28.4695 21.5305 C 28.0909 20.0654 27.6208 18.7349 27.0594 17.5391 L 32.1141 17.0625 C 32.6505 18.1375 33.1018 19.4867 33.468 21.1102 C 33.8341 22.7336 34.0172 24.2042 34.0172 25.5219 C 34.0172 28.8917 32.9188 31.4492 30.7219 33.1945 C 28.525 34.9398 25.4122 35.8125 21.3836 35.8125 C 17.3549 35.8125 14.3276 35.1411 12.3016 33.7984 C 10.2755 32.4557 9.2625 30.5271 9.2625 28.0125 C 9.2625 27.4271 9.3724 25.5349 9.59219 22.3359 Z" /><path fill="#ffffff" d="M 3 22.3359 L 3 17.6125 L 9.92031 17.6125 L 10.25 12.9984 L 3.73281 12.9984 L 3.73281 8.27344 L 10.6172 8.27344 C 10.837 5.41719 10.9833 3.65938 11.0563 3 L 16.1828 3 C 16.1828 3.025 16.0484 4.78281 15.7797 8.27344 L 25.1547 8.27344 L 25.1547 12.9984 L 15.3781 12.9984 L 15.0484 17.6125 L 24.6063 17.6125 L 24.6063 22.3359 L 14.6813 22.3359 C 14.5104 24.9974 14.425 26.5599 14.425 27.0234 C 14.425 28.4151 14.9255 29.4284 15.9266 30.0633 C 16.9276 30.6982 18.6979 31.0156 21.2375 31.0156 C 26.4375 31.0156 29.0375 29.099 29.0375 25.2656 C 29.0375 24.2406 28.8482 22.9956 28.4695 21.5305 C 28.0909 20.0654 27.6208 18.7349 27.0594 17.5391 L 32.1141 17.0625 C 32.6505 18.1375 33.1018 19.4867 33.468 21.1102 C 33.8341 22.7336 34.0172 24.2042 34.0172 25.5219 C 34.0172 28.8917 32.9188 31.4492 30.7219 33.1945 C 28.525 34.9398 25.4122 35.8125 21.3836 35.8125 C 17.3549 35.8125 14.3276 35.1411 12.3016 33.7984 C 10.2755 32.4557 9.2625 30.5271 9.2625 28.0125 C 9.2625 27.4271 9.3724 25.5349 9.59219 22.3359 Z" /></svg>