<?xml version="1.0" encoding="utf-8" standalone="no"?>
<!DOCTYPE svg PUBLIC "-//W3C//DTD SVG 1.1//EN"
"http://www.w3.org/Graphics/SVG/1.1/DTD/svg11.dtd">

<svg xmlns="http://www.w3.org/2000/svg" version="1.1" xmlns:xlink="http://www.w3.org/1999/xlink" width="32.3672" height="29.5844" viewBox="0 0 32.3672 29.5844"><path stroke="#1987e5" stroke-width="6" stroke-linejoin="round" fill="#1987e5" d="M 3 11.7531 C 3 9.82396 3.12188 6.90625 3.36562 3 L 8.31094 3.11094 C 7.94427 6.67552 7.76094 9.80651 7.76094 12.5039 C 7.76094 15.2013 7.98073 17.3557 8.42031 18.9672 C 8.8599 20.5786 9.48229 21.3844 10.2875 21.3844 C 11.5813 21.3844 12.6557 19.4802 13.5109 15.6719 L 16.7703 20.4328 C 16.3057 22.3609 15.4875 23.8682 14.3156 24.9547 C 13.1438 26.0411 11.7401 26.5844 10.1047 26.5844 C 7.68802 26.5844 5.89974 25.3698 4.73984 22.9406 C 3.57995 20.5115 3 16.7823 3 11.7531 Z M 18.7844 5.30781 L 23.2516 3.55 C 25.1557 5.69791 26.651 8.47474 27.7375 11.8805 C 28.824 15.2862 29.3672 18.8937 29.3672 22.7031 L 24.4594 23.6922 C 24.4594 19.9568 23.9406 16.4044 22.9031 13.0352 C 21.8656 9.66588 20.4927 7.0901 18.7844 5.30781 Z" /><path fill="#ffffff" d="M 3 11.7531 C 3 9.82396 3.12188 6.90625 3.36562 3 L 8.31094 3.11094 C 7.94427 6.67552 7.76094 9.80651 7.76094 12.5039 C 7.76094 15.2013 7.98073 17.3557 8.42031 18.9672 C 8.8599 20.5786 9.48229 21.3844 10.2875 21.3844 C 11.5813 21.3844 12.6557 19.4802 13.5109 15.6719 L 16.7703 20.4328 C 16.3057 22.3609 15.4875 23.8682 14.3156 24.9547 C 13.1438 26.0411 11.7401 26.5844 10.1047 26.5844 C 7.68802 26.5844 5.89974 25.3698 4.73984 22.9406 C 3.57995 20.5115 3 16.7823 3 11.7531 Z M 18.7844 5.30781 L 23.2516 3.55 C 25.1557 5.69791 26.651 8.47474 27.7375 11.8805 C 28.824 15.2862 29.3672 18.8937 29.3672 22.7031 L 24.4594 23.6922 C 24.4594 19.9568 23.9406 16.4044 22.9031 13.0352 C 21.8656 9.66588 20.4927 7.0901 18.7844 5.30781 Z" /></svg>