<?xml version="1.0" encoding="utf-8" standalone="no"?>
<!DOCTYPE svg PUBLIC "-//W3C//DTD SVG 1.1//EN"
"http://www.w3.org/Graphics/SVG/1.1/DTD/svg11.dtd">

<svg xmlns="http://www.w3.org/2000/svg" version="1.1" xmlns:xlink="http://www.w3.org/1999/xlink" width="35.7359" height="38.9578" viewBox="0 0 35.7359 38.9578"><path stroke="#1987e5" stroke-width="6" stroke-linejoin="round" fill="#1987e5" d="M 3 13.2172 L 3 8.45625 L 11.7891 8.45625 C 12.2776 6.57604 12.6807 4.75729 12.9984 3 L 18.1609 3.43906 C 17.7953 5.22135 17.4292 6.88125 17.0625 8.41875 C 21.6771 8.39479 26.5844 8.2974 31.7844 8.12656 L 31.7844 12.85 C 26.6083 13.0208 21.274 13.1188 15.7813 13.1438 C 15.0979 15.4385 14.4021 17.4161 13.6938 19.0766 C 15.9156 17.7339 18.6805 17.0625 21.9883 17.0625 C 25.2961 17.0625 27.9143 17.8802 29.843 19.5156 C 31.7716 21.151 32.7359 23.3969 32.7359 26.2531 C 32.7359 32.7229 27.5359 35.9578 17.1359 35.9578 C 15.4026 35.9578 13.2297 35.8115 10.6172 35.5187 L 8.96875 30.3188 C 11.85 30.8802 14.6458 31.1609 17.3563 31.1609 C 24.4354 31.1609 27.975 29.4151 27.975 25.9234 C 27.975 24.5078 27.4135 23.4094 26.2906 22.6281 C 25.1677 21.8469 23.4833 21.4563 21.2375 21.4563 C 18.9917 21.4563 16.9286 21.9813 15.0484 23.0313 C 13.1682 24.0813 11.374 25.4604 9.66563 27.1688 L 5.27031 24.7891 C 7.19948 21.688 8.92083 17.8182 10.4344 13.1797 Z" /><path fill="#ffffff" d="M 3 13.2172 L 3 8.45625 L 11.7891 8.45625 C 12.2776 6.57604 12.6807 4.75729 12.9984 3 L 18.1609 3.43906 C 17.7953 5.22135 17.4292 6.88125 17.0625 8.41875 C 21.6771 8.39479 26.5844 8.2974 31.7844 8.12656 L 31.7844 12.85 C 26.6083 13.0208 21.274 13.1188 15.7813 13.1438 C 15.0979 15.4385 14.4021 17.4161 13.6938 19.0766 C 15.9156 17.7339 18.6805 17.0625 21.9883 17.0625 C 25.2961 17.0625 27.9143 17.8802 29.843 19.5156 C 31.7716 21.151 32.7359 23.3969 32.7359 26.2531 C 32.7359 32.7229 27.5359 35.9578 17.1359 35.9578 C 15.4026 35.9578 13.2297 35.8115 10.6172 35.5187 L 8.96875 30.3188 C 11.85 30.8802 14.6458 31.1609 17.3563 31.1609 C 24.4354 31.1609 27.975 29.4151 27.975 25.9234 C 27.975 24.5078 27.4135 23.4094 26.2906 22.6281 C 25.1677 21.8469 23.4833 21.4563 21.2375 21.4563 C 18.9917 21.4563 16.9286 21.9813 15.0484 23.0313 C 13.1682 24.0813 11.374 25.4604 9.66563 27.1688 L 5.27031 24.7891 C 7.19948 21.688 8.92083 17.8182 10.4344 13.1797 Z" /></svg>