<?xml version="1.0" encoding="utf-8" standalone="no"?>
<!DOCTYPE svg PUBLIC "-//W3C//DTD SVG 1.1//EN"
"http://www.w3.org/Graphics/SVG/1.1/DTD/svg11.dtd">

<svg xmlns="http://www.w3.org/2000/svg" version="1.1" xmlns:xlink="http://www.w3.org/1999/xlink" width="40.0938" height="38.9594" viewBox="0 0 40.0938 38.9594"><path stroke="#1987e5" stroke-width="6" stroke-linejoin="round" fill="#1987e5" d="M 4.68437 28.5797 C 3.56146 27.3224 3 25.5646 3 23.3062 C 3 21.0479 3.73854 19.0703 5.21562 17.3734 C 6.69271 15.6766 8.50521 14.8281 10.6531 14.8281 C 10.9458 14.8281 11.1656 14.8401 11.3125 14.8641 L 11.3125 12.2281 L 3.84219 12.2281 L 3.84219 7.57656 L 11.3125 7.57656 L 11.3125 3 L 16.1828 3 L 16.1828 7.57656 L 22.775 7.57656 L 22.775 12.2281 L 16.1469 12.2281 L 16.1094 19.5156 C 16.2313 20.175 16.2922 20.7854 16.2922 21.3469 C 16.2922 23.1531 15.9385 24.801 15.2312 26.2906 C 15.0354 27.1698 14.9375 28.0122 14.9375 28.818 C 14.9375 29.6237 15.4258 30.2096 16.4023 30.5758 C 17.3789 30.9419 19.1979 31.125 21.8594 31.125 C 24.5208 31.125 26.4008 30.8258 27.4992 30.2273 C 28.5977 29.6289 29.1469 28.3898 29.1469 26.5102 C 29.1469 24.6305 28.6953 22.5063 27.7922 20.1375 L 33.0281 20.7234 C 33.7854 23.2391 34.1641 25.5708 34.1641 27.7188 C 34.1641 30.7458 33.1875 32.876 31.2344 34.1094 C 29.2813 35.3427 25.912 35.9594 21.1266 35.9594 C 13.7536 35.9594 10.0672 34.2135 10.0672 30.7219 C 10.0672 30.6969 10.0732 30.6479 10.0852 30.575 C 10.0971 30.5021 10.1031 30.4411 10.1031 30.3922 C 9.7125 30.4411 9.39531 30.4656 9.15156 30.4656 C 7.29635 30.4656 5.80729 29.837 4.68437 28.5797 Z M 7.1375 23.4344 C 7.1375 25.2167 7.82135 26.1078 9.18906 26.1078 C 10.0182 26.1078 10.7076 25.6867 11.257 24.8445 C 11.8065 24.0023 12.0813 22.9464 12.0813 21.6766 C 12.0813 19.9432 11.4708 19.0766 10.25 19.0766 C 9.39583 19.0766 8.66354 19.5036 8.05313 20.3578 C 7.44271 21.212 7.1375 22.2375 7.1375 23.4344 Z M 24.8625 9.775 L 27.8656 6.03906 C 29.4281 6.94219 31.0943 8.10182 32.8641 9.51797 C 34.6339 10.9341 36.0438 12.2526 37.0938 13.4734 L 33.8703 17.2078 C 32.8214 15.988 31.3995 14.6396 29.6047 13.1625 C 27.8099 11.6854 26.2292 10.5562 24.8625 9.775 Z" /><path fill="#ffffff" d="M 4.68437 28.5797 C 3.56146 27.3224 3 25.5646 3 23.3062 C 3 21.0479 3.73854 19.0703 5.21562 17.3734 C 6.69271 15.6766 8.50521 14.8281 10.6531 14.8281 C 10.9458 14.8281 11.1656 14.8401 11.3125 14.8641 L 11.3125 12.2281 L 3.84219 12.2281 L 3.84219 7.57656 L 11.3125 7.57656 L 11.3125 3 L 16.1828 3 L 16.1828 7.57656 L 22.775 7.57656 L 22.775 12.2281 L 16.1469 12.2281 L 16.1094 19.5156 C 16.2313 20.175 16.2922 20.7854 16.2922 21.3469 C 16.2922 23.1531 15.9385 24.801 15.2312 26.2906 C 15.0354 27.1698 14.9375 28.0122 14.9375 28.818 C 14.9375 29.6237 15.4258 30.2096 16.4023 30.5758 C 17.3789 30.9419 19.1979 31.125 21.8594 31.125 C 24.5208 31.125 26.4008 30.8258 27.4992 30.2273 C 28.5977 29.6289 29.1469 28.3898 29.1469 26.5102 C 29.1469 24.6305 28.6953 22.5063 27.7922 20.1375 L 33.0281 20.7234 C 33.7854 23.2391 34.1641 25.5708 34.1641 27.7188 C 34.1641 30.7458 33.1875 32.876 31.2344 34.1094 C 29.2813 35.3427 25.912 35.9594 21.1266 35.9594 C 13.7536 35.9594 10.0672 34.2135 10.0672 30.7219 C 10.0672 30.6969 10.0732 30.6479 10.0852 30.575 C 10.0971 30.5021 10.1031 30.4411 10.1031 30.3922 C 9.7125 30.4411 9.39531 30.4656 9.15156 30.4656 C 7.29635 30.4656 5.80729 29.837 4.68437 28.5797 Z M 7.1375 23.4344 C 7.1375 25.2167 7.82135 26.1078 9.18906 26.1078 C 10.0182 26.1078 10.7076 25.6867 11.257 24.8445 C 11.8065 24.0023 12.0813 22.9464 12.0813 21.6766 C 12.0813 19.9432 11.4708 19.0766 10.25 19.0766 C 9.39583 19.0766 8.66354 19.5036 8.05313 20.3578 C 7.44271 21.212 7.1375 22.2375 7.1375 23.4344 Z M 24.8625 9.775 L 27.8656 6.03906 C 29.4281 6.94219 31.0943 8.10182 32.8641 9.51797 C 34.6339 10.9341 36.0438 12.2526 37.0938 13.4734 L 33.8703 17.2078 C 32.8214 15.988 31.3995 14.6396 29.6047 13.1625 C 27.8099 11.6854 26.2292 10.5562 24.8625 9.775 Z" /></svg>