<?xml version="1.0" encoding="utf-8" standalone="no"?>
<!DOCTYPE svg PUBLIC "-//W3C//DTD SVG 1.1//EN"
"http://www.w3.org/Graphics/SVG/1.1/DTD/svg11.dtd">

<svg xmlns="http://www.w3.org/2000/svg" version="1.1" xmlns:xlink="http://www.w3.org/1999/xlink" width="40.4969" height="40.9" viewBox="0 0 40.4969 40.9"><path stroke="#1987e5" stroke-width="6" stroke-linejoin="round" fill="#1987e5" d="M 4.575 37.9 C 3.525 34.4333 3 30.0206 3 24.6617 C 3 19.3029 3.6349 13.1443 4.90469 6.18594 L 9.88437 6.40625 C 8.59062 12.2896 7.94375 17.9596 7.94375 23.4164 C 7.94375 28.8732 8.54219 33.5182 9.73906 37.3516 L 4.575 37.9 Z M 13.9312 35.9969 C 12.5031 34.849 11.7891 33.2922 11.7891 31.3266 C 11.7891 29.3609 12.5643 27.7799 14.1148 26.5836 C 15.6654 25.3872 17.7344 24.7891 20.3219 24.7891 C 21.4448 24.7891 22.5193 24.899 23.5453 25.1187 L 23.5453 21.0172 L 12.3391 21.0172 L 12.3391 16.4406 L 23.5453 16.4406 L 23.5453 12.0094 L 13.0344 12.0094 L 13.0344 7.39531 L 28.9641 7.39531 L 28.9641 7.28438 C 28.9641 6.1375 29.3914 5.13672 30.2461 4.28203 C 31.1008 3.42734 32.1018 3 33.2492 3 C 34.3966 3 35.3914 3.42734 36.2336 4.28203 C 37.0758 5.13672 37.4969 6.13776 37.4969 7.28516 C 37.4969 8.43255 37.0758 9.42734 36.2336 10.2695 C 35.3914 11.1117 34.3969 11.5328 33.25 11.5328 L 33.1391 11.5328 L 33.1391 12.0094 L 28.2688 12.0094 L 28.2688 16.4406 L 34.3484 16.4406 L 34.3484 21.0172 L 28.2688 21.0172 L 28.2688 26.9141 C 30.3687 28.0859 32.7125 29.8193 35.3 32.1141 L 32.3344 36.3984 C 30.7469 34.763 29.2453 33.4323 27.8297 32.4063 C 27.2922 34.0667 26.3094 35.3669 24.8813 36.307 C 23.4531 37.2471 21.6281 37.7172 19.4063 37.7172 C 17.1844 37.7172 15.3594 37.1437 13.9312 35.9969 Z M 16.4406 31.2344 C 16.4406 32.5781 17.5755 33.25 19.8453 33.25 C 21.0661 33.25 21.9453 33.0057 22.4828 32.5172 C 23.0203 32.0286 23.35 31.1495 23.4719 29.8797 C 22.0802 29.3182 20.8594 29.0375 19.8094 29.0375 C 18.7594 29.0375 17.9354 29.2391 17.3375 29.6422 C 16.7396 30.0453 16.4406 30.576 16.4406 31.2344 Z M 31.6563 5.69219 C 31.2042 6.14323 30.9781 6.67396 30.9781 7.28438 C 30.9781 7.89479 31.2042 8.41979 31.6563 8.85938 C 32.1083 9.29896 32.6396 9.51875 33.25 9.51875 C 33.8604 9.51875 34.3852 9.29896 34.8242 8.85938 C 35.2633 8.41979 35.4828 7.89479 35.4828 7.28438 C 35.4828 6.67396 35.2633 6.14297 34.8242 5.69141 C 34.3852 5.23984 33.8604 5.01406 33.25 5.01406 C 32.6396 5.01406 32.1083 5.2401 31.6563 5.69219 Z" /><path fill="#ffffff" d="M 4.575 37.9 C 3.525 34.4333 3 30.0206 3 24.6617 C 3 19.3029 3.6349 13.1443 4.90469 6.18594 L 9.88437 6.40625 C 8.59062 12.2896 7.94375 17.9596 7.94375 23.4164 C 7.94375 28.8732 8.54219 33.5182 9.73906 37.3516 L 4.575 37.9 Z M 13.9312 35.9969 C 12.5031 34.849 11.7891 33.2922 11.7891 31.3266 C 11.7891 29.3609 12.5643 27.7799 14.1148 26.5836 C 15.6654 25.3872 17.7344 24.7891 20.3219 24.7891 C 21.4448 24.7891 22.5193 24.899 23.5453 25.1187 L 23.5453 21.0172 L 12.3391 21.0172 L 12.3391 16.4406 L 23.5453 16.4406 L 23.5453 12.0094 L 13.0344 12.0094 L 13.0344 7.39531 L 28.9641 7.39531 L 28.9641 7.28438 C 28.9641 6.1375 29.3914 5.13672 30.2461 4.28203 C 31.1008 3.42734 32.1018 3 33.2492 3 C 34.3966 3 35.3914 3.42734 36.2336 4.28203 C 37.0758 5.13672 37.4969 6.13776 37.4969 7.28516 C 37.4969 8.43255 37.0758 9.42734 36.2336 10.2695 C 35.3914 11.1117 34.3969 11.5328 33.25 11.5328 L 33.1391 11.5328 L 33.1391 12.0094 L 28.2688 12.0094 L 28.2688 16.4406 L 34.3484 16.4406 L 34.3484 21.0172 L 28.2688 21.0172 L 28.2688 26.9141 C 30.3687 28.0859 32.7125 29.8193 35.3 32.1141 L 32.3344 36.3984 C 30.7469 34.763 29.2453 33.4323 27.8297 32.4063 C 27.2922 34.0667 26.3094 35.3669 24.8813 36.307 C 23.4531 37.2471 21.6281 37.7172 19.4063 37.7172 C 17.1844 37.7172 15.3594 37.1437 13.9312 35.9969 Z M 16.4406 31.2344 C 16.4406 32.5781 17.5755 33.25 19.8453 33.25 C 21.0661 33.25 21.9453 33.0057 22.4828 32.5172 C 23.0203 32.0286 23.35 31.1495 23.4719 29.8797 C 22.0802 29.3182 20.8594 29.0375 19.8094 29.0375 C 18.7594 29.0375 17.9354 29.2391 17.3375 29.6422 C 16.7396 30.0453 16.4406 30.576 16.4406 31.2344 Z M 31.6563 5.69219 C 31.2042 6.14323 30.9781 6.67396 30.9781 7.28438 C 30.9781 7.89479 31.2042 8.41979 31.6563 8.85938 C 32.1083 9.29896 32.6396 9.51875 33.25 9.51875 C 33.8604 9.51875 34.3852 9.29896 34.8242 8.85938 C 35.2633 8.41979 35.4828 7.89479 35.4828 7.28438 C 35.4828 6.67396 35.2633 6.14297 34.8242 5.69141 C 34.3852 5.23984 33.8604 5.01406 33.25 5.01406 C 32.6396 5.01406 32.1083 5.2401 31.6563 5.69219 Z" /></svg>