<?xml version="1.0" encoding="utf-8" standalone="no"?>
<!DOCTYPE svg PUBLIC "-//W3C//DTD SVG 1.1//EN"
"http://www.w3.org/Graphics/SVG/1.1/DTD/svg11.dtd">

<svg xmlns="http://www.w3.org/2000/svg" version="1.1" xmlns:xlink="http://www.w3.org/1999/xlink" width="39.6906" height="38.8484" viewBox="0 0 39.6906 38.8484"><path stroke="#1987e5" stroke-width="6" stroke-linejoin="round" fill="#1987e5" d="M 5.50781 33.6891 C 3.83594 32.2484 3 30.5208 3 28.5063 C 3 26.4917 3.81172 24.5932 5.43516 22.8109 C 7.05859 21.0286 9.20052 19.5885 11.8609 18.4906 L 11.8609 13.0344 L 4.46406 13.0344 L 4.46406 8.34688 L 11.8984 8.34688 L 11.8984 3 L 16.5859 3 L 16.5859 8.34688 L 23.8 8.34688 L 23.8 13.0344 L 16.5859 13.0344 L 16.5859 17.0625 C 18.0995 16.7687 19.6375 16.6219 21.2 16.6219 C 25.1302 16.6219 28.2367 17.5008 30.5195 19.2586 C 32.8023 21.0164 33.9437 23.3602 33.9437 26.2898 C 33.9437 29.2195 32.9549 31.5023 30.9773 33.1383 C 28.9997 34.7742 26.3021 35.5922 22.8844 35.5922 C 22.0302 35.5922 21.0292 35.5068 19.8813 35.3359 L 18.5641 30.2453 C 20.1745 30.538 21.6026 30.6844 22.8484 30.6844 C 26.9745 30.6844 29.0375 29.1708 29.0375 26.1438 C 29.0375 24.6063 28.3539 23.3919 26.9867 22.5008 C 25.6195 21.6096 23.6906 21.1641 21.2 21.1641 C 19.6375 21.1641 18.0995 21.3469 16.5859 21.7125 L 16.5859 29.55 C 16.5859 31.7719 16.1891 33.3771 15.3953 34.3656 C 14.6016 35.3542 13.326 35.8484 11.5688 35.8484 C 9.20104 35.8484 7.18073 35.1286 5.50781 33.6891 Z M 8.89531 25.7969 C 8.18698 26.6146 7.83281 27.4018 7.83281 28.1586 C 7.83281 28.9154 8.11979 29.5745 8.69375 30.1359 C 9.26771 30.6974 9.84141 30.9781 10.4148 30.9781 C 10.9883 30.9781 11.3667 30.8622 11.55 30.6305 C 11.7333 30.3987 11.825 29.9896 11.825 29.4031 L 11.825 23.5438 C 10.5802 24.2271 9.60365 24.9781 8.89531 25.7969 Z M 24.2766 9.92031 L 27.0594 6.075 C 28.6219 6.95417 30.3003 8.07135 32.0945 9.42656 C 33.8888 10.7818 35.4208 12.0818 36.6906 13.3266 L 33.9437 16.9516 C 32.7229 15.7557 31.1971 14.4924 29.3664 13.1617 C 27.5357 11.831 25.8391 10.7505 24.2766 9.92031 Z" /><path fill="#ffffff" d="M 5.50781 33.6891 C 3.83594 32.2484 3 30.5208 3 28.5063 C 3 26.4917 3.81172 24.5932 5.43516 22.8109 C 7.05859 21.0286 9.20052 19.5885 11.8609 18.4906 L 11.8609 13.0344 L 4.46406 13.0344 L 4.46406 8.34688 L 11.8984 8.34688 L 11.8984 3 L 16.5859 3 L 16.5859 8.34688 L 23.8 8.34688 L 23.8 13.0344 L 16.5859 13.0344 L 16.5859 17.0625 C 18.0995 16.7687 19.6375 16.6219 21.2 16.6219 C 25.1302 16.6219 28.2367 17.5008 30.5195 19.2586 C 32.8023 21.0164 33.9437 23.3602 33.9437 26.2898 C 33.9437 29.2195 32.9549 31.5023 30.9773 33.1383 C 28.9997 34.7742 26.3021 35.5922 22.8844 35.5922 C 22.0302 35.5922 21.0292 35.5068 19.8813 35.3359 L 18.5641 30.2453 C 20.1745 30.538 21.6026 30.6844 22.8484 30.6844 C 26.9745 30.6844 29.0375 29.1708 29.0375 26.1438 C 29.0375 24.6063 28.3539 23.3919 26.9867 22.5008 C 25.6195 21.6096 23.6906 21.1641 21.2 21.1641 C 19.6375 21.1641 18.0995 21.3469 16.5859 21.7125 L 16.5859 29.55 C 16.5859 31.7719 16.1891 33.3771 15.3953 34.3656 C 14.6016 35.3542 13.326 35.8484 11.5688 35.8484 C 9.20104 35.8484 7.18073 35.1286 5.50781 33.6891 Z M 8.89531 25.7969 C 8.18698 26.6146 7.83281 27.4018 7.83281 28.1586 C 7.83281 28.9154 8.11979 29.5745 8.69375 30.1359 C 9.26771 30.6974 9.84141 30.9781 10.4148 30.9781 C 10.9883 30.9781 11.3667 30.8622 11.55 30.6305 C 11.7333 30.3987 11.825 29.9896 11.825 29.4031 L 11.825 23.5438 C 10.5802 24.2271 9.60365 24.9781 8.89531 25.7969 Z M 24.2766 9.92031 L 27.0594 6.075 C 28.6219 6.95417 30.3003 8.07135 32.0945 9.42656 C 33.8888 10.7818 35.4208 12.0818 36.6906 13.3266 L 33.9437 16.9516 C 32.7229 15.7557 31.1971 14.4924 29.3664 13.1617 C 27.5357 11.831 25.8391 10.7505 24.2766 9.92031 Z" /></svg>