<?xml version="1.0" encoding="utf-8" standalone="no"?>
<!DOCTYPE svg PUBLIC "-//W3C//DTD SVG 1.1//EN"
"http://www.w3.org/Graphics/SVG/1.1/DTD/svg11.dtd">

<svg xmlns="http://www.w3.org/2000/svg" version="1.1" xmlns:xlink="http://www.w3.org/1999/xlink" width="34.4922" height="39.0328" viewBox="0 0 34.4922 39.0328"><path stroke="#1987e5" stroke-width="6" stroke-linejoin="round" fill="#1987e5" d="M 3 15.0844 C 5.19792 14.3281 8.04245 13.6385 11.5336 13.0156 C 15.0247 12.3927 17.7953 12.0813 19.8453 12.0813 C 23.5078 12.0813 26.3646 12.9479 28.4156 14.6813 C 30.4667 16.4146 31.4922 18.8198 31.4922 21.8969 C 31.4922 25.851 29.7099 29.0794 26.1453 31.582 C 22.5807 34.0846 17.6854 35.5682 11.4594 36.0328 L 9.00625 31.0516 C 14.2063 30.9297 18.4055 30.0203 21.6039 28.3234 C 24.8023 26.6266 26.4016 24.4474 26.4016 21.7859 C 26.4016 18.5641 24.2531 16.9531 19.9563 16.9531 C 17.8563 16.9531 15.3536 17.2581 12.4484 17.868 C 9.54323 18.4779 6.91875 19.2224 4.575 20.1016 Z M 8.45625 7.83438 L 8.89688 3 C 13.2906 3.87917 18.1365 4.31875 23.4344 4.31875 C 25.0948 4.31875 26.3521 4.29427 27.2063 4.24531 L 26.8406 9.11563 C 26.2552 9.13958 25.3766 9.15156 24.2047 9.15156 C 18.3203 9.15156 13.0708 8.7125 8.45625 7.83438 Z" /><path fill="#ffffff" d="M 3 15.0844 C 5.19792 14.3281 8.04245 13.6385 11.5336 13.0156 C 15.0247 12.3927 17.7953 12.0813 19.8453 12.0813 C 23.5078 12.0813 26.3646 12.9479 28.4156 14.6813 C 30.4667 16.4146 31.4922 18.8198 31.4922 21.8969 C 31.4922 25.851 29.7099 29.0794 26.1453 31.582 C 22.5807 34.0846 17.6854 35.5682 11.4594 36.0328 L 9.00625 31.0516 C 14.2063 30.9297 18.4055 30.0203 21.6039 28.3234 C 24.8023 26.6266 26.4016 24.4474 26.4016 21.7859 C 26.4016 18.5641 24.2531 16.9531 19.9563 16.9531 C 17.8563 16.9531 15.3536 17.2581 12.4484 17.868 C 9.54323 18.4779 6.91875 19.2224 4.575 20.1016 Z M 8.45625 7.83438 L 8.89688 3 C 13.2906 3.87917 18.1365 4.31875 23.4344 4.31875 C 25.0948 4.31875 26.3521 4.29427 27.2063 4.24531 L 26.8406 9.11563 C 26.2552 9.13958 25.3766 9.15156 24.2047 9.15156 C 18.3203 9.15156 13.0708 8.7125 8.45625 7.83438 Z" /></svg>