<?xml version="1.0" encoding="utf-8" standalone="no"?>
<!DOCTYPE svg PUBLIC "-//W3C//DTD SVG 1.1//EN"
"http://www.w3.org/Graphics/SVG/1.1/DTD/svg11.dtd">

<svg xmlns="http://www.w3.org/2000/svg" version="1.1" xmlns:xlink="http://www.w3.org/1999/xlink" width="38.1531" height="38.0063" viewBox="0 0 38.1531 38.0063"><path stroke="#1987e5" stroke-width="6" stroke-linejoin="round" fill="#1987e5" d="M 4.57344 35.0063 C 3.52448 31.5396 3 27.0964 3 21.6766 C 3 16.2568 3.6224 10.1286 4.86719 3.29219 L 9.88438 3.5125 C 8.59062 9.39583 7.94375 15.0596 7.94375 20.5039 C 7.94375 25.9482 8.54167 30.587 9.7375 34.4203 L 4.57344 35.0063 Z M 13.8391 33.1016 C 12.3984 31.9297 11.6781 30.3734 11.6781 28.4328 C 11.6781 26.4922 12.4534 24.9174 14.0039 23.7086 C 15.5544 22.4997 17.6115 21.8953 20.175 21.8953 C 21.2 21.8953 22.2865 22.0177 23.4344 22.2625 L 23.4344 14.3156 L 12.2281 14.3156 L 12.2281 9.59062 L 23.4344 9.59062 L 23.4344 3 L 28.2672 3 L 28.2672 9.59062 L 34.2734 9.59062 L 34.2734 14.3156 L 28.2672 14.3156 L 28.2672 24.1656 C 29.5859 24.899 31.0143 25.8943 32.5523 27.1516 C 34.0904 28.4089 34.9573 29.1229 35.1531 29.2938 L 32.2594 33.5047 C 30.8677 32.0891 29.3786 30.7953 27.7922 29.6234 C 27.2057 31.2589 26.1924 32.5404 24.7523 33.468 C 23.3122 34.3956 21.4935 34.8594 19.2961 34.8594 C 17.0987 34.8594 15.2797 34.2734 13.8391 33.1016 Z M 16.3656 28.3047 C 16.3656 29.6714 17.501 30.3547 19.7719 30.3547 C 20.9677 30.3547 21.8344 30.1167 22.3719 29.6406 C 22.9094 29.1646 23.2391 28.2922 23.3609 27.0234 C 21.9693 26.437 20.7484 26.1438 19.6984 26.1438 C 18.6484 26.1438 17.8305 26.3331 17.2445 26.7117 C 16.6586 27.0904 16.3656 27.6214 16.3656 28.3047 Z" /><path fill="#ffffff" d="M 4.57344 35.0063 C 3.52448 31.5396 3 27.0964 3 21.6766 C 3 16.2568 3.6224 10.1286 4.86719 3.29219 L 9.88438 3.5125 C 8.59062 9.39583 7.94375 15.0596 7.94375 20.5039 C 7.94375 25.9482 8.54167 30.587 9.7375 34.4203 L 4.57344 35.0063 Z M 13.8391 33.1016 C 12.3984 31.9297 11.6781 30.3734 11.6781 28.4328 C 11.6781 26.4922 12.4534 24.9174 14.0039 23.7086 C 15.5544 22.4997 17.6115 21.8953 20.175 21.8953 C 21.2 21.8953 22.2865 22.0177 23.4344 22.2625 L 23.4344 14.3156 L 12.2281 14.3156 L 12.2281 9.59062 L 23.4344 9.59062 L 23.4344 3 L 28.2672 3 L 28.2672 9.59062 L 34.2734 9.59062 L 34.2734 14.3156 L 28.2672 14.3156 L 28.2672 24.1656 C 29.5859 24.899 31.0143 25.8943 32.5523 27.1516 C 34.0904 28.4089 34.9573 29.1229 35.1531 29.2938 L 32.2594 33.5047 C 30.8677 32.0891 29.3786 30.7953 27.7922 29.6234 C 27.2057 31.2589 26.1924 32.5404 24.7523 33.468 C 23.3122 34.3956 21.4935 34.8594 19.2961 34.8594 C 17.0987 34.8594 15.2797 34.2734 13.8391 33.1016 Z M 16.3656 28.3047 C 16.3656 29.6714 17.501 30.3547 19.7719 30.3547 C 20.9677 30.3547 21.8344 30.1167 22.3719 29.6406 C 22.9094 29.1646 23.2391 28.2922 23.3609 27.0234 C 21.9693 26.437 20.7484 26.1438 19.6984 26.1438 C 18.6484 26.1438 17.8305 26.3331 17.2445 26.7117 C 16.6586 27.0904 16.3656 27.6214 16.3656 28.3047 Z" /></svg>