<?xml version="1.0" encoding="utf-8" standalone="no"?>
<!DOCTYPE svg PUBLIC "-//W3C//DTD SVG 1.1//EN"
"http://www.w3.org/Graphics/SVG/1.1/DTD/svg11.dtd">

<svg xmlns="http://www.w3.org/2000/svg" version="1.1" xmlns:xlink="http://www.w3.org/1999/xlink" width="25.3359" height="34.4906" viewBox="0 0 25.3359 34.4906"><path stroke="#1987e5" stroke-width="6" stroke-linejoin="round" fill="#1987e5" d="M 4.17188 30.5391 C 3.39063 29.9047 3 29.032 3 27.9211 C 3 26.8102 3.49427 25.8456 4.48281 25.0273 C 5.47135 24.2091 6.7349 23.8 8.27344 23.8 C 9.00573 23.8 9.71354 23.9344 10.3969 24.2031 L 10.4344 24.1297 L 10.4344 3 L 12.7406 3 C 12.8385 3.31771 13.2354 3.79375 13.9313 4.42813 C 14.6271 5.0625 15.4328 5.77031 16.3484 6.55156 C 17.2641 7.33281 18.1797 8.18125 19.0953 9.09688 C 20.0109 10.0125 20.7799 11.0625 21.4023 12.2469 C 22.0247 13.4313 22.3359 14.5969 22.3359 15.7438 C 22.3359 18.3802 20.6755 20.7365 17.3547 22.8125 L 16.3297 21.3844 C 17.7464 20.3583 18.7047 19.4669 19.2047 18.7102 C 19.7047 17.9534 19.9547 17.044 19.9547 15.982 C 19.9547 14.9201 19.326 13.7482 18.0688 12.4664 C 16.8115 11.1846 15.0354 10.0557 12.7406 9.07969 L 12.7406 25.8875 C 12.7406 27.6458 12.2401 29.0193 11.2391 30.0078 C 10.238 30.9964 8.87083 31.4906 7.1375 31.4906 C 5.94167 31.4906 4.95313 31.1734 4.17188 30.5391 Z" /><path fill="#ffffff" d="M 4.17188 30.5391 C 3.39063 29.9047 3 29.032 3 27.9211 C 3 26.8102 3.49427 25.8456 4.48281 25.0273 C 5.47135 24.2091 6.7349 23.8 8.27344 23.8 C 9.00573 23.8 9.71354 23.9344 10.3969 24.2031 L 10.4344 24.1297 L 10.4344 3 L 12.7406 3 C 12.8385 3.31771 13.2354 3.79375 13.9313 4.42813 C 14.6271 5.0625 15.4328 5.77031 16.3484 6.55156 C 17.2641 7.33281 18.1797 8.18125 19.0953 9.09688 C 20.0109 10.0125 20.7799 11.0625 21.4023 12.2469 C 22.0247 13.4313 22.3359 14.5969 22.3359 15.7438 C 22.3359 18.3802 20.6755 20.7365 17.3547 22.8125 L 16.3297 21.3844 C 17.7464 20.3583 18.7047 19.4669 19.2047 18.7102 C 19.7047 17.9534 19.9547 17.044 19.9547 15.982 C 19.9547 14.9201 19.326 13.7482 18.0688 12.4664 C 16.8115 11.1846 15.0354 10.0557 12.7406 9.07969 L 12.7406 25.8875 C 12.7406 27.6458 12.2401 29.0193 11.2391 30.0078 C 10.238 30.9964 8.87083 31.4906 7.1375 31.4906 C 5.94167 31.4906 4.95313 31.1734 4.17188 30.5391 Z" /></svg>