<?xml version="1.0" encoding="utf-8" standalone="no"?>
<!DOCTYPE svg PUBLIC "-//W3C//DTD SVG 1.1//EN"
"http://www.w3.org/Graphics/SVG/1.1/DTD/svg11.dtd">

<svg xmlns="http://www.w3.org/2000/svg" version="1.1" xmlns:xlink="http://www.w3.org/1999/xlink" width="41.5219" height="38.9594" viewBox="0 0 41.5219 38.9594"><path stroke="#1987e5" stroke-width="6" stroke-linejoin="round" fill="#1987e5" d="M 3 28.3062 C 6.02708 24.7417 8.74896 20.9453 11.1656 16.9172 L 11.2031 14.8297 L 4.09844 14.8297 L 4.09844 10.0687 L 11.3125 10.0687 L 11.5687 3 L 16.4766 3 C 16.2807 6.17396 16.1339 9.45781 16.0359 12.8516 C 19.9182 9.1651 23.7146 7.32187 27.425 7.32187 C 30.2573 7.32187 32.4242 8.45104 33.9258 10.7094 C 35.4273 12.9677 36.1781 16.2089 36.1781 20.4328 C 36.1781 23.313 35.8609 25.7542 35.2266 27.7563 C 36.2755 28.7083 37.374 29.7948 38.5219 31.0156 L 35.2984 35.1172 C 34.6401 34.238 33.8349 33.2859 32.8828 32.2609 C 31.1495 34.3359 28.8422 35.3734 25.9609 35.3734 C 23.788 35.3734 22.024 34.8057 20.6688 33.6703 C 19.3135 32.5349 18.6359 31.0883 18.6359 29.3305 C 18.6359 27.5727 19.2768 26.1508 20.5586 25.0648 C 21.8404 23.9789 23.4763 23.4359 25.4664 23.4359 C 27.4565 23.4359 29.3427 23.912 31.125 24.8641 C 31.3927 23.4474 31.5266 21.6648 31.5266 19.5164 C 31.5266 17.368 31.1299 15.5797 30.3367 14.1516 C 29.5435 12.7234 28.4266 12.0094 26.9859 12.0094 C 25.5453 12.0094 23.812 12.7234 21.7859 14.1516 C 19.7599 15.5797 17.7948 17.4656 15.8906 19.8094 C 15.8167 23.0812 15.7797 26.4385 15.7797 29.8813 L 15.8172 35.9594 L 10.9828 35.9594 C 10.9828 33.5427 11.0073 30.088 11.0562 25.5953 L 5.85625 32.9203 Z M 23.8172 27.9953 C 23.3661 28.2995 23.1406 28.7203 23.1406 29.2578 C 23.1406 29.7953 23.3786 30.2227 23.8547 30.5398 C 24.3307 30.857 24.9964 31.0156 25.8516 31.0156 C 27.4141 31.0156 28.6469 30.3807 29.55 29.1109 C 28.1583 28.062 26.8401 27.5375 25.5953 27.5375 C 24.862 27.5375 24.2693 27.6901 23.8172 27.9953 Z" /><path fill="#ffffff" d="M 3 28.3062 C 6.02708 24.7417 8.74896 20.9453 11.1656 16.9172 L 11.2031 14.8297 L 4.09844 14.8297 L 4.09844 10.0687 L 11.3125 10.0687 L 11.5687 3 L 16.4766 3 C 16.2807 6.17396 16.1339 9.45781 16.0359 12.8516 C 19.9182 9.1651 23.7146 7.32187 27.425 7.32187 C 30.2573 7.32187 32.4242 8.45104 33.9258 10.7094 C 35.4273 12.9677 36.1781 16.2089 36.1781 20.4328 C 36.1781 23.313 35.8609 25.7542 35.2266 27.7563 C 36.2755 28.7083 37.374 29.7948 38.5219 31.0156 L 35.2984 35.1172 C 34.6401 34.238 33.8349 33.2859 32.8828 32.2609 C 31.1495 34.3359 28.8422 35.3734 25.9609 35.3734 C 23.788 35.3734 22.024 34.8057 20.6688 33.6703 C 19.3135 32.5349 18.6359 31.0883 18.6359 29.3305 C 18.6359 27.5727 19.2768 26.1508 20.5586 25.0648 C 21.8404 23.9789 23.4763 23.4359 25.4664 23.4359 C 27.4565 23.4359 29.3427 23.912 31.125 24.8641 C 31.3927 23.4474 31.5266 21.6648 31.5266 19.5164 C 31.5266 17.368 31.1299 15.5797 30.3367 14.1516 C 29.5435 12.7234 28.4266 12.0094 26.9859 12.0094 C 25.5453 12.0094 23.812 12.7234 21.7859 14.1516 C 19.7599 15.5797 17.7948 17.4656 15.8906 19.8094 C 15.8167 23.0812 15.7797 26.4385 15.7797 29.8813 L 15.8172 35.9594 L 10.9828 35.9594 C 10.9828 33.5427 11.0073 30.088 11.0562 25.5953 L 5.85625 32.9203 Z M 23.8172 27.9953 C 23.3661 28.2995 23.1406 28.7203 23.1406 29.2578 C 23.1406 29.7953 23.3786 30.2227 23.8547 30.5398 C 24.3307 30.857 24.9964 31.0156 25.8516 31.0156 C 27.4141 31.0156 28.6469 30.3807 29.55 29.1109 C 28.1583 28.062 26.8401 27.5375 25.5953 27.5375 C 24.862 27.5375 24.2693 27.6901 23.8172 27.9953 Z" /></svg>