<?xml version="1.0" encoding="utf-8" standalone="no"?>
<!DOCTYPE svg PUBLIC "-//W3C//DTD SVG 1.1//EN"
"http://www.w3.org/Graphics/SVG/1.1/DTD/svg11.dtd">

<svg xmlns="http://www.w3.org/2000/svg" version="1.1" xmlns:xlink="http://www.w3.org/1999/xlink" width="39.8016" height="37.4219" viewBox="0 0 39.8016 37.4219"><path stroke="#1987e5" stroke-width="6" stroke-linejoin="round" fill="#1987e5" d="M 3 24.8266 C 3 22.0682 4.07422 19.7857 6.22266 17.9789 C 8.37109 16.1721 11.2521 15.0979 14.8656 14.7563 L 16.8422 7.6875 L 6.73594 7.6875 L 6.73594 3 L 22.2625 3 L 22.2625 6.47969 C 21.4323 9.82448 20.7 12.6078 20.0656 14.8297 C 22.4333 15.0734 24.899 15.6714 27.4625 16.6234 C 27.5365 15.5984 27.5734 14.4878 27.5734 13.2914 C 27.5734 12.0951 27.5365 10.7766 27.4625 9.33594 L 32.5172 9.33594 C 32.6141 11.1911 32.6625 12.7841 32.6625 14.1148 C 32.6625 15.4456 32.5651 16.9901 32.3703 18.7484 C 33.8599 19.4807 35.337 20.262 36.8016 21.0922 L 35.4828 26.3656 C 33.7984 25.2177 32.4438 24.351 31.4188 23.7656 C 30.6125 26.3531 29.3854 28.4953 27.7375 30.1922 C 26.0896 31.8891 23.874 33.299 21.0906 34.4219 L 17.8687 29.9531 C 20.3833 29.3917 22.3547 28.4518 23.7828 27.1336 C 25.2109 25.8154 26.2177 23.9234 26.8031 21.4578 C 24.0688 20.2859 21.3833 19.5656 18.7469 19.2969 C 17.8198 22.2271 17.124 24.2901 16.6594 25.4859 C 15.7073 27.9516 14.7003 29.7154 13.6383 30.7773 C 12.5763 31.8393 11.2766 32.3703 9.73906 32.3703 C 7.78594 32.3703 6.17448 31.6563 4.90469 30.2281 C 3.6349 28.8 3 26.9995 3 24.8266 Z M 7.61406 24.9 C 7.61406 25.5833 7.79115 26.1693 8.14531 26.6578 C 8.49948 27.1464 8.92083 27.3906 9.40938 27.3906 C 10.1167 27.3906 10.7938 26.6948 11.4406 25.3031 C 12.0875 23.9115 12.7896 21.9583 13.5469 19.4438 C 11.6917 19.7854 10.2391 20.4385 9.18906 21.4031 C 8.13906 22.3677 7.61406 23.5333 7.61406 24.9 Z" /><path fill="#ffffff" d="M 3 24.8266 C 3 22.0682 4.07422 19.7857 6.22266 17.9789 C 8.37109 16.1721 11.2521 15.0979 14.8656 14.7563 L 16.8422 7.6875 L 6.73594 7.6875 L 6.73594 3 L 22.2625 3 L 22.2625 6.47969 C 21.4323 9.82448 20.7 12.6078 20.0656 14.8297 C 22.4333 15.0734 24.899 15.6714 27.4625 16.6234 C 27.5365 15.5984 27.5734 14.4878 27.5734 13.2914 C 27.5734 12.0951 27.5365 10.7766 27.4625 9.33594 L 32.5172 9.33594 C 32.6141 11.1911 32.6625 12.7841 32.6625 14.1148 C 32.6625 15.4456 32.5651 16.9901 32.3703 18.7484 C 33.8599 19.4807 35.337 20.262 36.8016 21.0922 L 35.4828 26.3656 C 33.7984 25.2177 32.4438 24.351 31.4188 23.7656 C 30.6125 26.3531 29.3854 28.4953 27.7375 30.1922 C 26.0896 31.8891 23.874 33.299 21.0906 34.4219 L 17.8687 29.9531 C 20.3833 29.3917 22.3547 28.4518 23.7828 27.1336 C 25.2109 25.8154 26.2177 23.9234 26.8031 21.4578 C 24.0688 20.2859 21.3833 19.5656 18.7469 19.2969 C 17.8198 22.2271 17.124 24.2901 16.6594 25.4859 C 15.7073 27.9516 14.7003 29.7154 13.6383 30.7773 C 12.5763 31.8393 11.2766 32.3703 9.73906 32.3703 C 7.78594 32.3703 6.17448 31.6563 4.90469 30.2281 C 3.6349 28.8 3 26.9995 3 24.8266 Z M 7.61406 24.9 C 7.61406 25.5833 7.79115 26.1693 8.14531 26.6578 C 8.49948 27.1464 8.92083 27.3906 9.40938 27.3906 C 10.1167 27.3906 10.7938 26.6948 11.4406 25.3031 C 12.0875 23.9115 12.7896 21.9583 13.5469 19.4438 C 11.6917 19.7854 10.2391 20.4385 9.18906 21.4031 C 8.13906 22.3677 7.61406 23.5333 7.61406 24.9 Z" /></svg>