<?xml version="1.0" encoding="utf-8" standalone="no"?>
<!DOCTYPE svg PUBLIC "-//W3C//DTD SVG 1.1//EN"
"http://www.w3.org/Graphics/SVG/1.1/DTD/svg11.dtd">

<svg xmlns="http://www.w3.org/2000/svg" version="1.1" xmlns:xlink="http://www.w3.org/1999/xlink" width="39.325" height="36.7984" viewBox="0 0 39.325 36.7984"><path stroke="#1987e5" stroke-width="6" stroke-linejoin="round" fill="#1987e5" d="M 3 20.1375 C 3 15.0594 4.61745 10.9336 7.85234 7.76016 C 11.0872 4.58672 15.1948 3 20.175 3 C 25.1552 3 29.0919 4.40365 31.9852 7.21094 C 34.8784 10.0182 36.325 13.7656 36.325 18.4531 C 36.325 22.6771 35.0495 26.1503 32.4984 28.8727 C 29.9474 31.5951 26.438 33.237 21.9703 33.7984 L 19.6625 28.8906 C 23.2271 28.8417 26.0591 27.8589 28.1586 25.9422 C 30.2581 24.0255 31.3078 21.5109 31.3078 18.3984 C 31.3078 15.2859 30.5328 12.8018 28.9828 10.9461 C 27.4328 9.09036 25.2906 7.96719 22.5563 7.57656 C 21.8969 14.9255 20.5602 20.7974 18.5461 25.1922 C 16.532 29.587 14.0354 31.7844 11.0563 31.7844 C 8.7125 31.7844 6.78385 30.6979 5.27031 28.525 C 3.75677 26.3521 3 23.5562 3 20.1375 Z M 7.76094 20.0281 C 7.76094 21.8594 8.09037 23.3914 8.74922 24.6242 C 9.40807 25.857 10.2016 26.4734 11.1297 26.4734 C 12.1307 26.4734 13.0953 25.4359 14.0234 23.3609 C 15.7568 19.4786 16.9286 14.2542 17.5391 7.6875 C 14.5599 8.24896 12.1854 9.64036 10.4156 11.8617 C 8.64583 14.0831 7.76094 16.8052 7.76094 20.0281 Z" /><path fill="#ffffff" d="M 3 20.1375 C 3 15.0594 4.61745 10.9336 7.85234 7.76016 C 11.0872 4.58672 15.1948 3 20.175 3 C 25.1552 3 29.0919 4.40365 31.9852 7.21094 C 34.8784 10.0182 36.325 13.7656 36.325 18.4531 C 36.325 22.6771 35.0495 26.1503 32.4984 28.8727 C 29.9474 31.5951 26.438 33.237 21.9703 33.7984 L 19.6625 28.8906 C 23.2271 28.8417 26.0591 27.8589 28.1586 25.9422 C 30.2581 24.0255 31.3078 21.5109 31.3078 18.3984 C 31.3078 15.2859 30.5328 12.8018 28.9828 10.9461 C 27.4328 9.09036 25.2906 7.96719 22.5563 7.57656 C 21.8969 14.9255 20.5602 20.7974 18.5461 25.1922 C 16.532 29.587 14.0354 31.7844 11.0563 31.7844 C 8.7125 31.7844 6.78385 30.6979 5.27031 28.525 C 3.75677 26.3521 3 23.5562 3 20.1375 Z M 7.76094 20.0281 C 7.76094 21.8594 8.09037 23.3914 8.74922 24.6242 C 9.40807 25.857 10.2016 26.4734 11.1297 26.4734 C 12.1307 26.4734 13.0953 25.4359 14.0234 23.3609 C 15.7568 19.4786 16.9286 14.2542 17.5391 7.6875 C 14.5599 8.24896 12.1854 9.64036 10.4156 11.8617 C 8.64583 14.0831 7.76094 16.8052 7.76094 20.0281 Z" /></svg>