<?xml version="1.0" encoding="utf-8" standalone="no"?>
<!DOCTYPE svg PUBLIC "-//W3C//DTD SVG 1.1//EN"
"http://www.w3.org/Graphics/SVG/1.1/DTD/svg11.dtd">

<svg xmlns="http://www.w3.org/2000/svg" version="1.1" xmlns:xlink="http://www.w3.org/1999/xlink" width="204.188" height="32.1047" viewBox="0 0 204.188 32.1047"><path stroke="#ffffff" stroke-width="6" stroke-linejoin="round" fill="#ffffff" d="M 7.06875 16.4797 L 13.8563 16.4797 L 13.8563 12.0156 L 7.06875 12.0156 Z M 13.8563 21.7781 L 13.8563 18.1359 L 7.06875 18.1359 L 7.06875 22.9219 C 8.97083 22.6917 11.2333 22.3104 13.8563 21.7781 Z M 13.8563 6.2625 L 7.06875 6.2625 L 7.06875 10.3875 L 13.8563 10.3875 Z M 17.325 8.25156 L 19.1766 7.80625 C 20.0307 12.6271 21.2526 16.4719 22.8422 19.3406 C 24.6589 16.1229 26.0349 12.1208 26.9703 7.33438 L 16.5359 7.33438 L 16.5359 6.2625 L 15.8391 6.2625 L 15.8391 29.1047 L 13.8563 29.1047 L 13.8563 23.4656 C 10.5813 24.1792 7.00938 24.7526 3.14063 25.1859 L 3 23.5078 C 4.11146 23.3734 4.82552 23.2818 5.14219 23.2328 L 5.14219 6.2625 L 3.30938 6.2625 L 3.30938 4.52187 L 17.5016 4.52187 L 17.5016 5.59375 L 28.9234 5.59375 L 28.9234 7.03906 C 27.8943 12.6411 26.2302 17.2724 23.9312 20.9328 C 25.4792 23.2182 27.4724 25.2047 29.9109 26.8922 L 28.9891 28.3438 C 26.4349 26.6521 24.3948 24.6594 22.8687 22.3656 C 21.2979 24.7583 19.2682 26.751 16.7797 28.3438 L 15.8031 26.8906 C 18.1458 25.3115 20.1385 23.3073 21.7813 20.8781 C 19.7615 17.6677 18.276 13.4589 17.325 8.25156 Z" /><path stroke="#ffffff" stroke-width="6" stroke-linejoin="round" fill="#ffffff" d="M 37.1937 14.5094 L 37.1937 28.9922 L 35.2406 28.9922 L 35.2406 15.9078 C 34.6052 16.9599 33.6333 17.9094 32.325 18.7563 L 31.6594 17.1172 C 34.4635 15.0516 36.6995 12.4839 38.3672 9.41406 L 39.9016 10.3141 C 39.1484 11.8589 38.2458 13.2573 37.1937 14.5094 Z M 43.1156 9.64688 L 43.1156 11.8266 L 54.6422 11.8266 L 54.6422 9.64688 Z M 43.1156 8.01875 L 54.6422 8.01875 L 54.6422 5.925 L 43.1156 5.925 Z M 32.7344 11.0281 L 31.9969 9.52656 C 34.8083 7.77344 37.013 5.63958 38.6109 3.125 L 40.0984 4.03906 C 38.4276 6.76406 35.9729 9.09375 32.7344 11.0281 Z M 41.1625 4.26875 L 56.6234 4.26875 L 56.6234 13.4547 L 42.8156 13.4547 L 41.1625 13.4547 Z M 53.3438 16.6125 L 39.4422 16.6125 L 39.4422 14.9844 L 58.1188 14.9844 L 58.1188 16.6125 L 55.3547 16.6125 L 55.3547 18.6781 L 58.3438 18.6781 L 58.3438 20.3906 L 55.3547 20.3906 L 55.3547 25.0547 C 55.3547 26.5922 55.1776 27.5763 54.8234 28.007 C 54.4693 28.4378 53.6156 28.6531 52.2625 28.6531 C 51.7615 28.6531 50.5073 28.6016 48.5 28.4984 L 48.4656 26.7 C 50.375 26.8604 51.5938 26.9406 52.1219 26.9406 C 52.7365 26.9406 53.0938 26.8773 53.1937 26.7508 C 53.2938 26.6242 53.3438 26.0682 53.3438 25.0828 L 53.3438 20.3906 L 39.1875 20.3906 L 39.1875 18.6781 L 53.3438 18.6781 Z M 41.9234 21.7875 L 43.0656 20.4969 C 45.1677 22.225 46.9703 24.0349 48.4734 25.9266 L 47.2109 27.0469 C 45.6411 25.2042 43.8786 23.451 41.9234 21.7875 Z" /><path stroke="#ffffff" stroke-width="6" stroke-linejoin="round" fill="#ffffff" d="M 63.8703 6.75 L 83.9281 6.75 L 83.9281 25.7484 L 63.8703 25.7484 L 63.8703 23.9797 L 81.975 23.9797 L 81.975 8.51875 L 63.8703 8.51875 Z" /><path stroke="#ffffff" stroke-width="6" stroke-linejoin="round" fill="#ffffff" d="M 91.2609 15.9875 C 95.4609 15.3833 99.4789 14.1177 103.315 12.1906 C 107.151 10.2635 110.295 7.91823 112.748 5.15469 L 113.97 6.41719 C 111.735 9.01823 108.886 11.2583 105.425 13.1375 L 105.425 27.8359 L 103.388 27.8359 L 103.388 13.9891 C 99.7563 15.9016 95.7948 17.1427 91.5031 17.7125 Z" /><path stroke="#ffffff" stroke-width="6" stroke-linejoin="round" fill="#ffffff" d="M 121.555 7.42656 L 122.359 5.775 C 125.586 7.43542 128.583 9.17031 131.348 10.9797 L 130.444 12.5234 C 127.475 10.6734 124.512 8.97448 121.555 7.42656 Z M 143.559 8.73125 C 142.604 14.2281 140.371 18.4844 136.859 21.5 C 133.348 24.5156 128.542 26.2797 122.442 26.7922 L 122.205 24.9969 C 133.336 23.9969 139.828 18.4266 141.681 8.28594 Z" /><path stroke="#ffffff" stroke-width="6" stroke-linejoin="round" fill="#ffffff" d="M 165.169 12.1563 L 165.169 14.7031 L 171.392 14.7031 L 171.392 12.1563 Z M 165.169 8.09531 L 165.169 10.5563 L 171.392 10.5563 L 171.392 8.09531 Z M 163.27 8.09531 L 156.991 8.09531 L 156.991 10.5563 L 163.27 10.5563 Z M 156.991 14.7031 L 163.27 14.7031 L 163.27 12.1563 L 156.991 12.1563 Z M 156.691 16.3297 L 155.066 16.3297 L 155.066 6.46719 L 159.859 6.46719 C 159.192 5.73281 158.449 4.83385 157.631 3.77031 L 159.188 3.04063 C 160.174 4.19167 161.057 5.33385 161.838 6.46719 L 166.617 6.46719 C 167.529 5.39844 168.363 4.26563 169.12 3.06875 L 170.78 3.7125 C 170.151 4.79583 169.446 5.71406 168.666 6.46719 L 173.347 6.46719 L 173.347 16.3297 Z M 158.091 23.3516 L 158.091 26.0672 L 170.292 26.0672 L 170.292 23.3516 Z M 158.091 21.7531 L 170.292 21.7531 L 170.292 19.2906 L 158.091 19.2906 Z M 158.091 27.6953 L 158.091 28.9922 L 156.164 28.9922 L 156.164 17.6359 L 172.275 17.6359 L 172.275 28.9922 L 170.292 28.9922 L 170.292 27.6953 Z M 152.253 4.04219 L 152.253 10.1906 L 155.102 10.1906 L 155.102 11.9031 L 152.253 11.9031 L 152.253 23.0906 C 152.926 22.7 153.995 22.0984 155.459 21.2859 L 155.834 22.8938 C 152.917 24.6323 150.074 25.9786 147.306 26.9328 L 146.944 25.2938 C 148.163 24.826 149.281 24.3641 150.298 23.9078 L 150.298 11.9031 L 147.056 11.9031 L 147.056 10.1906 L 150.298 10.1906 L 150.298 4.04219 Z" /><path stroke="#ffffff" stroke-width="6" stroke-linejoin="round" fill="#ffffff" d="M 192.614 24.5719 L 199.234 24.5719 L 199.234 7.39063 L 192.614 7.39063 Z M 201.188 5.65 L 201.188 28.175 L 199.234 28.175 L 199.234 26.3125 L 192.614 26.3125 L 192.614 28.175 L 190.689 28.175 L 190.689 5.65 Z M 180.875 27.4391 L 180.909 25.5719 C 182.505 25.8083 183.929 25.9266 185.18 25.9266 C 185.535 25.9266 185.834 25.7813 186.076 25.4906 C 186.318 25.2 186.555 24.5052 186.788 23.4063 C 187.02 22.3073 187.183 20.6388 187.277 18.4008 C 187.372 16.1628 187.419 13.2104 187.419 9.54375 L 187.419 9.36563 L 182.392 9.36563 C 182.23 14.1219 181.773 17.8839 181.021 20.6516 C 180.27 23.4193 178.968 25.9458 177.117 28.2313 L 175.744 27.0063 C 177.291 24.9198 178.42 22.6305 179.131 20.1383 C 179.843 17.6461 180.283 14.0552 180.453 9.36563 L 176.194 9.36563 L 176.194 7.59531 L 180.486 7.59531 C 180.52 5.84948 180.538 4.31771 180.538 3 L 182.491 3 C 182.491 5.05729 182.481 6.58906 182.463 7.59531 L 189.372 7.59531 L 189.372 8.78281 C 189.372 14.3922 189.243 18.5612 188.985 21.2898 C 188.727 24.0185 188.352 25.7776 187.86 26.5672 C 187.368 27.3568 186.578 27.7516 185.491 27.7516 C 184.322 27.7516 182.783 27.6474 180.875 27.4391 Z" /><path fill="#000000" d="M 7.06875 16.4797 L 13.8563 16.4797 L 13.8563 12.0156 L 7.06875 12.0156 Z M 13.8563 21.7781 L 13.8563 18.1359 L 7.06875 18.1359 L 7.06875 22.9219 C 8.97083 22.6917 11.2333 22.3104 13.8563 21.7781 Z M 13.8563 6.2625 L 7.06875 6.2625 L 7.06875 10.3875 L 13.8563 10.3875 Z M 17.325 8.25156 L 19.1766 7.80625 C 20.0307 12.6271 21.2526 16.4719 22.8422 19.3406 C 24.6589 16.1229 26.0349 12.1208 26.9703 7.33438 L 16.5359 7.33438 L 16.5359 6.2625 L 15.8391 6.2625 L 15.8391 29.1047 L 13.8563 29.1047 L 13.8563 23.4656 C 10.5813 24.1792 7.00938 24.7526 3.14063 25.1859 L 3 23.5078 C 4.11146 23.3734 4.82552 23.2818 5.14219 23.2328 L 5.14219 6.2625 L 3.30938 6.2625 L 3.30938 4.52187 L 17.5016 4.52187 L 17.5016 5.59375 L 28.9234 5.59375 L 28.9234 7.03906 C 27.8943 12.6411 26.2302 17.2724 23.9312 20.9328 C 25.4792 23.2182 27.4724 25.2047 29.9109 26.8922 L 28.9891 28.3438 C 26.4349 26.6521 24.3948 24.6594 22.8687 22.3656 C 21.2979 24.7583 19.2682 26.751 16.7797 28.3438 L 15.8031 26.8906 C 18.1458 25.3115 20.1385 23.3073 21.7813 20.8781 C 19.7615 17.6677 18.276 13.4589 17.325 8.25156 Z" /><path fill="#000000" d="M 37.1937 14.5094 L 37.1937 28.9922 L 35.2406 28.9922 L 35.2406 15.9078 C 34.6052 16.9599 33.6333 17.9094 32.325 18.7563 L 31.6594 17.1172 C 34.4635 15.0516 36.6995 12.4839 38.3672 9.41406 L 39.9016 10.3141 C 39.1484 11.8589 38.2458 13.2573 37.1937 14.5094 Z M 43.1156 9.64688 L 43.1156 11.8266 L 54.6422 11.8266 L 54.6422 9.64688 Z M 43.1156 8.01875 L 54.6422 8.01875 L 54.6422 5.925 L 43.1156 5.925 Z M 32.7344 11.0281 L 31.9969 9.52656 C 34.8083 7.77344 37.013 5.63958 38.6109 3.125 L 40.0984 4.03906 C 38.4276 6.76406 35.9729 9.09375 32.7344 11.0281 Z M 41.1625 4.26875 L 56.6234 4.26875 L 56.6234 13.4547 L 42.8156 13.4547 L 41.1625 13.4547 Z M 53.3438 16.6125 L 39.4422 16.6125 L 39.4422 14.9844 L 58.1188 14.9844 L 58.1188 16.6125 L 55.3547 16.6125 L 55.3547 18.6781 L 58.3438 18.6781 L 58.3438 20.3906 L 55.3547 20.3906 L 55.3547 25.0547 C 55.3547 26.5922 55.1776 27.5763 54.8234 28.007 C 54.4693 28.4378 53.6156 28.6531 52.2625 28.6531 C 51.7615 28.6531 50.5073 28.6016 48.5 28.4984 L 48.4656 26.7 C 50.375 26.8604 51.5938 26.9406 52.1219 26.9406 C 52.7365 26.9406 53.0938 26.8773 53.1937 26.7508 C 53.2938 26.6242 53.3438 26.0682 53.3438 25.0828 L 53.3438 20.3906 L 39.1875 20.3906 L 39.1875 18.6781 L 53.3438 18.6781 Z M 41.9234 21.7875 L 43.0656 20.4969 C 45.1677 22.225 46.9703 24.0349 48.4734 25.9266 L 47.2109 27.0469 C 45.6411 25.2042 43.8786 23.451 41.9234 21.7875 Z" /><path fill="#000000" d="M 63.8703 6.75 L 83.9281 6.75 L 83.9281 25.7484 L 63.8703 25.7484 L 63.8703 23.9797 L 81.975 23.9797 L 81.975 8.51875 L 63.8703 8.51875 Z" /><path fill="#000000" d="M 91.2609 15.9875 C 95.4609 15.3833 99.4789 14.1177 103.315 12.1906 C 107.151 10.2635 110.295 7.91823 112.748 5.15469 L 113.97 6.41719 C 111.735 9.01823 108.886 11.2583 105.425 13.1375 L 105.425 27.8359 L 103.388 27.8359 L 103.388 13.9891 C 99.7563 15.9016 95.7948 17.1427 91.5031 17.7125 Z" /><path fill="#000000" d="M 121.555 7.42656 L 122.359 5.775 C 125.586 7.43542 128.583 9.17031 131.348 10.9797 L 130.444 12.5234 C 127.475 10.6734 124.512 8.97448 121.555 7.42656 Z M 143.559 8.73125 C 142.604 14.2281 140.371 18.4844 136.859 21.5 C 133.348 24.5156 128.542 26.2797 122.442 26.7922 L 122.205 24.9969 C 133.336 23.9969 139.828 18.4266 141.681 8.28594 Z" /><path fill="#000000" d="M 165.169 12.1563 L 165.169 14.7031 L 171.392 14.7031 L 171.392 12.1563 Z M 165.169 8.09531 L 165.169 10.5563 L 171.392 10.5563 L 171.392 8.09531 Z M 163.27 8.09531 L 156.991 8.09531 L 156.991 10.5563 L 163.27 10.5563 Z M 156.991 14.7031 L 163.27 14.7031 L 163.27 12.1563 L 156.991 12.1563 Z M 156.691 16.3297 L 155.066 16.3297 L 155.066 6.46719 L 159.859 6.46719 C 159.192 5.73281 158.449 4.83385 157.631 3.77031 L 159.188 3.04063 C 160.174 4.19167 161.057 5.33385 161.838 6.46719 L 166.617 6.46719 C 167.529 5.39844 168.363 4.26563 169.12 3.06875 L 170.78 3.7125 C 170.151 4.79583 169.446 5.71406 168.666 6.46719 L 173.347 6.46719 L 173.347 16.3297 Z M 158.091 23.3516 L 158.091 26.0672 L 170.292 26.0672 L 170.292 23.3516 Z M 158.091 21.7531 L 170.292 21.7531 L 170.292 19.2906 L 158.091 19.2906 Z M 158.091 27.6953 L 158.091 28.9922 L 156.164 28.9922 L 156.164 17.6359 L 172.275 17.6359 L 172.275 28.9922 L 170.292 28.9922 L 170.292 27.6953 Z M 152.253 4.04219 L 152.253 10.1906 L 155.102 10.1906 L 155.102 11.9031 L 152.253 11.9031 L 152.253 23.0906 C 152.926 22.7 153.995 22.0984 155.459 21.2859 L 155.834 22.8938 C 152.917 24.6323 150.074 25.9786 147.306 26.9328 L 146.944 25.2938 C 148.163 24.826 149.281 24.3641 150.298 23.9078 L 150.298 11.9031 L 147.056 11.9031 L 147.056 10.1906 L 150.298 10.1906 L 150.298 4.04219 Z" /><path fill="#000000" d="M 192.614 24.5719 L 199.234 24.5719 L 199.234 7.39063 L 192.614 7.39063 Z M 201.188 5.65 L 201.188 28.175 L 199.234 28.175 L 199.234 26.3125 L 192.614 26.3125 L 192.614 28.175 L 190.689 28.175 L 190.689 5.65 Z M 180.875 27.4391 L 180.909 25.5719 C 182.505 25.8083 183.929 25.9266 185.18 25.9266 C 185.535 25.9266 185.834 25.7813 186.076 25.4906 C 186.318 25.2 186.555 24.5052 186.788 23.4063 C 187.02 22.3073 187.183 20.6388 187.277 18.4008 C 187.372 16.1628 187.419 13.2104 187.419 9.54375 L 187.419 9.36563 L 182.392 9.36563 C 182.23 14.1219 181.773 17.8839 181.021 20.6516 C 180.27 23.4193 178.968 25.9458 177.117 28.2313 L 175.744 27.0063 C 177.291 24.9198 178.42 22.6305 179.131 20.1383 C 179.843 17.6461 180.283 14.0552 180.453 9.36563 L 176.194 9.36563 L 176.194 7.59531 L 180.486 7.59531 C 180.52 5.84948 180.538 4.31771 180.538 3 L 182.491 3 C 182.491 5.05729 182.481 6.58906 182.463 7.59531 L 189.372 7.59531 L 189.372 8.78281 C 189.372 14.3922 189.243 18.5612 188.985 21.2898 C 188.727 24.0185 188.352 25.7776 187.86 26.5672 C 187.368 27.3568 186.578 27.7516 185.491 27.7516 C 184.322 27.7516 182.783 27.6474 180.875 27.4391 Z" /></svg>