<?xml version="1.0" encoding="utf-8" standalone="no"?>
<!DOCTYPE svg PUBLIC "-//W3C//DTD SVG 1.1//EN"
"http://www.w3.org/Graphics/SVG/1.1/DTD/svg11.dtd">

<svg xmlns="http://www.w3.org/2000/svg" version="1.1" xmlns:xlink="http://www.w3.org/1999/xlink" width="39.6547" height="40.3141" viewBox="0 0 39.6547 40.3141"><path stroke="#1987e5" stroke-width="6" stroke-linejoin="round" fill="#1987e5" d="M 3 16.9891 C 5.22083 17.087 7.83906 17.1359 10.8547 17.1359 C 13.8703 17.1359 16.0495 17.1115 17.3922 17.0625 C 16.6349 15.451 16.1344 14.2917 15.8906 13.5844 C 13.5958 13.6333 11.5266 13.6578 9.68281 13.6578 C 7.83906 13.6578 6.02656 13.6089 4.24531 13.5109 L 4.17188 8.89687 C 5.85625 8.96979 7.43698 9.00625 8.91406 9.00625 C 10.3911 9.00625 12.2281 8.98177 14.425 8.93281 C 14.0594 7.66302 13.7297 6.30833 13.4359 4.86875 L 18.4531 4.42812 C 18.8927 6.50312 19.2349 7.94375 19.4797 8.75 C 22.3109 8.60312 25.1427 8.41979 27.975 8.2 C 28.2438 9.05521 28.537 10.0687 28.8547 11.2406 L 29.9531 10.9844 L 30.3922 12.6687 C 26.7297 13.0104 23.6411 13.2422 21.1266 13.3641 C 21.5661 14.438 22.1401 15.5979 22.8484 16.8438 C 26.7297 16.624 30.099 16.3307 32.9562 15.9641 L 33.0656 20.725 C 31.4542 20.8958 29.1104 21.1031 26.0344 21.3469 C 27.3042 22.8125 28.6833 24.1432 30.1719 25.3391 L 26.3641 28.2687 C 23.8984 26.3885 21.7865 24.1911 20.0281 21.6766 C 17.5625 21.7745 14.8221 21.8234 11.807 21.8234 C 8.79193 21.8234 5.91719 21.7745 3.18281 21.6766 Z M 5.0875 29.3672 C 5.0875 27.8536 5.49011 26.4375 6.29531 25.1187 L 11.2391 25.8891 C 10.5307 26.9141 10.1766 27.8536 10.1766 28.7078 C 10.1766 31.2714 13.3141 32.5531 19.5891 32.5531 C 23.2026 32.5531 26.5229 32.2234 29.55 31.5641 L 29.1469 36.6547 C 26.1438 37.0943 23.0677 37.3141 19.9188 37.3141 C 10.0313 37.3141 5.0875 34.6651 5.0875 29.3672 Z M 27.3531 4.17187 L 30.0625 3.65937 C 30.7948 5.17292 31.5151 7.15052 32.2234 9.59219 L 29.4406 10.2141 C 28.7563 7.72448 28.0604 5.71042 27.3531 4.17187 Z M 31.7844 3.5125 L 34.4938 3 C 35.3479 4.80729 36.0682 6.76042 36.6547 8.85938 L 33.8703 9.44531 C 33.187 6.97969 32.4917 5.00208 31.7844 3.5125 Z" /><path fill="#ffffff" d="M 3 16.9891 C 5.22083 17.087 7.83906 17.1359 10.8547 17.1359 C 13.8703 17.1359 16.0495 17.1115 17.3922 17.0625 C 16.6349 15.451 16.1344 14.2917 15.8906 13.5844 C 13.5958 13.6333 11.5266 13.6578 9.68281 13.6578 C 7.83906 13.6578 6.02656 13.6089 4.24531 13.5109 L 4.17188 8.89687 C 5.85625 8.96979 7.43698 9.00625 8.91406 9.00625 C 10.3911 9.00625 12.2281 8.98177 14.425 8.93281 C 14.0594 7.66302 13.7297 6.30833 13.4359 4.86875 L 18.4531 4.42812 C 18.8927 6.50312 19.2349 7.94375 19.4797 8.75 C 22.3109 8.60312 25.1427 8.41979 27.975 8.2 C 28.2438 9.05521 28.537 10.0687 28.8547 11.2406 L 29.9531 10.9844 L 30.3922 12.6687 C 26.7297 13.0104 23.6411 13.2422 21.1266 13.3641 C 21.5661 14.438 22.1401 15.5979 22.8484 16.8438 C 26.7297 16.624 30.099 16.3307 32.9562 15.9641 L 33.0656 20.725 C 31.4542 20.8958 29.1104 21.1031 26.0344 21.3469 C 27.3042 22.8125 28.6833 24.1432 30.1719 25.3391 L 26.3641 28.2687 C 23.8984 26.3885 21.7865 24.1911 20.0281 21.6766 C 17.5625 21.7745 14.8221 21.8234 11.807 21.8234 C 8.79193 21.8234 5.91719 21.7745 3.18281 21.6766 Z M 5.0875 29.3672 C 5.0875 27.8536 5.49011 26.4375 6.29531 25.1187 L 11.2391 25.8891 C 10.5307 26.9141 10.1766 27.8536 10.1766 28.7078 C 10.1766 31.2714 13.3141 32.5531 19.5891 32.5531 C 23.2026 32.5531 26.5229 32.2234 29.55 31.5641 L 29.1469 36.6547 C 26.1438 37.0943 23.0677 37.3141 19.9188 37.3141 C 10.0313 37.3141 5.0875 34.6651 5.0875 29.3672 Z M 27.3531 4.17187 L 30.0625 3.65937 C 30.7948 5.17292 31.5151 7.15052 32.2234 9.59219 L 29.4406 10.2141 C 28.7563 7.72448 28.0604 5.71042 27.3531 4.17187 Z M 31.7844 3.5125 L 34.4938 3 C 35.3479 4.80729 36.0682 6.76042 36.6547 8.85938 L 33.8703 9.44531 C 33.187 6.97969 32.4917 5.00208 31.7844 3.5125 Z" /></svg>