<?xml version="1.0" encoding="utf-8" standalone="no"?>
<!DOCTYPE svg PUBLIC "-//W3C//DTD SVG 1.1//EN"
"http://www.w3.org/Graphics/SVG/1.1/DTD/svg11.dtd">

<svg xmlns="http://www.w3.org/2000/svg" version="1.1" xmlns:xlink="http://www.w3.org/1999/xlink" width="40.6797" height="37.9344" viewBox="0 0 40.6797 37.9344"><path stroke="#1987e5" stroke-width="6" stroke-linejoin="round" fill="#1987e5" d="M 3 25.8156 C 3 21.275 4.64792 17.3323 7.94375 13.9875 C 7.33333 11.9365 6.68646 9.36042 6.00313 6.25938 L 10.7641 5.34375 C 11.1057 7.2 11.5328 9.04323 12.0453 10.8734 C 14.9745 9.23802 18.124 8.34688 21.4937 8.2 C 21.9333 6.36979 22.2141 4.63646 22.3359 3 L 27.6094 3.98906 C 27.2677 5.57656 26.9016 7.1026 26.5109 8.56719 C 29.6109 9.25052 32.0461 10.7031 33.8164 12.925 C 35.5867 15.1469 36.4719 17.8932 36.4719 21.1641 C 36.4719 23.5818 36.0568 25.7917 35.2266 27.7938 C 36.1057 28.575 36.9234 29.4536 37.6797 30.4297 L 34.7141 34.3109 C 34.0547 33.4818 33.3708 32.6766 32.6625 31.8953 C 30.7583 33.9214 28.4635 34.9344 25.7781 34.9344 C 23.849 34.9344 22.262 34.4094 21.0172 33.3594 C 19.7724 32.3094 19.15 30.9544 19.15 29.2945 C 19.15 27.6346 19.7664 26.2737 20.9992 25.2117 C 22.232 24.1497 23.7518 23.6187 25.5586 23.6187 C 27.3654 23.6187 29.2453 24.1068 31.1984 25.0828 C 31.5151 23.887 31.6734 22.6786 31.6734 21.4578 C 31.6734 19.187 31.106 17.307 29.9711 15.818 C 28.8362 14.3289 27.2432 13.3401 25.1922 12.8516 C 23.1411 18.8578 20.5958 23.8263 17.5562 27.757 C 14.5167 31.6878 11.6422 33.6531 8.93281 33.6531 C 7.15052 33.6531 5.71615 32.9388 4.62969 31.5102 C 3.54323 30.0815 3 28.1833 3 25.8156 Z M 9.62813 18.9312 C 8.11458 20.9813 7.35781 23.1232 7.35781 25.357 C 7.35781 27.5909 8.01667 28.7078 9.33438 28.7078 C 10.3844 28.7078 11.6542 27.8292 13.1438 26.0719 C 11.7031 23.6302 10.5313 21.25 9.62813 18.9312 Z M 13.4734 15.3422 C 14.2547 17.5391 15.1458 19.6385 16.1469 21.6406 C 17.6844 18.9302 19.0151 15.9516 20.1391 12.7047 C 17.7953 13.0714 15.5734 13.9505 13.4734 15.3422 Z M 23.3969 29.1109 C 23.3969 29.5755 23.6044 29.9482 24.0195 30.2289 C 24.4346 30.5096 24.9844 30.65 25.6688 30.65 C 27.0354 30.65 28.2437 30.0516 29.2938 28.8547 C 27.975 27.9276 26.7542 27.4641 25.6313 27.4641 C 24.1417 27.4641 23.3969 28.013 23.3969 29.1109 Z" /><path fill="#ffffff" d="M 3 25.8156 C 3 21.275 4.64792 17.3323 7.94375 13.9875 C 7.33333 11.9365 6.68646 9.36042 6.00313 6.25938 L 10.7641 5.34375 C 11.1057 7.2 11.5328 9.04323 12.0453 10.8734 C 14.9745 9.23802 18.124 8.34688 21.4937 8.2 C 21.9333 6.36979 22.2141 4.63646 22.3359 3 L 27.6094 3.98906 C 27.2677 5.57656 26.9016 7.1026 26.5109 8.56719 C 29.6109 9.25052 32.0461 10.7031 33.8164 12.925 C 35.5867 15.1469 36.4719 17.8932 36.4719 21.1641 C 36.4719 23.5818 36.0568 25.7917 35.2266 27.7938 C 36.1057 28.575 36.9234 29.4536 37.6797 30.4297 L 34.7141 34.3109 C 34.0547 33.4818 33.3708 32.6766 32.6625 31.8953 C 30.7583 33.9214 28.4635 34.9344 25.7781 34.9344 C 23.849 34.9344 22.262 34.4094 21.0172 33.3594 C 19.7724 32.3094 19.15 30.9544 19.15 29.2945 C 19.15 27.6346 19.7664 26.2737 20.9992 25.2117 C 22.232 24.1497 23.7518 23.6187 25.5586 23.6187 C 27.3654 23.6187 29.2453 24.1068 31.1984 25.0828 C 31.5151 23.887 31.6734 22.6786 31.6734 21.4578 C 31.6734 19.187 31.106 17.307 29.9711 15.818 C 28.8362 14.3289 27.2432 13.3401 25.1922 12.8516 C 23.1411 18.8578 20.5958 23.8263 17.5562 27.757 C 14.5167 31.6878 11.6422 33.6531 8.93281 33.6531 C 7.15052 33.6531 5.71615 32.9388 4.62969 31.5102 C 3.54323 30.0815 3 28.1833 3 25.8156 Z M 9.62813 18.9312 C 8.11458 20.9813 7.35781 23.1232 7.35781 25.357 C 7.35781 27.5909 8.01667 28.7078 9.33438 28.7078 C 10.3844 28.7078 11.6542 27.8292 13.1438 26.0719 C 11.7031 23.6302 10.5313 21.25 9.62813 18.9312 Z M 13.4734 15.3422 C 14.2547 17.5391 15.1458 19.6385 16.1469 21.6406 C 17.6844 18.9302 19.0151 15.9516 20.1391 12.7047 C 17.7953 13.0714 15.5734 13.9505 13.4734 15.3422 Z M 23.3969 29.1109 C 23.3969 29.5755 23.6044 29.9482 24.0195 30.2289 C 24.4346 30.5096 24.9844 30.65 25.6688 30.65 C 27.0354 30.65 28.2437 30.0516 29.2938 28.8547 C 27.975 27.9276 26.7542 27.4641 25.6313 27.4641 C 24.1417 27.4641 23.3969 28.013 23.3969 29.1109 Z" /></svg>