<?xml version="1.0" encoding="utf-8" standalone="no"?>
<!DOCTYPE svg PUBLIC "-//W3C//DTD SVG 1.1//EN"
"http://www.w3.org/Graphics/SVG/1.1/DTD/svg11.dtd">

<svg xmlns="http://www.w3.org/2000/svg" version="1.1" xmlns:xlink="http://www.w3.org/1999/xlink" width="40.3875" height="41.0453" viewBox="0 0 40.3875 41.0453"><path stroke="#1987e5" stroke-width="6" stroke-linejoin="round" fill="#1987e5" d="M 4.575 38.0453 C 3.525 34.5786 3 30.1354 3 24.7156 C 3 19.2958 3.6224 13.1677 4.86719 6.33125 L 9.88437 6.55156 C 8.59062 12.4349 7.94375 18.099 7.94375 23.5438 C 7.94375 28.9885 8.54167 33.6271 9.7375 37.4594 L 4.575 38.0453 Z M 13.8391 36.1422 C 12.3995 34.9703 11.6797 33.4138 11.6797 31.4727 C 11.6797 29.5315 12.4547 27.9568 14.0047 26.7484 C 15.5547 25.5401 17.6115 24.9359 20.175 24.9359 C 21.201 24.9359 22.2875 25.0578 23.4344 25.3016 L 23.4344 17.3547 L 12.2281 17.3547 L 12.2281 12.6312 L 23.4344 12.6312 L 23.4344 6.03906 L 28.2687 6.03906 L 28.2687 12.6312 L 34.275 12.6312 L 34.275 17.3547 L 28.2687 17.3547 L 28.2687 27.2062 C 29.5865 27.9385 31.0146 28.9333 32.5531 30.1906 C 34.0917 31.4479 34.9583 32.162 35.1531 32.3328 L 32.2609 36.5438 C 30.8693 35.1281 29.3797 33.8344 27.7922 32.6625 C 27.2068 34.2979 26.1938 35.5797 24.7531 36.5078 C 23.3125 37.4359 21.4935 37.9 19.2961 37.9 C 17.0987 37.9 15.2797 37.3141 13.8391 36.1422 Z M 16.3672 31.3438 C 16.3672 32.7115 17.5021 33.3953 19.7719 33.3953 C 20.9688 33.3953 21.8357 33.1573 22.3727 32.6813 C 22.9096 32.2052 23.2391 31.3323 23.3609 30.0625 C 21.9693 29.476 20.7487 29.1828 19.6992 29.1828 C 18.6497 29.1828 17.832 29.3721 17.2461 29.7508 C 16.6602 30.1294 16.3672 30.6604 16.3672 31.3438 Z M 30.1359 10.2516 C 29.2818 9.39635 28.8547 8.39505 28.8547 7.24766 C 28.8547 6.10026 29.2818 5.10547 30.1359 4.26328 C 30.9901 3.42109 31.9911 3 33.1391 3 C 34.287 3 35.282 3.42109 36.1242 4.26328 C 36.9664 5.10547 37.3875 6.10026 37.3875 7.24766 C 37.3875 8.39505 36.9664 9.39609 36.1242 10.2508 C 35.282 11.1055 34.287 11.5328 33.1391 11.5328 C 31.9911 11.5328 30.9901 11.1057 30.1359 10.2516 Z M 31.5453 5.67344 C 31.0943 6.11198 30.8687 6.63646 30.8687 7.24687 C 30.8687 7.85729 31.0945 8.38828 31.5461 8.83984 C 31.9977 9.29141 32.5286 9.51719 33.1391 9.51719 C 33.7495 9.51719 34.2745 9.29141 34.7141 8.83984 C 35.1536 8.38828 35.3734 7.85729 35.3734 7.24687 C 35.3734 6.63646 35.1536 6.11172 34.7141 5.67266 C 34.2745 5.23359 33.7495 5.01406 33.1391 5.01406 C 32.5286 5.01406 31.9974 5.23385 31.5453 5.67344 Z" /><path fill="#ffffff" d="M 4.575 38.0453 C 3.525 34.5786 3 30.1354 3 24.7156 C 3 19.2958 3.6224 13.1677 4.86719 6.33125 L 9.88437 6.55156 C 8.59062 12.4349 7.94375 18.099 7.94375 23.5438 C 7.94375 28.9885 8.54167 33.6271 9.7375 37.4594 L 4.575 38.0453 Z M 13.8391 36.1422 C 12.3995 34.9703 11.6797 33.4138 11.6797 31.4727 C 11.6797 29.5315 12.4547 27.9568 14.0047 26.7484 C 15.5547 25.5401 17.6115 24.9359 20.175 24.9359 C 21.201 24.9359 22.2875 25.0578 23.4344 25.3016 L 23.4344 17.3547 L 12.2281 17.3547 L 12.2281 12.6312 L 23.4344 12.6312 L 23.4344 6.03906 L 28.2687 6.03906 L 28.2687 12.6312 L 34.275 12.6312 L 34.275 17.3547 L 28.2687 17.3547 L 28.2687 27.2062 C 29.5865 27.9385 31.0146 28.9333 32.5531 30.1906 C 34.0917 31.4479 34.9583 32.162 35.1531 32.3328 L 32.2609 36.5438 C 30.8693 35.1281 29.3797 33.8344 27.7922 32.6625 C 27.2068 34.2979 26.1938 35.5797 24.7531 36.5078 C 23.3125 37.4359 21.4935 37.9 19.2961 37.9 C 17.0987 37.9 15.2797 37.3141 13.8391 36.1422 Z M 16.3672 31.3438 C 16.3672 32.7115 17.5021 33.3953 19.7719 33.3953 C 20.9688 33.3953 21.8357 33.1573 22.3727 32.6813 C 22.9096 32.2052 23.2391 31.3323 23.3609 30.0625 C 21.9693 29.476 20.7487 29.1828 19.6992 29.1828 C 18.6497 29.1828 17.832 29.3721 17.2461 29.7508 C 16.6602 30.1294 16.3672 30.6604 16.3672 31.3438 Z M 30.1359 10.2516 C 29.2818 9.39635 28.8547 8.39505 28.8547 7.24766 C 28.8547 6.10026 29.2818 5.10547 30.1359 4.26328 C 30.9901 3.42109 31.9911 3 33.1391 3 C 34.287 3 35.282 3.42109 36.1242 4.26328 C 36.9664 5.10547 37.3875 6.10026 37.3875 7.24766 C 37.3875 8.39505 36.9664 9.39609 36.1242 10.2508 C 35.282 11.1055 34.287 11.5328 33.1391 11.5328 C 31.9911 11.5328 30.9901 11.1057 30.1359 10.2516 Z M 31.5453 5.67344 C 31.0943 6.11198 30.8687 6.63646 30.8687 7.24687 C 30.8687 7.85729 31.0945 8.38828 31.5461 8.83984 C 31.9977 9.29141 32.5286 9.51719 33.1391 9.51719 C 33.7495 9.51719 34.2745 9.29141 34.7141 8.83984 C 35.1536 8.38828 35.3734 7.85729 35.3734 7.24687 C 35.3734 6.63646 35.1536 6.11172 34.7141 5.67266 C 34.2745 5.23359 33.7495 5.01406 33.1391 5.01406 C 32.5286 5.01406 31.9974 5.23385 31.5453 5.67344 Z" /></svg>