<?xml version="1.0" encoding="utf-8" standalone="no"?>
<!DOCTYPE svg PUBLIC "-//W3C//DTD SVG 1.1//EN"
"http://www.w3.org/Graphics/SVG/1.1/DTD/svg11.dtd">

<svg xmlns="http://www.w3.org/2000/svg" version="1.1" xmlns:xlink="http://www.w3.org/1999/xlink" width="32.3313" height="33.8312" viewBox="0 0 32.3313 33.8312"><path stroke="#1987e5" stroke-width="6" stroke-linejoin="round" fill="#1987e5" d="M 4.50156 27.7188 C 3.50052 26.6198 3 25.051 3 23.0125 C 3 20.974 3.66537 19.0635 4.99609 17.2813 C 6.32682 15.499 8.1276 14.1198 10.3984 13.1438 C 10.3984 12.5823 10.4224 11.6177 10.4703 10.25 L 4.20937 10.25 L 4.20937 6.00156 L 10.7281 6.00156 C 10.776 5.24531 10.849 4.24479 10.9469 3 L 15.4875 3 C 15.4146 3.63438 15.3292 4.6349 15.2312 6.00156 L 27.5734 5.96563 L 27.5734 10.25 L 14.975 10.25 C 14.926 10.9823 14.9016 11.5318 14.9016 11.8984 C 15.8536 11.7516 16.8547 11.6781 17.9047 11.6781 C 21.4453 11.6781 24.2349 12.5143 26.2734 14.1867 C 28.312 15.8591 29.3313 18.0625 29.3313 20.7969 C 29.3313 23.5313 28.4461 25.7469 26.6758 27.4438 C 24.9055 29.1406 22.3359 30.2698 18.9672 30.8313 L 16.1109 26.6563 C 19.0161 26.4615 21.1951 25.8513 22.6477 24.8258 C 24.1003 23.8003 24.8266 22.5794 24.8266 21.1633 C 24.8266 19.7471 24.3505 18.5875 23.3984 17.6844 C 21.3964 21.1021 19.0159 23.9036 16.257 26.0891 C 13.4982 28.2745 10.9349 29.3672 8.56719 29.3672 C 6.85781 29.3672 5.5026 28.8177 4.50156 27.7188 Z M 7.35781 22.9578 C 7.35781 24.2026 7.84635 24.825 8.82344 24.825 C 9.48281 24.825 10.2885 24.5568 11.2406 24.0203 C 10.899 22.4089 10.6547 20.3333 10.5078 17.7938 C 8.40781 19.2594 7.35781 20.9807 7.35781 22.9578 Z M 14.9016 15.9625 C 14.9266 17.55 15.049 19.1495 15.2688 20.7609 C 16.7333 19.2474 18.0151 17.5995 19.1141 15.8172 C 18.6016 15.7432 18.0156 15.7063 17.3563 15.7063 C 16.6969 15.7063 15.8786 15.7917 14.9016 15.9625 Z" /><path fill="#ffffff" d="M 4.50156 27.7188 C 3.50052 26.6198 3 25.051 3 23.0125 C 3 20.974 3.66537 19.0635 4.99609 17.2813 C 6.32682 15.499 8.1276 14.1198 10.3984 13.1438 C 10.3984 12.5823 10.4224 11.6177 10.4703 10.25 L 4.20937 10.25 L 4.20937 6.00156 L 10.7281 6.00156 C 10.776 5.24531 10.849 4.24479 10.9469 3 L 15.4875 3 C 15.4146 3.63438 15.3292 4.6349 15.2312 6.00156 L 27.5734 5.96563 L 27.5734 10.25 L 14.975 10.25 C 14.926 10.9823 14.9016 11.5318 14.9016 11.8984 C 15.8536 11.7516 16.8547 11.6781 17.9047 11.6781 C 21.4453 11.6781 24.2349 12.5143 26.2734 14.1867 C 28.312 15.8591 29.3313 18.0625 29.3313 20.7969 C 29.3313 23.5313 28.4461 25.7469 26.6758 27.4438 C 24.9055 29.1406 22.3359 30.2698 18.9672 30.8313 L 16.1109 26.6563 C 19.0161 26.4615 21.1951 25.8513 22.6477 24.8258 C 24.1003 23.8003 24.8266 22.5794 24.8266 21.1633 C 24.8266 19.7471 24.3505 18.5875 23.3984 17.6844 C 21.3964 21.1021 19.0159 23.9036 16.257 26.0891 C 13.4982 28.2745 10.9349 29.3672 8.56719 29.3672 C 6.85781 29.3672 5.5026 28.8177 4.50156 27.7188 Z M 7.35781 22.9578 C 7.35781 24.2026 7.84635 24.825 8.82344 24.825 C 9.48281 24.825 10.2885 24.5568 11.2406 24.0203 C 10.899 22.4089 10.6547 20.3333 10.5078 17.7938 C 8.40781 19.2594 7.35781 20.9807 7.35781 22.9578 Z M 14.9016 15.9625 C 14.9266 17.55 15.049 19.1495 15.2688 20.7609 C 16.7333 19.2474 18.0151 17.5995 19.1141 15.8172 C 18.6016 15.7432 18.0156 15.7063 17.3563 15.7063 C 16.6969 15.7063 15.8786 15.7917 14.9016 15.9625 Z" /></svg>