<?xml version="1.0" encoding="utf-8" standalone="no"?>
<!DOCTYPE svg PUBLIC "-//W3C//DTD SVG 1.1//EN"
"http://www.w3.org/Graphics/SVG/1.1/DTD/svg11.dtd">

<svg xmlns="http://www.w3.org/2000/svg" version="1.1" xmlns:xlink="http://www.w3.org/1999/xlink" width="37.0547" height="39.6922" viewBox="0 0 37.0547 39.6922"><path stroke="#1987e5" stroke-width="6" stroke-linejoin="round" fill="#1987e5" d="M 3.62188 30.0625 C 3.20729 27.7188 3 24.2336 3 19.607 C 3 14.9805 3.28073 10.287 3.84219 5.52656 L 8.49375 5.6 C 7.93229 11.3615 7.65156 14.987 7.65156 16.4766 C 8.74948 14.3036 10.2323 12.4542 12.1 10.9281 C 13.9677 9.40208 16.0125 8.34635 18.2344 7.76094 C 18.0635 5.61198 17.8927 4.04948 17.7219 3.07344 L 22.8484 3 C 22.9464 4.17188 23.0563 5.6125 23.1781 7.32188 C 26.425 7.58958 29.0495 8.77943 31.0516 10.8914 C 33.0536 13.0034 34.0547 15.7378 34.0547 19.0945 C 34.0547 22.4513 32.9255 25.2406 30.6672 27.4625 C 28.4089 29.6844 25.5339 30.7953 22.0422 30.7953 C 21.7495 30.7953 21.3349 30.7708 20.7984 30.7219 C 19.4307 33.1635 17.3922 35.1536 14.6828 36.6922 L 9.99531 33.5781 C 12.363 32.5281 14.2182 31.0755 15.5609 29.2203 C 13.7057 28.2682 12.1068 26.95 10.7641 25.2656 L 13.1078 20.6875 C 14.4016 22.4208 15.9271 23.7396 17.6844 24.6438 C 18.3198 22.3969 18.6375 19.5401 18.6375 16.0734 C 18.6375 14.487 18.613 13.2542 18.5641 12.375 C 16.2693 13.1802 14.194 14.7305 12.3383 17.0258 C 10.4826 19.3211 9.15209 22.0313 8.34688 25.1563 C 8.17604 25.7667 8.09063 26.3953 8.09063 27.0422 C 8.09063 27.6891 8.13958 28.6958 8.2375 30.0625 L 3.62188 30.0625 Z M 22.6656 25.7047 C 24.6188 25.5828 26.1813 24.8992 27.3531 23.6539 C 28.525 22.4086 29.1109 20.8279 29.1109 18.9117 C 29.1109 16.9956 28.6044 15.4271 27.5914 14.2063 C 26.5784 12.9854 25.1927 12.2286 23.4344 11.9359 C 23.4833 13.0339 23.5078 14.5354 23.5078 16.4406 C 23.5078 20.151 23.2271 23.2391 22.6656 25.7047 Z" /><path fill="#ffffff" d="M 3.62188 30.0625 C 3.20729 27.7188 3 24.2336 3 19.607 C 3 14.9805 3.28073 10.287 3.84219 5.52656 L 8.49375 5.6 C 7.93229 11.3615 7.65156 14.987 7.65156 16.4766 C 8.74948 14.3036 10.2323 12.4542 12.1 10.9281 C 13.9677 9.40208 16.0125 8.34635 18.2344 7.76094 C 18.0635 5.61198 17.8927 4.04948 17.7219 3.07344 L 22.8484 3 C 22.9464 4.17188 23.0563 5.6125 23.1781 7.32188 C 26.425 7.58958 29.0495 8.77943 31.0516 10.8914 C 33.0536 13.0034 34.0547 15.7378 34.0547 19.0945 C 34.0547 22.4513 32.9255 25.2406 30.6672 27.4625 C 28.4089 29.6844 25.5339 30.7953 22.0422 30.7953 C 21.7495 30.7953 21.3349 30.7708 20.7984 30.7219 C 19.4307 33.1635 17.3922 35.1536 14.6828 36.6922 L 9.99531 33.5781 C 12.363 32.5281 14.2182 31.0755 15.5609 29.2203 C 13.7057 28.2682 12.1068 26.95 10.7641 25.2656 L 13.1078 20.6875 C 14.4016 22.4208 15.9271 23.7396 17.6844 24.6438 C 18.3198 22.3969 18.6375 19.5401 18.6375 16.0734 C 18.6375 14.487 18.613 13.2542 18.5641 12.375 C 16.2693 13.1802 14.194 14.7305 12.3383 17.0258 C 10.4826 19.3211 9.15209 22.0313 8.34688 25.1563 C 8.17604 25.7667 8.09063 26.3953 8.09063 27.0422 C 8.09063 27.6891 8.13958 28.6958 8.2375 30.0625 L 3.62188 30.0625 Z M 22.6656 25.7047 C 24.6188 25.5828 26.1813 24.8992 27.3531 23.6539 C 28.525 22.4086 29.1109 20.8279 29.1109 18.9117 C 29.1109 16.9956 28.6044 15.4271 27.5914 14.2063 C 26.5784 12.9854 25.1927 12.2286 23.4344 11.9359 C 23.4833 13.0339 23.5078 14.5354 23.5078 16.4406 C 23.5078 20.151 23.2271 23.2391 22.6656 25.7047 Z" /></svg>