<?xml version="1.0" encoding="utf-8" standalone="no"?>
<!DOCTYPE svg PUBLIC "-//W3C//DTD SVG 1.1//EN"
"http://www.w3.org/Graphics/SVG/1.1/DTD/svg11.dtd">

<svg xmlns="http://www.w3.org/2000/svg" version="1.1" xmlns:xlink="http://www.w3.org/1999/xlink" width="302.196" height="36.5" viewBox="0 0 302.196 36.5"><path stroke="#ffffff" stroke-width="8" stroke-linejoin="round" fill="#ffffff" d="M 27.1 31.7 L 27.1 18.3 L 14.9008 18.3 L 14.9008 21 L 24.3622 21 L 24.3622 22.5493 C 24.3622 26.2174 22.2738 29 16.7361 29 L 14.3628 29 C 9.0467 29 6.8 26.66 6.8 21.3478 L 6.8 16.2778 C 6.8 11.2224 9.01506 8.6 14.3628 8.6 L 17.2424 8.6 C 22.337 8.6 23.8243 10.4325 24.1091 13.3394 L 26.8768 13.3394 C 26.558 8.56781 24.1407 5.8 17.2424 5.8 L 14.3628 5.8 C 7.43287 5.8 4 9.42141 4 16.2778 L 4 21.3478 C 4 28.1462 6.92657 31.7 14.3628 31.7 L 16.7361 31.7 C 19.8372 31.7 22.875 30.9151 24.7103 28.5257 L 24.9 31.7 Z" /><path stroke="#ffffff" stroke-width="8" stroke-linejoin="round" fill="#ffffff" d="M 45.947 14.9 L 45.947 12.1 L 40.8757 12.1 C 37.6428 12.1 35.7727 13.1621 34.6 14.6425 L 34.6 12.1 L 31.8 12.1 L 31.8 31.6986 L 34.6 31.6986 L 34.6 19.5275 C 34.6 16.9285 36.6602 14.9 40.8757 14.9 Z" /><path stroke="#ffffff" stroke-width="8" stroke-linejoin="round" fill="#ffffff" d="M 66.5 23 L 66.5 20.1684 C 66.5 14.7366 63.4477 12.2 57.8243 12.2 L 55.6761 12.2 C 50.5266 12.2 47 14.9578 47 20.0105 L 47 23.8133 C 47 28.5682 49.6713 31.7 55.6761 31.7 L 57.9507 31.7 C 63.5424 31.7 65.7919 29.6778 66.4034 26.2846 L 63.574 26.2846 C 63.1001 28.1928 61.7417 29.1 57.9507 29.1 L 55.6761 29.1 C 52.0114 29.1 49.8 27.6923 49.8 23.8759 L 49.8 23 Z M 63.7 20.8 L 49.8 20.8 L 49.8 20.0105 C 49.8 16.2209 52.2642 14.8 55.6761 14.8 L 57.8243 14.8 C 61.5521 14.8 63.7 16.1578 63.7 20.1684 Z" /><path stroke="#ffffff" stroke-width="8" stroke-linejoin="round" fill="#ffffff" d="M 89.6553 31.5716 L 89.6553 28.7571 L 88.9263 28.7571 C 87.912 28.7571 87.5 27.9467 87.5 26.7935 L 87.5 18.0848 C 87.5 14.0125 84.8287 12.2 79.2593 12.2 L 77.4878 12.2 C 71.8011 12.2 69.6183 14.0437 69.4 17.9237 L 72.3 17.9237 C 72.4582 15.5381 73.7235 14.7 77.4878 14.7 L 79.2593 14.7 C 83.2134 14.7 84.7 15.667 84.7 18.0526 L 84.7 19.6 L 76.6654 19.6 C 71.7075 19.6 69.1464 21.7722 69.1464 25.2038 L 69.1464 26.0142 C 69.1464 29.3889 70.9591 31.7 76.1909 31.7 L 78.9429 31.7 C 82.3277 31.7 84.1624 30.6728 85.2149 29.6136 C 85.8586 30.8654 86.985 31.5716 88.3558 31.5716 Z M 84.7 26.2013 C 83.9409 28.1026 82.1695 29.1 78.7215 29.1 L 76.5704 29.1 C 72.9643 29.1 71.8946 27.5415 71.8946 25.8584 L 71.8946 25.1727 C 71.8946 23.3649 73.1857 21.9 76.5704 21.9 L 84.7 21.9 Z" /><path stroke="#ffffff" stroke-width="8" stroke-linejoin="round" fill="#ffffff" d="M 107.426 14.9 L 107.426 12.1 L 98.9 12.1 L 98.9 7.44075 L 96.1 7.44075 L 96.1 12.1 L 91.3774 12.1 L 91.3774 14.9 L 96.1 14.9 L 96.1 25.986 C 96.1 30.3483 97.7092 31.7 102.228 31.7 L 106.76 31.7 L 106.76 28.9 L 102.672 28.9 C 99.6924 28.9 98.9 28.3298 98.9 25.4475 L 98.9 14.9 Z" /><path stroke="#ffffff" stroke-width="8" stroke-linejoin="round" fill="#ffffff" d="M 127.209 4.7 L 124.828 4.7 L 123.208 12 L 125.558 12 Z M 138.8 29.1133 L 138.8 4 L 136.3 4 L 136.3 28.5433 C 136.3 29.335 135.662 30 134.865 30 L 131.235 30 L 131.235 32.5 L 135.344 32.5 C 137.269 32.5 138.8 31 138.8 29.1133 Z M 131.9 26.675 L 131.9 5.01724 L 129.4 5.01724 L 129.4 26.675 Z M 115.845 12 C 115.496 9.52429 114.83 6.57249 113.943 4.7 L 111.661 4.7 C 112.485 6.85815 113.182 9.39733 113.499 12 Z M 127.685 26.2 L 127.685 23.5 L 120.7 23.5 L 120.7 17.5 L 126.828 17.5 L 126.828 14.9 L 120.7 14.9 L 120.7 4 L 118 4 L 118 14.9 L 111.946 14.9 L 111.946 17.5 L 118 17.5 L 118 23.5 L 111.059 23.5 L 111.059 26.2 L 118 26.2 L 118 32.5 L 120.7 32.5 L 120.7 26.2 Z" /><path stroke="#ffffff" stroke-width="8" stroke-linejoin="round" fill="#ffffff" d="M 171.4 12.4148 L 171.4 6.1 L 158.505 6.1 L 158.505 4.07148 L 155.729 4.07148 L 155.729 6.1 L 142.8 6.1 L 142.8 12.4148 L 145.5 12.4148 L 145.5 8.7 L 168.7 8.7 L 168.7 12.4148 Z M 171.4 32.14 L 171.4 29.5362 L 159.3 29.5362 L 159.3 23.8 L 169.653 23.8 L 169.653 21.4 L 159.3 21.4 L 159.3 16.4 L 170.542 16.4 L 170.542 13.8 L 143.7 13.8 L 143.7 16.4 L 156.5 16.4 L 156.5 29.3786 C 153.705 28.9689 151.264 27.9288 149.392 25.7542 C 149.987 23.9892 150.3 21.9684 150.3 19.7013 L 147.7 19.7013 C 147.7 24.588 145.903 28.0549 142.8 29.4417 L 142.8 32.5 C 145.339 31.6794 147.142 30.1035 148.389 27.9604 C 150.814 30.7338 154.38 32.14 158.982 32.14 Z" /><path stroke="#ffffff" stroke-width="8" stroke-linejoin="round" fill="#ffffff" d="M 203 18.3838 C 203 10.1128 198.417 4.9 190.225 4.9 C 180.002 4.9 175.9 11.4489 175.9 19.8789 C 175.9 26.8774 178.573 31 182.637 31 C 187.781 31 190.765 23.8872 191.368 9.25386 L 188.543 9.25386 C 188.066 21.1832 185.78 27.8 182.732 27.8 C 180.256 27.8 178.7 24.4598 178.7 19.8789 C 178.7 12.7531 181.843 7.6 190.098 7.6 C 196.861 7.6 200.1 12.1169 200.1 18.3201 C 200.1 25.2232 197.306 28.3334 191.337 28.8353 L 191.337 31.8558 C 198.639 31.3486 203 27.4501 203 18.3838 Z" /><path stroke="#ffffff" stroke-width="8" stroke-linejoin="round" fill="#ffffff" d="M 234.905 32.5 L 234.905 29.5532 C 228.059 27.4918 223.209 21.6564 222.29 13.6894 L 234.905 13.6894 L 234.905 10.8 L 222.1 10.8 L 222.1 4 L 219.2 4 L 219.2 10.8 L 206.427 10.8 L 206.427 13.6894 L 219.137 13.6894 C 218.439 21.6564 213.4 27.7455 206.427 29.5532 L 206.427 32.5 C 213.305 31.0754 218.534 26.0329 220.822 19.5 C 223.209 25.8743 228.217 30.8217 234.905 32.5 Z" /><path stroke="#ffffff" stroke-width="8" stroke-linejoin="round" fill="#ffffff" d="M 266.408 18.4 L 266.408 15.8 L 258.041 15.8 C 257.217 13.8864 256.424 11.8772 255.727 9.9 L 265.521 9.9 L 265.521 7.3 L 254.839 7.3 C 254.618 6.6027 254.396 5.8737 254.174 5.17639 L 251.163 5.17639 C 251.385 5.8737 251.606 6.6027 251.828 7.3 L 240.458 7.3 L 240.458 9.9 L 252.684 9.9 C 253.381 11.8772 254.142 13.8864 254.966 15.8 L 239.542 15.8 L 239.542 18.4 L 256.107 18.4 C 257.217 20.788 258.421 22.956 259.625 24.684 L 262.89 24.684 C 261.654 22.956 260.418 20.788 259.245 18.4 Z M 264.443 31.5 L 264.443 28.8 L 250.782 28.8 C 244.475 28.8 242.7 27.826 242.7 25.4695 C 242.7 23.7729 243.397 22.5789 244.729 21.2593 L 241.468 21.2593 C 240.079 22.8931 239.7 24.4327 239.7 26.0979 C 239.7 30.1024 242.827 31.5 250.212 31.5 Z" /><path stroke="#ffffff" stroke-width="8" stroke-linejoin="round" fill="#ffffff" d="M 298.196 11.7 L 298.196 8.9 L 289.797 8.9 C 289.448 7.69556 289.131 6.49113 288.878 5.22331 L 285.867 5.22331 C 286.089 6.49113 286.374 7.72726 286.722 8.9 L 271.832 8.9 L 271.832 11.7 L 287.578 11.7 C 288.973 15.6787 290.811 19.3103 292.871 22.563 L 296.326 22.563 C 293.981 19.0893 292.079 15.4576 290.716 11.7 Z M 296.802 31.3 L 296.802 28.5 L 283.87 28.5 C 277.087 28.5 274.9 26.7947 274.9 23.6683 C 274.9 21.9314 275.471 19.9735 277.182 18.3314 L 273.941 18.3314 C 272.439 20.0998 271.8 22.2788 271.8 24.1736 C 271.8 28.6931 274.995 31.3 283.426 31.3 Z" /><path fill="#000000" d="M 27.1 31.7 L 27.1 18.3 L 14.9008 18.3 L 14.9008 21 L 24.3622 21 L 24.3622 22.5493 C 24.3622 26.2174 22.2738 29 16.7361 29 L 14.3628 29 C 9.0467 29 6.8 26.66 6.8 21.3478 L 6.8 16.2778 C 6.8 11.2224 9.01506 8.6 14.3628 8.6 L 17.2424 8.6 C 22.337 8.6 23.8243 10.4325 24.1091 13.3394 L 26.8768 13.3394 C 26.558 8.56781 24.1407 5.8 17.2424 5.8 L 14.3628 5.8 C 7.43287 5.8 4 9.42141 4 16.2778 L 4 21.3478 C 4 28.1462 6.92657 31.7 14.3628 31.7 L 16.7361 31.7 C 19.8372 31.7 22.875 30.9151 24.7103 28.5257 L 24.9 31.7 Z" /><path fill="#000000" d="M 45.947 14.9 L 45.947 12.1 L 40.8757 12.1 C 37.6428 12.1 35.7727 13.1621 34.6 14.6425 L 34.6 12.1 L 31.8 12.1 L 31.8 31.6986 L 34.6 31.6986 L 34.6 19.5275 C 34.6 16.9285 36.6602 14.9 40.8757 14.9 Z" /><path fill="#000000" d="M 66.5 23 L 66.5 20.1684 C 66.5 14.7366 63.4477 12.2 57.8243 12.2 L 55.6761 12.2 C 50.5266 12.2 47 14.9578 47 20.0105 L 47 23.8133 C 47 28.5682 49.6713 31.7 55.6761 31.7 L 57.9507 31.7 C 63.5424 31.7 65.7919 29.6778 66.4034 26.2846 L 63.574 26.2846 C 63.1001 28.1928 61.7417 29.1 57.9507 29.1 L 55.6761 29.1 C 52.0114 29.1 49.8 27.6923 49.8 23.8759 L 49.8 23 Z M 63.7 20.8 L 49.8 20.8 L 49.8 20.0105 C 49.8 16.2209 52.2642 14.8 55.6761 14.8 L 57.8243 14.8 C 61.5521 14.8 63.7 16.1578 63.7 20.1684 Z" /><path fill="#000000" d="M 89.6553 31.5716 L 89.6553 28.7571 L 88.9263 28.7571 C 87.912 28.7571 87.5 27.9467 87.5 26.7935 L 87.5 18.0848 C 87.5 14.0125 84.8287 12.2 79.2593 12.2 L 77.4878 12.2 C 71.8011 12.2 69.6183 14.0437 69.4 17.9237 L 72.3 17.9237 C 72.4582 15.5381 73.7235 14.7 77.4878 14.7 L 79.2593 14.7 C 83.2134 14.7 84.7 15.667 84.7 18.0526 L 84.7 19.6 L 76.6654 19.6 C 71.7075 19.6 69.1464 21.7722 69.1464 25.2038 L 69.1464 26.0142 C 69.1464 29.3889 70.9591 31.7 76.1909 31.7 L 78.9429 31.7 C 82.3277 31.7 84.1624 30.6728 85.2149 29.6136 C 85.8586 30.8654 86.985 31.5716 88.3558 31.5716 Z M 84.7 26.2013 C 83.9409 28.1026 82.1695 29.1 78.7215 29.1 L 76.5704 29.1 C 72.9643 29.1 71.8946 27.5415 71.8946 25.8584 L 71.8946 25.1727 C 71.8946 23.3649 73.1857 21.9 76.5704 21.9 L 84.7 21.9 Z" /><path fill="#000000" d="M 107.426 14.9 L 107.426 12.1 L 98.9 12.1 L 98.9 7.44075 L 96.1 7.44075 L 96.1 12.1 L 91.3774 12.1 L 91.3774 14.9 L 96.1 14.9 L 96.1 25.986 C 96.1 30.3483 97.7092 31.7 102.228 31.7 L 106.76 31.7 L 106.76 28.9 L 102.672 28.9 C 99.6924 28.9 98.9 28.3298 98.9 25.4475 L 98.9 14.9 Z" /><path fill="#000000" d="M 127.209 4.7 L 124.828 4.7 L 123.208 12 L 125.558 12 Z M 138.8 29.1133 L 138.8 4 L 136.3 4 L 136.3 28.5433 C 136.3 29.335 135.662 30 134.865 30 L 131.235 30 L 131.235 32.5 L 135.344 32.5 C 137.269 32.5 138.8 31 138.8 29.1133 Z M 131.9 26.675 L 131.9 5.01724 L 129.4 5.01724 L 129.4 26.675 Z M 115.845 12 C 115.496 9.52429 114.83 6.57249 113.943 4.7 L 111.661 4.7 C 112.485 6.85815 113.182 9.39733 113.499 12 Z M 127.685 26.2 L 127.685 23.5 L 120.7 23.5 L 120.7 17.5 L 126.828 17.5 L 126.828 14.9 L 120.7 14.9 L 120.7 4 L 118 4 L 118 14.9 L 111.946 14.9 L 111.946 17.5 L 118 17.5 L 118 23.5 L 111.059 23.5 L 111.059 26.2 L 118 26.2 L 118 32.5 L 120.7 32.5 L 120.7 26.2 Z" /><path fill="#000000" d="M 171.4 12.4148 L 171.4 6.1 L 158.505 6.1 L 158.505 4.07148 L 155.729 4.07148 L 155.729 6.1 L 142.8 6.1 L 142.8 12.4148 L 145.5 12.4148 L 145.5 8.7 L 168.7 8.7 L 168.7 12.4148 Z M 171.4 32.14 L 171.4 29.5362 L 159.3 29.5362 L 159.3 23.8 L 169.653 23.8 L 169.653 21.4 L 159.3 21.4 L 159.3 16.4 L 170.542 16.4 L 170.542 13.8 L 143.7 13.8 L 143.7 16.4 L 156.5 16.4 L 156.5 29.3786 C 153.705 28.9689 151.264 27.9288 149.392 25.7542 C 149.987 23.9892 150.3 21.9684 150.3 19.7013 L 147.7 19.7013 C 147.7 24.588 145.903 28.0549 142.8 29.4417 L 142.8 32.5 C 145.339 31.6794 147.142 30.1035 148.389 27.9604 C 150.814 30.7338 154.38 32.14 158.982 32.14 Z" /><path fill="#000000" d="M 203 18.3838 C 203 10.1128 198.417 4.9 190.225 4.9 C 180.002 4.9 175.9 11.4489 175.9 19.8789 C 175.9 26.8774 178.573 31 182.637 31 C 187.781 31 190.765 23.8872 191.368 9.25386 L 188.543 9.25386 C 188.066 21.1832 185.78 27.8 182.732 27.8 C 180.256 27.8 178.7 24.4598 178.7 19.8789 C 178.7 12.7531 181.843 7.6 190.098 7.6 C 196.861 7.6 200.1 12.1169 200.1 18.3201 C 200.1 25.2232 197.306 28.3334 191.337 28.8353 L 191.337 31.8558 C 198.639 31.3486 203 27.4501 203 18.3838 Z" /><path fill="#000000" d="M 234.905 32.5 L 234.905 29.5532 C 228.059 27.4918 223.209 21.6564 222.29 13.6894 L 234.905 13.6894 L 234.905 10.8 L 222.1 10.8 L 222.1 4 L 219.2 4 L 219.2 10.8 L 206.427 10.8 L 206.427 13.6894 L 219.137 13.6894 C 218.439 21.6564 213.4 27.7455 206.427 29.5532 L 206.427 32.5 C 213.305 31.0754 218.534 26.0329 220.822 19.5 C 223.209 25.8743 228.217 30.8217 234.905 32.5 Z" /><path fill="#000000" d="M 266.408 18.4 L 266.408 15.8 L 258.041 15.8 C 257.217 13.8864 256.424 11.8772 255.727 9.9 L 265.521 9.9 L 265.521 7.3 L 254.839 7.3 C 254.618 6.6027 254.396 5.8737 254.174 5.17639 L 251.163 5.17639 C 251.385 5.8737 251.606 6.6027 251.828 7.3 L 240.458 7.3 L 240.458 9.9 L 252.684 9.9 C 253.381 11.8772 254.142 13.8864 254.966 15.8 L 239.542 15.8 L 239.542 18.4 L 256.107 18.4 C 257.217 20.788 258.421 22.956 259.625 24.684 L 262.89 24.684 C 261.654 22.956 260.418 20.788 259.245 18.4 Z M 264.443 31.5 L 264.443 28.8 L 250.782 28.8 C 244.475 28.8 242.7 27.826 242.7 25.4695 C 242.7 23.7729 243.397 22.5789 244.729 21.2593 L 241.468 21.2593 C 240.079 22.8931 239.7 24.4327 239.7 26.0979 C 239.7 30.1024 242.827 31.5 250.212 31.5 Z" /><path fill="#000000" d="M 298.196 11.7 L 298.196 8.9 L 289.797 8.9 C 289.448 7.69556 289.131 6.49113 288.878 5.22331 L 285.867 5.22331 C 286.089 6.49113 286.374 7.72726 286.722 8.9 L 271.832 8.9 L 271.832 11.7 L 287.578 11.7 C 288.973 15.6787 290.811 19.3103 292.871 22.563 L 296.326 22.563 C 293.981 19.0893 292.079 15.4576 290.716 11.7 Z M 296.802 31.3 L 296.802 28.5 L 283.87 28.5 C 277.087 28.5 274.9 26.7947 274.9 23.6683 C 274.9 21.9314 275.471 19.9735 277.182 18.3314 L 273.941 18.3314 C 272.439 20.0998 271.8 22.2788 271.8 24.1736 C 271.8 28.6931 274.995 31.3 283.426 31.3 Z" /></svg>