<?xml version="1.0" encoding="utf-8" standalone="no"?>
<!DOCTYPE svg PUBLIC "-//W3C//DTD SVG 1.1//EN"
"http://www.w3.org/Graphics/SVG/1.1/DTD/svg11.dtd">

<svg xmlns="http://www.w3.org/2000/svg" version="1.1" xmlns:xlink="http://www.w3.org/1999/xlink" width="40.1312" height="40.1672" viewBox="0 0 40.1312 40.1672"><path stroke="#1987e5" stroke-width="6" stroke-linejoin="round" fill="#1987e5" d="M 3 11.8984 L 3.0375 7.175 L 17.0266 6.84531 L 17.0266 11.0562 C 14.7068 12.2042 12.7352 14.0904 11.1117 16.7148 C 9.48828 19.3393 8.67656 21.9026 8.67656 24.4047 C 8.67656 26.9068 9.32969 28.8477 10.6359 30.2273 C 11.9422 31.607 13.8099 32.2969 16.2391 32.2969 C 18.6682 32.2969 20.6276 31.3508 22.1172 29.4586 C 23.6068 27.5664 24.3516 24.9479 24.3516 21.6031 C 24.3516 19.8698 24.144 17.9411 23.7289 15.8172 C 23.3138 13.6932 22.801 11.9474 22.1906 10.5797 C 22.0688 10.263 21.5073 9.22552 20.5063 7.46719 L 25.5594 6.03906 C 27.8792 10.6047 31.4193 14.9625 36.1797 19.1125 L 33.3969 23.1781 C 31.15 21.3958 29.5021 19.7724 28.4531 18.3078 C 28.7948 19.5286 28.9656 20.9932 28.9656 22.7016 C 28.9656 27.1203 27.7693 30.6359 25.3766 33.2484 C 22.9839 35.8609 19.8589 37.1672 16.0016 37.1672 C 12.1443 37.1672 9.15964 36.087 7.04766 33.9266 C 4.93568 31.7661 3.87969 28.8057 3.87969 25.0453 C 3.87969 22.5557 4.40469 20.0841 5.45469 17.6305 C 6.50469 15.1768 7.89636 13.1443 9.62969 11.5328 Z M 29.8797 10.2328 C 29.0255 9.3901 28.5984 8.39505 28.5984 7.24766 C 28.5984 6.10026 29.0258 5.10547 29.8805 4.26328 C 30.7352 3.42109 31.7362 3 32.8836 3 C 34.031 3 35.0258 3.42109 35.868 4.26328 C 36.7102 5.10547 37.1313 6.10026 37.1313 7.24766 C 37.1313 8.39505 36.7102 9.38984 35.868 10.232 C 35.0258 11.0742 34.031 11.4953 32.8836 11.4953 C 31.7362 11.4953 30.7349 11.0745 29.8797 10.2328 Z M 31.2906 5.67344 C 30.8385 6.11302 30.6125 6.63802 30.6125 7.24844 C 30.6125 7.85885 30.8385 8.38984 31.2906 8.84141 C 31.7427 9.29297 32.2737 9.51875 32.8836 9.51875 C 33.4935 9.51875 34.0122 9.29297 34.4398 8.84141 C 34.8675 8.38984 35.0812 7.85885 35.0812 7.24844 C 35.0812 6.63802 34.8675 6.11302 34.4398 5.67344 C 34.0122 5.23385 33.4935 5.01406 32.8836 5.01406 C 32.2737 5.01406 31.7427 5.23385 31.2906 5.67344 Z" /><path fill="#ffffff" d="M 3 11.8984 L 3.0375 7.175 L 17.0266 6.84531 L 17.0266 11.0562 C 14.7068 12.2042 12.7352 14.0904 11.1117 16.7148 C 9.48828 19.3393 8.67656 21.9026 8.67656 24.4047 C 8.67656 26.9068 9.32969 28.8477 10.6359 30.2273 C 11.9422 31.607 13.8099 32.2969 16.2391 32.2969 C 18.6682 32.2969 20.6276 31.3508 22.1172 29.4586 C 23.6068 27.5664 24.3516 24.9479 24.3516 21.6031 C 24.3516 19.8698 24.144 17.9411 23.7289 15.8172 C 23.3138 13.6932 22.801 11.9474 22.1906 10.5797 C 22.0688 10.263 21.5073 9.22552 20.5063 7.46719 L 25.5594 6.03906 C 27.8792 10.6047 31.4193 14.9625 36.1797 19.1125 L 33.3969 23.1781 C 31.15 21.3958 29.5021 19.7724 28.4531 18.3078 C 28.7948 19.5286 28.9656 20.9932 28.9656 22.7016 C 28.9656 27.1203 27.7693 30.6359 25.3766 33.2484 C 22.9839 35.8609 19.8589 37.1672 16.0016 37.1672 C 12.1443 37.1672 9.15964 36.087 7.04766 33.9266 C 4.93568 31.7661 3.87969 28.8057 3.87969 25.0453 C 3.87969 22.5557 4.40469 20.0841 5.45469 17.6305 C 6.50469 15.1768 7.89636 13.1443 9.62969 11.5328 Z M 29.8797 10.2328 C 29.0255 9.3901 28.5984 8.39505 28.5984 7.24766 C 28.5984 6.10026 29.0258 5.10547 29.8805 4.26328 C 30.7352 3.42109 31.7362 3 32.8836 3 C 34.031 3 35.0258 3.42109 35.868 4.26328 C 36.7102 5.10547 37.1313 6.10026 37.1313 7.24766 C 37.1313 8.39505 36.7102 9.38984 35.868 10.232 C 35.0258 11.0742 34.031 11.4953 32.8836 11.4953 C 31.7362 11.4953 30.7349 11.0745 29.8797 10.2328 Z M 31.2906 5.67344 C 30.8385 6.11302 30.6125 6.63802 30.6125 7.24844 C 30.6125 7.85885 30.8385 8.38984 31.2906 8.84141 C 31.7427 9.29297 32.2737 9.51875 32.8836 9.51875 C 33.4935 9.51875 34.0122 9.29297 34.4398 8.84141 C 34.8675 8.38984 35.0812 7.85885 35.0812 7.24844 C 35.0812 6.63802 34.8675 6.11302 34.4398 5.67344 C 34.0122 5.23385 33.4935 5.01406 32.8836 5.01406 C 32.2737 5.01406 31.7427 5.23385 31.2906 5.67344 Z" /></svg>