<?xml version="1.0" encoding="utf-8" standalone="no"?>
<!DOCTYPE svg PUBLIC "-//W3C//DTD SVG 1.1//EN"
"http://www.w3.org/Graphics/SVG/1.1/DTD/svg11.dtd">

<svg xmlns="http://www.w3.org/2000/svg" version="1.1" xmlns:xlink="http://www.w3.org/1999/xlink" width="34.1609" height="39.6906" viewBox="0 0 34.1609 39.6906"><path stroke="#1987e5" stroke-width="6" stroke-linejoin="round" fill="#1987e5" d="M 3 27.8656 C 3 27.7188 3.29323 22.201 3.87969 11.3125 L 8.75 11.3125 C 8.45625 15.2917 8.27292 18.2703 8.2 20.2484 C 9.59167 18.9786 11.3495 17.9594 13.4734 17.1906 C 15.5974 16.4219 17.7214 16.0375 19.8453 16.0375 C 23.312 16.0375 26.0646 16.9224 28.1031 18.6922 C 30.1417 20.462 31.1609 22.8604 31.1609 25.8875 C 31.1609 29.4281 29.7206 32.1138 26.8398 33.9445 C 23.9591 35.7753 19.7234 36.6906 14.1328 36.6906 C 12.6432 36.6906 10.751 36.5932 8.45625 36.3984 L 7.1375 31.3438 C 9.60417 31.7104 11.9724 31.8938 14.2422 31.8938 C 18.0755 31.8938 21.0055 31.3505 23.032 30.2641 C 25.0586 29.1776 26.0719 27.6089 26.0719 25.5578 C 26.0719 23.9953 25.5042 22.7747 24.3687 21.8961 C 23.2333 21.0174 21.512 20.5781 19.2047 20.5781 C 16.8974 20.5781 14.5964 21.2799 12.3016 22.6836 C 10.0068 24.0872 8.49323 25.8146 7.76094 27.8656 Z M 6.625 7.57813 L 8.89531 3 C 13.7057 4.97708 18.9552 6.35625 24.6438 7.1375 L 22.9953 11.8984 C 20.6266 11.5568 17.8737 10.9708 14.7367 10.1406 C 11.5997 9.31042 8.89583 8.45625 6.625 7.57813 Z" /><path fill="#ffffff" d="M 3 27.8656 C 3 27.7188 3.29323 22.201 3.87969 11.3125 L 8.75 11.3125 C 8.45625 15.2917 8.27292 18.2703 8.2 20.2484 C 9.59167 18.9786 11.3495 17.9594 13.4734 17.1906 C 15.5974 16.4219 17.7214 16.0375 19.8453 16.0375 C 23.312 16.0375 26.0646 16.9224 28.1031 18.6922 C 30.1417 20.462 31.1609 22.8604 31.1609 25.8875 C 31.1609 29.4281 29.7206 32.1138 26.8398 33.9445 C 23.9591 35.7753 19.7234 36.6906 14.1328 36.6906 C 12.6432 36.6906 10.751 36.5932 8.45625 36.3984 L 7.1375 31.3438 C 9.60417 31.7104 11.9724 31.8938 14.2422 31.8938 C 18.0755 31.8938 21.0055 31.3505 23.032 30.2641 C 25.0586 29.1776 26.0719 27.6089 26.0719 25.5578 C 26.0719 23.9953 25.5042 22.7747 24.3687 21.8961 C 23.2333 21.0174 21.512 20.5781 19.2047 20.5781 C 16.8974 20.5781 14.5964 21.2799 12.3016 22.6836 C 10.0068 24.0872 8.49323 25.8146 7.76094 27.8656 Z M 6.625 7.57813 L 8.89531 3 C 13.7057 4.97708 18.9552 6.35625 24.6438 7.1375 L 22.9953 11.8984 C 20.6266 11.5568 17.8737 10.9708 14.7367 10.1406 C 11.5997 9.31042 8.89583 8.45625 6.625 7.57813 Z" /></svg>