<?xml version="1.0" encoding="utf-8" standalone="no"?>
<!DOCTYPE svg PUBLIC "-//W3C//DTD SVG 1.1//EN"
"http://www.w3.org/Graphics/SVG/1.1/DTD/svg11.dtd">

<svg xmlns="http://www.w3.org/2000/svg" version="1.1" xmlns:xlink="http://www.w3.org/1999/xlink" width="40.9734" height="32.5859" viewBox="0 0 40.9734 32.5859"><path stroke="#1987e5" stroke-width="6" stroke-linejoin="round" fill="#1987e5" d="M 3 19.0031 C 3.92813 17.9292 6.38177 14.926 10.3609 9.99375 C 11.7036 8.33437 12.8023 7.19323 13.657 6.57031 C 14.5117 5.94739 15.4151 5.63594 16.3672 5.63594 C 17.3193 5.63594 18.2471 5.91068 19.1508 6.46016 C 20.0544 7.00963 21.1406 7.98021 22.4094 9.37187 C 25.6323 12.9365 28.4401 15.9578 30.8328 18.4359 C 33.2255 20.9141 35.6057 23.1536 37.9734 25.1547 L 34.3844 29.5859 C 29.9906 25.4849 25.0958 20.3339 19.7 14.1328 C 18.1865 12.3016 17.1182 11.3859 16.4953 11.3859 C 15.8724 11.3859 15.1094 11.9599 14.2063 13.1078 C 13.7917 13.6203 12.7419 15.0362 11.057 17.3555 C 9.37214 19.6747 8.07813 21.4813 7.175 22.775 Z M 26.1453 5.81875 L 28.6719 4.72031 C 29.7458 5.9901 30.8932 7.72344 32.1141 9.92031 L 29.5516 11.1297 C 28.3057 8.88385 27.1703 7.11354 26.1453 5.81875 Z M 30.3938 4.06094 L 32.8469 3 C 34.2135 4.66042 35.3734 6.36927 36.3266 8.12656 L 33.7625 9.29844 C 32.6635 7.22344 31.5406 5.4776 30.3938 4.06094 Z" /><path fill="#ffffff" d="M 3 19.0031 C 3.92813 17.9292 6.38177 14.926 10.3609 9.99375 C 11.7036 8.33437 12.8023 7.19323 13.657 6.57031 C 14.5117 5.94739 15.4151 5.63594 16.3672 5.63594 C 17.3193 5.63594 18.2471 5.91068 19.1508 6.46016 C 20.0544 7.00963 21.1406 7.98021 22.4094 9.37187 C 25.6323 12.9365 28.4401 15.9578 30.8328 18.4359 C 33.2255 20.9141 35.6057 23.1536 37.9734 25.1547 L 34.3844 29.5859 C 29.9906 25.4849 25.0958 20.3339 19.7 14.1328 C 18.1865 12.3016 17.1182 11.3859 16.4953 11.3859 C 15.8724 11.3859 15.1094 11.9599 14.2063 13.1078 C 13.7917 13.6203 12.7419 15.0362 11.057 17.3555 C 9.37214 19.6747 8.07813 21.4813 7.175 22.775 Z M 26.1453 5.81875 L 28.6719 4.72031 C 29.7458 5.9901 30.8932 7.72344 32.1141 9.92031 L 29.5516 11.1297 C 28.3057 8.88385 27.1703 7.11354 26.1453 5.81875 Z M 30.3938 4.06094 L 32.8469 3 C 34.2135 4.66042 35.3734 6.36927 36.3266 8.12656 L 33.7625 9.29844 C 32.6635 7.22344 31.5406 5.4776 30.3938 4.06094 Z" /></svg>