<?xml version="1.0" encoding="utf-8" standalone="no"?>
<!DOCTYPE svg PUBLIC "-//W3C//DTD SVG 1.1//EN"
"http://www.w3.org/Graphics/SVG/1.1/DTD/svg11.dtd">

<svg xmlns="http://www.w3.org/2000/svg" version="1.1" xmlns:xlink="http://www.w3.org/1999/xlink" width="40.7172" height="40.3875" viewBox="0 0 40.7172 40.3875"><path stroke="#1987e5" stroke-width="6" stroke-linejoin="round" fill="#1987e5" d="M 4.575 37.3875 C 3.525 33.9208 3 29.4714 3 24.0391 C 3 18.6068 3.62292 12.4724 4.86875 5.63594 L 9.88437 5.85625 C 8.59062 11.7396 7.94375 17.4096 7.94375 22.8664 C 7.94375 28.3232 8.54219 32.9682 9.73906 36.8016 L 4.575 37.3875 Z M 13.9312 35.4828 C 12.5031 34.3349 11.7891 32.7784 11.7891 30.8133 C 11.7891 28.8482 12.5643 27.2674 14.1148 26.0711 C 15.6654 24.8747 17.7344 24.2766 20.3219 24.2766 C 21.4448 24.2766 22.5193 24.3865 23.5453 24.6063 L 23.5453 20.5047 L 12.3391 20.5047 L 12.3391 15.8906 L 23.5453 15.8906 L 23.5453 11.4594 L 13.0344 11.4594 L 13.0344 6.88125 L 28.5625 6.88125 C 28.9531 8.2 29.3313 9.60417 29.6969 11.0938 L 32.1875 10.6531 L 32.1875 11.4594 L 28.2687 11.4594 L 28.2687 15.8906 L 34.3484 15.8906 L 34.3484 20.5047 L 28.2687 20.5047 L 28.2687 26.4 C 30.3687 27.5719 32.7125 29.3057 35.3 31.6016 L 32.3344 35.8484 C 30.8208 34.3109 29.3193 32.9927 27.8297 31.8938 C 27.2922 33.5542 26.3094 34.8544 24.8813 35.7945 C 23.4531 36.7346 21.6281 37.2047 19.4063 37.2047 C 17.1844 37.2047 15.3594 36.6307 13.9312 35.4828 Z M 16.4406 30.6859 C 16.4406 32.0526 17.5755 32.7359 19.8453 32.7359 C 21.0661 32.7359 21.9453 32.4919 22.4828 32.0039 C 23.0203 31.5159 23.35 30.637 23.4719 29.3672 C 22.0313 28.7807 20.7982 28.4875 19.7727 28.4875 C 18.7471 28.4875 17.9354 28.6828 17.3375 29.0734 C 16.7396 29.4641 16.4406 30.0016 16.4406 30.6859 Z M 28.4891 4.025 L 31.1984 3.58594 C 31.9307 5.1974 32.5901 7.18698 33.1766 9.55469 L 30.3563 10.1047 C 29.6969 7.41927 29.0745 5.39271 28.4891 4.025 Z M 33.0656 3.43906 L 35.7766 3 C 36.5578 4.78229 37.2047 6.7599 37.7172 8.93281 L 34.9344 9.40781 C 34.324 6.89323 33.701 4.90365 33.0656 3.43906 Z" /><path fill="#ffffff" d="M 4.575 37.3875 C 3.525 33.9208 3 29.4714 3 24.0391 C 3 18.6068 3.62292 12.4724 4.86875 5.63594 L 9.88437 5.85625 C 8.59062 11.7396 7.94375 17.4096 7.94375 22.8664 C 7.94375 28.3232 8.54219 32.9682 9.73906 36.8016 L 4.575 37.3875 Z M 13.9312 35.4828 C 12.5031 34.3349 11.7891 32.7784 11.7891 30.8133 C 11.7891 28.8482 12.5643 27.2674 14.1148 26.0711 C 15.6654 24.8747 17.7344 24.2766 20.3219 24.2766 C 21.4448 24.2766 22.5193 24.3865 23.5453 24.6063 L 23.5453 20.5047 L 12.3391 20.5047 L 12.3391 15.8906 L 23.5453 15.8906 L 23.5453 11.4594 L 13.0344 11.4594 L 13.0344 6.88125 L 28.5625 6.88125 C 28.9531 8.2 29.3313 9.60417 29.6969 11.0938 L 32.1875 10.6531 L 32.1875 11.4594 L 28.2687 11.4594 L 28.2687 15.8906 L 34.3484 15.8906 L 34.3484 20.5047 L 28.2687 20.5047 L 28.2687 26.4 C 30.3687 27.5719 32.7125 29.3057 35.3 31.6016 L 32.3344 35.8484 C 30.8208 34.3109 29.3193 32.9927 27.8297 31.8938 C 27.2922 33.5542 26.3094 34.8544 24.8813 35.7945 C 23.4531 36.7346 21.6281 37.2047 19.4063 37.2047 C 17.1844 37.2047 15.3594 36.6307 13.9312 35.4828 Z M 16.4406 30.6859 C 16.4406 32.0526 17.5755 32.7359 19.8453 32.7359 C 21.0661 32.7359 21.9453 32.4919 22.4828 32.0039 C 23.0203 31.5159 23.35 30.637 23.4719 29.3672 C 22.0313 28.7807 20.7982 28.4875 19.7727 28.4875 C 18.7471 28.4875 17.9354 28.6828 17.3375 29.0734 C 16.7396 29.4641 16.4406 30.0016 16.4406 30.6859 Z M 28.4891 4.025 L 31.1984 3.58594 C 31.9307 5.1974 32.5901 7.18698 33.1766 9.55469 L 30.3563 10.1047 C 29.6969 7.41927 29.0745 5.39271 28.4891 4.025 Z M 33.0656 3.43906 L 35.7766 3 C 36.5578 4.78229 37.2047 6.7599 37.7172 8.93281 L 34.9344 9.40781 C 34.324 6.89323 33.701 4.90365 33.0656 3.43906 Z" /></svg>