<?xml version="1.0" encoding="utf-8" standalone="no"?>
<!DOCTYPE svg PUBLIC "-//W3C//DTD SVG 1.1//EN"
"http://www.w3.org/Graphics/SVG/1.1/DTD/svg11.dtd">

<svg xmlns="http://www.w3.org/2000/svg" version="1.1" xmlns:xlink="http://www.w3.org/1999/xlink" width="38.4469" height="37.7875" viewBox="0 0 38.4469 37.7875"><path stroke="#1987e5" stroke-width="6" stroke-linejoin="round" fill="#1987e5" d="M 3 16.2578 C 4.31875 16.087 5.14896 15.9401 5.49062 15.8172 C 7.07813 15.4266 9.53802 14.3831 12.8703 12.6867 C 16.2026 10.9904 19.1141 9.2875 21.6047 7.57813 L 8.52969 7.83437 L 8.52969 3.25625 L 30.3203 3 L 30.3203 7.02812 C 28.538 8.34688 26.3773 9.77526 23.8383 11.3133 C 21.2992 12.8513 18.9677 14.1328 16.8438 15.1578 C 23.2156 14.5724 29.4167 14.2797 35.4469 14.2797 L 35.4109 18.8578 C 30.3807 18.8578 26.6573 19.1872 24.2406 19.8461 C 21.824 20.5049 19.9992 21.3411 18.7664 22.3547 C 17.5336 23.3682 16.9172 24.4609 16.9172 25.6328 C 16.9172 28.513 20.1031 29.9531 26.475 29.9531 C 27.9396 29.9531 29.551 29.8802 31.3094 29.7344 L 30.8328 34.7516 C 30.1495 34.7755 29.1729 34.7875 27.9031 34.7875 C 22.4583 34.7875 18.4299 34.1099 15.818 32.7547 C 13.206 31.3995 11.9 29.2328 11.9 26.2547 C 11.9 23.2766 13.1693 21.0917 15.7078 19.7 L 3.14687 21.0172 Z" /><path fill="#ffffff" d="M 3 16.2578 C 4.31875 16.087 5.14896 15.9401 5.49062 15.8172 C 7.07813 15.4266 9.53802 14.3831 12.8703 12.6867 C 16.2026 10.9904 19.1141 9.2875 21.6047 7.57813 L 8.52969 7.83437 L 8.52969 3.25625 L 30.3203 3 L 30.3203 7.02812 C 28.538 8.34688 26.3773 9.77526 23.8383 11.3133 C 21.2992 12.8513 18.9677 14.1328 16.8438 15.1578 C 23.2156 14.5724 29.4167 14.2797 35.4469 14.2797 L 35.4109 18.8578 C 30.3807 18.8578 26.6573 19.1872 24.2406 19.8461 C 21.824 20.5049 19.9992 21.3411 18.7664 22.3547 C 17.5336 23.3682 16.9172 24.4609 16.9172 25.6328 C 16.9172 28.513 20.1031 29.9531 26.475 29.9531 C 27.9396 29.9531 29.551 29.8802 31.3094 29.7344 L 30.8328 34.7516 C 30.1495 34.7755 29.1729 34.7875 27.9031 34.7875 C 22.4583 34.7875 18.4299 34.1099 15.818 32.7547 C 13.206 31.3995 11.9 29.2328 11.9 26.2547 C 11.9 23.2766 13.1693 21.0917 15.7078 19.7 L 3.14687 21.0172 Z" /></svg>