<?xml version="1.0" encoding="utf-8" standalone="no"?>
<!DOCTYPE svg PUBLIC "-//W3C//DTD SVG 1.1//EN"
"http://www.w3.org/Graphics/SVG/1.1/DTD/svg11.dtd">

<svg xmlns="http://www.w3.org/2000/svg" version="1.1" xmlns:xlink="http://www.w3.org/1999/xlink" width="37.6406" height="38.6672" viewBox="0 0 37.6406 38.6672"><path stroke="#1987e5" stroke-width="6" stroke-linejoin="round" fill="#1987e5" d="M 3 31.8219 L 21.3844 16.1109 L 6.18594 16.7328 L 6.1125 11.9359 L 29.5141 11.2406 L 29.5141 15.4875 L 20.725 22.4094 C 21.5063 22.5313 22.1411 22.9341 22.6297 23.618 C 23.1182 24.3018 23.5453 25.3641 23.9109 26.8047 C 24.3266 28.1714 24.6563 29.001 24.9 29.2938 C 25.4375 29.9531 26.6216 30.2828 28.4523 30.2828 C 30.2831 30.2828 32.3458 30.063 34.6406 29.6234 L 34.3844 34.8609 C 32.2854 35.0807 30.125 35.1906 27.9031 35.1906 C 25.6813 35.1906 23.9539 34.8854 22.7211 34.275 C 21.4883 33.6646 20.6766 32.6755 20.2859 31.3078 C 20.188 31.0151 20.0354 30.4904 19.8281 29.7336 C 19.6208 28.9768 19.3583 28.2872 19.0406 27.6648 C 18.7229 27.0424 18.2346 26.7313 17.5758 26.7313 C 16.9169 26.7313 16.0625 27.1339 15.0125 27.9391 L 6.44219 35.6672 Z M 10.2875 7.65156 L 10.9109 3 C 16.1109 3.78125 21.6526 4.19635 27.5359 4.24531 L 27.1344 8.85938 C 20.9323 8.81042 15.3167 8.40781 10.2875 7.65156 Z" /><path fill="#ffffff" d="M 3 31.8219 L 21.3844 16.1109 L 6.18594 16.7328 L 6.1125 11.9359 L 29.5141 11.2406 L 29.5141 15.4875 L 20.725 22.4094 C 21.5063 22.5313 22.1411 22.9341 22.6297 23.618 C 23.1182 24.3018 23.5453 25.3641 23.9109 26.8047 C 24.3266 28.1714 24.6563 29.001 24.9 29.2938 C 25.4375 29.9531 26.6216 30.2828 28.4523 30.2828 C 30.2831 30.2828 32.3458 30.063 34.6406 29.6234 L 34.3844 34.8609 C 32.2854 35.0807 30.125 35.1906 27.9031 35.1906 C 25.6813 35.1906 23.9539 34.8854 22.7211 34.275 C 21.4883 33.6646 20.6766 32.6755 20.2859 31.3078 C 20.188 31.0151 20.0354 30.4904 19.8281 29.7336 C 19.6208 28.9768 19.3583 28.2872 19.0406 27.6648 C 18.7229 27.0424 18.2346 26.7313 17.5758 26.7313 C 16.9169 26.7313 16.0625 27.1339 15.0125 27.9391 L 6.44219 35.6672 Z M 10.2875 7.65156 L 10.9109 3 C 16.1109 3.78125 21.6526 4.19635 27.5359 4.24531 L 27.1344 8.85938 C 20.9323 8.81042 15.3167 8.40781 10.2875 7.65156 Z" /></svg>