<?xml version="1.0" encoding="utf-8" standalone="no"?>
<!DOCTYPE svg PUBLIC "-//W3C//DTD SVG 1.1//EN"
"http://www.w3.org/Graphics/SVG/1.1/DTD/svg11.dtd">

<svg xmlns="http://www.w3.org/2000/svg" version="1.1" xmlns:xlink="http://www.w3.org/1999/xlink" width="34.2719" height="32.1844" viewBox="0 0 34.2719 32.1844"><path stroke="#1987e5" stroke-width="6" stroke-linejoin="round" fill="#1987e5" d="M 5.0875 27.4094 C 3.69583 26.225 3 24.7966 3 23.1242 C 3 21.4518 3.65912 19.8953 4.97734 18.4547 C 6.29557 17.0141 8.04115 15.8542 10.2141 14.975 L 10.2141 11.4969 L 4.20781 11.4969 L 4.20781 7.10156 L 10.2516 7.10156 L 10.2516 3 L 14.6094 3 L 14.6094 7.10156 L 20.3219 7.10156 L 20.3219 11.4969 L 14.6094 11.4969 L 14.6094 13.7672 C 15.8302 13.5714 17.0141 13.4734 18.1609 13.4734 C 21.3589 13.4734 23.8674 14.1815 25.6867 15.5977 C 27.506 17.0138 28.4156 18.9182 28.4156 21.3109 C 28.4156 23.7036 27.5794 25.5773 25.907 26.932 C 24.2346 28.2867 21.9823 28.9641 19.15 28.9641 C 18.3927 28.9641 17.7089 28.9156 17.0984 28.8188 L 15.8172 24.1313 C 17.3557 24.351 18.4667 24.4609 19.15 24.4609 C 22.275 24.4609 23.8375 23.3865 23.8375 21.2375 C 23.8375 20.0896 23.3615 19.2107 22.4094 18.6008 C 21.4573 17.9909 20.206 17.6859 18.6555 17.6859 C 17.1049 17.6859 15.7562 17.8078 14.6094 18.0516 L 14.6094 23.6906 C 14.6094 25.6198 14.2615 27.0177 13.5656 27.8844 C 12.8698 28.751 11.6307 29.1844 9.84844 29.1844 C 8.06615 29.1844 6.47917 28.5927 5.0875 27.4094 Z M 7.50469 22.8484 C 7.50469 23.3609 7.68776 23.7943 8.05391 24.1484 C 8.42005 24.5026 8.86562 24.6797 9.39063 24.6797 C 9.91562 24.6797 10.1781 24.3135 10.1781 23.5813 L 10.1781 19.6625 C 8.39583 20.6635 7.50469 21.7255 7.50469 22.8484 Z M 20.6516 8.67656 L 23.1781 5.01406 C 26.1812 6.62552 28.8792 8.50573 31.2719 10.6547 L 28.6344 14.2797 C 26.0469 11.9109 23.3859 10.0432 20.6516 8.67656 Z" /><path fill="#ffffff" d="M 5.0875 27.4094 C 3.69583 26.225 3 24.7966 3 23.1242 C 3 21.4518 3.65912 19.8953 4.97734 18.4547 C 6.29557 17.0141 8.04115 15.8542 10.2141 14.975 L 10.2141 11.4969 L 4.20781 11.4969 L 4.20781 7.10156 L 10.2516 7.10156 L 10.2516 3 L 14.6094 3 L 14.6094 7.10156 L 20.3219 7.10156 L 20.3219 11.4969 L 14.6094 11.4969 L 14.6094 13.7672 C 15.8302 13.5714 17.0141 13.4734 18.1609 13.4734 C 21.3589 13.4734 23.8674 14.1815 25.6867 15.5977 C 27.506 17.0138 28.4156 18.9182 28.4156 21.3109 C 28.4156 23.7036 27.5794 25.5773 25.907 26.932 C 24.2346 28.2867 21.9823 28.9641 19.15 28.9641 C 18.3927 28.9641 17.7089 28.9156 17.0984 28.8188 L 15.8172 24.1313 C 17.3557 24.351 18.4667 24.4609 19.15 24.4609 C 22.275 24.4609 23.8375 23.3865 23.8375 21.2375 C 23.8375 20.0896 23.3615 19.2107 22.4094 18.6008 C 21.4573 17.9909 20.206 17.6859 18.6555 17.6859 C 17.1049 17.6859 15.7562 17.8078 14.6094 18.0516 L 14.6094 23.6906 C 14.6094 25.6198 14.2615 27.0177 13.5656 27.8844 C 12.8698 28.751 11.6307 29.1844 9.84844 29.1844 C 8.06615 29.1844 6.47917 28.5927 5.0875 27.4094 Z M 7.50469 22.8484 C 7.50469 23.3609 7.68776 23.7943 8.05391 24.1484 C 8.42005 24.5026 8.86562 24.6797 9.39063 24.6797 C 9.91562 24.6797 10.1781 24.3135 10.1781 23.5813 L 10.1781 19.6625 C 8.39583 20.6635 7.50469 21.7255 7.50469 22.8484 Z M 20.6516 8.67656 L 23.1781 5.01406 C 26.1812 6.62552 28.8792 8.50573 31.2719 10.6547 L 28.6344 14.2797 C 26.0469 11.9109 23.3859 10.0432 20.6516 8.67656 Z" /></svg>