<?xml version="1.0" encoding="utf-8" standalone="no"?>
<!DOCTYPE svg PUBLIC "-//W3C//DTD SVG 1.1//EN"
"http://www.w3.org/Graphics/SVG/1.1/DTD/svg11.dtd">

<svg xmlns="http://www.w3.org/2000/svg" version="1.1" xmlns:xlink="http://www.w3.org/1999/xlink" width="39.1797" height="37.1281" viewBox="0 0 39.1797 37.1281"><path stroke="#1987e5" stroke-width="6" stroke-linejoin="round" fill="#1987e5" d="M 3 8.85938 L 3.0375 4.13437 L 17.0266 3.80625 L 17.0266 8.01719 C 14.7068 9.16406 12.7352 11.0497 11.1117 13.6742 C 9.48828 16.2987 8.67656 18.8622 8.67656 21.3648 C 8.67656 23.8674 9.32969 25.8086 10.6359 27.1883 C 11.9422 28.568 13.8099 29.2578 16.2391 29.2578 C 18.6682 29.2578 20.6276 28.3117 22.1172 26.4195 C 23.6068 24.5273 24.3516 21.9089 24.3516 18.5641 C 24.3516 16.8307 24.144 14.9021 23.7289 12.7781 C 23.3138 10.6542 22.801 8.90833 22.1906 7.54062 C 22.0688 7.22292 21.5073 6.18542 20.5063 4.42812 L 25.5594 3 C 27.8792 7.56562 31.4193 11.9234 36.1797 16.0734 L 33.3969 20.1391 C 31.15 18.3568 29.5021 16.7328 28.4531 15.2672 C 28.7948 16.488 28.9656 17.9531 28.9656 19.6625 C 28.9656 24.0812 27.7693 27.5969 25.3766 30.2094 C 22.9839 32.8219 19.8589 34.1281 16.0016 34.1281 C 12.1443 34.1281 9.15964 33.0477 7.04766 30.8867 C 4.93568 28.7258 3.87969 25.7656 3.87969 22.0063 C 3.87969 19.5156 4.40469 17.0435 5.45469 14.5898 C 6.50469 12.1362 7.89635 10.1042 9.62969 8.49375 Z" /><path fill="#ffffff" d="M 3 8.85938 L 3.0375 4.13437 L 17.0266 3.80625 L 17.0266 8.01719 C 14.7068 9.16406 12.7352 11.0497 11.1117 13.6742 C 9.48828 16.2987 8.67656 18.8622 8.67656 21.3648 C 8.67656 23.8674 9.32969 25.8086 10.6359 27.1883 C 11.9422 28.568 13.8099 29.2578 16.2391 29.2578 C 18.6682 29.2578 20.6276 28.3117 22.1172 26.4195 C 23.6068 24.5273 24.3516 21.9089 24.3516 18.5641 C 24.3516 16.8307 24.144 14.9021 23.7289 12.7781 C 23.3138 10.6542 22.801 8.90833 22.1906 7.54062 C 22.0688 7.22292 21.5073 6.18542 20.5063 4.42812 L 25.5594 3 C 27.8792 7.56562 31.4193 11.9234 36.1797 16.0734 L 33.3969 20.1391 C 31.15 18.3568 29.5021 16.7328 28.4531 15.2672 C 28.7948 16.488 28.9656 17.9531 28.9656 19.6625 C 28.9656 24.0812 27.7693 27.5969 25.3766 30.2094 C 22.9839 32.8219 19.8589 34.1281 16.0016 34.1281 C 12.1443 34.1281 9.15964 33.0477 7.04766 30.8867 C 4.93568 28.7258 3.87969 25.7656 3.87969 22.0063 C 3.87969 19.5156 4.40469 17.0435 5.45469 14.5898 C 6.50469 12.1362 7.89635 10.1042 9.62969 8.49375 Z" /></svg>