<?xml version="1.0" encoding="utf-8" standalone="no"?>
<!DOCTYPE svg PUBLIC "-//W3C//DTD SVG 1.1//EN"
"http://www.w3.org/Graphics/SVG/1.1/DTD/svg11.dtd">

<svg xmlns="http://www.w3.org/2000/svg" version="1.1" xmlns:xlink="http://www.w3.org/1999/xlink" width="31.4516" height="38.4094" viewBox="0 0 31.4516 38.4094"><path stroke="#1987e5" stroke-width="6" stroke-linejoin="round" fill="#1987e5" d="M 3.07344 23.9469 C 3.02448 22.3354 3 20.5469 3 18.5813 C 3 16.6156 3.28073 11.4219 3.84219 3 L 9.04219 3 C 8.77344 4.92813 8.51719 7.65 8.27344 11.1656 C 9.56719 8.84688 11.1602 7.02813 13.0523 5.70938 C 14.9445 4.39063 16.9036 3.73125 18.9297 3.73125 C 21.8349 3.73125 24.1482 5.00703 25.8695 7.55859 C 27.5909 10.1102 28.4516 13.5464 28.4516 17.8672 C 28.4516 23.6286 26.7424 27.9438 23.3242 30.8125 C 19.906 33.6812 14.6573 35.2135 7.57813 35.4094 L 6.07656 30.2813 L 7.10156 30.2813 C 12.7411 30.2813 16.8854 29.2927 19.5344 27.3156 C 22.1833 25.3385 23.5078 22.1646 23.5078 17.7938 C 23.5078 14.9625 23.0562 12.7227 22.1531 11.0742 C 21.25 9.42578 20.0172 8.60156 18.4547 8.60156 C 16.5984 8.60156 14.651 9.74922 12.6125 12.0445 C 10.574 14.3398 9.1151 17.0375 8.23594 20.1375 C 8.04115 20.7729 7.94375 21.701 7.94375 22.9219 L 7.94375 23.8359 L 3.07344 23.9469 Z" /><path fill="#ffffff" d="M 3.07344 23.9469 C 3.02448 22.3354 3 20.5469 3 18.5813 C 3 16.6156 3.28073 11.4219 3.84219 3 L 9.04219 3 C 8.77344 4.92813 8.51719 7.65 8.27344 11.1656 C 9.56719 8.84688 11.1602 7.02813 13.0523 5.70938 C 14.9445 4.39063 16.9036 3.73125 18.9297 3.73125 C 21.8349 3.73125 24.1482 5.00703 25.8695 7.55859 C 27.5909 10.1102 28.4516 13.5464 28.4516 17.8672 C 28.4516 23.6286 26.7424 27.9438 23.3242 30.8125 C 19.906 33.6812 14.6573 35.2135 7.57813 35.4094 L 6.07656 30.2813 L 7.10156 30.2813 C 12.7411 30.2813 16.8854 29.2927 19.5344 27.3156 C 22.1833 25.3385 23.5078 22.1646 23.5078 17.7938 C 23.5078 14.9625 23.0562 12.7227 22.1531 11.0742 C 21.25 9.42578 20.0172 8.60156 18.4547 8.60156 C 16.5984 8.60156 14.651 9.74922 12.6125 12.0445 C 10.574 14.3398 9.1151 17.0375 8.23594 20.1375 C 8.04115 20.7729 7.94375 21.701 7.94375 22.9219 L 7.94375 23.8359 L 3.07344 23.9469 Z" /></svg>