<?xml version="1.0" encoding="utf-8" standalone="no"?>
<!DOCTYPE svg PUBLIC "-//W3C//DTD SVG 1.1//EN"
"http://www.w3.org/Graphics/SVG/1.1/DTD/svg11.dtd">

<svg xmlns="http://www.w3.org/2000/svg" version="1.1" xmlns:xlink="http://www.w3.org/1999/xlink" width="39.2531" height="40.0938" viewBox="0 0 39.2531 40.0938"><path stroke="#1987e5" stroke-width="6" stroke-linejoin="round" fill="#1987e5" d="M 3 28.6344 C 3 26.2906 3.97656 24.1297 5.92969 22.1516 L 10.4719 24.2766 C 8.98229 25.7411 8.2375 27.0716 8.2375 28.268 C 8.2375 29.4643 9.08594 30.4164 10.7828 31.1242 C 12.4797 31.832 15.0982 32.1859 18.6383 32.1859 C 22.1784 32.1859 26.2432 31.7344 30.8328 30.8312 L 30.9422 36.0313 C 27.5245 36.7396 23.5083 37.0938 18.8937 37.0938 C 8.29792 37.0938 3 34.274 3 28.6344 Z M 5.23438 11.825 L 5.23438 7.10156 C 8.89688 7.34531 12.675 7.46719 16.5688 7.46719 C 20.4625 7.46719 23.9719 7.41823 27.0969 7.32031 L 28.7813 11.7516 C 25.4854 13.0943 21.9578 14.9984 18.1984 17.4641 L 13.6578 15.1203 C 14.9026 14.2422 16.4161 13.2901 18.1984 12.2641 L 16.4406 12.3016 C 12.2417 12.3016 8.50625 12.1427 5.23438 11.825 Z M 26.6938 4.31719 L 29.3672 3.65937 C 30.2703 5.22187 31.1125 7.12604 31.8938 9.37187 L 29.1844 10.1047 C 28.4031 7.88281 27.5729 5.95364 26.6938 4.31719 Z M 31.0516 3.65937 L 33.6516 3 C 34.7266 4.95312 35.5938 6.83281 36.2531 8.63906 L 33.5422 9.37187 C 32.7609 7.12604 31.9307 5.22187 31.0516 3.65937 Z" /><path fill="#ffffff" d="M 3 28.6344 C 3 26.2906 3.97656 24.1297 5.92969 22.1516 L 10.4719 24.2766 C 8.98229 25.7411 8.2375 27.0716 8.2375 28.268 C 8.2375 29.4643 9.08594 30.4164 10.7828 31.1242 C 12.4797 31.832 15.0982 32.1859 18.6383 32.1859 C 22.1784 32.1859 26.2432 31.7344 30.8328 30.8312 L 30.9422 36.0313 C 27.5245 36.7396 23.5083 37.0938 18.8937 37.0938 C 8.29792 37.0938 3 34.274 3 28.6344 Z M 5.23438 11.825 L 5.23438 7.10156 C 8.89688 7.34531 12.675 7.46719 16.5688 7.46719 C 20.4625 7.46719 23.9719 7.41823 27.0969 7.32031 L 28.7813 11.7516 C 25.4854 13.0943 21.9578 14.9984 18.1984 17.4641 L 13.6578 15.1203 C 14.9026 14.2422 16.4161 13.2901 18.1984 12.2641 L 16.4406 12.3016 C 12.2417 12.3016 8.50625 12.1427 5.23438 11.825 Z M 26.6938 4.31719 L 29.3672 3.65937 C 30.2703 5.22187 31.1125 7.12604 31.8938 9.37187 L 29.1844 10.1047 C 28.4031 7.88281 27.5729 5.95364 26.6938 4.31719 Z M 31.0516 3.65937 L 33.6516 3 C 34.7266 4.95312 35.5938 6.83281 36.2531 8.63906 L 33.5422 9.37187 C 32.7609 7.12604 31.9307 5.22187 31.0516 3.65937 Z" /></svg>