<?xml version="1.0" encoding="utf-8" standalone="no"?>
<!DOCTYPE svg PUBLIC "-//W3C//DTD SVG 1.1//EN"
"http://www.w3.org/Graphics/SVG/1.1/DTD/svg11.dtd">

<svg xmlns="http://www.w3.org/2000/svg" version="1.1" xmlns:xlink="http://www.w3.org/1999/xlink" width="162.787" height="36.6" viewBox="0 0 162.787 36.6"><path stroke="#ffffff" stroke-width="8" stroke-linejoin="round" fill="#ffffff" d="M 32.5875 32.5 L 32.5875 29.2902 C 30.5582 27.98 28.7185 26.2521 27.1956 24.2361 C 30.6216 19.3012 32.5875 13.304 32.5875 7.00506 L 32.5875 4.6 L 19.6754 4.6 L 19.6754 7.1 L 29.9875 7.1 C 29.7973 12.5682 28.2426 17.6058 25.5458 21.8608 C 23.6421 18.6733 22.4047 15.0315 22.0875 11.1376 L 19.4875 11.1694 C 19.926 16.0675 21.4296 20.4933 23.8642 24.2361 C 22.4047 26.1241 20.7405 27.82 18.809 29.2902 L 18.809 32.5 C 21.3356 30.9073 23.5787 28.876 25.514 26.508 C 27.4812 28.94 29.8607 30.9707 32.5875 32.5 Z M 18.2275 7.1 L 18.2275 4.6 L 4 4.6 L 4 7.1 L 4.88748 7.1 L 4.88748 29.1634 C 4.60222 29.1634 4.31696 29.1317 4 29.1317 L 4 31.7 C 8.81723 31.7 11.7813 31.6366 14.5875 30.5585 L 14.5875 32.5 L 17.3875 32.5 L 17.3875 7.1 Z M 14.5875 12.6 L 7.58747 12.6 L 7.58747 7.1 L 14.5875 7.1 Z M 14.5875 20.4 L 7.58747 20.4 L 7.58747 15 L 14.5875 15 Z M 14.5875 27.916 C 12.475 28.876 10.3308 29.1 7.58747 29.1317 L 7.58747 22.7 L 14.5875 22.7 Z" /><path stroke="#ffffff" stroke-width="8" stroke-linejoin="round" fill="#ffffff" d="M 63.3875 16.1 L 63.3875 4.57375 L 46.6875 4.57375 L 46.6875 16.1 Z M 45.2751 4 L 42.5444 4 C 41.6254 6.67653 38.8946 9.73512 35.6875 10.914 L 35.6875 13.8132 C 40.006 12.2202 43.6116 8.81117 45.2751 4 Z M 64.2432 25.6 L 64.2432 23.4 L 62.5284 23.4 L 62.5284 20.7 L 64.2432 20.7 L 64.2432 18.4 L 45.8401 18.4 L 45.8401 20.7 L 59.7652 20.7 L 59.7652 23.4 L 45.8401 23.4 L 45.8401 25.6 L 59.7652 25.6 L 59.7652 29.05 C 59.7652 29.6569 59.2276 30.2 58.6268 30.2 L 54.7687 30.2 L 54.7687 32.6 L 59.1644 32.6 C 61.1602 32.6 62.5284 31.192 62.5284 29.2417 L 62.5284 25.6 Z M 50.5943 31.736 L 49.5191 26.9097 L 46.8162 26.9097 L 47.8783 31.736 Z M 45.1809 12.4114 L 42.4816 12.4114 C 41.5936 15.6161 38.8311 18.8472 35.6875 20.4444 L 35.6875 23.5571 C 37.1799 22.8918 38.577 22.0024 39.7837 20.9859 L 39.7837 32.6 L 42.3875 32.6 L 42.3875 18.9431 L 41.8159 18.9431 C 43.3919 17.1426 44.5532 14.9387 45.1809 12.4114 Z M 60.5875 9.32094 L 49.4875 9.32094 L 49.4875 6.58095 L 60.5875 6.58095 Z M 60.5875 14.1 L 49.4875 14.1 L 49.4875 11.2644 L 60.5875 11.2644 Z" /><path stroke="#ffffff" stroke-width="8" stroke-linejoin="round" fill="#ffffff" d="M 95.8875 31.2 L 95.8875 6.7 L 71.2126 6.7 L 71.2126 9.5 L 92.9875 9.5 L 92.9875 28.4 L 71.2126 28.4 L 71.2126 31.2 Z" /><path stroke="#ffffff" stroke-width="8" stroke-linejoin="round" fill="#ffffff" d="M 128.387 5.04354 L 125.287 5.04354 C 124.971 8.94209 121.964 10.8121 117.208 12.0799 L 101.129 16.3905 L 101.129 19.3065 L 115.487 15.5031 L 115.487 31.6995 L 118.387 31.6995 L 118.387 14.7107 C 123.99 13.0942 127.876 10.6853 128.387 5.04354 Z" /><path stroke="#ffffff" stroke-width="8" stroke-linejoin="round" fill="#ffffff" d="M 146.918 12.6288 L 146.918 9.48176 C 144.002 7.81011 137.536 6.3 133.067 6.3 L 133.067 9.1 C 137.377 9.1 143.209 10.6897 146.918 12.6288 Z M 158.787 13.0739 L 158.787 6.96068 L 155.887 6.96068 L 155.887 13.1692 C 155.887 20.0992 154.62 29 140.515 29 L 132.623 29 L 132.623 31.8 L 140.737 31.8 C 157.756 31.8 158.787 20.3853 158.787 13.0739 Z" /><path fill="#000000" d="M 32.5875 32.5 L 32.5875 29.2902 C 30.5582 27.98 28.7185 26.2521 27.1956 24.2361 C 30.6216 19.3012 32.5875 13.304 32.5875 7.00506 L 32.5875 4.6 L 19.6754 4.6 L 19.6754 7.1 L 29.9875 7.1 C 29.7973 12.5682 28.2426 17.6058 25.5458 21.8608 C 23.6421 18.6733 22.4047 15.0315 22.0875 11.1376 L 19.4875 11.1694 C 19.926 16.0675 21.4296 20.4933 23.8642 24.2361 C 22.4047 26.1241 20.7405 27.82 18.809 29.2902 L 18.809 32.5 C 21.3356 30.9073 23.5787 28.876 25.514 26.508 C 27.4812 28.94 29.8607 30.9707 32.5875 32.5 Z M 18.2275 7.1 L 18.2275 4.6 L 4 4.6 L 4 7.1 L 4.88748 7.1 L 4.88748 29.1634 C 4.60222 29.1634 4.31696 29.1317 4 29.1317 L 4 31.7 C 8.81723 31.7 11.7813 31.6366 14.5875 30.5585 L 14.5875 32.5 L 17.3875 32.5 L 17.3875 7.1 Z M 14.5875 12.6 L 7.58747 12.6 L 7.58747 7.1 L 14.5875 7.1 Z M 14.5875 20.4 L 7.58747 20.4 L 7.58747 15 L 14.5875 15 Z M 14.5875 27.916 C 12.475 28.876 10.3308 29.1 7.58747 29.1317 L 7.58747 22.7 L 14.5875 22.7 Z" /><path fill="#000000" d="M 63.3875 16.1 L 63.3875 4.57375 L 46.6875 4.57375 L 46.6875 16.1 Z M 45.2751 4 L 42.5444 4 C 41.6254 6.67653 38.8946 9.73512 35.6875 10.914 L 35.6875 13.8132 C 40.006 12.2202 43.6116 8.81117 45.2751 4 Z M 64.2432 25.6 L 64.2432 23.4 L 62.5284 23.4 L 62.5284 20.7 L 64.2432 20.7 L 64.2432 18.4 L 45.8401 18.4 L 45.8401 20.7 L 59.7652 20.7 L 59.7652 23.4 L 45.8401 23.4 L 45.8401 25.6 L 59.7652 25.6 L 59.7652 29.05 C 59.7652 29.6569 59.2276 30.2 58.6268 30.2 L 54.7687 30.2 L 54.7687 32.6 L 59.1644 32.6 C 61.1602 32.6 62.5284 31.192 62.5284 29.2417 L 62.5284 25.6 Z M 50.5943 31.736 L 49.5191 26.9097 L 46.8162 26.9097 L 47.8783 31.736 Z M 45.1809 12.4114 L 42.4816 12.4114 C 41.5936 15.6161 38.8311 18.8472 35.6875 20.4444 L 35.6875 23.5571 C 37.1799 22.8918 38.577 22.0024 39.7837 20.9859 L 39.7837 32.6 L 42.3875 32.6 L 42.3875 18.9431 L 41.8159 18.9431 C 43.3919 17.1426 44.5532 14.9387 45.1809 12.4114 Z M 60.5875 9.32094 L 49.4875 9.32094 L 49.4875 6.58095 L 60.5875 6.58095 Z M 60.5875 14.1 L 49.4875 14.1 L 49.4875 11.2644 L 60.5875 11.2644 Z" /><path fill="#000000" d="M 95.8875 31.2 L 95.8875 6.7 L 71.2126 6.7 L 71.2126 9.5 L 92.9875 9.5 L 92.9875 28.4 L 71.2126 28.4 L 71.2126 31.2 Z" /><path fill="#000000" d="M 128.387 5.04354 L 125.287 5.04354 C 124.971 8.94209 121.964 10.8121 117.208 12.0799 L 101.129 16.3905 L 101.129 19.3065 L 115.487 15.5031 L 115.487 31.6995 L 118.387 31.6995 L 118.387 14.7107 C 123.99 13.0942 127.876 10.6853 128.387 5.04354 Z" /><path fill="#000000" d="M 146.918 12.6288 L 146.918 9.48176 C 144.002 7.81011 137.536 6.3 133.067 6.3 L 133.067 9.1 C 137.377 9.1 143.209 10.6897 146.918 12.6288 Z M 158.787 13.0739 L 158.787 6.96068 L 155.887 6.96068 L 155.887 13.1692 C 155.887 20.0992 154.62 29 140.515 29 L 132.623 29 L 132.623 31.8 L 140.737 31.8 C 157.756 31.8 158.787 20.3853 158.787 13.0739 Z" /></svg>