<?xml version="1.0" encoding="utf-8" standalone="no"?>
<!DOCTYPE svg PUBLIC "-//W3C//DTD SVG 1.1//EN"
"http://www.w3.org/Graphics/SVG/1.1/DTD/svg11.dtd">

<svg xmlns="http://www.w3.org/2000/svg" version="1.1" xmlns:xlink="http://www.w3.org/1999/xlink" width="40.4234" height="38.9953" viewBox="0 0 40.4234 38.9953"><path stroke="#1987e5" stroke-width="6" stroke-linejoin="round" fill="#1987e5" d="M 3 28.4875 C 6.00313 24.9719 8.725 21.1755 11.1656 17.0984 L 11.2031 14.8641 L 4.13438 14.8641 L 4.13438 10.0672 L 11.3125 10.0672 L 11.5688 3 L 16.4766 3 C 16.3057 6.27083 16.1594 9.70104 16.0375 13.2906 C 18.6979 10.5073 22.0422 9.11563 26.0703 9.11563 C 29.6349 9.11563 32.4182 10.2021 34.4203 12.375 C 36.4224 14.5479 37.4234 17.5875 37.4234 21.4938 C 37.4234 30.0875 32.2964 34.6406 22.0422 35.1531 L 19.8094 29.8797 C 20.126 29.9036 20.5896 29.9156 21.2 29.9156 C 28.5729 29.9156 32.2594 27.0349 32.2594 21.2734 C 32.2594 18.9536 31.7102 17.1469 30.6117 15.8531 C 29.5133 14.5594 28.012 13.9125 26.1078 13.9125 C 24.2036 13.9125 22.3422 14.468 20.5234 15.5789 C 18.7047 16.6898 17.1479 18.1974 15.8531 20.1016 C 15.8052 22.3234 15.7813 25.2716 15.7813 28.9461 C 15.7813 32.6206 15.7932 34.9703 15.8172 35.9953 L 10.9828 35.9953 C 10.9828 31.3807 10.9953 27.975 11.0203 25.7781 L 5.85625 33.1016 Z" /><path fill="#ffffff" d="M 3 28.4875 C 6.00313 24.9719 8.725 21.1755 11.1656 17.0984 L 11.2031 14.8641 L 4.13438 14.8641 L 4.13438 10.0672 L 11.3125 10.0672 L 11.5688 3 L 16.4766 3 C 16.3057 6.27083 16.1594 9.70104 16.0375 13.2906 C 18.6979 10.5073 22.0422 9.11563 26.0703 9.11563 C 29.6349 9.11563 32.4182 10.2021 34.4203 12.375 C 36.4224 14.5479 37.4234 17.5875 37.4234 21.4938 C 37.4234 30.0875 32.2964 34.6406 22.0422 35.1531 L 19.8094 29.8797 C 20.126 29.9036 20.5896 29.9156 21.2 29.9156 C 28.5729 29.9156 32.2594 27.0349 32.2594 21.2734 C 32.2594 18.9536 31.7102 17.1469 30.6117 15.8531 C 29.5133 14.5594 28.012 13.9125 26.1078 13.9125 C 24.2036 13.9125 22.3422 14.468 20.5234 15.5789 C 18.7047 16.6898 17.1479 18.1974 15.8531 20.1016 C 15.8052 22.3234 15.7813 25.2716 15.7813 28.9461 C 15.7813 32.6206 15.7932 34.9703 15.8172 35.9953 L 10.9828 35.9953 C 10.9828 31.3807 10.9953 27.975 11.0203 25.7781 L 5.85625 33.1016 Z" /></svg>