<?xml version="1.0" encoding="utf-8" standalone="no"?>
<!DOCTYPE svg PUBLIC "-//W3C//DTD SVG 1.1//EN"
"http://www.w3.org/Graphics/SVG/1.1/DTD/svg11.dtd">

<svg xmlns="http://www.w3.org/2000/svg" version="1.1" xmlns:xlink="http://www.w3.org/1999/xlink" width="38.1906" height="40.0578" viewBox="0 0 38.1906 40.0578"><path stroke="#1987e5" stroke-width="6" stroke-linejoin="round" fill="#1987e5" d="M 3 28.0125 C 3 25.2531 3.84245 22.7628 5.52734 20.5414 C 7.21224 18.3201 9.49479 16.6109 12.375 15.4141 C 12.375 14.6578 12.3995 13.376 12.4484 11.5687 L 4.35469 11.5687 L 4.35469 7.02812 L 12.6688 6.99219 C 12.6927 6.47865 12.7901 5.14792 12.9609 3 L 17.8688 3.03594 C 17.7958 3.72031 17.674 5.03906 17.5031 6.99219 L 32.8094 6.99219 L 32.8094 11.5687 L 17.2453 11.5687 C 17.2214 12.1552 17.2094 12.9854 17.2094 14.0594 C 18.3573 13.8646 19.6755 13.7672 21.1641 13.7672 C 25.4859 13.7672 28.9042 14.7865 31.4188 16.825 C 33.9333 18.8635 35.1906 21.5612 35.1906 24.918 C 35.1906 28.2747 34.0674 30.9846 31.8211 33.0477 C 29.5747 35.1107 26.3401 36.4474 22.1172 37.0578 L 19.1875 32.5891 C 22.849 32.3453 25.632 31.5581 27.5367 30.2273 C 29.4414 28.8966 30.3938 27.2182 30.3938 25.1922 C 30.3938 23.1661 29.588 21.5182 27.9766 20.2484 C 25.388 24.6182 22.3786 28.201 18.9484 30.9969 C 15.5182 33.7927 12.363 35.1906 9.48281 35.1906 C 7.50469 35.1906 5.92969 34.5435 4.75781 33.2492 C 3.58594 31.9549 3 30.2094 3 28.0125 Z M 7.725 27.6453 C 7.725 29.4036 8.42083 30.2828 9.8125 30.2828 C 10.8135 30.2828 12.0219 29.8432 13.4375 28.9641 C 12.949 26.5224 12.6318 23.6417 12.4859 20.3219 C 11.0203 21.225 9.86042 22.3174 9.00625 23.5992 C 8.15209 24.881 7.725 26.2297 7.725 27.6453 Z M 17.2094 18.4547 C 17.2823 21.1401 17.4656 23.4714 17.7594 25.4484 C 19.9563 23.2516 21.8359 20.8714 23.3984 18.3078 C 22.5443 18.1609 21.5677 18.0875 20.4688 18.0875 C 19.3698 18.0875 18.2833 18.2099 17.2094 18.4547 Z" /><path fill="#ffffff" d="M 3 28.0125 C 3 25.2531 3.84245 22.7628 5.52734 20.5414 C 7.21224 18.3201 9.49479 16.6109 12.375 15.4141 C 12.375 14.6578 12.3995 13.376 12.4484 11.5687 L 4.35469 11.5687 L 4.35469 7.02812 L 12.6688 6.99219 C 12.6927 6.47865 12.7901 5.14792 12.9609 3 L 17.8688 3.03594 C 17.7958 3.72031 17.674 5.03906 17.5031 6.99219 L 32.8094 6.99219 L 32.8094 11.5687 L 17.2453 11.5687 C 17.2214 12.1552 17.2094 12.9854 17.2094 14.0594 C 18.3573 13.8646 19.6755 13.7672 21.1641 13.7672 C 25.4859 13.7672 28.9042 14.7865 31.4188 16.825 C 33.9333 18.8635 35.1906 21.5612 35.1906 24.918 C 35.1906 28.2747 34.0674 30.9846 31.8211 33.0477 C 29.5747 35.1107 26.3401 36.4474 22.1172 37.0578 L 19.1875 32.5891 C 22.849 32.3453 25.632 31.5581 27.5367 30.2273 C 29.4414 28.8966 30.3938 27.2182 30.3938 25.1922 C 30.3938 23.1661 29.588 21.5182 27.9766 20.2484 C 25.388 24.6182 22.3786 28.201 18.9484 30.9969 C 15.5182 33.7927 12.363 35.1906 9.48281 35.1906 C 7.50469 35.1906 5.92969 34.5435 4.75781 33.2492 C 3.58594 31.9549 3 30.2094 3 28.0125 Z M 7.725 27.6453 C 7.725 29.4036 8.42083 30.2828 9.8125 30.2828 C 10.8135 30.2828 12.0219 29.8432 13.4375 28.9641 C 12.949 26.5224 12.6318 23.6417 12.4859 20.3219 C 11.0203 21.225 9.86042 22.3174 9.00625 23.5992 C 8.15209 24.881 7.725 26.2297 7.725 27.6453 Z M 17.2094 18.4547 C 17.2823 21.1401 17.4656 23.4714 17.7594 25.4484 C 19.9563 23.2516 21.8359 20.8714 23.3984 18.3078 C 22.5443 18.1609 21.5677 18.0875 20.4688 18.0875 C 19.3698 18.0875 18.2833 18.2099 17.2094 18.4547 Z" /></svg>