<?xml version="1.0" encoding="utf-8" standalone="no"?>
<!DOCTYPE svg PUBLIC "-//W3C//DTD SVG 1.1//EN"
"http://www.w3.org/Graphics/SVG/1.1/DTD/svg11.dtd">

<svg xmlns="http://www.w3.org/2000/svg" version="1.1" xmlns:xlink="http://www.w3.org/1999/xlink" width="40.9734" height="32.3672" viewBox="0 0 40.9734 32.3672"><path stroke="#1987e5" stroke-width="6" stroke-linejoin="round" fill="#1987e5" d="M 3 18.7844 C 3.92813 17.7104 6.38177 14.7073 10.3609 9.775 C 11.7036 8.11562 12.8023 6.97448 13.657 6.35156 C 14.5117 5.72864 15.4151 5.41719 16.3672 5.41719 C 17.3193 5.41719 18.2471 5.69193 19.1508 6.24141 C 20.0544 6.79088 21.1406 7.76146 22.4094 9.15312 C 25.6323 12.7177 28.4401 15.7391 30.8328 18.2172 C 33.2255 20.6953 35.6057 22.9349 37.9734 24.9359 L 34.3844 29.3672 C 29.9906 25.2661 25.0958 20.1151 19.7 13.9141 C 18.1865 12.0828 17.1182 11.1672 16.4953 11.1672 C 15.8724 11.1672 15.1094 11.7411 14.2063 12.8891 C 13.7917 13.4016 12.7419 14.8174 11.057 17.1367 C 9.37214 19.456 8.07813 21.2625 7.175 22.5562 Z M 28.5063 10.2344 C 27.6646 9.39167 27.2437 8.39661 27.2437 7.24922 C 27.2437 6.10182 27.6648 5.10677 28.507 4.26406 C 29.3492 3.42135 30.344 3 31.4914 3 C 32.6388 3 33.6398 3.42135 34.4945 4.26406 C 35.3492 5.10677 35.7766 6.10182 35.7766 7.24922 C 35.7766 8.39661 35.3492 9.39141 34.4945 10.2336 C 33.6398 11.0758 32.6388 11.4969 31.4914 11.4969 C 30.344 11.4969 29.349 11.076 28.5063 10.2344 Z M 29.9172 5.67344 C 29.4776 6.11302 29.2578 6.63802 29.2578 7.24844 C 29.2578 7.85885 29.4776 8.38984 29.9172 8.84141 C 30.3568 9.29297 30.8818 9.51875 31.4922 9.51875 C 32.1026 9.51875 32.6273 9.29297 33.0664 8.84141 C 33.5055 8.38984 33.725 7.85885 33.725 7.24844 C 33.725 6.63802 33.5055 6.11302 33.0664 5.67344 C 32.6273 5.23385 32.1026 5.01406 31.4922 5.01406 C 30.8818 5.01406 30.3568 5.23385 29.9172 5.67344 Z" /><path fill="#ffffff" d="M 3 18.7844 C 3.92813 17.7104 6.38177 14.7073 10.3609 9.775 C 11.7036 8.11562 12.8023 6.97448 13.657 6.35156 C 14.5117 5.72864 15.4151 5.41719 16.3672 5.41719 C 17.3193 5.41719 18.2471 5.69193 19.1508 6.24141 C 20.0544 6.79088 21.1406 7.76146 22.4094 9.15312 C 25.6323 12.7177 28.4401 15.7391 30.8328 18.2172 C 33.2255 20.6953 35.6057 22.9349 37.9734 24.9359 L 34.3844 29.3672 C 29.9906 25.2661 25.0958 20.1151 19.7 13.9141 C 18.1865 12.0828 17.1182 11.1672 16.4953 11.1672 C 15.8724 11.1672 15.1094 11.7411 14.2063 12.8891 C 13.7917 13.4016 12.7419 14.8174 11.057 17.1367 C 9.37214 19.456 8.07813 21.2625 7.175 22.5562 Z M 28.5063 10.2344 C 27.6646 9.39167 27.2437 8.39661 27.2437 7.24922 C 27.2437 6.10182 27.6648 5.10677 28.507 4.26406 C 29.3492 3.42135 30.344 3 31.4914 3 C 32.6388 3 33.6398 3.42135 34.4945 4.26406 C 35.3492 5.10677 35.7766 6.10182 35.7766 7.24922 C 35.7766 8.39661 35.3492 9.39141 34.4945 10.2336 C 33.6398 11.0758 32.6388 11.4969 31.4914 11.4969 C 30.344 11.4969 29.349 11.076 28.5063 10.2344 Z M 29.9172 5.67344 C 29.4776 6.11302 29.2578 6.63802 29.2578 7.24844 C 29.2578 7.85885 29.4776 8.38984 29.9172 8.84141 C 30.3568 9.29297 30.8818 9.51875 31.4922 9.51875 C 32.1026 9.51875 32.6273 9.29297 33.0664 8.84141 C 33.5055 8.38984 33.725 7.85885 33.725 7.24844 C 33.725 6.63802 33.5055 6.11302 33.0664 5.67344 C 32.6273 5.23385 32.1026 5.01406 31.4922 5.01406 C 30.8818 5.01406 30.3568 5.23385 29.9172 5.67344 Z" /></svg>