<?xml version="1.0" encoding="utf-8" standalone="no"?>
<!DOCTYPE svg PUBLIC "-//W3C//DTD SVG 1.1//EN"
"http://www.w3.org/Graphics/SVG/1.1/DTD/svg11.dtd">

<svg xmlns="http://www.w3.org/2000/svg" version="1.1" xmlns:xlink="http://www.w3.org/1999/xlink" width="37.0922" height="37.8594" viewBox="0 0 37.0922 37.8594"><path stroke="#1987e5" stroke-width="6" stroke-linejoin="round" fill="#1987e5" d="M 3 22.1891 L 20.5422 7.72344 L 7.54219 7.97969 L 7.54219 3.25625 L 28.8922 3 L 28.8922 7.32031 L 19.8828 14.1688 C 20.9568 13.8271 22.0552 13.6563 23.1781 13.6563 C 26.426 13.6563 29.057 14.5839 31.0711 16.4391 C 33.0852 18.2943 34.0922 20.7234 34.0922 23.7266 C 34.0922 27.2182 32.5969 29.9466 29.6063 31.9117 C 26.6156 33.8768 22.4589 34.8594 17.1359 34.8594 C 15.5245 34.8594 14.1083 34.7984 12.8875 34.6766 L 10.5813 29.2938 C 13.0229 29.7333 15.3911 29.9531 17.6859 29.9531 C 21.2995 29.9531 24.0828 29.3914 26.0359 28.268 C 27.9891 27.1445 28.9656 25.5453 28.9656 23.4703 C 28.9656 21.737 28.3734 20.3943 27.1891 19.4422 C 26.0047 18.4901 24.3141 18.0141 22.1172 18.0141 C 18.8214 18.0141 15.4885 19.1125 12.1188 21.3094 C 10.825 22.1396 8.7375 23.8365 5.85625 26.4 Z" /><path fill="#ffffff" d="M 3 22.1891 L 20.5422 7.72344 L 7.54219 7.97969 L 7.54219 3.25625 L 28.8922 3 L 28.8922 7.32031 L 19.8828 14.1688 C 20.9568 13.8271 22.0552 13.6563 23.1781 13.6563 C 26.426 13.6563 29.057 14.5839 31.0711 16.4391 C 33.0852 18.2943 34.0922 20.7234 34.0922 23.7266 C 34.0922 27.2182 32.5969 29.9466 29.6063 31.9117 C 26.6156 33.8768 22.4589 34.8594 17.1359 34.8594 C 15.5245 34.8594 14.1083 34.7984 12.8875 34.6766 L 10.5813 29.2938 C 13.0229 29.7333 15.3911 29.9531 17.6859 29.9531 C 21.2995 29.9531 24.0828 29.3914 26.0359 28.268 C 27.9891 27.1445 28.9656 25.5453 28.9656 23.4703 C 28.9656 21.737 28.3734 20.3943 27.1891 19.4422 C 26.0047 18.4901 24.3141 18.0141 22.1172 18.0141 C 18.8214 18.0141 15.4885 19.1125 12.1188 21.3094 C 10.825 22.1396 8.7375 23.8365 5.85625 26.4 Z" /></svg>