<?xml version="1.0" encoding="utf-8" standalone="no"?>
<!DOCTYPE svg PUBLIC "-//W3C//DTD SVG 1.1//EN"
"http://www.w3.org/Graphics/SVG/1.1/DTD/svg11.dtd">

<svg xmlns="http://www.w3.org/2000/svg" version="1.1" xmlns:xlink="http://www.w3.org/1999/xlink" width="41.1563" height="39.1422" viewBox="0 0 41.1563 39.1422"><path stroke="#1987e5" stroke-width="6" stroke-linejoin="round" fill="#1987e5" d="M 3 11.6062 C 6.6125 10.825 10.4453 10.1536 14.4984 9.59219 C 18.5516 9.03073 21.6583 8.75 23.8188 8.75 C 25.9792 8.75 27.9505 9.11615 29.7328 9.84844 C 29.9036 10.1172 30.1417 10.5201 30.4469 11.057 C 30.7521 11.594 30.9656 11.9599 31.0875 12.1547 L 32.5156 11.4594 C 35.1042 13.5594 36.3984 16.6599 36.3984 20.7609 C 36.3984 25.7411 34.2927 29.5497 30.0812 32.1867 C 25.8698 34.8237 19.7964 36.1422 11.8609 36.1422 L 9.88437 30.8328 C 10.4948 30.8807 11.3615 30.9047 12.4844 30.9047 C 18.4167 30.9047 22.9943 30.0138 26.2172 28.232 C 29.4401 26.4503 31.0516 23.887 31.0516 20.5422 C 31.0516 18.3203 30.3862 16.6234 29.0555 15.4516 C 27.7247 14.2797 25.8021 13.6938 23.2875 13.6938 C 21.4562 13.6938 18.6729 14.0112 14.9375 14.6461 C 11.2021 15.281 7.6375 16.0375 4.24375 16.9156 Z M 28.0109 5.85625 L 30.5016 4.79375 C 31.7953 6.33229 32.9672 8.04167 34.0172 9.92188 L 31.4547 11.1297 C 30.0141 8.66406 28.8661 6.90625 28.0109 5.85625 Z M 32.2234 4.09844 L 34.6406 3 C 36.0073 4.68437 37.1792 6.38125 38.1563 8.09062 L 35.6656 9.29844 C 34.4688 7.17448 33.3214 5.44115 32.2234 4.09844 Z" /><path fill="#ffffff" d="M 3 11.6062 C 6.6125 10.825 10.4453 10.1536 14.4984 9.59219 C 18.5516 9.03073 21.6583 8.75 23.8188 8.75 C 25.9792 8.75 27.9505 9.11615 29.7328 9.84844 C 29.9036 10.1172 30.1417 10.5201 30.4469 11.057 C 30.7521 11.594 30.9656 11.9599 31.0875 12.1547 L 32.5156 11.4594 C 35.1042 13.5594 36.3984 16.6599 36.3984 20.7609 C 36.3984 25.7411 34.2927 29.5497 30.0812 32.1867 C 25.8698 34.8237 19.7964 36.1422 11.8609 36.1422 L 9.88437 30.8328 C 10.4948 30.8807 11.3615 30.9047 12.4844 30.9047 C 18.4167 30.9047 22.9943 30.0138 26.2172 28.232 C 29.4401 26.4503 31.0516 23.887 31.0516 20.5422 C 31.0516 18.3203 30.3862 16.6234 29.0555 15.4516 C 27.7247 14.2797 25.8021 13.6938 23.2875 13.6938 C 21.4562 13.6938 18.6729 14.0112 14.9375 14.6461 C 11.2021 15.281 7.6375 16.0375 4.24375 16.9156 Z M 28.0109 5.85625 L 30.5016 4.79375 C 31.7953 6.33229 32.9672 8.04167 34.0172 9.92188 L 31.4547 11.1297 C 30.0141 8.66406 28.8661 6.90625 28.0109 5.85625 Z M 32.2234 4.09844 L 34.6406 3 C 36.0073 4.68437 37.1792 6.38125 38.1563 8.09062 L 35.6656 9.29844 C 34.4688 7.17448 33.3214 5.44115 32.2234 4.09844 Z" /></svg>