<?xml version="1.0" encoding="utf-8" standalone="no"?>
<!DOCTYPE svg PUBLIC "-//W3C//DTD SVG 1.1//EN"
"http://www.w3.org/Graphics/SVG/1.1/DTD/svg11.dtd">

<svg xmlns="http://www.w3.org/2000/svg" version="1.1" xmlns:xlink="http://www.w3.org/1999/xlink" width="41.2672" height="38.9953" viewBox="0 0 41.2672 38.9953"><path stroke="#1987e5" stroke-width="6" stroke-linejoin="round" fill="#1987e5" d="M 3 28.3406 C 5.78333 25.0698 8.49323 21.2859 11.1297 16.9891 L 11.1672 14.8641 L 4.09844 14.8641 L 4.09844 10.1047 L 11.3141 10.1047 C 11.4359 5.63594 11.5089 3.26771 11.5328 3 L 16.4406 3 C 16.2698 6.39271 16.1234 9.98125 16.0016 13.7656 C 20.762 9.7375 24.6193 7.72344 27.5734 7.72344 C 29.1849 7.72344 30.5094 8.15677 31.5469 9.02344 C 32.5844 9.8901 33.1031 10.9948 33.1031 12.3375 C 33.1031 13.0208 32.9138 15.7125 32.5352 20.4125 C 32.1565 25.1125 31.9672 27.6698 31.9672 28.0844 C 31.9672 28.9635 32.2969 29.4031 32.9562 29.4031 C 33.4688 29.4031 34.1401 29.1529 34.9703 28.6523 C 35.8005 28.1518 36.5328 27.5234 37.1672 26.7672 L 38.2672 32.5891 C 36.8266 34.0057 34.8854 34.7141 32.4437 34.7141 C 30.7833 34.7141 29.4284 34.2378 28.3789 33.2852 C 27.3294 32.3326 26.8047 31.0875 26.8047 29.55 C 26.8047 28.7198 27.0122 26.1195 27.4273 21.7492 C 27.8424 17.3789 28.05 14.974 28.05 14.5344 C 28.05 13.5344 27.531 13.0344 26.493 13.0344 C 25.4549 13.0344 23.8435 13.8216 21.6586 15.3961 C 19.4737 16.9706 17.5391 18.7224 15.8547 20.6516 C 15.8057 24.4599 15.7813 27.5969 15.7813 30.0625 C 15.7813 32.5281 15.7932 34.5057 15.8172 35.9953 L 10.9469 35.9953 C 10.9469 31.3318 10.9594 27.8891 10.9844 25.6672 L 5.85625 32.9922 Z" /><path fill="#ffffff" d="M 3 28.3406 C 5.78333 25.0698 8.49323 21.2859 11.1297 16.9891 L 11.1672 14.8641 L 4.09844 14.8641 L 4.09844 10.1047 L 11.3141 10.1047 C 11.4359 5.63594 11.5089 3.26771 11.5328 3 L 16.4406 3 C 16.2698 6.39271 16.1234 9.98125 16.0016 13.7656 C 20.762 9.7375 24.6193 7.72344 27.5734 7.72344 C 29.1849 7.72344 30.5094 8.15677 31.5469 9.02344 C 32.5844 9.8901 33.1031 10.9948 33.1031 12.3375 C 33.1031 13.0208 32.9138 15.7125 32.5352 20.4125 C 32.1565 25.1125 31.9672 27.6698 31.9672 28.0844 C 31.9672 28.9635 32.2969 29.4031 32.9562 29.4031 C 33.4688 29.4031 34.1401 29.1529 34.9703 28.6523 C 35.8005 28.1518 36.5328 27.5234 37.1672 26.7672 L 38.2672 32.5891 C 36.8266 34.0057 34.8854 34.7141 32.4437 34.7141 C 30.7833 34.7141 29.4284 34.2378 28.3789 33.2852 C 27.3294 32.3326 26.8047 31.0875 26.8047 29.55 C 26.8047 28.7198 27.0122 26.1195 27.4273 21.7492 C 27.8424 17.3789 28.05 14.974 28.05 14.5344 C 28.05 13.5344 27.531 13.0344 26.493 13.0344 C 25.4549 13.0344 23.8435 13.8216 21.6586 15.3961 C 19.4737 16.9706 17.5391 18.7224 15.8547 20.6516 C 15.8057 24.4599 15.7813 27.5969 15.7813 30.0625 C 15.7813 32.5281 15.7932 34.5057 15.8172 35.9953 L 10.9469 35.9953 C 10.9469 31.3318 10.9594 27.8891 10.9844 25.6672 L 5.85625 32.9922 Z" /></svg>