<?xml version="1.0" encoding="utf-8" standalone="no"?>
<!DOCTYPE svg PUBLIC "-//W3C//DTD SVG 1.1//EN"
"http://www.w3.org/Graphics/SVG/1.1/DTD/svg11.dtd">

<svg xmlns="http://www.w3.org/2000/svg" version="1.1" xmlns:xlink="http://www.w3.org/1999/xlink" width="31.7813" height="32.8797" viewBox="0 0 31.7813 32.8797"><path stroke="#1987e5" stroke-width="6" stroke-linejoin="round" fill="#1987e5" d="M 5.21562 28.1406 C 3.73854 26.9812 3 25.4555 3 23.5633 C 3 21.6711 3.79948 20.1086 5.39844 18.8758 C 6.9974 17.643 9.06667 17.0266 11.6062 17.0266 C 12.4604 17.0266 13.2292 17.0755 13.9125 17.1734 C 13.9125 10.9474 13.8516 6.22292 13.7297 3 L 18.4547 3 L 18.4547 8.49375 L 27.5 8.27344 L 27.5 12.7047 L 18.4547 12.9984 L 18.4547 18.4906 C 19.5776 18.9302 20.5661 19.3943 21.4203 19.8828 C 22.2745 20.3714 22.8969 20.7255 23.2875 20.9453 C 23.6781 21.1651 24.2031 21.5008 24.8625 21.9523 C 25.5219 22.4039 25.9615 22.7029 26.1812 22.8492 C 26.401 22.9956 26.8711 23.319 27.5914 23.8195 C 28.3117 24.3201 28.7083 24.5948 28.7813 24.6437 L 26.1078 28.8547 C 23.862 26.8286 21.274 25.0708 18.3438 23.5812 C 17.7823 27.7802 15.3411 29.8797 11.0203 29.8797 C 8.6276 29.8797 6.69271 29.3 5.21562 28.1406 Z M 7.72344 23.3609 C 7.72344 23.9964 7.99219 24.4971 8.52969 24.8633 C 9.06719 25.2294 9.83021 25.4125 10.8187 25.4125 C 11.8073 25.4125 12.5214 25.1622 12.9609 24.6617 C 13.4005 24.1612 13.6812 23.1906 13.8031 21.75 C 12.7781 21.4573 11.8505 21.3109 11.0203 21.3109 C 8.8224 21.3109 7.72344 21.9943 7.72344 23.3609 Z" /><path fill="#ffffff" d="M 5.21562 28.1406 C 3.73854 26.9812 3 25.4555 3 23.5633 C 3 21.6711 3.79948 20.1086 5.39844 18.8758 C 6.9974 17.643 9.06667 17.0266 11.6062 17.0266 C 12.4604 17.0266 13.2292 17.0755 13.9125 17.1734 C 13.9125 10.9474 13.8516 6.22292 13.7297 3 L 18.4547 3 L 18.4547 8.49375 L 27.5 8.27344 L 27.5 12.7047 L 18.4547 12.9984 L 18.4547 18.4906 C 19.5776 18.9302 20.5661 19.3943 21.4203 19.8828 C 22.2745 20.3714 22.8969 20.7255 23.2875 20.9453 C 23.6781 21.1651 24.2031 21.5008 24.8625 21.9523 C 25.5219 22.4039 25.9615 22.7029 26.1812 22.8492 C 26.401 22.9956 26.8711 23.319 27.5914 23.8195 C 28.3117 24.3201 28.7083 24.5948 28.7813 24.6437 L 26.1078 28.8547 C 23.862 26.8286 21.274 25.0708 18.3438 23.5812 C 17.7823 27.7802 15.3411 29.8797 11.0203 29.8797 C 8.6276 29.8797 6.69271 29.3 5.21562 28.1406 Z M 7.72344 23.3609 C 7.72344 23.9964 7.99219 24.4971 8.52969 24.8633 C 9.06719 25.2294 9.83021 25.4125 10.8187 25.4125 C 11.8073 25.4125 12.5214 25.1622 12.9609 24.6617 C 13.4005 24.1612 13.6812 23.1906 13.8031 21.75 C 12.7781 21.4573 11.8505 21.3109 11.0203 21.3109 C 8.8224 21.3109 7.72344 21.9943 7.72344 23.3609 Z" /></svg>