<?xml version="1.0" encoding="utf-8" standalone="no"?>
<!DOCTYPE svg PUBLIC "-//W3C//DTD SVG 1.1//EN"
"http://www.w3.org/Graphics/SVG/1.1/DTD/svg11.dtd">

<svg xmlns="http://www.w3.org/2000/svg" version="1.1" xmlns:xlink="http://www.w3.org/1999/xlink" width="97.9677" height="34.1793" viewBox="0 0 97.9677 34.1793"><path stroke="#ffffff" stroke-width="8" stroke-linejoin="round" fill="#ffffff" d="M 30.7717 30.1793 L 30.7717 26.4075 L 23.7463 20.2586 C 26.6115 16.6453 28.2677 12.0177 28.2677 6.33956 L 28.2677 4.3 L 4.85578 4.3 L 4.85578 7.2 L 25.2677 7.2 C 25.1092 19.2443 15.1885 25.5834 4 26.8512 L 4 29.7038 C 10.9413 29.0382 17.2487 26.6611 21.7178 22.4456 Z" /><path stroke="#ffffff" stroke-width="8" stroke-linejoin="round" fill="#ffffff" d="M 62.1677 29.2 L 62.1677 4.7 L 37.4929 4.7 L 37.4929 7.5 L 59.2677 7.5 L 59.2677 26.4 L 37.4929 26.4 L 37.4929 29.2 Z" /><path stroke="#ffffff" stroke-width="8" stroke-linejoin="round" fill="#ffffff" d="M 93.9677 9.54456 L 93.9677 4 L 67.1957 4 L 67.1957 6.8 L 91.0677 6.8 L 91.0677 9.70413 C 91.0677 15.8957 87.1837 18.8 80.5204 18.8 L 80.5204 21.7 C 88.7942 21.5739 93.9677 17.5234 93.9677 9.54456 Z M 79.6677 16.2468 L 79.6677 12.385 L 76.7677 12.385 L 76.7677 16.0234 C 76.7677 21.9221 73.6616 26.4922 67.1957 27 L 67.1957 29.9 C 74.866 29.2695 79.6677 23.6994 79.6677 16.2468 Z" /><path fill="#000000" d="M 30.7717 30.1793 L 30.7717 26.4075 L 23.7463 20.2586 C 26.6115 16.6453 28.2677 12.0177 28.2677 6.33956 L 28.2677 4.3 L 4.85578 4.3 L 4.85578 7.2 L 25.2677 7.2 C 25.1092 19.2443 15.1885 25.5834 4 26.8512 L 4 29.7038 C 10.9413 29.0382 17.2487 26.6611 21.7178 22.4456 Z" /><path fill="#000000" d="M 62.1677 29.2 L 62.1677 4.7 L 37.4929 4.7 L 37.4929 7.5 L 59.2677 7.5 L 59.2677 26.4 L 37.4929 26.4 L 37.4929 29.2 Z" /><path fill="#000000" d="M 93.9677 9.54456 L 93.9677 4 L 67.1957 4 L 67.1957 6.8 L 91.0677 6.8 L 91.0677 9.70413 C 91.0677 15.8957 87.1837 18.8 80.5204 18.8 L 80.5204 21.7 C 88.7942 21.5739 93.9677 17.5234 93.9677 9.54456 Z M 79.6677 16.2468 L 79.6677 12.385 L 76.7677 12.385 L 76.7677 16.0234 C 76.7677 21.9221 73.6616 26.4922 67.1957 27 L 67.1957 29.9 C 74.866 29.2695 79.6677 23.6994 79.6677 16.2468 Z" /></svg>