<?xml version="1.0" encoding="utf-8" standalone="no"?>
<!DOCTYPE svg PUBLIC "-//W3C//DTD SVG 1.1//EN"
"http://www.w3.org/Graphics/SVG/1.1/DTD/svg11.dtd">

<svg xmlns="http://www.w3.org/2000/svg" version="1.1" xmlns:xlink="http://www.w3.org/1999/xlink" width="39.6188" height="38.0438" viewBox="0 0 39.6188 38.0438"><path stroke="#1987e5" stroke-width="6" stroke-linejoin="round" fill="#1987e5" d="M 3 31.5281 C 5.39271 29.1844 8.6276 26.462 12.7047 23.3609 C 11.8995 22.5068 11.4969 21.4755 11.4969 20.2672 C 11.4969 19.0589 12.0156 18.0151 13.0531 17.1359 C 14.0906 16.2568 15.3357 15.8172 16.7883 15.8172 C 18.2409 15.8172 19.3641 16.1651 20.1578 16.8609 C 20.9516 17.5568 21.3484 18.393 21.3484 19.3695 C 21.3484 20.3461 20.9943 21.213 20.2859 21.9703 C 20.5057 21.9943 20.8354 22.0063 21.275 22.0063 C 23.6187 22.0063 25.5901 21.6034 27.1891 20.7977 C 28.788 19.9919 29.5875 19.0216 29.5875 17.8867 C 29.5875 16.7518 28.9221 15.8424 27.5914 15.1586 C 26.2607 14.4747 24.4602 14.1328 22.1898 14.1328 C 19.9195 14.1328 17.8932 14.432 16.1109 15.0305 C 14.3286 15.6289 12.5708 16.5141 10.8375 17.6859 L 6.55312 20.5422 L 4.02656 16.4031 L 20.5781 7.39531 L 8.97031 7.39531 L 8.97031 3 L 29.4047 3 L 29.4047 7.175 L 21.75 10.7266 C 22.5313 10.5318 23.5323 10.4344 24.7531 10.4344 C 27.5125 10.4344 29.7893 11.1484 31.5836 12.5766 C 33.3779 14.0047 34.275 15.8661 34.275 18.1609 C 34.275 20.4557 33.1091 22.3479 30.7773 23.8375 C 28.4456 25.3271 25.4125 26.0719 21.6781 26.0719 C 19.4312 26.0719 17.5021 25.7911 15.8906 25.2297 C 15.0365 25.7911 14.4141 26.2427 14.0234 26.5844 C 14.2193 26.4865 14.5734 26.4375 15.0859 26.4375 C 15.5984 26.4375 16.1904 26.6206 16.8617 26.9867 C 17.5331 27.3529 18.0885 27.7557 18.5281 28.1953 C 19.724 29.3432 20.5479 29.9172 21 29.9172 C 21.4521 29.9172 22.0443 29.6057 22.7766 28.9828 C 23.5089 28.3599 24.3693 27.7313 25.3578 27.0969 C 26.3464 26.4625 27.4451 26.1453 28.6539 26.1453 C 29.8628 26.1453 31.1995 26.6578 32.6641 27.6828 C 34.1286 28.7078 35.4469 30.124 36.6188 31.9312 L 32.4813 34.9344 C 31.8708 33.8844 31.1565 32.9198 30.3383 32.0406 C 29.5201 31.1615 28.8487 30.7219 28.3242 30.7219 C 27.7997 30.7219 27.1773 31.0576 26.457 31.7289 C 25.7367 32.4003 24.8943 33.0779 23.9297 33.7617 C 22.9651 34.4456 22.0193 34.7875 21.0922 34.7875 C 19.5047 34.7875 18.0456 34.1039 16.7148 32.7367 C 15.3841 31.3695 14.1755 30.6859 13.0891 30.6859 C 12.0026 30.6859 10.8857 31.1315 9.73828 32.0227 C 8.59089 32.9138 7.56563 33.9208 6.6625 35.0438 Z M 15.525 18.8203 C 15.2323 19.0641 15.0859 19.4057 15.0859 19.8453 C 15.0859 20.2849 15.4641 20.688 16.2203 21.0547 C 17.2464 20.3953 17.7594 19.8339 17.7594 19.3703 C 17.7594 19.1016 17.6495 18.8818 17.4297 18.7109 C 17.2099 18.5401 16.9107 18.4547 16.532 18.4547 C 16.1534 18.4547 15.8177 18.5766 15.525 18.8203 Z" /><path fill="#ffffff" d="M 3 31.5281 C 5.39271 29.1844 8.6276 26.462 12.7047 23.3609 C 11.8995 22.5068 11.4969 21.4755 11.4969 20.2672 C 11.4969 19.0589 12.0156 18.0151 13.0531 17.1359 C 14.0906 16.2568 15.3357 15.8172 16.7883 15.8172 C 18.2409 15.8172 19.3641 16.1651 20.1578 16.8609 C 20.9516 17.5568 21.3484 18.393 21.3484 19.3695 C 21.3484 20.3461 20.9943 21.213 20.2859 21.9703 C 20.5057 21.9943 20.8354 22.0063 21.275 22.0063 C 23.6187 22.0063 25.5901 21.6034 27.1891 20.7977 C 28.788 19.9919 29.5875 19.0216 29.5875 17.8867 C 29.5875 16.7518 28.9221 15.8424 27.5914 15.1586 C 26.2607 14.4747 24.4602 14.1328 22.1898 14.1328 C 19.9195 14.1328 17.8932 14.432 16.1109 15.0305 C 14.3286 15.6289 12.5708 16.5141 10.8375 17.6859 L 6.55312 20.5422 L 4.02656 16.4031 L 20.5781 7.39531 L 8.97031 7.39531 L 8.97031 3 L 29.4047 3 L 29.4047 7.175 L 21.75 10.7266 C 22.5313 10.5318 23.5323 10.4344 24.7531 10.4344 C 27.5125 10.4344 29.7893 11.1484 31.5836 12.5766 C 33.3779 14.0047 34.275 15.8661 34.275 18.1609 C 34.275 20.4557 33.1091 22.3479 30.7773 23.8375 C 28.4456 25.3271 25.4125 26.0719 21.6781 26.0719 C 19.4312 26.0719 17.5021 25.7911 15.8906 25.2297 C 15.0365 25.7911 14.4141 26.2427 14.0234 26.5844 C 14.2193 26.4865 14.5734 26.4375 15.0859 26.4375 C 15.5984 26.4375 16.1904 26.6206 16.8617 26.9867 C 17.5331 27.3529 18.0885 27.7557 18.5281 28.1953 C 19.724 29.3432 20.5479 29.9172 21 29.9172 C 21.4521 29.9172 22.0443 29.6057 22.7766 28.9828 C 23.5089 28.3599 24.3693 27.7313 25.3578 27.0969 C 26.3464 26.4625 27.4451 26.1453 28.6539 26.1453 C 29.8628 26.1453 31.1995 26.6578 32.6641 27.6828 C 34.1286 28.7078 35.4469 30.124 36.6188 31.9312 L 32.4813 34.9344 C 31.8708 33.8844 31.1565 32.9198 30.3383 32.0406 C 29.5201 31.1615 28.8487 30.7219 28.3242 30.7219 C 27.7997 30.7219 27.1773 31.0576 26.457 31.7289 C 25.7367 32.4003 24.8943 33.0779 23.9297 33.7617 C 22.9651 34.4456 22.0193 34.7875 21.0922 34.7875 C 19.5047 34.7875 18.0456 34.1039 16.7148 32.7367 C 15.3841 31.3695 14.1755 30.6859 13.0891 30.6859 C 12.0026 30.6859 10.8857 31.1315 9.73828 32.0227 C 8.59089 32.9138 7.56563 33.9208 6.6625 35.0438 Z M 15.525 18.8203 C 15.2323 19.0641 15.0859 19.4057 15.0859 19.8453 C 15.0859 20.2849 15.4641 20.688 16.2203 21.0547 C 17.2464 20.3953 17.7594 19.8339 17.7594 19.3703 C 17.7594 19.1016 17.6495 18.8818 17.4297 18.7109 C 17.2099 18.5401 16.9107 18.4547 16.532 18.4547 C 16.1534 18.4547 15.8177 18.5766 15.525 18.8203 Z" /></svg>