<?xml version="1.0" encoding="utf-8" standalone="no"?>
<!DOCTYPE svg PUBLIC "-//W3C//DTD SVG 1.1//EN"
"http://www.w3.org/Graphics/SVG/1.1/DTD/svg11.dtd">

<svg xmlns="http://www.w3.org/2000/svg" version="1.1" xmlns:xlink="http://www.w3.org/1999/xlink" width="31.5609" height="33.4672" viewBox="0 0 31.5609 33.4672"><path stroke="#1987e5" stroke-width="6" stroke-linejoin="round" fill="#1987e5" d="M 3.54844 25.1937 C 3.18281 23.0687 3 20.1266 3 16.3672 C 3 12.6078 3.21979 8.82344 3.65937 5.01406 L 8.01719 5.0875 C 7.60156 9.23854 7.39375 11.863 7.39375 12.9609 C 8.22396 11.4964 9.32891 10.2331 10.7086 9.17109 C 12.0883 8.10911 13.5833 7.33385 15.1938 6.84531 C 15.0969 5.69844 14.9385 4.42916 14.7188 3.0375 L 19.5531 3 C 19.626 3.70833 19.7115 4.84375 19.8094 6.40625 C 22.4458 6.675 24.5635 7.67604 26.1625 9.40937 C 27.7615 11.1427 28.5609 13.3766 28.5609 16.1109 C 28.5609 18.8453 27.6211 21.1341 25.7414 22.9773 C 23.8617 24.8206 21.4813 25.7422 18.6 25.7422 C 18.2344 25.7422 17.9661 25.7302 17.7953 25.7062 C 16.6714 27.5854 14.9745 29.1724 12.7047 30.4672 L 8.30937 27.6094 C 10.3365 26.7312 11.887 25.6083 12.9609 24.2406 C 11.7401 23.5573 10.6172 22.6052 9.59219 21.3844 L 11.7516 17.1 C 12.7036 18.3448 13.7656 19.3089 14.9375 19.9922 C 15.3281 18.3328 15.5234 16.6057 15.5234 14.8109 C 15.5234 13.0161 15.5115 11.8135 15.4875 11.2031 C 13.7292 11.9115 12.1604 13.1568 10.7813 14.9391 C 9.40208 16.7214 8.40729 18.8333 7.79688 21.275 C 7.69896 21.5677 7.65 22.0497 7.65 22.7211 C 7.65 23.3924 7.69896 24.2167 7.79688 25.1937 L 3.54844 25.1937 Z M 19.5156 20.9812 C 20.8833 20.8104 21.9578 20.2672 22.7391 19.3516 C 23.5203 18.4359 23.9109 17.2885 23.9109 15.9094 C 23.9109 14.5302 23.569 13.401 22.8852 12.5219 C 22.2013 11.6427 21.249 11.0693 20.0281 10.8016 C 20.0771 12.3641 20.1016 13.438 20.1016 14.0234 C 20.1016 16.7339 19.9063 19.0531 19.5156 20.9812 Z" /><path fill="#ffffff" d="M 3.54844 25.1937 C 3.18281 23.0687 3 20.1266 3 16.3672 C 3 12.6078 3.21979 8.82344 3.65937 5.01406 L 8.01719 5.0875 C 7.60156 9.23854 7.39375 11.863 7.39375 12.9609 C 8.22396 11.4964 9.32891 10.2331 10.7086 9.17109 C 12.0883 8.10911 13.5833 7.33385 15.1938 6.84531 C 15.0969 5.69844 14.9385 4.42916 14.7188 3.0375 L 19.5531 3 C 19.626 3.70833 19.7115 4.84375 19.8094 6.40625 C 22.4458 6.675 24.5635 7.67604 26.1625 9.40937 C 27.7615 11.1427 28.5609 13.3766 28.5609 16.1109 C 28.5609 18.8453 27.6211 21.1341 25.7414 22.9773 C 23.8617 24.8206 21.4813 25.7422 18.6 25.7422 C 18.2344 25.7422 17.9661 25.7302 17.7953 25.7062 C 16.6714 27.5854 14.9745 29.1724 12.7047 30.4672 L 8.30937 27.6094 C 10.3365 26.7312 11.887 25.6083 12.9609 24.2406 C 11.7401 23.5573 10.6172 22.6052 9.59219 21.3844 L 11.7516 17.1 C 12.7036 18.3448 13.7656 19.3089 14.9375 19.9922 C 15.3281 18.3328 15.5234 16.6057 15.5234 14.8109 C 15.5234 13.0161 15.5115 11.8135 15.4875 11.2031 C 13.7292 11.9115 12.1604 13.1568 10.7813 14.9391 C 9.40208 16.7214 8.40729 18.8333 7.79688 21.275 C 7.69896 21.5677 7.65 22.0497 7.65 22.7211 C 7.65 23.3924 7.69896 24.2167 7.79688 25.1937 L 3.54844 25.1937 Z M 19.5156 20.9812 C 20.8833 20.8104 21.9578 20.2672 22.7391 19.3516 C 23.5203 18.4359 23.9109 17.2885 23.9109 15.9094 C 23.9109 14.5302 23.569 13.401 22.8852 12.5219 C 22.2013 11.6427 21.249 11.0693 20.0281 10.8016 C 20.0771 12.3641 20.1016 13.438 20.1016 14.0234 C 20.1016 16.7339 19.9063 19.0531 19.5156 20.9812 Z" /></svg>