<?xml version="1.0" encoding="utf-8" standalone="no"?>
<!DOCTYPE svg PUBLIC "-//W3C//DTD SVG 1.1//EN"
"http://www.w3.org/Graphics/SVG/1.1/DTD/svg11.dtd">

<svg xmlns="http://www.w3.org/2000/svg" version="1.1" xmlns:xlink="http://www.w3.org/1999/xlink" width="129.913" height="36.6" viewBox="0 0 129.913 36.6"><path stroke="#ffffff" stroke-width="8" stroke-linejoin="round" fill="#ffffff" d="M 31 14.737 L 31 4.6 L 23.2853 4.6 L 23.2853 6.9 L 28.6503 6.9 L 28.6503 12.4682 L 23.2853 12.4682 L 23.2853 14.737 Z M 31.6656 32.5558 L 31.6656 30.0951 C 30.4507 29.6778 29.2554 28.9782 28.2448 28.0043 C 29.9984 25.5576 31 22.4945 31 19.284 L 31 17.0077 L 23.2853 17.0077 L 23.2853 19.316 L 28.9 19.316 C 28.6815 22.1071 27.9953 24.4638 26.8412 26.2822 C 25.9678 24.8835 25.344 23.1725 25.032 21.108 L 22.9422 21.108 C 23.3477 23.8504 24.221 26.1562 25.4687 27.9739 C 24.5642 28.8261 23.5036 29.5494 22.2248 29.9988 L 22.2248 32.5558 C 24.1275 31.8585 25.6559 30.8333 26.8724 29.6136 C 28.1824 30.9296 29.8046 31.9535 31.6656 32.5558 Z M 22.1 21.3 L 22.1 18.9 L 15.7 18.9 L 15.7 14.8 L 22.1 14.8 L 22.1 4.6 L 13.4 4.6 L 13.4 32.5558 L 15.7 32.5558 L 15.7 27.7 L 21.7765 27.7 L 21.7765 25.4 L 15.7 25.4 L 15.7 21.3 Z M 11.8 31.7 L 11.8 4.6 L 4 4.6 L 4 31.7 Z M 19.9 12.5 L 15.7 12.5 L 15.7 6.9 L 19.9 6.9 Z M 9.6 16.3769 L 6.2 16.3769 L 6.2 7.15438 L 9.6 7.15438 Z M 9.6 29.1 L 6.2 29.1 L 6.2 18.932 L 9.6 18.932 Z" /><path stroke="#ffffff" stroke-width="8" stroke-linejoin="round" fill="#ffffff" d="M 62.4 18.3838 C 62.4 10.1128 57.8171 4.9 49.6254 4.9 C 39.4018 4.9 35.3 11.4489 35.3 19.8789 C 35.3 26.8774 37.9728 31 42.0371 31 C 47.1806 31 50.1652 23.8872 50.7684 9.25386 L 47.9426 9.25386 C 47.4664 21.1832 45.1804 27.8 42.1323 27.8 C 39.6558 27.8 38.1 24.4598 38.1 19.8789 C 38.1 12.7531 41.2433 7.6 49.4984 7.6 C 56.2613 7.6 59.5 12.1169 59.5 18.3201 C 59.5 25.2232 56.7058 28.3334 50.7367 28.8353 L 50.7367 31.8558 C 58.0393 31.3486 62.4 27.4501 62.4 18.3838 Z" /><path stroke="#ffffff" stroke-width="8" stroke-linejoin="round" fill="#ffffff" d="M 94.0558 27.2979 L 94.0558 24.8541 C 90.6642 24.0289 88.4487 21.712 87.3729 19.3 L 93.2 19.3 L 93.2 10.4 L 85 10.4 L 85 7.9 L 94.0558 7.9 L 94.0558 5.5 L 85 5.5 L 85 4 L 82.4 4 L 82.4 5.5 L 73.3892 5.5 L 73.3892 7.9 L 82.4 7.9 L 82.4 10.4 L 74.3 10.4 L 74.3 19.3 L 80.0719 19.3 C 79.0337 21.712 76.8 24.0289 73.3892 24.8541 L 73.3892 27.2979 C 77.8697 26.2506 80.9843 23.1402 82.4 19.7125 L 82.4 27.2345 L 85 27.2345 L 85 19.6807 C 86.3921 23.1402 89.556 26.2506 94.0558 27.2979 Z M 71.4734 9.98861 L 71.4734 7.07893 L 65.4683 4.03264 L 65.4683 6.88945 Z M 94.0558 32.17 L 94.0558 29.6466 L 76.262 29.6466 C 73.194 29.6466 72.153 28.6944 71.6 27.2345 L 71.6 15.9357 L 65.5 15.9357 L 65.5 18.6304 L 69.0082 18.6304 L 69.0082 27.2662 L 65.5 29.5513 L 65.5 32.5 L 69.8616 29.6783 C 70.8097 31.297 71.9904 32.17 75.6924 32.17 Z M 90.6 17.1 L 85 17.1 L 85 12.6 L 90.6 12.6 Z M 82.4 17.1 L 76.8 17.1 L 76.8 12.6 L 82.4 12.6 Z" /><path stroke="#ffffff" stroke-width="8" stroke-linejoin="round" fill="#ffffff" d="M 125.913 13.7 L 125.913 11.5 L 122.3 11.5 L 122.3 9.19145 L 119.5 9.19145 L 119.5 11.5 L 109.2 11.5 L 109.2 9.19145 L 106.4 9.19145 L 106.4 11.5 L 102.029 11.5 L 102.029 13.7 L 106.4 13.7 L 106.4 18.6 L 122.3 18.6 L 122.3 13.7 Z M 125.913 7.8 L 125.913 5.3 L 114 5.3 L 114 4.03218 L 111.1 4.03218 L 111.1 5.3 L 98.6318 5.3 L 98.6318 20.1264 C 98.6318 24.897 98.4732 26.519 97.3639 28.141 L 97.3639 32.6 C 99.7773 30.3883 101.4 27.9501 101.4 20.2218 L 101.4 7.8 Z M 125.913 32.54 L 125.913 30.2948 C 122.68 30.2948 119.945 30.0143 117.581 29.422 C 120.582 27.9819 123.029 26.0101 125.057 23.5294 L 125.057 21.3031 L 103.538 21.3031 L 103.538 23.5294 L 121.982 23.5294 C 119.818 25.5967 117.262 27.1868 114.16 28.3 C 111.97 27.4095 110.195 26.2009 108.596 24.7379 L 105.268 24.7379 C 107.036 26.5826 108.977 28.0774 111.01 29.2039 C 108.341 29.8272 105.237 30.1389 101.683 30.1389 L 101.683 32.54 C 106.655 32.54 110.798 31.9666 114.416 30.7 C 117.869 32 121.696 32.54 125.913 32.54 Z M 119.5 16.6 L 109.2 16.6 L 109.2 13.7 L 119.5 13.7 Z" /><path fill="#000000" d="M 31 14.737 L 31 4.6 L 23.2853 4.6 L 23.2853 6.9 L 28.6503 6.9 L 28.6503 12.4682 L 23.2853 12.4682 L 23.2853 14.737 Z M 31.6656 32.5558 L 31.6656 30.0951 C 30.4507 29.6778 29.2554 28.9782 28.2448 28.0043 C 29.9984 25.5576 31 22.4945 31 19.284 L 31 17.0077 L 23.2853 17.0077 L 23.2853 19.316 L 28.9 19.316 C 28.6815 22.1071 27.9953 24.4638 26.8412 26.2822 C 25.9678 24.8835 25.344 23.1725 25.032 21.108 L 22.9422 21.108 C 23.3477 23.8504 24.221 26.1562 25.4687 27.9739 C 24.5642 28.8261 23.5036 29.5494 22.2248 29.9988 L 22.2248 32.5558 C 24.1275 31.8585 25.6559 30.8333 26.8724 29.6136 C 28.1824 30.9296 29.8046 31.9535 31.6656 32.5558 Z M 22.1 21.3 L 22.1 18.9 L 15.7 18.9 L 15.7 14.8 L 22.1 14.8 L 22.1 4.6 L 13.4 4.6 L 13.4 32.5558 L 15.7 32.5558 L 15.7 27.7 L 21.7765 27.7 L 21.7765 25.4 L 15.7 25.4 L 15.7 21.3 Z M 11.8 31.7 L 11.8 4.6 L 4 4.6 L 4 31.7 Z M 19.9 12.5 L 15.7 12.5 L 15.7 6.9 L 19.9 6.9 Z M 9.6 16.3769 L 6.2 16.3769 L 6.2 7.15438 L 9.6 7.15438 Z M 9.6 29.1 L 6.2 29.1 L 6.2 18.932 L 9.6 18.932 Z" /><path fill="#000000" d="M 62.4 18.3838 C 62.4 10.1128 57.8171 4.9 49.6254 4.9 C 39.4018 4.9 35.3 11.4489 35.3 19.8789 C 35.3 26.8774 37.9728 31 42.0371 31 C 47.1806 31 50.1652 23.8872 50.7684 9.25386 L 47.9426 9.25386 C 47.4664 21.1832 45.1804 27.8 42.1323 27.8 C 39.6558 27.8 38.1 24.4598 38.1 19.8789 C 38.1 12.7531 41.2433 7.6 49.4984 7.6 C 56.2613 7.6 59.5 12.1169 59.5 18.3201 C 59.5 25.2232 56.7058 28.3334 50.7367 28.8353 L 50.7367 31.8558 C 58.0393 31.3486 62.4 27.4501 62.4 18.3838 Z" /><path fill="#000000" d="M 94.0558 27.2979 L 94.0558 24.8541 C 90.6642 24.0289 88.4487 21.712 87.3729 19.3 L 93.2 19.3 L 93.2 10.4 L 85 10.4 L 85 7.9 L 94.0558 7.9 L 94.0558 5.5 L 85 5.5 L 85 4 L 82.4 4 L 82.4 5.5 L 73.3892 5.5 L 73.3892 7.9 L 82.4 7.9 L 82.4 10.4 L 74.3 10.4 L 74.3 19.3 L 80.0719 19.3 C 79.0337 21.712 76.8 24.0289 73.3892 24.8541 L 73.3892 27.2979 C 77.8697 26.2506 80.9843 23.1402 82.4 19.7125 L 82.4 27.2345 L 85 27.2345 L 85 19.6807 C 86.3921 23.1402 89.556 26.2506 94.0558 27.2979 Z M 71.4734 9.98861 L 71.4734 7.07893 L 65.4683 4.03264 L 65.4683 6.88945 Z M 94.0558 32.17 L 94.0558 29.6466 L 76.262 29.6466 C 73.194 29.6466 72.153 28.6944 71.6 27.2345 L 71.6 15.9357 L 65.5 15.9357 L 65.5 18.6304 L 69.0082 18.6304 L 69.0082 27.2662 L 65.5 29.5513 L 65.5 32.5 L 69.8616 29.6783 C 70.8097 31.297 71.9904 32.17 75.6924 32.17 Z M 90.6 17.1 L 85 17.1 L 85 12.6 L 90.6 12.6 Z M 82.4 17.1 L 76.8 17.1 L 76.8 12.6 L 82.4 12.6 Z" /><path fill="#000000" d="M 125.913 13.7 L 125.913 11.5 L 122.3 11.5 L 122.3 9.19145 L 119.5 9.19145 L 119.5 11.5 L 109.2 11.5 L 109.2 9.19145 L 106.4 9.19145 L 106.4 11.5 L 102.029 11.5 L 102.029 13.7 L 106.4 13.7 L 106.4 18.6 L 122.3 18.6 L 122.3 13.7 Z M 125.913 7.8 L 125.913 5.3 L 114 5.3 L 114 4.03218 L 111.1 4.03218 L 111.1 5.3 L 98.6318 5.3 L 98.6318 20.1264 C 98.6318 24.897 98.4732 26.519 97.3639 28.141 L 97.3639 32.6 C 99.7773 30.3883 101.4 27.9501 101.4 20.2218 L 101.4 7.8 Z M 125.913 32.54 L 125.913 30.2948 C 122.68 30.2948 119.945 30.0143 117.581 29.422 C 120.582 27.9819 123.029 26.0101 125.057 23.5294 L 125.057 21.3031 L 103.538 21.3031 L 103.538 23.5294 L 121.982 23.5294 C 119.818 25.5967 117.262 27.1868 114.16 28.3 C 111.97 27.4095 110.195 26.2009 108.596 24.7379 L 105.268 24.7379 C 107.036 26.5826 108.977 28.0774 111.01 29.2039 C 108.341 29.8272 105.237 30.1389 101.683 30.1389 L 101.683 32.54 C 106.655 32.54 110.798 31.9666 114.416 30.7 C 117.869 32 121.696 32.54 125.913 32.54 Z M 119.5 16.6 L 109.2 16.6 L 109.2 13.7 L 119.5 13.7 Z" /></svg>