<?xml version="1.0" encoding="utf-8" standalone="no"?>
<!DOCTYPE svg PUBLIC "-//W3C//DTD SVG 1.1//EN"
"http://www.w3.org/Graphics/SVG/1.1/DTD/svg11.dtd">

<svg xmlns="http://www.w3.org/2000/svg" version="1.1" xmlns:xlink="http://www.w3.org/1999/xlink" width="35.9203" height="38.9953" viewBox="0 0 35.9203 38.9953"><path stroke="#1987e5" stroke-width="6" stroke-linejoin="round" fill="#1987e5" d="M 3 9.77344 C 5.66146 9.87135 8.25573 9.92031 10.7828 9.92031 C 13.3099 9.92031 15.0125 9.90833 15.8906 9.88438 C 15.2802 8.00417 14.7797 5.83125 14.3891 3.36563 L 19.3703 3 C 19.8339 5.5875 20.4073 7.83333 21.0906 9.7375 C 24.9 9.56667 28.7943 9.23698 32.7734 8.74844 L 32.9203 13.5828 C 29.9172 13.9005 26.7068 14.1568 23.2891 14.3516 C 24.9484 17.0859 27.3531 19.7104 30.5031 22.225 L 26.8406 25.4844 C 22.8125 22.3354 19.7854 18.6979 17.7594 14.5719 C 16.3188 14.6208 14.1458 14.6453 11.2406 14.6453 C 8.33542 14.6453 5.62552 14.6083 3.11094 14.5344 Z M 4.50156 26.7656 C 4.50156 24.1542 5.58802 21.8594 7.76094 19.8813 L 11.9 22.3719 C 10.3125 23.7146 9.51875 25.1063 9.51875 26.5469 C 9.51875 27.9875 10.3732 29.1044 12.082 29.8977 C 13.7909 30.6909 16.2018 31.0875 19.3148 31.0875 C 22.4279 31.0875 25.6932 30.7703 29.1109 30.1359 L 28.8188 35.4094 C 25.7667 35.8 22.8615 35.9953 20.1031 35.9953 C 15.025 35.9953 11.1552 35.2078 8.49375 33.6328 C 5.83229 32.0578 4.50156 29.7688 4.50156 26.7656 Z" /><path fill="#ffffff" d="M 3 9.77344 C 5.66146 9.87135 8.25573 9.92031 10.7828 9.92031 C 13.3099 9.92031 15.0125 9.90833 15.8906 9.88438 C 15.2802 8.00417 14.7797 5.83125 14.3891 3.36563 L 19.3703 3 C 19.8339 5.5875 20.4073 7.83333 21.0906 9.7375 C 24.9 9.56667 28.7943 9.23698 32.7734 8.74844 L 32.9203 13.5828 C 29.9172 13.9005 26.7068 14.1568 23.2891 14.3516 C 24.9484 17.0859 27.3531 19.7104 30.5031 22.225 L 26.8406 25.4844 C 22.8125 22.3354 19.7854 18.6979 17.7594 14.5719 C 16.3188 14.6208 14.1458 14.6453 11.2406 14.6453 C 8.33542 14.6453 5.62552 14.6083 3.11094 14.5344 Z M 4.50156 26.7656 C 4.50156 24.1542 5.58802 21.8594 7.76094 19.8813 L 11.9 22.3719 C 10.3125 23.7146 9.51875 25.1063 9.51875 26.5469 C 9.51875 27.9875 10.3732 29.1044 12.082 29.8977 C 13.7909 30.6909 16.2018 31.0875 19.3148 31.0875 C 22.4279 31.0875 25.6932 30.7703 29.1109 30.1359 L 28.8188 35.4094 C 25.7667 35.8 22.8615 35.9953 20.1031 35.9953 C 15.025 35.9953 11.1552 35.2078 8.49375 33.6328 C 5.83229 32.0578 4.50156 29.7688 4.50156 26.7656 Z" /></svg>