<?xml version="1.0" encoding="utf-8" standalone="no"?>
<!DOCTYPE svg PUBLIC "-//W3C//DTD SVG 1.1//EN"
"http://www.w3.org/Graphics/SVG/1.1/DTD/svg11.dtd">

<svg xmlns="http://www.w3.org/2000/svg" version="1.1" xmlns:xlink="http://www.w3.org/1999/xlink" width="32.2578" height="33.1734" viewBox="0 0 32.2578 33.1734"><path stroke="#1987e5" stroke-width="6" stroke-linejoin="round" fill="#1987e5" d="M 3 26.5844 L 17.2453 14.5 L 5.74687 14.9031 L 5.6375 10.4719 L 24.9359 9.92188 L 24.9359 13.8406 L 18.2344 18.9313 C 19.3573 19.151 20.1505 20.213 20.6141 22.1172 C 20.8339 22.9953 20.9745 23.526 21.0359 23.7094 C 21.0974 23.8927 21.238 24.1188 21.4578 24.3875 C 22.1161 25.2177 24.7161 25.2177 29.2578 24.3875 L 29.0016 29.2578 C 27.2922 29.4536 25.4792 29.5516 23.5625 29.5516 C 21.6458 29.5516 20.1628 29.2951 19.1133 28.782 C 18.0638 28.269 17.3802 27.4146 17.0625 26.2188 C 17.0135 26.0479 16.9401 25.7672 16.8422 25.3766 C 16.4276 23.7401 15.9396 22.9219 15.3781 22.9219 C 14.8167 22.9219 14.2247 23.1661 13.6023 23.6547 C 12.9799 24.1432 12.1438 24.8271 11.0938 25.7063 L 6.22344 30.1734 Z M 8.96875 7.46875 L 9.51875 3 C 13.449 3.58646 18.0755 3.90417 23.3984 3.95313 L 22.9953 8.42031 C 17.5995 8.37135 12.924 8.05417 8.96875 7.46875 Z" /><path fill="#ffffff" d="M 3 26.5844 L 17.2453 14.5 L 5.74687 14.9031 L 5.6375 10.4719 L 24.9359 9.92188 L 24.9359 13.8406 L 18.2344 18.9313 C 19.3573 19.151 20.1505 20.213 20.6141 22.1172 C 20.8339 22.9953 20.9745 23.526 21.0359 23.7094 C 21.0974 23.8927 21.238 24.1188 21.4578 24.3875 C 22.1161 25.2177 24.7161 25.2177 29.2578 24.3875 L 29.0016 29.2578 C 27.2922 29.4536 25.4792 29.5516 23.5625 29.5516 C 21.6458 29.5516 20.1628 29.2951 19.1133 28.782 C 18.0638 28.269 17.3802 27.4146 17.0625 26.2188 C 17.0135 26.0479 16.9401 25.7672 16.8422 25.3766 C 16.4276 23.7401 15.9396 22.9219 15.3781 22.9219 C 14.8167 22.9219 14.2247 23.1661 13.6023 23.6547 C 12.9799 24.1432 12.1438 24.8271 11.0938 25.7063 L 6.22344 30.1734 Z M 8.96875 7.46875 L 9.51875 3 C 13.449 3.58646 18.0755 3.90417 23.3984 3.95313 L 22.9953 8.42031 C 17.5995 8.37135 12.924 8.05417 8.96875 7.46875 Z" /></svg>