<?xml version="1.0" encoding="utf-8" standalone="no"?>
<!DOCTYPE svg PUBLIC "-//W3C//DTD SVG 1.1//EN"
"http://www.w3.org/Graphics/SVG/1.1/DTD/svg11.dtd">

<svg xmlns="http://www.w3.org/2000/svg" version="1.1" xmlns:xlink="http://www.w3.org/1999/xlink" width="36.8344" height="35.8828" viewBox="0 0 36.8344 35.8828"><path stroke="#1987e5" stroke-width="6" stroke-linejoin="round" fill="#1987e5" d="M 3 3.69531 L 33.8344 3 L 33.8344 7.83437 C 31.8083 7.95625 30.2581 8.09661 29.1836 8.25547 C 28.1091 8.41432 26.9495 8.71354 25.7047 9.15312 C 22.262 10.325 19.5336 11.9362 17.5195 13.9867 C 15.5055 16.0372 14.4984 18.2039 14.4984 20.4867 C 14.4984 22.7695 15.5359 24.5396 17.6109 25.7969 C 19.6859 27.0542 22.6891 27.6828 26.6203 27.6828 C 27.8651 27.6828 29.4396 27.6219 31.3438 27.5 L 30.6484 32.8469 C 30.1359 32.8708 29.2693 32.8828 28.0484 32.8828 C 21.9203 32.8828 17.3 31.8635 14.1875 29.825 C 11.075 27.7865 9.51875 24.7776 9.51875 20.7984 C 9.51875 18.1609 10.3365 15.6826 11.9719 13.3633 C 13.6073 11.044 15.7677 9.29844 18.4531 8.12656 C 15.1083 8.22448 10.0182 8.44427 3.18281 8.78594 Z" /><path fill="#ffffff" d="M 3 3.69531 L 33.8344 3 L 33.8344 7.83437 C 31.8083 7.95625 30.2581 8.09661 29.1836 8.25547 C 28.1091 8.41432 26.9495 8.71354 25.7047 9.15312 C 22.262 10.325 19.5336 11.9362 17.5195 13.9867 C 15.5055 16.0372 14.4984 18.2039 14.4984 20.4867 C 14.4984 22.7695 15.5359 24.5396 17.6109 25.7969 C 19.6859 27.0542 22.6891 27.6828 26.6203 27.6828 C 27.8651 27.6828 29.4396 27.6219 31.3438 27.5 L 30.6484 32.8469 C 30.1359 32.8708 29.2693 32.8828 28.0484 32.8828 C 21.9203 32.8828 17.3 31.8635 14.1875 29.825 C 11.075 27.7865 9.51875 24.7776 9.51875 20.7984 C 9.51875 18.1609 10.3365 15.6826 11.9719 13.3633 C 13.6073 11.044 15.7677 9.29844 18.4531 8.12656 C 15.1083 8.22448 10.0182 8.44427 3.18281 8.78594 Z" /></svg>