<?xml version="1.0" encoding="utf-8" standalone="no"?>
<!DOCTYPE svg PUBLIC "-//W3C//DTD SVG 1.1//EN"
"http://www.w3.org/Graphics/SVG/1.1/DTD/svg11.dtd">

<svg xmlns="http://www.w3.org/2000/svg" version="1.1" xmlns:xlink="http://www.w3.org/1999/xlink" width="33.9047" height="38.4094" viewBox="0 0 33.9047 38.4094"><path stroke="#1987e5" stroke-width="6" stroke-linejoin="round" fill="#1987e5" d="M 3 26.6578 C 3 22.1161 5.89323 18.4292 11.6797 15.5969 C 10.4589 12.326 9.84844 8.18802 9.84844 3.18281 L 15.2312 3 C 15.2563 7.05312 15.7203 10.5807 16.6234 13.5828 C 19.4068 12.6557 23.6427 11.5453 29.3313 10.2516 L 30.1359 15.3406 C 24.6672 16.2448 19.7969 17.5266 15.525 19.1859 C 13.2542 20.0651 11.4352 21.1089 10.068 22.3172 C 8.70078 23.5255 8.01719 24.844 8.01719 26.2727 C 8.01719 27.7013 8.86562 28.7633 10.5625 29.4586 C 12.2594 30.1539 15.1096 30.5016 19.1133 30.5016 C 23.1169 30.5016 27.0474 30.1599 30.9047 29.4766 L 30.9047 34.7141 C 27.4141 35.1776 23.6792 35.4094 19.7 35.4094 C 13.8646 35.4094 9.6224 34.7135 6.97344 33.3219 C 4.32448 31.9302 3 29.7089 3 26.6578 Z" /><path fill="#ffffff" d="M 3 26.6578 C 3 22.1161 5.89323 18.4292 11.6797 15.5969 C 10.4589 12.326 9.84844 8.18802 9.84844 3.18281 L 15.2312 3 C 15.2563 7.05312 15.7203 10.5807 16.6234 13.5828 C 19.4068 12.6557 23.6427 11.5453 29.3313 10.2516 L 30.1359 15.3406 C 24.6672 16.2448 19.7969 17.5266 15.525 19.1859 C 13.2542 20.0651 11.4352 21.1089 10.068 22.3172 C 8.70078 23.5255 8.01719 24.844 8.01719 26.2727 C 8.01719 27.7013 8.86562 28.7633 10.5625 29.4586 C 12.2594 30.1539 15.1096 30.5016 19.1133 30.5016 C 23.1169 30.5016 27.0474 30.1599 30.9047 29.4766 L 30.9047 34.7141 C 27.4141 35.1776 23.6792 35.4094 19.7 35.4094 C 13.8646 35.4094 9.6224 34.7135 6.97344 33.3219 C 4.32448 31.9302 3 29.7089 3 26.6578 Z" /></svg>