<?xml version="1.0" encoding="utf-8" standalone="no"?>
<!DOCTYPE svg PUBLIC "-//W3C//DTD SVG 1.1//EN"
"http://www.w3.org/Graphics/SVG/1.1/DTD/svg11.dtd">

<svg xmlns="http://www.w3.org/2000/svg" version="1.1" xmlns:xlink="http://www.w3.org/1999/xlink" width="29.2172" height="36.5797" viewBox="0 0 29.2172 36.5797"><path stroke="#1987e5" stroke-width="6" stroke-linejoin="round" fill="#1987e5" d="M 3 13.7312 C 3 11.851 3.15859 10.3005 3.47578 9.07969 C 3.79297 7.85885 4.39115 6.76042 5.27031 5.78437 C 6.90573 3.92812 10.1039 3 14.8648 3 C 19.6258 3 22.763 3.86667 24.2766 5.6 C 25.0339 6.45521 25.5466 7.38333 25.8148 8.38437 C 26.0831 9.38542 26.2172 10.5633 26.2172 11.918 C 26.2172 13.2727 26.0768 14.3956 25.7961 15.2867 C 25.5154 16.1779 25.1005 16.8982 24.5516 17.4477 C 24.0026 17.9971 23.4716 18.4182 22.9586 18.7109 C 22.4456 19.0036 21.8534 19.2784 21.182 19.5352 C 20.5107 19.7919 19.8823 20.0542 19.2969 20.3219 C 17.9292 20.9323 17.2453 21.8479 17.2453 23.0688 L 17.2453 24.7906 L 11.8625 24.7906 L 11.8625 22.9219 C 11.8625 20.6031 12.4115 18.9797 13.5094 18.0516 C 14.3646 17.2953 15.1703 16.7828 15.9266 16.5141 C 18.1245 15.7078 19.3818 15.1464 19.6984 14.8297 L 20.175 14.3531 C 20.6875 13.8406 20.9438 12.9495 20.9438 11.6797 C 20.9438 10.4099 20.4677 9.50052 19.5156 8.95156 C 18.5635 8.4026 16.9034 8.12812 14.5352 8.12812 C 12.1669 8.12812 10.5617 8.51875 9.71953 9.3 C 8.87735 10.0812 8.45625 11.6193 8.45625 13.9141 L 8.45625 14.3891 L 3.03594 14.3891 Z M 11.3859 33.5797 L 11.3859 27.7203 L 17.6844 27.7203 L 17.6844 33.5797 Z" /><path fill="#ffffff" d="M 3 13.7312 C 3 11.851 3.15859 10.3005 3.47578 9.07969 C 3.79297 7.85885 4.39115 6.76042 5.27031 5.78437 C 6.90573 3.92812 10.1039 3 14.8648 3 C 19.6258 3 22.763 3.86667 24.2766 5.6 C 25.0339 6.45521 25.5466 7.38333 25.8148 8.38437 C 26.0831 9.38542 26.2172 10.5633 26.2172 11.918 C 26.2172 13.2727 26.0768 14.3956 25.7961 15.2867 C 25.5154 16.1779 25.1005 16.8982 24.5516 17.4477 C 24.0026 17.9971 23.4716 18.4182 22.9586 18.7109 C 22.4456 19.0036 21.8534 19.2784 21.182 19.5352 C 20.5107 19.7919 19.8823 20.0542 19.2969 20.3219 C 17.9292 20.9323 17.2453 21.8479 17.2453 23.0688 L 17.2453 24.7906 L 11.8625 24.7906 L 11.8625 22.9219 C 11.8625 20.6031 12.4115 18.9797 13.5094 18.0516 C 14.3646 17.2953 15.1703 16.7828 15.9266 16.5141 C 18.1245 15.7078 19.3818 15.1464 19.6984 14.8297 L 20.175 14.3531 C 20.6875 13.8406 20.9438 12.9495 20.9438 11.6797 C 20.9438 10.4099 20.4677 9.50052 19.5156 8.95156 C 18.5635 8.4026 16.9034 8.12812 14.5352 8.12812 C 12.1669 8.12812 10.5617 8.51875 9.71953 9.3 C 8.87735 10.0812 8.45625 11.6193 8.45625 13.9141 L 8.45625 14.3891 L 3.03594 14.3891 Z M 11.3859 33.5797 L 11.3859 27.7203 L 17.6844 27.7203 L 17.6844 33.5797 Z" /></svg>