<?xml version="1.0" encoding="utf-8" standalone="no"?>
<!DOCTYPE svg PUBLIC "-//W3C//DTD SVG 1.1//EN"
"http://www.w3.org/Graphics/SVG/1.1/DTD/svg11.dtd">

<svg xmlns="http://www.w3.org/2000/svg" version="1.1" xmlns:xlink="http://www.w3.org/1999/xlink" width="86.6469" height="27.1984" viewBox="0 0 86.6469 27.1984"><path stroke="#ffffff" stroke-width="6" stroke-linejoin="round" fill="#ffffff" d="M 5.39687 4.76875 L 5.39687 3 L 23.2 3 L 23.2 4.51563 C 21.8885 7.94687 19.7547 11.1667 16.7984 14.175 C 19.8307 16.9833 22.7161 19.8922 25.4547 22.9016 L 24.1484 24.0859 C 21.4557 21.2422 18.5948 18.3375 15.5656 15.3719 C 12.449 18.5146 8.52552 21.2781 3.79531 23.6625 L 3 22.1828 C 7.49271 19.7964 11.2932 17.0724 14.4016 14.0109 C 17.5099 10.9495 19.7443 7.86875 21.1047 4.76875 Z" /><path stroke="#ffffff" stroke-width="6" stroke-linejoin="round" fill="#ffffff" d="M 33.0125 3.56406 L 53.0703 3.56406 L 53.0703 22.5625 L 33.0125 22.5625 L 33.0125 20.7938 L 51.1172 20.7938 L 51.1172 5.33281 L 33.0125 5.33281 Z" /><path stroke="#ffffff" stroke-width="6" stroke-linejoin="round" fill="#ffffff" d="M 61.0516 4.76875 L 61.0516 3.02812 L 83.6469 3.02812 L 83.6469 4.50156 C 83.0437 6.68281 82.0456 8.5901 80.6523 10.2234 C 79.2591 11.8568 77.4646 13.1406 75.2687 14.075 L 74.4187 12.5562 C 78.1406 10.8479 80.5375 8.25208 81.6094 4.76875 Z M 69.85 7.17344 L 71.8312 7.17344 C 71.8312 12.1422 71.2109 15.9294 69.9703 18.5352 C 68.7297 21.1409 66.5891 23.0286 63.5484 24.1984 L 62.8 22.6656 C 65.349 21.6177 67.1612 19.9302 68.2367 17.6031 C 69.3122 15.276 69.85 11.7995 69.85 7.17344 Z" /><path fill="#000000" d="M 5.39687 4.76875 L 5.39687 3 L 23.2 3 L 23.2 4.51563 C 21.8885 7.94687 19.7547 11.1667 16.7984 14.175 C 19.8307 16.9833 22.7161 19.8922 25.4547 22.9016 L 24.1484 24.0859 C 21.4557 21.2422 18.5948 18.3375 15.5656 15.3719 C 12.449 18.5146 8.52552 21.2781 3.79531 23.6625 L 3 22.1828 C 7.49271 19.7964 11.2932 17.0724 14.4016 14.0109 C 17.5099 10.9495 19.7443 7.86875 21.1047 4.76875 Z" /><path fill="#000000" d="M 33.0125 3.56406 L 53.0703 3.56406 L 53.0703 22.5625 L 33.0125 22.5625 L 33.0125 20.7938 L 51.1172 20.7938 L 51.1172 5.33281 L 33.0125 5.33281 Z" /><path fill="#000000" d="M 61.0516 4.76875 L 61.0516 3.02812 L 83.6469 3.02812 L 83.6469 4.50156 C 83.0437 6.68281 82.0456 8.5901 80.6523 10.2234 C 79.2591 11.8568 77.4646 13.1406 75.2687 14.075 L 74.4187 12.5562 C 78.1406 10.8479 80.5375 8.25208 81.6094 4.76875 Z M 69.85 7.17344 L 71.8312 7.17344 C 71.8312 12.1422 71.2109 15.9294 69.9703 18.5352 C 68.7297 21.1409 66.5891 23.0286 63.5484 24.1984 L 62.8 22.6656 C 65.349 21.6177 67.1612 19.9302 68.2367 17.6031 C 69.3122 15.276 69.85 11.7995 69.85 7.17344 Z" /></svg>