<?xml version="1.0" encoding="utf-8" standalone="no"?>
<!DOCTYPE svg PUBLIC "-//W3C//DTD SVG 1.1//EN"
"http://www.w3.org/Graphics/SVG/1.1/DTD/svg11.dtd">

<svg xmlns="http://www.w3.org/2000/svg" version="1.1" xmlns:xlink="http://www.w3.org/1999/xlink" width="39.9469" height="40.0578" viewBox="0 0 39.9469 40.0578"><path stroke="#1987e5" stroke-width="6" stroke-linejoin="round" fill="#1987e5" d="M 4.575 37.0578 C 3.525 33.5911 3 29.1784 3 23.8195 C 3 18.4607 3.63438 12.3021 4.90313 5.34375 L 9.92031 5.56406 C 8.6026 11.5693 7.94375 17.2635 7.94375 22.6469 C 7.94375 28.0302 8.54167 32.6385 9.7375 36.4719 L 4.575 37.0578 Z M 13.8578 35.1359 C 12.4297 33.9755 11.7156 32.425 11.7156 30.4844 C 11.7156 28.5438 12.4846 26.969 14.0227 25.7602 C 15.5607 24.5513 17.6115 23.9469 20.175 23.9469 C 21.2 23.9469 22.2865 24.0693 23.4344 24.3141 L 23.4344 16.3297 L 12.2641 16.3297 L 12.2641 11.6422 L 23.4344 11.6422 L 23.4344 5.05156 L 27.1328 5.05156 C 27.6453 6.36927 28.0359 7.54115 28.3047 8.56719 L 28.3047 11.6422 L 34.2734 11.6422 L 34.2734 16.3297 L 28.3047 16.3297 L 28.3047 26.2172 C 29.6724 26.9745 31.1313 27.988 32.6813 29.2578 C 34.2313 30.5276 35.0672 31.2109 35.1891 31.3078 L 32.2594 35.5203 C 30.8927 34.1286 29.4156 32.8469 27.8281 31.675 C 27.2667 33.3104 26.2596 34.5859 24.807 35.5016 C 23.3544 36.4172 21.5234 36.875 19.3141 36.875 C 17.1047 36.875 15.2859 36.2953 13.8578 35.1359 Z M 16.3656 30.3563 C 16.3656 31.7229 17.501 32.4063 19.7719 32.4063 C 20.9688 32.4063 21.8357 32.1682 22.3727 31.6922 C 22.9096 31.2161 23.2391 30.3438 23.3609 29.075 C 21.9203 28.4646 20.6872 28.1594 19.6617 28.1594 C 18.6362 28.1594 17.8305 28.3547 17.2445 28.7453 C 16.6586 29.1359 16.3656 29.6729 16.3656 30.3563 Z M 27.6828 3.98906 L 30.4656 3.58594 C 31.076 4.95365 31.7109 6.94323 32.3703 9.55469 L 29.55 10.1047 C 28.8906 7.37031 28.2682 5.33177 27.6828 3.98906 Z M 32.2969 3.43906 L 34.9703 3 C 35.8005 4.90417 36.4594 6.88177 36.9469 8.93281 L 34.1641 9.40938 C 33.6516 7.08958 33.0292 5.09948 32.2969 3.43906 Z" /><path fill="#ffffff" d="M 4.575 37.0578 C 3.525 33.5911 3 29.1784 3 23.8195 C 3 18.4607 3.63438 12.3021 4.90313 5.34375 L 9.92031 5.56406 C 8.6026 11.5693 7.94375 17.2635 7.94375 22.6469 C 7.94375 28.0302 8.54167 32.6385 9.7375 36.4719 L 4.575 37.0578 Z M 13.8578 35.1359 C 12.4297 33.9755 11.7156 32.425 11.7156 30.4844 C 11.7156 28.5438 12.4846 26.969 14.0227 25.7602 C 15.5607 24.5513 17.6115 23.9469 20.175 23.9469 C 21.2 23.9469 22.2865 24.0693 23.4344 24.3141 L 23.4344 16.3297 L 12.2641 16.3297 L 12.2641 11.6422 L 23.4344 11.6422 L 23.4344 5.05156 L 27.1328 5.05156 C 27.6453 6.36927 28.0359 7.54115 28.3047 8.56719 L 28.3047 11.6422 L 34.2734 11.6422 L 34.2734 16.3297 L 28.3047 16.3297 L 28.3047 26.2172 C 29.6724 26.9745 31.1313 27.988 32.6813 29.2578 C 34.2313 30.5276 35.0672 31.2109 35.1891 31.3078 L 32.2594 35.5203 C 30.8927 34.1286 29.4156 32.8469 27.8281 31.675 C 27.2667 33.3104 26.2596 34.5859 24.807 35.5016 C 23.3544 36.4172 21.5234 36.875 19.3141 36.875 C 17.1047 36.875 15.2859 36.2953 13.8578 35.1359 Z M 16.3656 30.3563 C 16.3656 31.7229 17.501 32.4063 19.7719 32.4063 C 20.9688 32.4063 21.8357 32.1682 22.3727 31.6922 C 22.9096 31.2161 23.2391 30.3438 23.3609 29.075 C 21.9203 28.4646 20.6872 28.1594 19.6617 28.1594 C 18.6362 28.1594 17.8305 28.3547 17.2445 28.7453 C 16.6586 29.1359 16.3656 29.6729 16.3656 30.3563 Z M 27.6828 3.98906 L 30.4656 3.58594 C 31.076 4.95365 31.7109 6.94323 32.3703 9.55469 L 29.55 10.1047 C 28.8906 7.37031 28.2682 5.33177 27.6828 3.98906 Z M 32.2969 3.43906 L 34.9703 3 C 35.8005 4.90417 36.4594 6.88177 36.9469 8.93281 L 34.1641 9.40938 C 33.6516 7.08958 33.0292 5.09948 32.2969 3.43906 Z" /></svg>