<?xml version="1.0" encoding="utf-8" standalone="no"?>
<!DOCTYPE svg PUBLIC "-//W3C//DTD SVG 1.1//EN"
"http://www.w3.org/Graphics/SVG/1.1/DTD/svg11.dtd">

<svg xmlns="http://www.w3.org/2000/svg" version="1.1" xmlns:xlink="http://www.w3.org/1999/xlink" width="33.8312" height="39.9844" viewBox="0 0 33.8312 39.9844"><path stroke="#1987e5" stroke-width="6" stroke-linejoin="round" fill="#1987e5" d="M 4.09844 22.2641 C 3.36615 21.4578 3 20.6701 3 19.9008 C 3 19.1315 3.27448 18.399 3.82344 17.7031 C 4.3724 17.0073 5.48958 16.0005 7.175 14.6828 C 13.7667 9.53073 18.3807 5.63646 21.0172 3 L 25.5578 6.51563 C 22.5547 8.98125 19.3503 11.5203 15.9445 14.1328 C 12.5388 16.7453 10.5857 18.2651 10.0852 18.6922 C 9.58464 19.1193 9.33438 19.4487 9.33438 19.6805 C 9.33438 19.9122 9.65182 20.2661 10.2867 20.7422 C 10.9216 21.2182 12.0328 21.9813 13.6203 23.0313 C 18.1849 26.1323 22.701 29.5135 27.1688 33.175 L 22.8109 36.9844 C 19.662 34.0792 15.9391 31.1008 11.6422 28.0492 C 7.34531 24.9977 4.83073 23.0693 4.09844 22.2641 Z M 20.6516 13.4375 L 23.2516 12.5219 C 24.2276 13.9375 25.2896 15.9026 26.4375 18.4172 L 23.7641 19.4422 C 22.5182 16.6349 21.4807 14.6333 20.6516 13.4375 Z M 25.0453 12.0453 L 27.6094 11.1297 C 28.8542 12.9849 29.9281 14.926 30.8313 16.9531 L 28.1578 17.9406 C 27.0349 15.451 25.9974 13.4859 25.0453 12.0453 Z" /><path fill="#ffffff" d="M 4.09844 22.2641 C 3.36615 21.4578 3 20.6701 3 19.9008 C 3 19.1315 3.27448 18.399 3.82344 17.7031 C 4.3724 17.0073 5.48958 16.0005 7.175 14.6828 C 13.7667 9.53073 18.3807 5.63646 21.0172 3 L 25.5578 6.51563 C 22.5547 8.98125 19.3503 11.5203 15.9445 14.1328 C 12.5388 16.7453 10.5857 18.2651 10.0852 18.6922 C 9.58464 19.1193 9.33438 19.4487 9.33438 19.6805 C 9.33438 19.9122 9.65182 20.2661 10.2867 20.7422 C 10.9216 21.2182 12.0328 21.9813 13.6203 23.0313 C 18.1849 26.1323 22.701 29.5135 27.1688 33.175 L 22.8109 36.9844 C 19.662 34.0792 15.9391 31.1008 11.6422 28.0492 C 7.34531 24.9977 4.83073 23.0693 4.09844 22.2641 Z M 20.6516 13.4375 L 23.2516 12.5219 C 24.2276 13.9375 25.2896 15.9026 26.4375 18.4172 L 23.7641 19.4422 C 22.5182 16.6349 21.4807 14.6333 20.6516 13.4375 Z M 25.0453 12.0453 L 27.6094 11.1297 C 28.8542 12.9849 29.9281 14.926 30.8313 16.9531 L 28.1578 17.9406 C 27.0349 15.451 25.9974 13.4859 25.0453 12.0453 Z" /></svg>