<?xml version="1.0" encoding="utf-8" standalone="no"?>
<!DOCTYPE svg PUBLIC "-//W3C//DTD SVG 1.1//EN"
"http://www.w3.org/Graphics/SVG/1.1/DTD/svg11.dtd">

<svg xmlns="http://www.w3.org/2000/svg" version="1.1" xmlns:xlink="http://www.w3.org/1999/xlink" width="286.64" height="36.5115" viewBox="0 0 286.64 36.5115"><path stroke="#ffffff" stroke-width="8" stroke-linejoin="round" fill="#ffffff" d="M 29.2405 14.2439 L 29.2405 6.4 L 4 6.4 L 4 9.2 L 26.4405 9.2 L 26.4405 14.1488 C 26.4405 24.8394 21.591 28.9 10.5927 28.9 L 5.07765 28.9 L 5.07765 31.7 L 10.6561 31.7 C 23.6512 31.7 29.2405 26.2035 29.2405 14.2439 Z" /><path stroke="#ffffff" stroke-width="8" stroke-linejoin="round" fill="#ffffff" d="M 61.5405 9.576 L 58.9405 9.576 C 58.6875 12.7139 56.2513 14.2669 52.3278 15.3129 L 38.9546 18.8945 L 38.9546 21.4301 L 50.8405 18.2289 L 50.8405 31.6995 L 53.3405 31.6995 L 53.3405 17.5633 C 57.9598 16.2321 61.16 14.2036 61.5405 9.576 Z" /><path stroke="#ffffff" stroke-width="8" stroke-linejoin="round" fill="#ffffff" d="M 92.5178 20.2 L 92.5178 17.2 L 67.827 17.2 L 67.827 20.2 Z" /><path stroke="#ffffff" stroke-width="8" stroke-linejoin="round" fill="#ffffff" d="M 124.54 9.4 L 124.54 4.3 L 122.74 4.3 L 122.74 9.4 Z M 121.14 9.4 L 121.14 4.3 L 119.44 4.3 L 119.44 9.4 Z M 123.576 31.7454 C 122.837 25.0893 120.12 13.2985 117.149 5.62216 L 114.094 5.62216 C 116.99 12.6329 119.873 24.804 120.553 31.7454 Z M 103.94 5.62216 L 100.84 5.62216 C 100.555 12.6329 98.6852 23.98 95.3254 31.7137 L 98.5901 31.7137 C 101.863 24.2652 103.557 12.7914 103.94 5.62216 Z" /><path stroke="#ffffff" stroke-width="8" stroke-linejoin="round" fill="#ffffff" d="M 155.918 20.2 L 155.918 17.2 L 131.227 17.2 L 131.227 20.2 Z" /><path stroke="#ffffff" stroke-width="8" stroke-linejoin="round" fill="#ffffff" d="M 188.384 16.2 L 188.384 13.7 L 181.268 13.7 L 181.268 8.8 L 187.528 8.8 L 187.528 6.3 L 181.268 6.3 L 181.268 4 L 178.485 4 L 178.485 6.3 L 172.377 6.3 L 172.377 8.8 L 178.485 8.8 L 178.485 13.7 L 171.523 13.7 L 171.523 16.2 Z M 188.384 23.2 L 188.384 20.7 L 186.64 20.7 L 186.64 17.8123 L 183.923 17.8123 L 183.923 20.7 L 171.523 20.7 L 171.523 23.2 L 183.923 23.2 L 183.923 28.6304 C 183.923 29.2907 183.385 29.8567 182.69 29.8567 L 179.94 29.8567 L 179.94 32.5115 L 183.164 32.5115 C 185.155 32.5115 186.64 31.1803 186.64 29.0391 L 186.64 23.2 Z M 177.883 30.8 L 175.953 24.7 L 173.295 24.7 L 175.225 30.8 Z M 169.94 31.6558 L 169.94 4.56715 L 160.74 4.56715 L 160.74 31.6558 Z M 167.54 16.4 L 163.14 16.4 L 163.14 7.16539 L 167.54 7.16539 Z M 167.54 29.102 L 163.14 29.102 L 163.14 19 L 167.54 19 Z" /><path stroke="#ffffff" stroke-width="8" stroke-linejoin="round" fill="#ffffff" d="M 219.444 32.1793 L 219.444 28.4075 L 212.419 22.2586 C 215.284 18.6453 216.94 14.0177 216.94 8.33956 L 216.94 6.3 L 193.529 6.3 L 193.529 9.2 L 213.94 9.2 C 213.782 21.2443 203.861 27.5834 192.673 28.8512 L 192.673 31.7038 C 199.614 31.0382 205.921 28.6611 210.391 24.4456 Z" /><path stroke="#ffffff" stroke-width="8" stroke-linejoin="round" fill="#ffffff" d="M 250.84 31.2 L 250.84 6.7 L 226.166 6.7 L 226.166 9.5 L 247.94 9.5 L 247.94 28.4 L 226.166 28.4 L 226.166 31.2 Z" /><path stroke="#ffffff" stroke-width="8" stroke-linejoin="round" fill="#ffffff" d="M 282.64 11.5446 L 282.64 6 L 255.868 6 L 255.868 8.8 L 279.74 8.8 L 279.74 11.7041 C 279.74 17.8957 275.856 20.8 269.193 20.8 L 269.193 23.7 C 277.467 23.5739 282.64 19.5234 282.64 11.5446 Z M 268.34 18.2468 L 268.34 14.385 L 265.44 14.385 L 265.44 18.0234 C 265.44 23.9221 262.334 28.4922 255.868 29 L 255.868 31.9 C 263.539 31.2695 268.34 25.6994 268.34 18.2468 Z" /><path fill="#000000" d="M 29.2405 14.2439 L 29.2405 6.4 L 4 6.4 L 4 9.2 L 26.4405 9.2 L 26.4405 14.1488 C 26.4405 24.8394 21.591 28.9 10.5927 28.9 L 5.07765 28.9 L 5.07765 31.7 L 10.6561 31.7 C 23.6512 31.7 29.2405 26.2035 29.2405 14.2439 Z" /><path fill="#000000" d="M 61.5405 9.576 L 58.9405 9.576 C 58.6875 12.7139 56.2513 14.2669 52.3278 15.3129 L 38.9546 18.8945 L 38.9546 21.4301 L 50.8405 18.2289 L 50.8405 31.6995 L 53.3405 31.6995 L 53.3405 17.5633 C 57.9598 16.2321 61.16 14.2036 61.5405 9.576 Z" /><path fill="#000000" d="M 92.5178 20.2 L 92.5178 17.2 L 67.827 17.2 L 67.827 20.2 Z" /><path fill="#000000" d="M 124.54 9.4 L 124.54 4.3 L 122.74 4.3 L 122.74 9.4 Z M 121.14 9.4 L 121.14 4.3 L 119.44 4.3 L 119.44 9.4 Z M 123.576 31.7454 C 122.837 25.0893 120.12 13.2985 117.149 5.62216 L 114.094 5.62216 C 116.99 12.6329 119.873 24.804 120.553 31.7454 Z M 103.94 5.62216 L 100.84 5.62216 C 100.555 12.6329 98.6852 23.98 95.3254 31.7137 L 98.5901 31.7137 C 101.863 24.2652 103.557 12.7914 103.94 5.62216 Z" /><path fill="#000000" d="M 155.918 20.2 L 155.918 17.2 L 131.227 17.2 L 131.227 20.2 Z" /><path fill="#000000" d="M 188.384 16.2 L 188.384 13.7 L 181.268 13.7 L 181.268 8.8 L 187.528 8.8 L 187.528 6.3 L 181.268 6.3 L 181.268 4 L 178.485 4 L 178.485 6.3 L 172.377 6.3 L 172.377 8.8 L 178.485 8.8 L 178.485 13.7 L 171.523 13.7 L 171.523 16.2 Z M 188.384 23.2 L 188.384 20.7 L 186.64 20.7 L 186.64 17.8123 L 183.923 17.8123 L 183.923 20.7 L 171.523 20.7 L 171.523 23.2 L 183.923 23.2 L 183.923 28.6304 C 183.923 29.2907 183.385 29.8567 182.69 29.8567 L 179.94 29.8567 L 179.94 32.5115 L 183.164 32.5115 C 185.155 32.5115 186.64 31.1803 186.64 29.0391 L 186.64 23.2 Z M 177.883 30.8 L 175.953 24.7 L 173.295 24.7 L 175.225 30.8 Z M 169.94 31.6558 L 169.94 4.56715 L 160.74 4.56715 L 160.74 31.6558 Z M 167.54 16.4 L 163.14 16.4 L 163.14 7.16539 L 167.54 7.16539 Z M 167.54 29.102 L 163.14 29.102 L 163.14 19 L 167.54 19 Z" /><path fill="#000000" d="M 219.444 32.1793 L 219.444 28.4075 L 212.419 22.2586 C 215.284 18.6453 216.94 14.0177 216.94 8.33956 L 216.94 6.3 L 193.529 6.3 L 193.529 9.2 L 213.94 9.2 C 213.782 21.2443 203.861 27.5834 192.673 28.8512 L 192.673 31.7038 C 199.614 31.0382 205.921 28.6611 210.391 24.4456 Z" /><path fill="#000000" d="M 250.84 31.2 L 250.84 6.7 L 226.166 6.7 L 226.166 9.5 L 247.94 9.5 L 247.94 28.4 L 226.166 28.4 L 226.166 31.2 Z" /><path fill="#000000" d="M 282.64 11.5446 L 282.64 6 L 255.868 6 L 255.868 8.8 L 279.74 8.8 L 279.74 11.7041 C 279.74 17.8957 275.856 20.8 269.193 20.8 L 269.193 23.7 C 277.467 23.5739 282.64 19.5234 282.64 11.5446 Z M 268.34 18.2468 L 268.34 14.385 L 265.44 14.385 L 265.44 18.0234 C 265.44 23.9221 262.334 28.4922 255.868 29 L 255.868 31.9 C 263.539 31.2695 268.34 25.6994 268.34 18.2468 Z" /></svg>