<?xml version="1.0" encoding="utf-8" standalone="no"?>
<!DOCTYPE svg PUBLIC "-//W3C//DTD SVG 1.1//EN"
"http://www.w3.org/Graphics/SVG/1.1/DTD/svg11.dtd">

<svg xmlns="http://www.w3.org/2000/svg" version="1.1" xmlns:xlink="http://www.w3.org/1999/xlink" width="39.2156" height="38.4109" viewBox="0 0 39.2156 38.4109"><path stroke="#1987e5" stroke-width="6" stroke-linejoin="round" fill="#1987e5" d="M 3 24.9734 C 3 20.0661 4.74583 16.001 8.2375 12.7781 C 7.55417 10.6792 6.98021 8.51875 6.51563 6.29687 L 11.0938 4.35625 C 11.5333 6.48021 11.9849 8.33541 12.4484 9.92188 C 15.037 8.70104 17.8693 8.09062 20.9453 8.09062 C 21.6286 8.09062 22.3245 8.1276 23.0328 8.20156 C 23.5453 6.5651 23.9844 4.83125 24.35 3 L 29.4047 4.39219 C 29.038 5.85677 28.5495 7.51719 27.9391 9.37344 C 30.5276 10.4224 32.5542 12.0273 34.0187 14.1883 C 35.4833 16.3492 36.2156 18.8823 36.2156 21.7875 C 36.2156 25.5958 34.9461 28.6901 32.407 31.0703 C 29.868 33.4505 26.3036 34.8974 21.7141 35.4109 L 19.7359 30.3563 C 23.3984 30.2344 26.2367 29.4227 28.2508 27.9211 C 30.2648 26.4195 31.2719 24.3016 31.2719 21.5672 C 31.2719 19.8099 30.8385 18.2536 29.9719 16.8984 C 29.1052 15.5432 27.9026 14.4875 26.3641 13.7312 C 23.2391 21.6167 19.626 27.3047 15.525 30.7953 C 13.3521 32.6516 11.2831 33.5797 9.31797 33.5797 C 7.35287 33.5797 5.80859 32.8107 4.68516 31.2727 C 3.56172 29.7346 3 27.6349 3 24.9734 Z M 7.61406 24.6797 C 7.61406 25.8516 7.80937 26.7977 8.2 27.518 C 8.59062 28.2383 9.07917 28.5984 9.66562 28.5984 C 10.7396 28.5984 12.1802 27.5245 13.9875 25.3766 C 12.4979 23.1297 11.1672 20.5661 9.99531 17.6859 C 8.40781 19.7849 7.61406 22.1161 7.61406 24.6797 Z M 13.8406 14.3172 C 14.7677 16.8068 15.8417 19.0651 17.0625 21.0922 C 18.65 18.5766 20.1026 15.7198 21.4203 12.5219 L 20.7609 12.5219 C 18.2714 12.5219 15.9646 13.1203 13.8406 14.3172 Z" /><path fill="#ffffff" d="M 3 24.9734 C 3 20.0661 4.74583 16.001 8.2375 12.7781 C 7.55417 10.6792 6.98021 8.51875 6.51563 6.29687 L 11.0938 4.35625 C 11.5333 6.48021 11.9849 8.33541 12.4484 9.92188 C 15.037 8.70104 17.8693 8.09062 20.9453 8.09062 C 21.6286 8.09062 22.3245 8.1276 23.0328 8.20156 C 23.5453 6.5651 23.9844 4.83125 24.35 3 L 29.4047 4.39219 C 29.038 5.85677 28.5495 7.51719 27.9391 9.37344 C 30.5276 10.4224 32.5542 12.0273 34.0187 14.1883 C 35.4833 16.3492 36.2156 18.8823 36.2156 21.7875 C 36.2156 25.5958 34.9461 28.6901 32.407 31.0703 C 29.868 33.4505 26.3036 34.8974 21.7141 35.4109 L 19.7359 30.3563 C 23.3984 30.2344 26.2367 29.4227 28.2508 27.9211 C 30.2648 26.4195 31.2719 24.3016 31.2719 21.5672 C 31.2719 19.8099 30.8385 18.2536 29.9719 16.8984 C 29.1052 15.5432 27.9026 14.4875 26.3641 13.7312 C 23.2391 21.6167 19.626 27.3047 15.525 30.7953 C 13.3521 32.6516 11.2831 33.5797 9.31797 33.5797 C 7.35287 33.5797 5.80859 32.8107 4.68516 31.2727 C 3.56172 29.7346 3 27.6349 3 24.9734 Z M 7.61406 24.6797 C 7.61406 25.8516 7.80937 26.7977 8.2 27.518 C 8.59062 28.2383 9.07917 28.5984 9.66562 28.5984 C 10.7396 28.5984 12.1802 27.5245 13.9875 25.3766 C 12.4979 23.1297 11.1672 20.5661 9.99531 17.6859 C 8.40781 19.7849 7.61406 22.1161 7.61406 24.6797 Z M 13.8406 14.3172 C 14.7677 16.8068 15.8417 19.0651 17.0625 21.0922 C 18.65 18.5766 20.1026 15.7198 21.4203 12.5219 L 20.7609 12.5219 C 18.2714 12.5219 15.9646 13.1203 13.8406 14.3172 Z" /></svg>