<?xml version="1.0" encoding="utf-8" standalone="no"?>
<!DOCTYPE svg PUBLIC "-//W3C//DTD SVG 1.1//EN"
"http://www.w3.org/Graphics/SVG/1.1/DTD/svg11.dtd">

<svg xmlns="http://www.w3.org/2000/svg" version="1.1" xmlns:xlink="http://www.w3.org/1999/xlink" width="37.1281" height="38.4844" viewBox="0 0 37.1281 38.4844"><path stroke="#1987e5" stroke-width="6" stroke-linejoin="round" fill="#1987e5" d="M 3 22.6297 C 6.85729 19.0901 9.94583 15.4156 12.2656 11.6062 L 4.75781 11.6797 L 4.75781 7.24844 L 14.5719 7.10156 C 15.0604 5.97865 15.5365 4.61146 16 3 L 21.0547 3.32969 C 20.7609 4.42865 20.3458 5.66198 19.8094 7.02969 L 31.0891 6.84531 L 31.0891 11.35 L 17.7578 11.5328 C 17.0505 12.8276 16.4401 13.7677 15.9266 14.3531 C 16.6839 13.9625 17.5995 13.7672 18.6734 13.7672 C 21.3589 13.7672 23.1776 14.9271 24.1297 17.2469 L 32.2234 14.5 L 34.1281 19.1141 C 30.7344 19.8224 27.7193 20.6646 25.0828 21.6406 C 25.1557 22.3729 25.1922 24.3995 25.1922 27.7203 L 20.4688 27.7203 L 20.5047 24.5703 L 20.5047 23.5813 C 18.7474 24.4365 17.3682 25.2911 16.3672 26.1453 C 15.3661 26.9995 14.8656 27.7807 14.8656 28.4891 C 14.8656 30.1005 17.4411 30.9063 22.5922 30.9063 C 26.4495 30.9063 29.55 30.6375 31.8938 30.1 L 31.7844 35.0078 C 29.7333 35.3255 27.0354 35.4844 23.6906 35.4844 C 19.0521 35.4844 15.6159 34.9531 13.382 33.8906 C 11.1482 32.8281 10.0313 31.2109 10.0313 29.0391 C 10.0313 25.3036 13.2297 21.9708 19.6266 19.0406 C 19.113 18.1375 18.3563 17.6859 17.3563 17.6859 C 14.6948 17.6859 10.9958 20.5177 6.25938 26.1812 Z" /><path fill="#ffffff" d="M 3 22.6297 C 6.85729 19.0901 9.94583 15.4156 12.2656 11.6062 L 4.75781 11.6797 L 4.75781 7.24844 L 14.5719 7.10156 C 15.0604 5.97865 15.5365 4.61146 16 3 L 21.0547 3.32969 C 20.7609 4.42865 20.3458 5.66198 19.8094 7.02969 L 31.0891 6.84531 L 31.0891 11.35 L 17.7578 11.5328 C 17.0505 12.8276 16.4401 13.7677 15.9266 14.3531 C 16.6839 13.9625 17.5995 13.7672 18.6734 13.7672 C 21.3589 13.7672 23.1776 14.9271 24.1297 17.2469 L 32.2234 14.5 L 34.1281 19.1141 C 30.7344 19.8224 27.7193 20.6646 25.0828 21.6406 C 25.1557 22.3729 25.1922 24.3995 25.1922 27.7203 L 20.4688 27.7203 L 20.5047 24.5703 L 20.5047 23.5813 C 18.7474 24.4365 17.3682 25.2911 16.3672 26.1453 C 15.3661 26.9995 14.8656 27.7807 14.8656 28.4891 C 14.8656 30.1005 17.4411 30.9063 22.5922 30.9063 C 26.4495 30.9063 29.55 30.6375 31.8938 30.1 L 31.7844 35.0078 C 29.7333 35.3255 27.0354 35.4844 23.6906 35.4844 C 19.0521 35.4844 15.6159 34.9531 13.382 33.8906 C 11.1482 32.8281 10.0313 31.2109 10.0313 29.0391 C 10.0313 25.3036 13.2297 21.9708 19.6266 19.0406 C 19.113 18.1375 18.3563 17.6859 17.3563 17.6859 C 14.6948 17.6859 10.9958 20.5177 6.25938 26.1812 Z" /></svg>