<?xml version="1.0" encoding="utf-8" standalone="no"?>
<!DOCTYPE svg PUBLIC "-//W3C//DTD SVG 1.1//EN"
"http://www.w3.org/Graphics/SVG/1.1/DTD/svg11.dtd">

<svg xmlns="http://www.w3.org/2000/svg" version="1.1" xmlns:xlink="http://www.w3.org/1999/xlink" width="39.3984" height="33.3938" viewBox="0 0 39.3984 33.3938"><path stroke="#1987e5" stroke-width="6" stroke-linejoin="round" fill="#1987e5" d="M 3 5.85625 C 6.61354 5.075 10.4404 4.40365 14.4805 3.84219 C 18.5206 3.28073 21.4932 3 23.3984 3 C 27.5234 3 30.7214 4.04974 32.9922 6.14922 C 35.263 8.2487 36.3984 11.2031 36.3984 15.0125 C 36.3984 19.9927 34.2927 23.8013 30.0813 26.4383 C 25.8698 29.0753 19.7969 30.3937 11.8625 30.3938 L 9.88438 25.1187 C 10.2021 25.1437 11.0688 25.1563 12.4844 25.1563 C 18.4167 25.1563 22.9943 24.2651 26.2172 22.4828 C 29.4401 20.7005 31.0516 18.137 31.0516 14.7922 C 31.0516 12.5703 30.3862 10.8734 29.0555 9.70156 C 27.7247 8.52969 25.8021 7.94375 23.2875 7.94375 C 21.4813 7.94375 18.7104 8.2612 14.975 8.89609 C 11.2396 9.53099 7.66302 10.3 4.24531 11.2031 Z" /><path fill="#ffffff" d="M 3 5.85625 C 6.61354 5.075 10.4404 4.40365 14.4805 3.84219 C 18.5206 3.28073 21.4932 3 23.3984 3 C 27.5234 3 30.7214 4.04974 32.9922 6.14922 C 35.263 8.2487 36.3984 11.2031 36.3984 15.0125 C 36.3984 19.9927 34.2927 23.8013 30.0813 26.4383 C 25.8698 29.0753 19.7969 30.3937 11.8625 30.3938 L 9.88438 25.1187 C 10.2021 25.1437 11.0688 25.1563 12.4844 25.1563 C 18.4167 25.1563 22.9943 24.2651 26.2172 22.4828 C 29.4401 20.7005 31.0516 18.137 31.0516 14.7922 C 31.0516 12.5703 30.3862 10.8734 29.0555 9.70156 C 27.7247 8.52969 25.8021 7.94375 23.2875 7.94375 C 21.4813 7.94375 18.7104 8.2612 14.975 8.89609 C 11.2396 9.53099 7.66302 10.3 4.24531 11.2031 Z" /></svg>