<?xml version="1.0" encoding="utf-8" standalone="no"?>
<!DOCTYPE svg PUBLIC "-//W3C//DTD SVG 1.1//EN"
"http://www.w3.org/Graphics/SVG/1.1/DTD/svg11.dtd">

<svg xmlns="http://www.w3.org/2000/svg" version="1.1" xmlns:xlink="http://www.w3.org/1999/xlink" width="39.9484" height="40.6062" viewBox="0 0 39.9484 40.6062"><path stroke="#1987e5" stroke-width="6" stroke-linejoin="round" fill="#1987e5" d="M 3 12.3375 L 3.0375 7.61406 L 17.0266 7.28438 L 17.0266 11.4953 C 14.7068 12.6432 12.7352 14.5294 11.1117 17.1539 C 9.48828 19.7784 8.67656 22.3417 8.67656 24.8438 C 8.67656 27.3458 9.32969 29.2867 10.6359 30.6664 C 11.9422 32.0461 13.8099 32.7359 16.2391 32.7359 C 18.6682 32.7359 20.6273 31.7898 22.1164 29.8977 C 23.6055 28.0055 24.35 25.387 24.35 22.0422 C 24.35 20.3089 24.1424 18.3802 23.7273 16.2563 C 23.3122 14.1323 22.7995 12.3865 22.1891 11.0188 C 22.0672 10.7021 21.5057 9.66458 20.5047 7.90625 L 25.5594 6.47813 C 27.8781 11.0437 31.4182 15.4016 36.1797 19.5516 L 33.3953 23.6172 C 31.1495 21.8349 29.5016 20.2115 28.4516 18.7469 C 28.7932 19.9677 28.9641 21.4323 28.9641 23.1406 C 28.9641 27.5594 27.768 31.075 25.3758 33.6875 C 22.9836 36.3 19.8586 37.6063 16.0008 37.6063 C 12.143 37.6063 9.15833 36.526 7.04688 34.3656 C 4.93542 32.2052 3.87969 29.2448 3.87969 25.4844 C 3.87969 22.9948 4.40443 20.5232 5.45391 18.0695 C 6.50339 15.6159 7.89479 13.5833 9.62813 11.9719 Z M 27.0234 5.52656 L 29.6234 4.5375 C 30.6495 5.88021 31.724 7.6625 32.8469 9.88438 L 30.2469 10.9828 C 29.05 8.63906 27.9755 6.82031 27.0234 5.52656 Z M 31.1625 3.9875 L 33.6891 3 C 34.9339 4.70833 36.0203 6.46615 36.9484 8.27344 L 34.3484 9.37187 C 33.3474 7.34479 32.2854 5.55 31.1625 3.9875 Z" /><path fill="#ffffff" d="M 3 12.3375 L 3.0375 7.61406 L 17.0266 7.28438 L 17.0266 11.4953 C 14.7068 12.6432 12.7352 14.5294 11.1117 17.1539 C 9.48828 19.7784 8.67656 22.3417 8.67656 24.8438 C 8.67656 27.3458 9.32969 29.2867 10.6359 30.6664 C 11.9422 32.0461 13.8099 32.7359 16.2391 32.7359 C 18.6682 32.7359 20.6273 31.7898 22.1164 29.8977 C 23.6055 28.0055 24.35 25.387 24.35 22.0422 C 24.35 20.3089 24.1424 18.3802 23.7273 16.2563 C 23.3122 14.1323 22.7995 12.3865 22.1891 11.0188 C 22.0672 10.7021 21.5057 9.66458 20.5047 7.90625 L 25.5594 6.47813 C 27.8781 11.0437 31.4182 15.4016 36.1797 19.5516 L 33.3953 23.6172 C 31.1495 21.8349 29.5016 20.2115 28.4516 18.7469 C 28.7932 19.9677 28.9641 21.4323 28.9641 23.1406 C 28.9641 27.5594 27.768 31.075 25.3758 33.6875 C 22.9836 36.3 19.8586 37.6063 16.0008 37.6063 C 12.143 37.6063 9.15833 36.526 7.04688 34.3656 C 4.93542 32.2052 3.87969 29.2448 3.87969 25.4844 C 3.87969 22.9948 4.40443 20.5232 5.45391 18.0695 C 6.50339 15.6159 7.89479 13.5833 9.62813 11.9719 Z M 27.0234 5.52656 L 29.6234 4.5375 C 30.6495 5.88021 31.724 7.6625 32.8469 9.88438 L 30.2469 10.9828 C 29.05 8.63906 27.9755 6.82031 27.0234 5.52656 Z M 31.1625 3.9875 L 33.6891 3 C 34.9339 4.70833 36.0203 6.46615 36.9484 8.27344 L 34.3484 9.37187 C 33.3474 7.34479 32.2854 5.55 31.1625 3.9875 Z" /></svg>