<?xml version="1.0" encoding="utf-8" standalone="no"?>
<!DOCTYPE svg PUBLIC "-//W3C//DTD SVG 1.1//EN"
"http://www.w3.org/Graphics/SVG/1.1/DTD/svg11.dtd">

<svg xmlns="http://www.w3.org/2000/svg" version="1.1" xmlns:xlink="http://www.w3.org/1999/xlink" width="37.7516" height="37.8969" viewBox="0 0 37.7516 37.8969"><path stroke="#1987e5" stroke-width="6" stroke-linejoin="round" fill="#1987e5" d="M 3 21.0547 L 21.0187 7.725 L 8.05469 8.01719 L 8.05469 3.25625 L 29.6234 3 L 29.6234 7.24844 L 19.8469 14.2797 C 20.6771 13.987 21.8734 13.8406 23.4359 13.8406 C 26.8536 13.8406 29.594 14.7437 31.657 16.55 C 33.7201 18.3562 34.7516 20.749 34.7516 23.7281 C 34.7516 27.0969 33.4393 29.8005 30.8148 31.8391 C 28.1904 33.8776 24.7172 34.8969 20.3953 34.8969 C 17.1974 34.8969 14.6586 34.3109 12.7789 33.1391 C 10.8992 31.9672 9.95937 30.4536 9.95937 28.5984 C 9.95937 26.7432 10.6185 25.2602 11.9367 24.1492 C 13.2549 23.0383 14.9271 22.4828 16.9531 22.4828 C 18.9792 22.4828 20.7674 23.1052 22.318 24.35 C 23.8685 25.5948 24.9734 27.2672 25.6328 29.3672 C 28.4651 28.1714 29.8813 26.3036 29.8813 23.7641 C 29.8813 19.9307 27.0734 18.0141 21.4578 18.0141 C 17.7224 18.0141 14.1703 19.125 10.8016 21.3469 C 10.2401 21.7375 8.49427 23.0927 5.56406 25.4125 Z M 14.6469 28.1594 C 14.6469 28.8427 15.1167 29.3857 16.0562 29.7883 C 16.9958 30.1909 18.2839 30.3922 19.9203 30.3922 C 20.4078 30.3922 20.7615 30.3802 20.9812 30.3563 C 20.2979 27.8417 18.9797 26.5844 17.0266 26.5844 C 16.3182 26.5844 15.7445 26.7307 15.3055 27.0234 C 14.8664 27.3161 14.6469 27.6948 14.6469 28.1594 Z" /><path fill="#ffffff" d="M 3 21.0547 L 21.0187 7.725 L 8.05469 8.01719 L 8.05469 3.25625 L 29.6234 3 L 29.6234 7.24844 L 19.8469 14.2797 C 20.6771 13.987 21.8734 13.8406 23.4359 13.8406 C 26.8536 13.8406 29.594 14.7437 31.657 16.55 C 33.7201 18.3562 34.7516 20.749 34.7516 23.7281 C 34.7516 27.0969 33.4393 29.8005 30.8148 31.8391 C 28.1904 33.8776 24.7172 34.8969 20.3953 34.8969 C 17.1974 34.8969 14.6586 34.3109 12.7789 33.1391 C 10.8992 31.9672 9.95937 30.4536 9.95937 28.5984 C 9.95937 26.7432 10.6185 25.2602 11.9367 24.1492 C 13.2549 23.0383 14.9271 22.4828 16.9531 22.4828 C 18.9792 22.4828 20.7674 23.1052 22.318 24.35 C 23.8685 25.5948 24.9734 27.2672 25.6328 29.3672 C 28.4651 28.1714 29.8813 26.3036 29.8813 23.7641 C 29.8813 19.9307 27.0734 18.0141 21.4578 18.0141 C 17.7224 18.0141 14.1703 19.125 10.8016 21.3469 C 10.2401 21.7375 8.49427 23.0927 5.56406 25.4125 Z M 14.6469 28.1594 C 14.6469 28.8427 15.1167 29.3857 16.0562 29.7883 C 16.9958 30.1909 18.2839 30.3922 19.9203 30.3922 C 20.4078 30.3922 20.7615 30.3802 20.9812 30.3563 C 20.2979 27.8417 18.9797 26.5844 17.0266 26.5844 C 16.3182 26.5844 15.7445 26.7307 15.3055 27.0234 C 14.8664 27.3161 14.6469 27.6948 14.6469 28.1594 Z" /></svg>