<?xml version="1.0" encoding="utf-8" standalone="no"?>
<!DOCTYPE svg PUBLIC "-//W3C//DTD SVG 1.1//EN"
"http://www.w3.org/Graphics/SVG/1.1/DTD/svg11.dtd">

<svg xmlns="http://www.w3.org/2000/svg" version="1.1" xmlns:xlink="http://www.w3.org/1999/xlink" width="41.0094" height="38.2625" viewBox="0 0 41.0094 38.2625"><path stroke="#1987e5" stroke-width="6" stroke-linejoin="round" fill="#1987e5" d="M 3 33.0297 C 6.66146 27.9266 9.3349 21.8349 11.0203 14.7547 C 6.62552 15.0234 4.0375 15.1823 3.25625 15.2312 L 3.07344 10.3609 C 4.00052 10.312 5.48958 10.2508 7.54063 10.1773 C 9.59167 10.1039 11.0807 10.0427 12.0078 9.99375 C 12.3016 8.35833 12.6068 6.02708 12.9234 3 L 18.0516 3.40312 C 17.8318 5.6 17.5385 7.74844 17.1719 9.84844 L 18.4172 9.81094 C 21.6151 9.81094 23.8854 10.5372 25.2281 11.9898 C 26.5708 13.4424 27.2422 15.8534 27.2422 19.2227 C 27.2422 22.5919 26.937 26.0224 26.3266 29.5141 C 25.7651 32.3214 24.4104 34.0792 22.2625 34.7875 C 21.3594 35.0802 20.3583 35.2266 19.2594 35.2266 C 18.1604 35.2266 16.5615 35.0922 14.4625 34.8234 L 13.5469 29.3672 C 15.7688 29.8557 17.4534 30.1 18.6008 30.1 C 19.7482 30.1 20.5109 29.8497 20.8891 29.3492 C 21.2672 28.8487 21.5542 28.1589 21.75 27.2797 C 22.2625 24.887 22.5188 22.1161 22.5188 18.9672 C 22.5188 17.1109 22.2258 15.9021 21.6398 15.3406 C 21.0539 14.7792 19.8089 14.4984 17.9047 14.4984 C 17.2214 14.4984 16.6599 14.5109 16.2203 14.5359 C 14.2672 22.9828 11.5328 29.8917 8.01719 35.2625 Z M 26.3266 8.96875 L 30.7953 6.99062 C 32.2109 8.79792 33.6146 11.2273 35.0063 14.2789 C 36.3979 17.3305 37.399 20.187 38.0094 22.8484 L 33.2484 24.7891 C 32.638 21.9818 31.6677 19.0766 30.3375 16.0734 C 29.0073 13.0703 27.6703 10.7021 26.3266 8.96875 Z" /><path fill="#ffffff" d="M 3 33.0297 C 6.66146 27.9266 9.3349 21.8349 11.0203 14.7547 C 6.62552 15.0234 4.0375 15.1823 3.25625 15.2312 L 3.07344 10.3609 C 4.00052 10.312 5.48958 10.2508 7.54063 10.1773 C 9.59167 10.1039 11.0807 10.0427 12.0078 9.99375 C 12.3016 8.35833 12.6068 6.02708 12.9234 3 L 18.0516 3.40312 C 17.8318 5.6 17.5385 7.74844 17.1719 9.84844 L 18.4172 9.81094 C 21.6151 9.81094 23.8854 10.5372 25.2281 11.9898 C 26.5708 13.4424 27.2422 15.8534 27.2422 19.2227 C 27.2422 22.5919 26.937 26.0224 26.3266 29.5141 C 25.7651 32.3214 24.4104 34.0792 22.2625 34.7875 C 21.3594 35.0802 20.3583 35.2266 19.2594 35.2266 C 18.1604 35.2266 16.5615 35.0922 14.4625 34.8234 L 13.5469 29.3672 C 15.7688 29.8557 17.4534 30.1 18.6008 30.1 C 19.7482 30.1 20.5109 29.8497 20.8891 29.3492 C 21.2672 28.8487 21.5542 28.1589 21.75 27.2797 C 22.2625 24.887 22.5188 22.1161 22.5188 18.9672 C 22.5188 17.1109 22.2258 15.9021 21.6398 15.3406 C 21.0539 14.7792 19.8089 14.4984 17.9047 14.4984 C 17.2214 14.4984 16.6599 14.5109 16.2203 14.5359 C 14.2672 22.9828 11.5328 29.8917 8.01719 35.2625 Z M 26.3266 8.96875 L 30.7953 6.99062 C 32.2109 8.79792 33.6146 11.2273 35.0063 14.2789 C 36.3979 17.3305 37.399 20.187 38.0094 22.8484 L 33.2484 24.7891 C 32.638 21.9818 31.6677 19.0766 30.3375 16.0734 C 29.0073 13.0703 27.6703 10.7021 26.3266 8.96875 Z" /></svg>