<?xml version="1.0" encoding="utf-8" standalone="no"?>
<!DOCTYPE svg PUBLIC "-//W3C//DTD SVG 1.1//EN"
"http://www.w3.org/Graphics/SVG/1.1/DTD/svg11.dtd">

<svg xmlns="http://www.w3.org/2000/svg" version="1.1" xmlns:xlink="http://www.w3.org/1999/xlink" width="41.4859" height="39.9469" viewBox="0 0 41.4859 39.9469"><path stroke="#1987e5" stroke-width="6" stroke-linejoin="round" fill="#1987e5" d="M 3 34.7141 C 6.6375 29.6599 9.29896 23.5682 10.9844 16.4391 C 9.15312 16.513 6.5651 16.6719 3.22031 16.9156 L 3.0375 12.0453 C 3.98958 12.0203 5.47865 11.9591 7.50469 11.8617 C 9.53073 11.7643 11.0198 11.7031 11.9719 11.6781 C 12.2656 10.0427 12.5708 7.71146 12.8875 4.68437 L 18.0156 5.0875 C 17.7958 7.28438 17.5026 9.43281 17.1359 11.5328 L 18.3813 11.4953 C 21.5552 11.4953 23.8195 12.2279 25.1742 13.693 C 26.5289 15.1581 27.2062 17.569 27.2062 20.9258 C 27.2062 24.2826 26.9016 27.7068 26.2922 31.1984 C 25.7297 34.0057 24.3625 35.7635 22.1906 36.4719 C 21.3115 36.7646 20.3224 36.9109 19.2234 36.9109 C 18.1245 36.9109 16.5255 36.7766 14.4266 36.5078 L 13.5109 31.0516 C 15.7328 31.5401 17.4174 31.7844 18.5648 31.7844 C 19.7122 31.7844 20.475 31.5341 20.8531 31.0336 C 21.2313 30.5331 21.5182 29.8432 21.7141 28.9641 C 22.2266 26.5714 22.4828 23.8005 22.4828 20.6516 C 22.4828 18.7953 22.1898 17.5865 21.6039 17.025 C 21.018 16.4635 19.7729 16.1828 17.8687 16.1828 C 17.1854 16.1828 16.624 16.1953 16.1844 16.2203 C 14.2312 24.6672 11.4969 31.576 7.98125 36.9469 Z M 26.2922 10.6531 L 29.8438 9.11563 C 30.2104 9.87187 30.6375 10.824 31.125 11.9719 L 32.6266 11.4219 C 33.7745 13.351 34.8367 15.5057 35.8133 17.8859 C 36.7898 20.2661 37.5099 22.4818 37.9734 24.5328 L 33.2125 26.4734 C 32.6021 23.6661 31.6318 20.7609 30.3016 17.7578 C 28.9714 14.7547 27.6349 12.3865 26.2922 10.6531 Z M 28.7078 5.27031 L 31.3453 4.39063 C 32.2734 5.80729 33.2375 7.66302 34.2375 9.95781 L 31.5656 10.9469 C 30.5396 8.50521 29.587 6.61302 28.7078 5.27031 Z M 32.9562 3.87812 L 35.5563 3 C 36.7042 4.80625 37.6807 6.64948 38.4859 8.52969 L 35.8125 9.48125 C 34.7875 7.06458 33.8354 5.19688 32.9562 3.87812 Z" /><path fill="#ffffff" d="M 3 34.7141 C 6.6375 29.6599 9.29896 23.5682 10.9844 16.4391 C 9.15312 16.513 6.5651 16.6719 3.22031 16.9156 L 3.0375 12.0453 C 3.98958 12.0203 5.47865 11.9591 7.50469 11.8617 C 9.53073 11.7643 11.0198 11.7031 11.9719 11.6781 C 12.2656 10.0427 12.5708 7.71146 12.8875 4.68437 L 18.0156 5.0875 C 17.7958 7.28438 17.5026 9.43281 17.1359 11.5328 L 18.3813 11.4953 C 21.5552 11.4953 23.8195 12.2279 25.1742 13.693 C 26.5289 15.1581 27.2062 17.569 27.2062 20.9258 C 27.2062 24.2826 26.9016 27.7068 26.2922 31.1984 C 25.7297 34.0057 24.3625 35.7635 22.1906 36.4719 C 21.3115 36.7646 20.3224 36.9109 19.2234 36.9109 C 18.1245 36.9109 16.5255 36.7766 14.4266 36.5078 L 13.5109 31.0516 C 15.7328 31.5401 17.4174 31.7844 18.5648 31.7844 C 19.7122 31.7844 20.475 31.5341 20.8531 31.0336 C 21.2313 30.5331 21.5182 29.8432 21.7141 28.9641 C 22.2266 26.5714 22.4828 23.8005 22.4828 20.6516 C 22.4828 18.7953 22.1898 17.5865 21.6039 17.025 C 21.018 16.4635 19.7729 16.1828 17.8687 16.1828 C 17.1854 16.1828 16.624 16.1953 16.1844 16.2203 C 14.2312 24.6672 11.4969 31.576 7.98125 36.9469 Z M 26.2922 10.6531 L 29.8438 9.11563 C 30.2104 9.87187 30.6375 10.824 31.125 11.9719 L 32.6266 11.4219 C 33.7745 13.351 34.8367 15.5057 35.8133 17.8859 C 36.7898 20.2661 37.5099 22.4818 37.9734 24.5328 L 33.2125 26.4734 C 32.6021 23.6661 31.6318 20.7609 30.3016 17.7578 C 28.9714 14.7547 27.6349 12.3865 26.2922 10.6531 Z M 28.7078 5.27031 L 31.3453 4.39063 C 32.2734 5.80729 33.2375 7.66302 34.2375 9.95781 L 31.5656 10.9469 C 30.5396 8.50521 29.587 6.61302 28.7078 5.27031 Z M 32.9562 3.87812 L 35.5563 3 C 36.7042 4.80625 37.6807 6.64948 38.4859 8.52969 L 35.8125 9.48125 C 34.7875 7.06458 33.8354 5.19688 32.9562 3.87812 Z" /></svg>