<?xml version="1.0" encoding="utf-8" standalone="no"?>
<!DOCTYPE svg PUBLIC "-//W3C//DTD SVG 1.1//EN"
"http://www.w3.org/Graphics/SVG/1.1/DTD/svg11.dtd">

<svg xmlns="http://www.w3.org/2000/svg" version="1.1" xmlns:xlink="http://www.w3.org/1999/xlink" width="212.38" height="32.0359" viewBox="0 0 212.38 32.0359"><path stroke="#ffffff" stroke-width="6" stroke-linejoin="round" fill="#ffffff" d="M 13.7906 7.04063 C 11.0573 7.04063 8.91537 7.84766 7.36484 9.46172 C 5.81432 11.0758 5.03906 13.2891 5.03906 16.1016 C 5.03906 18.9484 5.83177 21.1872 7.41719 22.818 C 9.0026 24.4487 11.1552 25.2641 13.875 25.2641 C 15.9052 25.2641 17.6573 24.9302 19.1313 24.2625 L 19.1313 16.1203 L 11.3187 16.1203 L 11.3187 14.4359 L 21.0844 14.4359 L 21.0844 25.3438 C 18.8854 26.4323 16.4542 26.9766 13.7906 26.9766 C 10.526 26.9766 7.91146 25.9896 5.94687 24.0156 C 3.98229 22.0417 3 19.4169 3 16.1414 C 3 12.8659 3.95964 10.2445 5.87891 8.27734 C 7.79818 6.31016 10.3979 5.32656 13.6781 5.32656 C 16.1729 5.32656 18.3974 5.94271 20.3516 7.175 L 19.6375 8.59062 C 17.7844 7.55729 15.8354 7.04063 13.7906 7.04063 Z" /><path stroke="#ffffff" stroke-width="6" stroke-linejoin="round" fill="#ffffff" d="M 25.5688 26.6953 L 25.5688 5.80156 C 27.275 5.4849 29.0016 5.32656 30.7484 5.32656 C 33.4203 5.32656 35.4401 5.82344 36.8078 6.81719 C 38.1755 7.81094 38.8594 9.23281 38.8594 11.0828 C 38.8594 14.1224 37.2708 15.9714 34.0938 16.6297 L 34.0938 16.3453 C 34.5219 16.5516 34.9443 16.9456 35.3609 17.5273 C 35.7776 18.1091 36.2667 19.0464 36.8281 20.3391 L 39.4234 26.6953 L 37.4281 26.6953 L 34.8984 20.7062 C 34.5849 19.9708 34.3221 19.4096 34.1102 19.0227 C 33.8982 18.6357 33.6826 18.3029 33.4633 18.0242 C 33.244 17.7456 32.9831 17.5599 32.6805 17.4672 C 32.3779 17.3745 32.0443 17.3055 31.6797 17.2602 C 31.3151 17.2148 30.788 17.1922 30.0984 17.1922 L 27.5797 17.1922 L 27.5797 26.6953 Z M 27.5797 15.5078 L 30.0984 15.5078 C 32.4651 15.5078 34.1865 15.1521 35.2625 14.4406 C 36.3385 13.7292 36.8766 12.638 36.8766 11.1672 C 36.8766 8.41615 34.8052 7.04063 30.6625 7.04063 C 29.4396 7.04063 28.412 7.11771 27.5797 7.27187 Z" /><path stroke="#ffffff" stroke-width="6" stroke-linejoin="round" fill="#ffffff" d="M 45.0797 7.32188 L 45.0797 14.4359 L 54.7516 14.4359 L 54.7516 16.1203 L 45.0797 16.1203 L 45.0797 24.9828 L 55.3156 24.9828 L 55.3156 26.6953 L 43.0687 26.6953 L 43.0687 5.60938 L 55.3156 5.60938 L 55.3156 7.32188 Z" /><path stroke="#ffffff" stroke-width="6" stroke-linejoin="round" fill="#ffffff" d="M 58.3594 26.6953 L 66.125 5.60938 L 68.2766 5.60938 L 76.0766 26.6953 L 74.0391 26.6953 L 71.6703 20.1812 L 62.7031 20.1812 L 60.3344 26.6953 Z M 63.2453 18.4969 L 71.1625 18.4969 L 67.0172 7.35 L 67.3844 7.35 Z" /><path stroke="#ffffff" stroke-width="6" stroke-linejoin="round" fill="#ffffff" d="M 78.7641 5.60938 L 94.225 5.60938 L 94.225 7.35 L 87.4859 7.35 L 87.4859 26.6953 L 85.475 26.6953 L 85.475 7.35 L 78.7641 7.35 Z" /><path stroke="#ffffff" stroke-width="6" stroke-linejoin="round" fill="#ffffff" d="M 113.356 23.2547 L 113.356 5.18594 L 115.309 5.18594 L 115.309 23.2547 Z M 120.294 4.05781 L 122.275 4.05781 L 122.275 25.2109 C 122.275 26.5984 122.093 27.5076 121.728 27.9383 C 121.364 28.369 120.563 28.5844 119.325 28.5844 C 118.447 28.5844 117.143 28.5318 115.414 28.4266 L 115.414 26.5469 C 117.102 26.7073 118.348 26.7875 119.155 26.7875 C 119.704 26.7875 120.031 26.7284 120.136 26.6102 C 120.241 26.4919 120.294 26.0161 120.294 25.1828 Z M 99.2516 5.17031 C 100.411 7.30156 101.534 9.69687 102.62 12.3562 L 100.945 12.9625 C 99.9297 10.6458 98.8214 8.30469 97.6203 5.93906 Z M 111.925 5.80156 C 111.101 8.2151 109.958 10.6115 108.495 12.9906 L 106.927 12.3 C 108.267 9.96979 109.361 7.58385 110.208 5.14219 Z M 112.208 20.0484 L 112.208 21.8172 L 105.75 21.8172 L 105.75 29.0359 L 103.797 29.0359 L 103.797 21.8172 L 97.1687 21.8172 L 97.1687 20.0484 L 103.797 20.0484 L 103.797 15.5281 L 97.9594 15.5281 L 97.9594 13.8156 L 103.797 13.8156 L 103.797 3.55 L 105.75 3.55 L 105.75 13.8156 L 111.447 13.8156 L 111.447 15.5281 L 105.75 15.5281 L 105.75 20.0484 Z" /><path stroke="#ffffff" stroke-width="6" stroke-linejoin="round" fill="#ffffff" d="M 139.992 3.01563 L 139.992 6.03281 L 150.766 6.03281 L 150.766 12.2563 L 148.811 12.2563 L 148.811 7.74531 L 129.164 7.74531 L 129.164 12.2563 L 127.209 12.2563 L 127.209 6.03281 L 137.983 6.03281 L 137.983 3.01563 Z M 151.583 26.5625 L 151.509 28.3031 L 149.478 28.3031 C 144.115 28.3031 140.061 27.8154 137.316 26.8398 C 134.572 25.8643 132.503 24.1427 131.108 21.675 C 130.298 24.2177 129.163 26.5776 127.7 28.7547 L 126.139 28.0281 C 128.436 24.3729 130.05 20.1755 130.981 15.4359 L 132.83 15.8484 C 132.574 17.2943 132.245 18.6375 131.842 19.8781 C 132.643 21.3208 133.581 22.4917 134.655 23.3906 C 135.729 24.2896 136.941 24.9375 138.292 25.3344 L 138.292 12.1719 L 130.002 12.1719 L 130.002 10.4594 L 147.973 10.4594 L 147.973 12.1719 L 140.303 12.1719 L 140.303 17.1719 L 149.073 17.1719 L 149.073 18.8563 L 140.303 18.8563 L 140.303 25.8578 C 142.458 26.3276 145.526 26.5625 149.506 26.5625 Z" /><path stroke="#ffffff" stroke-width="6" stroke-linejoin="round" fill="#ffffff" d="M 173.305 13.5266 L 173.305 18.75 L 178.034 18.75 L 178.034 13.5266 Z M 171.352 13.5266 L 166.592 13.5266 L 166.592 18.75 L 171.352 18.75 Z M 156.05 11.0234 L 161.65 11.0234 L 161.65 6.30625 L 155.475 6.30625 L 155.475 4.56562 L 163.603 4.56562 L 163.603 12.7359 L 157.884 12.7359 C 157.746 14.8141 157.622 16.3677 157.512 17.3969 L 163.631 17.3969 L 163.598 18.3766 C 163.505 19.9995 163.415 21.326 163.329 22.3563 C 163.243 23.3865 163.149 24.2823 163.047 25.0438 C 162.945 25.8052 162.838 26.3937 162.727 26.8094 C 162.616 27.225 162.449 27.5724 162.226 27.8516 C 162.002 28.1307 161.786 28.2992 161.577 28.357 C 161.367 28.4148 161.087 28.4437 160.738 28.4438 C 159.609 28.4437 157.958 28.3516 155.784 28.1672 L 155.817 26.3484 C 157.782 26.5849 159.262 26.7031 160.258 26.7031 C 160.459 26.7031 160.584 26.6849 160.634 26.6484 C 160.684 26.612 160.777 26.3419 160.912 25.8383 C 161.047 25.3346 161.161 24.5474 161.255 23.4766 C 161.35 22.4057 161.462 20.9406 161.594 19.0812 L 157.369 19.0812 C 157.29 19.8531 157.19 20.6052 157.069 21.3375 L 155.164 21.2 C 155.56 17.7594 155.855 14.3672 156.05 11.0234 Z M 175.722 21.8141 L 177.327 21.075 C 178.684 23.5313 179.919 25.9844 181.031 28.4344 L 179.337 29.0078 C 178.581 27.487 178.208 26.7255 178.219 26.7234 C 173.351 27.5682 168.529 28.076 163.752 28.2469 L 163.681 26.5484 C 165.946 26.4651 168.503 26.2734 171.352 25.9734 L 171.352 20.3781 L 166.592 20.3781 L 166.592 21.7891 L 164.639 21.7891 L 164.639 11.8984 L 171.352 11.8984 L 171.352 10.0016 C 169.241 10.1891 166.82 10.3109 164.089 10.3672 L 164.019 8.65469 C 164.461 8.65469 164.875 8.64557 165.259 8.62734 C 165.642 8.60911 165.867 8.59948 165.931 8.59844 C 166.998 6.96406 168.124 5.09792 169.309 3 L 171.105 3.56406 C 169.915 5.74948 168.881 7.37552 168.003 8.44219 C 171.052 8.34219 174.057 8.13854 177.019 7.83125 C 176.171 6.74687 175.325 5.59219 174.481 4.36719 L 176.006 3.47969 C 177.857 5.9474 179.523 8.40417 181.003 10.85 L 179.406 11.6078 C 178.938 10.9307 178.436 10.1885 177.902 9.38125 C 176.419 9.56563 174.887 9.72656 173.305 9.86406 L 173.305 11.8984 L 179.988 11.8984 L 179.988 20.3781 L 173.305 20.3781 L 173.305 25.6719 C 175.184 25.4823 176.591 25.3193 177.527 25.1828 C 177.452 25.1411 176.85 24.0182 175.722 21.8141 Z" /><path stroke="#ffffff" stroke-width="6" stroke-linejoin="round" fill="#ffffff" d="M 190.289 10.7875 L 190.289 29.0359 L 188.306 29.0359 L 188.306 13.3 C 187.427 15.4365 186.085 17.4104 184.281 19.2219 L 183.231 17.7781 C 186.886 13.8354 189.464 9.03125 190.964 3.36562 L 192.77 3.78281 C 192.194 6.31406 191.367 8.64896 190.289 10.7875 Z M 196.063 3.83281 L 198.072 3.83281 L 198.072 13.7437 C 201.144 12.3021 204.467 10.0557 208.042 7.00469 L 209.155 8.35156 C 205.434 11.6224 201.74 14.0552 198.072 15.65 L 198.072 24.2516 C 198.072 25.4547 198.123 26.1443 198.226 26.3203 C 198.328 26.4964 198.72 26.6182 199.402 26.6859 C 200.083 26.7536 200.959 26.7875 202.03 26.7875 C 203.068 26.7875 203.979 26.751 204.762 26.6781 C 205.901 26.5594 206.588 26.2005 206.823 25.6016 C 207.058 25.0026 207.272 22.7797 207.466 18.9328 L 209.38 19.1734 C 209.32 20.4849 209.271 21.4547 209.233 22.0828 C 209.194 22.7109 209.138 23.3815 209.063 24.0945 C 208.989 24.8076 208.921 25.324 208.861 25.6438 C 208.801 25.9635 208.684 26.3279 208.51 26.7367 C 208.337 27.1456 208.163 27.4138 207.99 27.5414 C 207.816 27.669 207.57 27.8128 207.25 27.9727 C 206.93 28.1326 206.624 28.2276 206.333 28.2578 C 206.041 28.288 205.665 28.3297 205.205 28.3828 C 204.041 28.4797 202.992 28.5281 202.058 28.5281 C 201.062 28.5281 200.029 28.4812 198.958 28.3875 C 197.658 28.2865 196.85 28.0023 196.535 27.5352 C 196.22 27.068 196.063 26.0115 196.063 24.3656 Z" /><path fill="#000000" d="M 13.7906 7.04063 C 11.0573 7.04063 8.91537 7.84766 7.36484 9.46172 C 5.81432 11.0758 5.03906 13.2891 5.03906 16.1016 C 5.03906 18.9484 5.83177 21.1872 7.41719 22.818 C 9.0026 24.4487 11.1552 25.2641 13.875 25.2641 C 15.9052 25.2641 17.6573 24.9302 19.1313 24.2625 L 19.1313 16.1203 L 11.3187 16.1203 L 11.3187 14.4359 L 21.0844 14.4359 L 21.0844 25.3438 C 18.8854 26.4323 16.4542 26.9766 13.7906 26.9766 C 10.526 26.9766 7.91146 25.9896 5.94687 24.0156 C 3.98229 22.0417 3 19.4169 3 16.1414 C 3 12.8659 3.95964 10.2445 5.87891 8.27734 C 7.79818 6.31016 10.3979 5.32656 13.6781 5.32656 C 16.1729 5.32656 18.3974 5.94271 20.3516 7.175 L 19.6375 8.59062 C 17.7844 7.55729 15.8354 7.04063 13.7906 7.04063 Z" /><path fill="#000000" d="M 25.5688 26.6953 L 25.5688 5.80156 C 27.275 5.4849 29.0016 5.32656 30.7484 5.32656 C 33.4203 5.32656 35.4401 5.82344 36.8078 6.81719 C 38.1755 7.81094 38.8594 9.23281 38.8594 11.0828 C 38.8594 14.1224 37.2708 15.9714 34.0938 16.6297 L 34.0938 16.3453 C 34.5219 16.5516 34.9443 16.9456 35.3609 17.5273 C 35.7776 18.1091 36.2667 19.0464 36.8281 20.3391 L 39.4234 26.6953 L 37.4281 26.6953 L 34.8984 20.7062 C 34.5849 19.9708 34.3221 19.4096 34.1102 19.0227 C 33.8982 18.6357 33.6826 18.3029 33.4633 18.0242 C 33.244 17.7456 32.9831 17.5599 32.6805 17.4672 C 32.3779 17.3745 32.0443 17.3055 31.6797 17.2602 C 31.3151 17.2148 30.788 17.1922 30.0984 17.1922 L 27.5797 17.1922 L 27.5797 26.6953 Z M 27.5797 15.5078 L 30.0984 15.5078 C 32.4651 15.5078 34.1865 15.1521 35.2625 14.4406 C 36.3385 13.7292 36.8766 12.638 36.8766 11.1672 C 36.8766 8.41615 34.8052 7.04063 30.6625 7.04063 C 29.4396 7.04063 28.412 7.11771 27.5797 7.27187 Z" /><path fill="#000000" d="M 45.0797 7.32188 L 45.0797 14.4359 L 54.7516 14.4359 L 54.7516 16.1203 L 45.0797 16.1203 L 45.0797 24.9828 L 55.3156 24.9828 L 55.3156 26.6953 L 43.0687 26.6953 L 43.0687 5.60938 L 55.3156 5.60938 L 55.3156 7.32188 Z" /><path fill="#000000" d="M 58.3594 26.6953 L 66.125 5.60938 L 68.2766 5.60938 L 76.0766 26.6953 L 74.0391 26.6953 L 71.6703 20.1812 L 62.7031 20.1812 L 60.3344 26.6953 Z M 63.2453 18.4969 L 71.1625 18.4969 L 67.0172 7.35 L 67.3844 7.35 Z" /><path fill="#000000" d="M 78.7641 5.60938 L 94.225 5.60938 L 94.225 7.35 L 87.4859 7.35 L 87.4859 26.6953 L 85.475 26.6953 L 85.475 7.35 L 78.7641 7.35 Z" /><path fill="#000000" d="M 113.356 23.2547 L 113.356 5.18594 L 115.309 5.18594 L 115.309 23.2547 Z M 120.294 4.05781 L 122.275 4.05781 L 122.275 25.2109 C 122.275 26.5984 122.093 27.5076 121.728 27.9383 C 121.364 28.369 120.563 28.5844 119.325 28.5844 C 118.447 28.5844 117.143 28.5318 115.414 28.4266 L 115.414 26.5469 C 117.102 26.7073 118.348 26.7875 119.155 26.7875 C 119.704 26.7875 120.031 26.7284 120.136 26.6102 C 120.241 26.4919 120.294 26.0161 120.294 25.1828 Z M 99.2516 5.17031 C 100.411 7.30156 101.534 9.69687 102.62 12.3562 L 100.945 12.9625 C 99.9297 10.6458 98.8214 8.30469 97.6203 5.93906 Z M 111.925 5.80156 C 111.101 8.2151 109.958 10.6115 108.495 12.9906 L 106.927 12.3 C 108.267 9.96979 109.361 7.58385 110.208 5.14219 Z M 112.208 20.0484 L 112.208 21.8172 L 105.75 21.8172 L 105.75 29.0359 L 103.797 29.0359 L 103.797 21.8172 L 97.1687 21.8172 L 97.1687 20.0484 L 103.797 20.0484 L 103.797 15.5281 L 97.9594 15.5281 L 97.9594 13.8156 L 103.797 13.8156 L 103.797 3.55 L 105.75 3.55 L 105.75 13.8156 L 111.447 13.8156 L 111.447 15.5281 L 105.75 15.5281 L 105.75 20.0484 Z" /><path fill="#000000" d="M 139.992 3.01563 L 139.992 6.03281 L 150.766 6.03281 L 150.766 12.2563 L 148.811 12.2563 L 148.811 7.74531 L 129.164 7.74531 L 129.164 12.2563 L 127.209 12.2563 L 127.209 6.03281 L 137.983 6.03281 L 137.983 3.01563 Z M 151.583 26.5625 L 151.509 28.3031 L 149.478 28.3031 C 144.115 28.3031 140.061 27.8154 137.316 26.8398 C 134.572 25.8643 132.503 24.1427 131.108 21.675 C 130.298 24.2177 129.163 26.5776 127.7 28.7547 L 126.139 28.0281 C 128.436 24.3729 130.05 20.1755 130.981 15.4359 L 132.83 15.8484 C 132.574 17.2943 132.245 18.6375 131.842 19.8781 C 132.643 21.3208 133.581 22.4917 134.655 23.3906 C 135.729 24.2896 136.941 24.9375 138.292 25.3344 L 138.292 12.1719 L 130.002 12.1719 L 130.002 10.4594 L 147.973 10.4594 L 147.973 12.1719 L 140.303 12.1719 L 140.303 17.1719 L 149.073 17.1719 L 149.073 18.8563 L 140.303 18.8563 L 140.303 25.8578 C 142.458 26.3276 145.526 26.5625 149.506 26.5625 Z" /><path fill="#000000" d="M 173.305 13.5266 L 173.305 18.75 L 178.034 18.75 L 178.034 13.5266 Z M 171.352 13.5266 L 166.592 13.5266 L 166.592 18.75 L 171.352 18.75 Z M 156.05 11.0234 L 161.65 11.0234 L 161.65 6.30625 L 155.475 6.30625 L 155.475 4.56562 L 163.603 4.56562 L 163.603 12.7359 L 157.884 12.7359 C 157.746 14.8141 157.622 16.3677 157.512 17.3969 L 163.631 17.3969 L 163.598 18.3766 C 163.505 19.9995 163.415 21.326 163.329 22.3563 C 163.243 23.3865 163.149 24.2823 163.047 25.0438 C 162.945 25.8052 162.838 26.3937 162.727 26.8094 C 162.616 27.225 162.449 27.5724 162.226 27.8516 C 162.002 28.1307 161.786 28.2992 161.577 28.357 C 161.367 28.4148 161.087 28.4437 160.738 28.4438 C 159.609 28.4437 157.958 28.3516 155.784 28.1672 L 155.817 26.3484 C 157.782 26.5849 159.262 26.7031 160.258 26.7031 C 160.459 26.7031 160.584 26.6849 160.634 26.6484 C 160.684 26.612 160.777 26.3419 160.912 25.8383 C 161.047 25.3346 161.161 24.5474 161.255 23.4766 C 161.35 22.4057 161.462 20.9406 161.594 19.0812 L 157.369 19.0812 C 157.29 19.8531 157.19 20.6052 157.069 21.3375 L 155.164 21.2 C 155.56 17.7594 155.855 14.3672 156.05 11.0234 Z M 175.722 21.8141 L 177.327 21.075 C 178.684 23.5313 179.919 25.9844 181.031 28.4344 L 179.337 29.0078 C 178.581 27.487 178.208 26.7255 178.219 26.7234 C 173.351 27.5682 168.529 28.076 163.752 28.2469 L 163.681 26.5484 C 165.946 26.4651 168.503 26.2734 171.352 25.9734 L 171.352 20.3781 L 166.592 20.3781 L 166.592 21.7891 L 164.639 21.7891 L 164.639 11.8984 L 171.352 11.8984 L 171.352 10.0016 C 169.241 10.1891 166.82 10.3109 164.089 10.3672 L 164.019 8.65469 C 164.461 8.65469 164.875 8.64557 165.259 8.62734 C 165.642 8.60911 165.867 8.59948 165.931 8.59844 C 166.998 6.96406 168.124 5.09792 169.309 3 L 171.105 3.56406 C 169.915 5.74948 168.881 7.37552 168.003 8.44219 C 171.052 8.34219 174.057 8.13854 177.019 7.83125 C 176.171 6.74687 175.325 5.59219 174.481 4.36719 L 176.006 3.47969 C 177.857 5.9474 179.523 8.40417 181.003 10.85 L 179.406 11.6078 C 178.938 10.9307 178.436 10.1885 177.902 9.38125 C 176.419 9.56563 174.887 9.72656 173.305 9.86406 L 173.305 11.8984 L 179.988 11.8984 L 179.988 20.3781 L 173.305 20.3781 L 173.305 25.6719 C 175.184 25.4823 176.591 25.3193 177.527 25.1828 C 177.452 25.1411 176.85 24.0182 175.722 21.8141 Z" /><path fill="#000000" d="M 190.289 10.7875 L 190.289 29.0359 L 188.306 29.0359 L 188.306 13.3 C 187.427 15.4365 186.085 17.4104 184.281 19.2219 L 183.231 17.7781 C 186.886 13.8354 189.464 9.03125 190.964 3.36562 L 192.77 3.78281 C 192.194 6.31406 191.367 8.64896 190.289 10.7875 Z M 196.063 3.83281 L 198.072 3.83281 L 198.072 13.7437 C 201.144 12.3021 204.467 10.0557 208.042 7.00469 L 209.155 8.35156 C 205.434 11.6224 201.74 14.0552 198.072 15.65 L 198.072 24.2516 C 198.072 25.4547 198.123 26.1443 198.226 26.3203 C 198.328 26.4964 198.72 26.6182 199.402 26.6859 C 200.083 26.7536 200.959 26.7875 202.03 26.7875 C 203.068 26.7875 203.979 26.751 204.762 26.6781 C 205.901 26.5594 206.588 26.2005 206.823 25.6016 C 207.058 25.0026 207.272 22.7797 207.466 18.9328 L 209.38 19.1734 C 209.32 20.4849 209.271 21.4547 209.233 22.0828 C 209.194 22.7109 209.138 23.3815 209.063 24.0945 C 208.989 24.8076 208.921 25.324 208.861 25.6438 C 208.801 25.9635 208.684 26.3279 208.51 26.7367 C 208.337 27.1456 208.163 27.4138 207.99 27.5414 C 207.816 27.669 207.57 27.8128 207.25 27.9727 C 206.93 28.1326 206.624 28.2276 206.333 28.2578 C 206.041 28.288 205.665 28.3297 205.205 28.3828 C 204.041 28.4797 202.992 28.5281 202.058 28.5281 C 201.062 28.5281 200.029 28.4812 198.958 28.3875 C 197.658 28.2865 196.85 28.0023 196.535 27.5352 C 196.22 27.068 196.063 26.0115 196.063 24.3656 Z" /></svg>