<?xml version="1.0" encoding="utf-8" standalone="no"?>
<!DOCTYPE svg PUBLIC "-//W3C//DTD SVG 1.1//EN"
"http://www.w3.org/Graphics/SVG/1.1/DTD/svg11.dtd">

<svg xmlns="http://www.w3.org/2000/svg" version="1.1" xmlns:xlink="http://www.w3.org/1999/xlink" width="39.7641" height="39.2891" viewBox="0 0 39.7641 39.2891"><path stroke="#1987e5" stroke-width="6" stroke-linejoin="round" fill="#1987e5" d="M 3 28.7078 C 6.27188 23.4828 8.57917 18.1484 9.92188 12.7047 L 4.09844 12.8516 L 4.09844 8.2 L 10.8734 8.05313 C 11.0932 6.58854 11.2885 4.90417 11.4594 3 L 16.4031 3.07344 C 16.3052 4.51406 16.1344 6.1375 15.8906 7.94375 L 21.0906 7.83438 L 21.0906 12.4844 L 15.0484 12.5938 C 13.6807 18.625 11.3125 24.6922 7.94375 30.7953 Z M 14.8641 34.4391 C 13.3266 33.2057 12.5578 31.576 12.5578 29.55 C 12.5578 27.524 13.3695 25.8823 14.993 24.625 C 16.6164 23.3677 18.7589 22.7391 21.4203 22.7391 C 22.2745 22.7391 23.2755 22.849 24.4234 23.0688 L 24.0578 8.23594 L 36.2516 8.23594 L 36.2516 12.7406 L 29.0016 12.7406 C 29.1474 18.7219 29.2328 22.7505 29.2578 24.8266 C 31.1859 25.8516 33.688 27.6823 36.7641 30.3188 L 33.9453 34.4938 C 32.2849 32.9313 30.6125 31.5641 28.9281 30.3922 C 28 34.3234 25.3266 36.2891 20.9078 36.2891 C 18.4172 36.2891 16.4026 35.6724 14.8641 34.4391 Z M 18.3078 27.7188 C 17.6484 28.1823 17.3188 28.7742 17.3188 29.4945 C 17.3188 30.2148 17.618 30.7703 18.2164 31.1609 C 18.8148 31.5516 19.6815 31.7469 20.8164 31.7469 C 21.9513 31.7469 22.8057 31.4539 23.3797 30.868 C 23.9536 30.282 24.3016 29.2688 24.4234 27.8281 C 23.0807 27.2917 21.8906 27.0234 20.8531 27.0234 C 19.8156 27.0234 18.9672 27.2552 18.3078 27.7188 Z" /><path fill="#ffffff" d="M 3 28.7078 C 6.27188 23.4828 8.57917 18.1484 9.92188 12.7047 L 4.09844 12.8516 L 4.09844 8.2 L 10.8734 8.05313 C 11.0932 6.58854 11.2885 4.90417 11.4594 3 L 16.4031 3.07344 C 16.3052 4.51406 16.1344 6.1375 15.8906 7.94375 L 21.0906 7.83438 L 21.0906 12.4844 L 15.0484 12.5938 C 13.6807 18.625 11.3125 24.6922 7.94375 30.7953 Z M 14.8641 34.4391 C 13.3266 33.2057 12.5578 31.576 12.5578 29.55 C 12.5578 27.524 13.3695 25.8823 14.993 24.625 C 16.6164 23.3677 18.7589 22.7391 21.4203 22.7391 C 22.2745 22.7391 23.2755 22.849 24.4234 23.0688 L 24.0578 8.23594 L 36.2516 8.23594 L 36.2516 12.7406 L 29.0016 12.7406 C 29.1474 18.7219 29.2328 22.7505 29.2578 24.8266 C 31.1859 25.8516 33.688 27.6823 36.7641 30.3188 L 33.9453 34.4938 C 32.2849 32.9313 30.6125 31.5641 28.9281 30.3922 C 28 34.3234 25.3266 36.2891 20.9078 36.2891 C 18.4172 36.2891 16.4026 35.6724 14.8641 34.4391 Z M 18.3078 27.7188 C 17.6484 28.1823 17.3188 28.7742 17.3188 29.4945 C 17.3188 30.2148 17.618 30.7703 18.2164 31.1609 C 18.8148 31.5516 19.6815 31.7469 20.8164 31.7469 C 21.9513 31.7469 22.8057 31.4539 23.3797 30.868 C 23.9536 30.282 24.3016 29.2688 24.4234 27.8281 C 23.0807 27.2917 21.8906 27.0234 20.8531 27.0234 C 19.8156 27.0234 18.9672 27.2552 18.3078 27.7188 Z" /></svg>