<?xml version="1.0" encoding="utf-8" standalone="no"?>
<!DOCTYPE svg PUBLIC "-//W3C//DTD SVG 1.1//EN"
"http://www.w3.org/Graphics/SVG/1.1/DTD/svg11.dtd">

<svg xmlns="http://www.w3.org/2000/svg" version="1.1" xmlns:xlink="http://www.w3.org/1999/xlink" width="38.2641" height="37.7141" viewBox="0 0 38.2641 37.7141"><path stroke="#1987e5" stroke-width="6" stroke-linejoin="round" fill="#1987e5" d="M 4.575 34.7141 C 3.525 31.2474 3 26.8042 3 21.3844 C 3 15.9646 3.62292 9.83646 4.86875 3 L 9.88437 3.22031 C 8.56667 9.22552 7.90781 14.926 7.90781 20.3219 C 7.90781 25.7177 8.50573 30.3318 9.70156 34.1641 L 4.575 34.7141 Z M 13.9125 32.8109 C 12.4969 31.663 11.7891 30.1063 11.7891 28.1406 C 11.7891 26.175 12.5581 24.594 14.0961 23.3977 C 15.6341 22.2013 17.6974 21.6031 20.2859 21.6031 C 21.4089 21.6031 22.4828 21.713 23.5078 21.9328 L 23.5078 17.8312 L 12.3016 17.8312 L 12.3016 13.2547 L 23.5078 13.2547 L 23.5078 8.82344 L 12.9984 8.82344 L 12.9984 4.20781 L 33.9813 4.20781 L 33.9813 8.82344 L 28.2328 8.82344 L 28.2328 13.2547 L 34.3109 13.2547 L 34.3109 17.8312 L 28.2328 17.8312 L 28.2328 23.7281 C 30.3318 24.9 32.6755 26.6333 35.2641 28.9281 L 32.2969 33.2125 C 30.7104 31.601 29.2089 30.2703 27.7922 29.2203 C 27.2557 30.8807 26.2734 32.181 24.8453 33.1211 C 23.4172 34.0612 21.5922 34.5313 19.3703 34.5313 C 17.1484 34.5313 15.3292 33.9578 13.9125 32.8109 Z M 16.4406 28.0484 C 16.4406 29.3911 17.5635 30.0625 19.8094 30.0625 C 21.0302 30.0625 21.9091 29.8185 22.4461 29.3305 C 22.9831 28.8424 23.3125 27.9635 23.4344 26.6938 C 21.9948 26.1083 20.7622 25.8156 19.7367 25.8156 C 18.7112 25.8156 17.9055 26.0229 17.3195 26.4375 C 16.7336 26.8521 16.4406 27.3891 16.4406 28.0484 Z" /><path fill="#ffffff" d="M 4.575 34.7141 C 3.525 31.2474 3 26.8042 3 21.3844 C 3 15.9646 3.62292 9.83646 4.86875 3 L 9.88437 3.22031 C 8.56667 9.22552 7.90781 14.926 7.90781 20.3219 C 7.90781 25.7177 8.50573 30.3318 9.70156 34.1641 L 4.575 34.7141 Z M 13.9125 32.8109 C 12.4969 31.663 11.7891 30.1063 11.7891 28.1406 C 11.7891 26.175 12.5581 24.594 14.0961 23.3977 C 15.6341 22.2013 17.6974 21.6031 20.2859 21.6031 C 21.4089 21.6031 22.4828 21.713 23.5078 21.9328 L 23.5078 17.8312 L 12.3016 17.8312 L 12.3016 13.2547 L 23.5078 13.2547 L 23.5078 8.82344 L 12.9984 8.82344 L 12.9984 4.20781 L 33.9813 4.20781 L 33.9813 8.82344 L 28.2328 8.82344 L 28.2328 13.2547 L 34.3109 13.2547 L 34.3109 17.8312 L 28.2328 17.8312 L 28.2328 23.7281 C 30.3318 24.9 32.6755 26.6333 35.2641 28.9281 L 32.2969 33.2125 C 30.7104 31.601 29.2089 30.2703 27.7922 29.2203 C 27.2557 30.8807 26.2734 32.181 24.8453 33.1211 C 23.4172 34.0612 21.5922 34.5313 19.3703 34.5313 C 17.1484 34.5313 15.3292 33.9578 13.9125 32.8109 Z M 16.4406 28.0484 C 16.4406 29.3911 17.5635 30.0625 19.8094 30.0625 C 21.0302 30.0625 21.9091 29.8185 22.4461 29.3305 C 22.9831 28.8424 23.3125 27.9635 23.4344 26.6938 C 21.9948 26.1083 20.7622 25.8156 19.7367 25.8156 C 18.7112 25.8156 17.9055 26.0229 17.3195 26.4375 C 16.7336 26.8521 16.4406 27.3891 16.4406 28.0484 Z" /></svg>