<?xml version="1.0" encoding="utf-8" standalone="no"?>
<!DOCTYPE svg PUBLIC "-//W3C//DTD SVG 1.1//EN"
"http://www.w3.org/Graphics/SVG/1.1/DTD/svg11.dtd">

<svg xmlns="http://www.w3.org/2000/svg" version="1.1" xmlns:xlink="http://www.w3.org/1999/xlink" width="29.4016" height="33.2828" viewBox="0 0 29.4016 33.2828"><path stroke="#1987e5" stroke-width="6" stroke-linejoin="round" fill="#1987e5" d="M 3 13.1062 C 4.85521 12.4479 7.18672 11.8562 9.99453 11.3312 C 12.8023 10.8062 15.0609 10.5437 16.7703 10.5437 C 19.7724 10.5437 22.1281 11.2701 23.8375 12.7227 C 25.5469 14.1753 26.4016 16.1708 26.4016 18.7094 C 26.4016 21.9323 24.9367 24.5693 22.007 26.6203 C 19.0773 28.6714 15.0609 29.8922 9.95781 30.2828 L 7.65156 25.6672 C 11.9234 25.5703 15.3289 24.881 17.868 23.5992 C 20.407 22.3174 21.6766 20.6391 21.6766 18.5641 C 21.6766 17.3672 21.2859 16.488 20.5047 15.9266 C 19.7234 15.3651 18.5089 15.0844 16.8609 15.0844 C 15.213 15.0844 13.2357 15.3346 10.9289 15.8352 C 8.62214 16.3357 6.46771 16.9646 4.46563 17.7219 Z M 7.39531 7.65 L 7.76094 3 C 11.2526 3.68333 15.2198 4.025 19.6625 4.025 C 21.1521 4.025 22.275 4.00052 23.0313 3.95156 L 22.7031 8.675 C 22.2146 8.7 21.4818 8.7125 20.5047 8.7125 C 15.5974 8.7125 11.2276 8.35833 7.39531 7.65 Z" /><path fill="#ffffff" d="M 3 13.1062 C 4.85521 12.4479 7.18672 11.8562 9.99453 11.3312 C 12.8023 10.8062 15.0609 10.5437 16.7703 10.5437 C 19.7724 10.5437 22.1281 11.2701 23.8375 12.7227 C 25.5469 14.1753 26.4016 16.1708 26.4016 18.7094 C 26.4016 21.9323 24.9367 24.5693 22.007 26.6203 C 19.0773 28.6714 15.0609 29.8922 9.95781 30.2828 L 7.65156 25.6672 C 11.9234 25.5703 15.3289 24.881 17.868 23.5992 C 20.407 22.3174 21.6766 20.6391 21.6766 18.5641 C 21.6766 17.3672 21.2859 16.488 20.5047 15.9266 C 19.7234 15.3651 18.5089 15.0844 16.8609 15.0844 C 15.213 15.0844 13.2357 15.3346 10.9289 15.8352 C 8.62214 16.3357 6.46771 16.9646 4.46563 17.7219 Z M 7.39531 7.65 L 7.76094 3 C 11.2526 3.68333 15.2198 4.025 19.6625 4.025 C 21.1521 4.025 22.275 4.00052 23.0313 3.95156 L 22.7031 8.675 C 22.2146 8.7 21.4818 8.7125 20.5047 8.7125 C 15.5974 8.7125 11.2276 8.35833 7.39531 7.65 Z" /></svg>