<?xml version="1.0" encoding="utf-8" standalone="no"?>
<!DOCTYPE svg PUBLIC "-//W3C//DTD SVG 1.1//EN"
"http://www.w3.org/Graphics/SVG/1.1/DTD/svg11.dtd">

<svg xmlns="http://www.w3.org/2000/svg" version="1.1" xmlns:xlink="http://www.w3.org/1999/xlink" width="33.2453" height="28.5953" viewBox="0 0 33.2453 28.5953"><path stroke="#1987e5" stroke-width="6" stroke-linejoin="round" fill="#1987e5" d="M 3 5.34375 C 5.95417 4.68437 9.07292 4.12891 12.3563 3.67734 C 15.6396 3.22578 18.087 3 19.6984 3 C 23.0432 3 25.6372 3.85443 27.4805 5.56328 C 29.3237 7.27213 30.2453 9.70156 30.2453 12.8516 C 30.2453 16.9776 28.5242 20.1331 25.082 22.318 C 21.6398 24.5029 16.6839 25.5953 10.2141 25.5953 L 8.30938 20.6891 C 8.84688 20.737 9.62813 20.7609 10.6531 20.7609 C 15.2917 20.7609 18.8805 20.0591 21.4195 18.6555 C 23.9586 17.2518 25.2281 15.2563 25.2281 12.6687 C 25.2281 9.29896 23.3115 7.61406 19.4781 7.61406 C 16.2563 7.61406 11.1417 8.50521 4.13438 10.2875 Z" /><path fill="#ffffff" d="M 3 5.34375 C 5.95417 4.68437 9.07292 4.12891 12.3563 3.67734 C 15.6396 3.22578 18.087 3 19.6984 3 C 23.0432 3 25.6372 3.85443 27.4805 5.56328 C 29.3237 7.27213 30.2453 9.70156 30.2453 12.8516 C 30.2453 16.9776 28.5242 20.1331 25.082 22.318 C 21.6398 24.5029 16.6839 25.5953 10.2141 25.5953 L 8.30938 20.6891 C 8.84688 20.737 9.62813 20.7609 10.6531 20.7609 C 15.2917 20.7609 18.8805 20.0591 21.4195 18.6555 C 23.9586 17.2518 25.2281 15.2563 25.2281 12.6687 C 25.2281 9.29896 23.3115 7.61406 19.4781 7.61406 C 16.2563 7.61406 11.1417 8.50521 4.13438 10.2875 Z" /></svg>